<?xml version="1.0" encoding="UTF-8"?>
<!DOCTYPE svg PUBLIC "-//W3C//DTD SVG 1.1//EN" "http://www.w3.org/Graphics/SVG/1.1/DTD/svg11.dtd">
<svg xmlns="http://www.w3.org/2000/svg" version="1.1" width="220px" height="150px" style="shape-rendering:geometricPrecision; text-rendering:geometricPrecision; image-rendering:optimizeQuality; fill-rule:evenodd; clip-rule:evenodd" xmlns:xlink="http://www.w3.org/1999/xlink">
<g><path style="opacity:0.071" fill="#ecf9ed" d="M 30.5,54.5 C 29.8333,53.5 29.1667,52.5 28.5,51.5C 28.1667,51.5 27.8333,51.5 27.5,51.5C 26.4324,50.5655 25.099,50.2322 23.5,50.5C 23.1667,49.1667 22.8333,49.1667 22.5,50.5C 21.1667,50.5 19.8333,50.5 18.5,50.5C 19.4961,49.3349 20.8295,48.6682 22.5,48.5C 24.0598,49.6071 25.5598,49.6071 27,48.5C 29.9088,49.4285 31.0755,51.4285 30.5,54.5 Z"/></g>
<g><path style="opacity:1" fill="#609c5d" d="M 27.5,51.5 C 27.8333,51.5 28.1667,51.5 28.5,51.5C 27.9898,54.3878 28.6565,56.7211 30.5,58.5C 28.2574,59.1324 26.5907,60.4658 25.5,62.5C 24.3709,60.3718 24.2042,58.0385 25,55.5C 25.1216,53.563 25.955,52.2297 27.5,51.5 Z"/></g>
<g><path style="opacity:0.051" fill="#c8efca" d="M 18.5,50.5 C 18.3367,52.8568 18.5034,55.1902 19,57.5C 22.1103,56.3266 22.277,56.8266 19.5,59C 20.056,59.3826 20.3893,59.8826 20.5,60.5C 20.1667,60.5 19.8333,60.5 19.5,60.5C 17.6675,59.7515 16.0009,58.7515 14.5,57.5C 14.2648,56.9033 13.7648,56.5699 13,56.5C 11.6974,56.9783 10.5307,57.645 9.5,58.5C 9.41423,57.5041 9.74756,56.6708 10.5,56C 12.4406,55.2571 14.2739,55.4238 16,56.5C 17.0192,54.4982 17.8525,52.4982 18.5,50.5 Z"/></g>
<g><path style="opacity:1" fill="#6aa268" d="M 18.5,50.5 C 19.8333,50.5 21.1667,50.5 22.5,50.5C 23.1125,54.163 23.2792,57.8297 23,61.5C 22.3292,60.7476 21.4959,60.4142 20.5,60.5C 20.3893,59.8826 20.056,59.3826 19.5,59C 22.277,56.8266 22.1103,56.3266 19,57.5C 18.5034,55.1902 18.3367,52.8568 18.5,50.5 Z"/></g>
<g><path style="opacity:0.141" fill="#e7fde6" d="M 28.5,51.5 C 29.1667,52.5 29.8333,53.5 30.5,54.5C 35.0564,52.4071 38.0564,53.7404 39.5,58.5C 38.609,57.8902 37.609,57.5569 36.5,57.5C 36.2172,56.7109 35.7172,56.0442 35,55.5C 33.1222,56.0527 31.6222,57.0527 30.5,58.5C 28.6565,56.7211 27.9898,54.3878 28.5,51.5 Z"/></g>
<g><path style="opacity:0.988" fill="#629a60" d="M 36.5,57.5 C 37.1098,58.391 37.4431,59.391 37.5,60.5C 36.8333,60.1667 36.1667,59.8333 35.5,59.5C 34.3226,57.2157 32.6559,56.8823 30.5,58.5C 31.6222,57.0527 33.1222,56.0527 35,55.5C 35.7172,56.0442 36.2172,56.7109 36.5,57.5 Z"/></g>
<g><path style="opacity:0.024" fill="#f4faf2" d="M 61.5,59.5 C 56.6367,59.1805 51.97,59.5139 47.5,60.5C 46.8902,61.391 46.5569,62.391 46.5,63.5C 45.5093,69.979 45.176,76.6457 45.5,83.5C 44.8008,76.6297 44.1341,69.6297 43.5,62.5C 45.2655,58.3653 48.4322,56.6987 53,57.5C 56.1498,57.3603 58.9831,58.027 61.5,59.5 Z"/></g>
<g><path style="opacity:0.839" fill="#6d7f67" d="M 47.5,60.5 C 51.97,59.5139 56.6367,59.1805 61.5,59.5C 61.8333,59.5 62.1667,59.5 62.5,59.5C 62.5,61.8333 62.5,64.1667 62.5,66.5C 62.1667,66.5 61.8333,66.5 61.5,66.5C 58.1667,66.5 54.8333,66.5 51.5,66.5C 51.5,66.1667 51.5,65.8333 51.5,65.5C 55.0419,65.8128 58.3752,65.4794 61.5,64.5C 61.5,63.1667 61.5,61.8333 61.5,60.5C 56.8333,60.5 52.1667,60.5 47.5,60.5 Z"/></g>
<g><path style="opacity:0.192" fill="#ddf6d9" d="M 175.5,66.5 C 175.5,66.8333 175.5,67.1667 175.5,67.5C 175.5,68.1667 175.167,68.5 174.5,68.5C 172.917,66.4922 171.917,64.1589 171.5,61.5C 170.081,60.5489 168.415,60.2155 166.5,60.5C 166.122,62.921 165.455,65.2543 164.5,67.5C 163.833,67.5 163.167,67.5 162.5,67.5C 163.249,63.2107 165.583,60.2107 169.5,58.5C 170.748,59.0402 171.915,59.7069 173,60.5C 173.002,63.0512 173.836,65.0512 175.5,66.5 Z"/></g>
<g><path style="opacity:0.106" fill="#ddfadc" d="M 211.5,86.5 C 211.826,77.9832 211.493,69.6499 210.5,61.5C 209.081,60.5489 207.415,60.2155 205.5,60.5C 205.5,61.5 205.5,62.5 205.5,63.5C 205.5,64.5 205.5,65.5 205.5,66.5C 204.167,66.5 202.833,66.5 201.5,66.5C 202.551,65.7777 203.218,64.7777 203.5,63.5C 203.33,62.1779 203.663,61.0113 204.5,60C 207.301,58.3785 209.801,58.5452 212,60.5C 212.824,69.3433 212.657,78.0099 211.5,86.5 Z"/></g>
<g><path style="opacity:0.767" fill="#ace7ab" d="M 22.5,50.5 C 22.8333,50.5 23.1667,50.5 23.5,50.5C 25.099,50.2322 26.4324,50.5655 27.5,51.5C 25.955,52.2297 25.1216,53.563 25,55.5C 24.2042,58.0385 24.3709,60.3718 25.5,62.5C 26.5511,63.2223 27.2178,64.2223 27.5,65.5C 25.8599,66.3201 24.1932,67.1534 22.5,68C 25.4591,69.0457 26.1258,70.8791 24.5,73.5C 23.8333,73.5 23.5,73.1667 23.5,72.5C 22.925,70.5887 21.925,68.922 20.5,67.5C 21.8799,67.0377 22.5466,66.0377 22.5,64.5C 21.7142,62.9589 20.7142,61.6256 19.5,60.5C 19.8333,60.5 20.1667,60.5 20.5,60.5C 21.4959,60.4142 22.3292,60.7476 23,61.5C 23.2792,57.8297 23.1125,54.163 22.5,50.5 Z"/></g>
<g><path style="opacity:1" fill="#5c955c" d="M 14.5,57.5 C 10.9074,58.4298 9.2407,60.7632 9.5,64.5C 7.95186,64.1788 7.28519,63.1788 7.5,61.5C 7.93205,60.2905 8.59872,59.2905 9.5,58.5C 10.5307,57.645 11.6974,56.9783 13,56.5C 13.7648,56.5699 14.2648,56.9033 14.5,57.5 Z"/></g>
<g><path style="opacity:1" fill="#348f30" d="M 35.5,59.5 C 35.5,60.1667 35.5,60.8333 35.5,61.5C 32.03,60.1972 28.6967,60.5306 25.5,62.5C 26.5907,60.4658 28.2574,59.1324 30.5,58.5C 32.6559,56.8823 34.3226,57.2157 35.5,59.5 Z"/></g>
<g><path style="opacity:1" fill="#42933f" d="M 35.5,59.5 C 36.1667,59.8333 36.8333,60.1667 37.5,60.5C 38.3909,61.2613 39.0576,62.2613 39.5,63.5C 37.7541,65.2516 35.7541,66.5849 33.5,67.5C 32.8333,67.5 32.1667,67.5 31.5,67.5C 32.1047,65.9743 33.2714,64.9743 35,64.5C 35.4828,63.552 35.6495,62.552 35.5,61.5C 35.5,60.8333 35.5,60.1667 35.5,59.5 Z"/></g>
<g><path style="opacity:0.082" fill="#def4da" d="M 159.5,69.5 C 158.833,69.5 158.167,69.5 157.5,69.5C 156.87,67.2504 155.87,65.2504 154.5,63.5C 154.5,62.5 154.5,61.5 154.5,60.5C 152.833,60.5 151.167,60.5 149.5,60.5C 148.5,60.5 147.5,60.5 146.5,60.5C 144.833,60.5 143.167,60.5 141.5,60.5C 142.946,59.0598 144.779,58.3932 147,58.5C 149.856,58.8711 152.689,59.3711 155.5,60C 156.975,63.1153 158.308,66.282 159.5,69.5 Z"/></g>
<g><path style="opacity:0.914" fill="#679364" d="M 210.5,61.5 C 210.5,62.1667 210.5,62.8333 210.5,63.5C 208.833,63.5 207.167,63.5 205.5,63.5C 205.5,62.5 205.5,61.5 205.5,60.5C 207.415,60.2155 209.081,60.5489 210.5,61.5 Z"/></g>
<g><path style="opacity:1" fill="#254d1a" d="M 52.5,62.5 C 51.596,63.209 51.2627,64.209 51.5,65.5C 51.5,65.8333 51.5,66.1667 51.5,66.5C 50.4168,66.5394 49.4168,66.8728 48.5,67.5C 47.1667,65.8333 47.1667,64.1667 48.5,62.5C 49.9948,61.2947 51.3281,61.2947 52.5,62.5 Z"/></g>
<g><path style="opacity:1" fill="#1e4415" d="M 61.5,64.5 C 58.3752,65.4794 55.0419,65.8128 51.5,65.5C 51.2627,64.209 51.596,63.209 52.5,62.5C 54.2624,62.6427 55.9291,62.3094 57.5,61.5C 58.3857,62.325 58.719,63.325 58.5,64.5C 59.5,64.5 60.5,64.5 61.5,64.5 Z"/></g>
<g><path style="opacity:1" fill="#3f943c" d="M 14.5,57.5 C 16.0009,58.7515 17.6675,59.7515 19.5,60.5C 20.7142,61.6256 21.7142,62.9589 22.5,64.5C 22.5466,66.0377 21.8799,67.0377 20.5,67.5C 20.5394,66.4168 20.8728,65.4168 21.5,64.5C 19.6812,63.6801 18.0145,62.6801 16.5,61.5C 15.4151,59.4178 13.9151,59.0844 12,60.5C 11.8333,61.3333 11.6667,62.1667 11.5,63C 11.6842,64.3756 12.3509,65.2089 13.5,65.5C 14.2625,66.2679 15.2625,66.7679 16.5,67C 15.944,67.3826 15.6107,67.8826 15.5,68.5C 14.8333,68.1667 14.1667,67.8333 13.5,67.5C 11.7697,66.9744 10.4363,65.9744 9.5,64.5C 9.2407,60.7632 10.9074,58.4298 14.5,57.5 Z"/></g>
<g><path style="opacity:1" fill="#2da325" d="M 16.5,61.5 C 16.4456,63.632 15.4456,64.9653 13.5,65.5C 12.3509,65.2089 11.6842,64.3756 11.5,63C 11.6667,62.1667 11.8333,61.3333 12,60.5C 13.9151,59.0844 15.4151,59.4178 16.5,61.5 Z"/></g>
<g><path style="opacity:1" fill="#359b31" d="M 16.5,61.5 C 18.0145,62.6801 19.6812,63.6801 21.5,64.5C 20.8728,65.4168 20.5394,66.4168 20.5,67.5C 21.925,68.922 22.925,70.5887 23.5,72.5C 22.8333,72.8333 22.1667,73.1667 21.5,73.5C 20.7629,71.6954 19.7629,70.0287 18.5,68.5C 17.52,71.0865 17.1866,73.7531 17.5,76.5C 16.8333,76.8333 16.1667,77.1667 15.5,77.5C 12.4758,77.825 10.8091,76.4917 10.5,73.5C 12.1009,71.6666 13.7676,69.9999 15.5,68.5C 15.6107,67.8826 15.944,67.3826 16.5,67C 15.2625,66.7679 14.2625,66.2679 13.5,65.5C 15.4456,64.9653 16.4456,63.632 16.5,61.5 Z"/></g>
<g><path style="opacity:0.004" fill="#fafcf5" d="M 71.5,63.5 C 75.3721,63.2422 79.0388,63.9089 82.5,65.5C 82.631,66.2389 82.4643,66.9056 82,67.5C 81.3292,66.7476 80.4959,66.4142 79.5,66.5C 77.0521,65.5269 74.3854,65.1936 71.5,65.5C 71.5,64.8333 71.5,64.1667 71.5,63.5 Z"/></g>
<g><path style="opacity:0.041" fill="#f7fcf3" d="M 103.5,64.5 C 103.5,65.1667 103.5,65.8333 103.5,66.5C 97.5362,65.6932 91.5362,65.3599 85.5,65.5C 84.8333,65.5 84.1667,65.5 83.5,65.5C 84.531,64.7515 85.6976,64.0848 87,63.5C 90.6938,63.5562 94.5272,63.7229 98.5,64C 100.139,65.5193 101.806,65.686 103.5,64.5 Z"/></g>
<g><path style="opacity:0.988" fill="#273a1e" d="M 141.5,60.5 C 143.167,60.5 144.833,60.5 146.5,60.5C 146.826,69.3494 146.493,78.0161 145.5,86.5C 145.666,78.4931 145.5,70.4931 145,62.5C 143.989,63.3366 142.822,63.67 141.5,63.5C 141.5,62.5 141.5,61.5 141.5,60.5 Z"/></g>
<g><path style="opacity:1" fill="#5c9754" d="M 171.5,61.5 C 171.5,62.1667 171.5,62.8333 171.5,63.5C 170.292,62.7659 168.959,62.4326 167.5,62.5C 167.5,64.5 167.5,66.5 167.5,68.5C 166.395,69.6005 165.062,70.2671 163.5,70.5C 163.557,69.391 163.89,68.391 164.5,67.5C 165.455,65.2543 166.122,62.921 166.5,60.5C 168.415,60.2155 170.081,60.5489 171.5,61.5 Z"/></g>
<g><path style="opacity:1" fill="#2e9f27" d="M 35.5,61.5 C 35.6495,62.552 35.4828,63.552 35,64.5C 33.2714,64.9743 32.1047,65.9743 31.5,67.5C 31.5,68.5 31.5,69.5 31.5,70.5C 30.1667,69.1667 28.8333,69.1667 27.5,70.5C 27.5,68.8333 27.5,67.1667 27.5,65.5C 27.2178,64.2223 26.5511,63.2223 25.5,62.5C 28.6967,60.5306 32.03,60.1972 35.5,61.5 Z"/></g>
<g><path style="opacity:0.102" fill="#ecf6ea" d="M 62.5,59.5 C 64.144,61.0679 64.8107,62.7346 64.5,64.5C 66.7466,63.6258 69.0799,63.2924 71.5,63.5C 71.5,64.1667 71.5,64.8333 71.5,65.5C 69.2646,65.2053 67.2646,65.5386 65.5,66.5C 65.1667,67.1667 64.8333,67.8333 64.5,68.5C 64.1667,68.5 63.8333,68.5 63.5,68.5C 63.6716,67.5084 63.3382,66.8417 62.5,66.5C 62.5,64.1667 62.5,61.8333 62.5,59.5 Z"/></g>
<g><path style="opacity:0.025" fill="#e1ebdc" d="M 103.5,64.5 C 112.257,64.8635 120.923,64.8635 129.5,64.5C 130.365,69.0668 130.365,73.7335 129.5,78.5C 130.5,78.5 131.5,78.5 132.5,78.5C 131.167,79.1667 129.833,79.8333 128.5,80.5C 128.167,80.5 127.833,80.5 127.5,80.5C 127.5,76.1667 127.5,71.8333 127.5,67.5C 126.081,66.5489 124.415,66.2155 122.5,66.5C 121.5,66.5 120.5,66.5 119.5,66.5C 114.167,66.5 108.833,66.5 103.5,66.5C 103.5,65.8333 103.5,65.1667 103.5,64.5 Z"/></g>
<g><path style="opacity:0.118" fill="#def9db" d="M 36.5,57.5 C 37.609,57.5569 38.609,57.8902 39.5,58.5C 42.3344,62.036 42.001,65.3693 38.5,68.5C 41.2568,72.5183 40.9234,76.185 37.5,79.5C 37.1667,79.5 36.8333,79.5 36.5,79.5C 36.5,79.1667 36.5,78.8333 36.5,78.5C 36.5,78.1667 36.5,77.8333 36.5,77.5C 37.6006,76.1516 38.6006,74.6516 39.5,73C 37.0038,71.669 35.0038,69.8356 33.5,67.5C 35.7541,66.5849 37.7541,65.2516 39.5,63.5C 39.0576,62.2613 38.3909,61.2613 37.5,60.5C 37.4431,59.391 37.1098,58.391 36.5,57.5 Z"/></g>
<g><path style="opacity:0.596" fill="#84c088" d="M 201.5,66.5 C 202.833,66.5 204.167,66.5 205.5,66.5C 205.5,66.8333 205.5,67.1667 205.5,67.5C 202.287,67.19 199.287,67.5233 196.5,68.5C 195.833,68.5 195.167,68.5 194.5,68.5C 194.611,67.8826 194.944,67.3826 195.5,67C 197.473,66.5045 199.473,66.3379 201.5,66.5 Z"/></g>
<g><path style="opacity:1" fill="#3f973a" d="M 209.5,86.5 C 207.901,86.7678 206.568,86.4345 205.5,85.5C 206.75,85.4226 207.583,84.756 208,83.5C 208.667,78.5 208.667,73.5 208,68.5C 207.768,69.7375 207.268,70.7375 206.5,71.5C 205.566,70.4324 205.232,69.099 205.5,67.5C 206.404,66.791 206.737,65.791 206.5,64.5C 207.5,64.5 208.5,64.5 209.5,64.5C 209.5,71.8333 209.5,79.1667 209.5,86.5 Z"/></g>
<g><path style="opacity:1" fill="#2fa332" d="M 171.5,63.5 C 171.5,64.8333 171.5,66.1667 171.5,67.5C 170.5,67.8333 169.833,68.5 169.5,69.5C 168.833,69.1667 168.167,68.8333 167.5,68.5C 167.5,66.5 167.5,64.5 167.5,62.5C 168.959,62.4326 170.292,62.7659 171.5,63.5 Z"/></g>
<g><path style="opacity:0.059" fill="#e8f9e3" d="M 203.5,63.5 C 203.218,64.7777 202.551,65.7777 201.5,66.5C 199.473,66.3379 197.473,66.5045 195.5,67C 194.944,67.3826 194.611,67.8826 194.5,68.5C 193.662,68.8417 193.328,69.5084 193.5,70.5C 192.833,70.5 192.167,70.5 191.5,70.5C 190.884,68.5829 189.55,67.4162 187.5,67C 183.514,66.5012 179.514,66.3345 175.5,66.5C 181.018,65.2357 186.684,65.2357 192.5,66.5C 196.307,65.8745 199.973,64.8745 203.5,63.5 Z"/></g>
<g><path style="opacity:0.051" fill="#d6f4d5" d="M 7.5,61.5 C 7.28519,63.1788 7.95186,64.1788 9.5,64.5C 10.4363,65.9744 11.7697,66.9744 13.5,67.5C 11.2823,69.1066 9.2823,70.94 7.5,73C 8.90563,74.978 9.90563,77.1447 10.5,79.5C 9.60895,78.8902 8.60895,78.5569 7.5,78.5C 4.5022,74.6777 4.83553,71.1777 8.5,68C 7.5,66.3333 6.5,64.6667 5.5,63C 6.0442,62.2828 6.71087,61.7828 7.5,61.5 Z"/></g>
<g><path style="opacity:1" fill="#223d1d" d="M 47.5,60.5 C 52.1667,60.5 56.8333,60.5 61.5,60.5C 61.5,61.8333 61.5,63.1667 61.5,64.5C 60.5,64.5 59.5,64.5 58.5,64.5C 58.719,63.325 58.3857,62.325 57.5,61.5C 55.9291,62.3094 54.2624,62.6427 52.5,62.5C 51.3281,61.2947 49.9948,61.2947 48.5,62.5C 47.1667,64.1667 47.1667,65.8333 48.5,67.5C 49.4168,66.8728 50.4168,66.5394 51.5,66.5C 51.5,68.1667 51.5,69.8333 51.5,71.5C 50.2921,70.7659 48.9587,70.4326 47.5,70.5C 47.7845,72.4147 47.4511,74.0813 46.5,75.5C 46.5,71.5 46.5,67.5 46.5,63.5C 46.5569,62.391 46.8902,61.391 47.5,60.5 Z"/></g>
<g><path style="opacity:1" fill="#274818" d="M 89.5,66.5 C 92.1667,66.5 94.8333,66.5 97.5,66.5C 97.5,67.1667 97.5,67.8333 97.5,68.5C 95.1189,67.1697 92.7856,67.3364 90.5,69C 91.056,69.3826 91.3893,69.8826 91.5,70.5C 85.6494,71.244 84.9827,69.9106 89.5,66.5 Z"/></g>
<g><path style="opacity:1" fill="#2f4b29" d="M 103.5,66.5 C 108.833,66.5 114.167,66.5 119.5,66.5C 119.784,68.4147 119.451,70.0813 118.5,71.5C 118.845,68.512 117.512,67.1787 114.5,67.5C 113.274,68.7183 111.274,69.7183 108.5,70.5C 107.998,68.9153 106.998,68.4153 105.5,69C 104.594,70.6995 104.261,72.5328 104.5,74.5C 104.737,75.791 104.404,76.791 103.5,77.5C 102.242,73.8663 102.242,70.1996 103.5,66.5 Z"/></g>
<g><path style="opacity:1" fill="#409042" d="M 196.5,68.5 C 199.287,67.5233 202.287,67.19 205.5,67.5C 205.232,69.099 205.566,70.4324 206.5,71.5C 206.806,74.3854 206.473,77.0521 205.5,79.5C 205.5,77.1667 205.5,74.8333 205.5,72.5C 203.5,72.5 201.5,72.5 199.5,72.5C 200.806,71.5326 201.473,70.1993 201.5,68.5C 199.833,68.5 198.167,68.5 196.5,68.5 Z"/></g>
<g><path style="opacity:1" fill="#428a40" d="M 205.5,63.5 C 207.167,63.5 208.833,63.5 210.5,63.5C 210.826,71.6841 210.492,79.6841 209.5,87.5C 209.5,87.1667 209.5,86.8333 209.5,86.5C 209.5,79.1667 209.5,71.8333 209.5,64.5C 208.5,64.5 207.5,64.5 206.5,64.5C 206.737,65.791 206.404,66.791 205.5,67.5C 205.5,67.1667 205.5,66.8333 205.5,66.5C 205.5,65.5 205.5,64.5 205.5,63.5 Z"/></g>
<g><path style="opacity:0.069" fill="#f7faf3" d="M 61.5,66.5 C 61.8333,66.5 62.1667,66.5 62.5,66.5C 63.3382,66.8417 63.6716,67.5084 63.5,68.5C 63.5,73.5 63.5,78.5 63.5,83.5C 62.684,82.8429 62.0174,81.5095 61.5,79.5C 58.7131,78.5233 55.7131,78.19 52.5,78.5C 52.5,74.8333 52.5,71.1667 52.5,67.5C 55.7131,67.81 58.7131,67.4767 61.5,66.5 Z M 53.5,68.5 C 56.1667,68.5 58.8333,68.5 61.5,68.5C 61.6641,71.1873 61.4974,73.854 61,76.5C 58.8683,77.7797 56.7016,77.7797 54.5,76.5C 53.52,73.9135 53.1866,71.2469 53.5,68.5 Z"/></g>
<g><path style="opacity:1" fill="#3c5536" d="M 65.5,66.5 C 67.2646,65.5386 69.2646,65.2053 71.5,65.5C 74.3854,65.1936 77.0521,65.5269 79.5,66.5C 81.6781,71.8 82.0115,77.1333 80.5,82.5C 80.6469,77.7858 80.3136,73.1191 79.5,68.5C 78.5,68.5 77.5,68.5 76.5,68.5C 77.0916,71.1272 77.4249,73.7938 77.5,76.5C 77.573,78.0269 76.9063,79.0269 75.5,79.5C 75.5,77.1667 75.5,74.8333 75.5,72.5C 73.7354,71.5386 71.7354,71.2053 69.5,71.5C 70.8062,70.5326 71.4729,69.1993 71.5,67.5C 69.5,67.1667 67.5,66.8333 65.5,66.5 Z"/></g>
<g><path style="opacity:1" fill="#2f9834" d="M 175.5,67.5 C 179.167,67.5 182.833,67.5 186.5,67.5C 186.5,68.5 186.5,69.5 186.5,70.5C 184.143,70.3367 181.81,70.5034 179.5,71C 178.663,72.0113 178.33,73.1779 178.5,74.5C 177.199,73.1155 177.199,71.6155 178.5,70C 177.552,69.5172 176.552,69.3505 175.5,69.5C 175.5,72.1667 175.5,74.8333 175.5,77.5C 175.167,77.5 174.833,77.5 174.5,77.5C 174.5,74.5 174.5,71.5 174.5,68.5C 175.167,68.5 175.5,68.1667 175.5,67.5 Z"/></g>
<g><path style="opacity:1" fill="#499044" d="M 31.5,67.5 C 32.1667,67.5 32.8333,67.5 33.5,67.5C 35.0038,69.8356 37.0038,71.669 39.5,73C 38.6006,74.6516 37.6006,76.1516 36.5,77.5C 37.4015,73.7593 36.0681,71.7593 32.5,71.5C 31.8333,71.5 31.5,71.1667 31.5,70.5C 31.5,69.5 31.5,68.5 31.5,67.5 Z"/></g>
<g><path style="opacity:1" fill="#35502a" d="M 85.5,66.5 C 86.8333,66.5 88.1667,66.5 89.5,66.5C 84.9827,69.9106 85.6494,71.244 91.5,70.5C 96.2524,70.3414 97.5857,72.3414 95.5,76.5C 95.7678,74.901 95.4345,73.5676 94.5,72.5C 92.8333,72.5 91.1667,72.5 89.5,72.5C 89.1667,72.5 88.8333,72.5 88.5,72.5C 87.5041,72.4142 86.6708,72.7476 86,73.5C 85.6232,72.0577 84.7899,71.0577 83.5,70.5C 83.5271,68.8007 84.1938,67.4674 85.5,66.5 Z"/></g>
<g><path style="opacity:1" fill="#254d1a" d="M 97.5,68.5 C 98.3277,74.1453 98.9944,79.812 99.5,85.5C 98.1667,85.5 96.8333,85.5 95.5,85.5C 95.5,82.5 95.5,79.5 95.5,76.5C 97.5857,72.3414 96.2524,70.3414 91.5,70.5C 91.3893,69.8826 91.056,69.3826 90.5,69C 92.7856,67.3364 95.1189,67.1697 97.5,68.5 Z"/></g>
<g><path style="opacity:1" fill="#21451b" d="M 118.5,71.5 C 115.167,71.5 111.833,71.5 108.5,71.5C 108.5,71.1667 108.5,70.8333 108.5,70.5C 111.274,69.7183 113.274,68.7183 114.5,67.5C 117.512,67.1787 118.845,68.512 118.5,71.5 Z"/></g>
<g><path style="opacity:1" fill="#31a031" d="M 152.5,63.5 C 153.167,63.5 153.833,63.5 154.5,63.5C 154.5,66.8333 154.5,70.1667 154.5,73.5C 153.504,73.4142 152.671,73.7476 152,74.5C 151.19,70.6425 151.357,66.9758 152.5,63.5 Z"/></g>
<g><path style="opacity:0.141" fill="#cff9d4" d="M 162.5,67.5 C 163.167,67.5 163.833,67.5 164.5,67.5C 163.89,68.391 163.557,69.391 163.5,70.5C 163.5,71.1667 163.5,71.8333 163.5,72.5C 162.868,74.7426 161.534,76.4093 159.5,77.5C 159.037,74.779 158.371,72.1123 157.5,69.5C 158.167,69.5 158.833,69.5 159.5,69.5C 159.272,71.3547 159.939,72.1881 161.5,72C 161.167,71.6667 160.833,71.3333 160.5,71C 161.305,69.8873 161.972,68.7206 162.5,67.5 Z"/></g>
<g><path style="opacity:1" fill="#499b4a" d="M 175.5,67.5 C 175.5,67.1667 175.5,66.8333 175.5,66.5C 179.514,66.3345 183.514,66.5012 187.5,67C 189.55,67.4162 190.884,68.5829 191.5,70.5C 191.5,70.8333 191.5,71.1667 191.5,71.5C 187.849,71.1617 186.183,72.8284 186.5,76.5C 187.833,76.5 189.167,76.5 190.5,76.5C 190.5,76.8333 190.5,77.1667 190.5,77.5C 190.167,77.5 189.833,77.5 189.5,77.5C 188.041,77.4326 186.708,77.7659 185.5,78.5C 183.708,77.6909 181.708,77.1909 179.5,77C 178.748,76.3292 178.414,75.4959 178.5,74.5C 178.33,73.1779 178.663,72.0113 179.5,71C 181.81,70.5034 184.143,70.3367 186.5,70.5C 186.5,69.5 186.5,68.5 186.5,67.5C 182.833,67.5 179.167,67.5 175.5,67.5 Z"/></g>
<g><path style="opacity:0.044" fill="#f0f8ec" d="M 139.5,65.5 C 137.585,65.2155 135.919,65.5489 134.5,66.5C 133.515,70.6344 133.182,74.9677 133.5,79.5C 133.5,79.8333 133.5,80.1667 133.5,80.5C 131.833,80.5 130.167,80.5 128.5,80.5C 129.833,79.8333 131.167,79.1667 132.5,78.5C 131.169,74.1365 131.335,69.8032 133,65.5C 135.118,63.2926 137.284,63.2926 139.5,65.5 Z"/></g>
<g><path style="opacity:1" fill="#1d4912" d="M 137.5,80.5 C 136.609,79.8902 135.609,79.5569 134.5,79.5C 134.5,75.5 134.5,71.5 134.5,67.5C 135.5,67.5 136.5,67.5 137.5,67.5C 137.5,71.8333 137.5,76.1667 137.5,80.5 Z"/></g>
<g><path style="opacity:1" fill="#39a434" d="M 191.5,71.5 C 191.784,73.4147 191.451,75.0813 190.5,76.5C 189.167,76.5 187.833,76.5 186.5,76.5C 186.183,72.8284 187.849,71.1617 191.5,71.5 Z"/></g>
<g><path style="opacity:0.429" fill="#b0e0ad" d="M 210.5,61.5 C 211.493,69.6499 211.826,77.9832 211.5,86.5C 211.586,87.4959 211.252,88.3292 210.5,89C 207.854,89.4974 205.187,89.6641 202.5,89.5C 204.833,88.8333 207.167,88.1667 209.5,87.5C 210.492,79.6841 210.826,71.6841 210.5,63.5C 210.5,62.8333 210.5,62.1667 210.5,61.5 Z"/></g>
<g><path style="opacity:1" fill="#4b904b" d="M 13.5,67.5 C 14.1667,67.8333 14.8333,68.1667 15.5,68.5C 13.7676,69.9999 12.1009,71.6666 10.5,73.5C 10.8091,76.4917 12.4758,77.825 15.5,77.5C 14.1767,79.6824 12.5101,80.3491 10.5,79.5C 9.90563,77.1447 8.90563,74.978 7.5,73C 9.2823,70.94 11.2823,69.1066 13.5,67.5 Z"/></g>
<g><path style="opacity:1" fill="#27a222" d="M 31.5,70.5 C 31.5,71.1667 31.8333,71.5 32.5,71.5C 34.4161,72.6653 35.2494,74.332 35,76.5C 32.9871,75.6566 30.8204,75.6566 28.5,76.5C 28.1667,76.5 27.8333,76.5 27.5,76.5C 27.1667,76.5 26.8333,76.5 26.5,76.5C 26.5172,74.4352 26.8505,72.4352 27.5,70.5C 28.8333,69.1667 30.1667,69.1667 31.5,70.5 Z"/></g>
<g><path style="opacity:1" fill="#26481e" d="M 65.5,66.5 C 67.5,66.8333 69.5,67.1667 71.5,67.5C 71.4729,69.1993 70.8062,70.5326 69.5,71.5C 69.5,71.8333 69.5,72.1667 69.5,72.5C 68.5318,74.6074 68.1984,76.9407 68.5,79.5C 67.1667,79.5 65.8333,79.5 64.5,79.5C 64.5,75.8333 64.5,72.1667 64.5,68.5C 64.8333,67.8333 65.1667,67.1667 65.5,66.5 Z"/></g>
<g><path style="opacity:1" fill="#28421a" d="M 83.5,70.5 C 84.7899,71.0577 85.6232,72.0577 86,73.5C 86.6708,72.7476 87.5041,72.4142 88.5,72.5C 88.5,76.8333 88.5,81.1667 88.5,85.5C 87.8343,82.9723 87.1676,80.3056 86.5,77.5C 85.914,77.2907 85.414,76.9574 85,76.5C 84.8195,79.6946 84.3195,82.6946 83.5,85.5C 83.5,80.5 83.5,75.5 83.5,70.5 Z"/></g>
<g><path style="opacity:0.098" fill="#c9dbc1" d="M 119.5,66.5 C 120.5,66.5 121.5,66.5 122.5,66.5C 122.334,72.5092 122.501,78.5092 123,84.5C 123.383,85.056 123.883,85.3893 124.5,85.5C 124.5,85.8333 124.5,86.1667 124.5,86.5C 124.5,87.1667 124.167,87.5 123.5,87.5C 122.609,86.8902 121.609,86.5569 120.5,86.5C 120.815,82.6286 120.482,78.9619 119.5,75.5C 119.389,74.8826 119.056,74.3826 118.5,74C 115.518,73.502 112.518,73.3354 109.5,73.5C 109.167,73.5 108.833,73.5 108.5,73.5C 108.5,72.8333 108.5,72.1667 108.5,71.5C 111.833,71.5 115.167,71.5 118.5,71.5C 119.451,70.0813 119.784,68.4147 119.5,66.5 Z"/></g>
<g><path style="opacity:0.12" fill="#d0f7d1" d="M 179.5,72.5 C 181.604,72.2011 183.604,72.5344 185.5,73.5C 184.5,73.8333 183.5,74.1667 182.5,74.5C 180.97,74.3601 179.97,73.6935 179.5,72.5 Z"/></g>
<g><path style="opacity:1" fill="#3a9b37" d="M 205.5,85.5 C 205.5,84.1667 205.5,82.8333 205.5,81.5C 205.5,80.8333 205.5,80.1667 205.5,79.5C 206.473,77.0521 206.806,74.3854 206.5,71.5C 207.268,70.7375 207.768,69.7375 208,68.5C 208.667,73.5 208.667,78.5 208,83.5C 207.583,84.756 206.75,85.4226 205.5,85.5 Z"/></g>
<g><path style="opacity:0.792" fill="#99df94" d="M 23.5,72.5 C 23.5,73.1667 23.8333,73.5 24.5,73.5C 24.2627,74.791 24.596,75.791 25.5,76.5C 24.9084,79.1272 24.5751,81.7938 24.5,84.5C 24.1667,84.5 23.8333,84.5 23.5,84.5C 22.7536,80.873 22.0869,77.2064 21.5,73.5C 22.1667,73.1667 22.8333,72.8333 23.5,72.5 Z"/></g>
<g><path style="opacity:1" fill="#408d3e" d="M 27.5,65.5 C 27.5,67.1667 27.5,68.8333 27.5,70.5C 26.8505,72.4352 26.5172,74.4352 26.5,76.5C 26.1667,76.5 25.8333,76.5 25.5,76.5C 24.596,75.791 24.2627,74.791 24.5,73.5C 26.1258,70.8791 25.4591,69.0457 22.5,68C 24.1932,67.1534 25.8599,66.3201 27.5,65.5 Z"/></g>
<g><path style="opacity:0.376" fill="#c8d6c4" d="M 51.5,66.5 C 54.8333,66.5 58.1667,66.5 61.5,66.5C 58.7131,67.4767 55.7131,67.81 52.5,67.5C 52.5,71.1667 52.5,74.8333 52.5,78.5C 55.7131,78.19 58.7131,78.5233 61.5,79.5C 58.1667,79.5 54.8333,79.5 51.5,79.5C 51.5,76.8333 51.5,74.1667 51.5,71.5C 51.5,69.8333 51.5,68.1667 51.5,66.5 Z"/></g>
<g><path style="opacity:0.278" fill="#bbd0b5" d="M 69.5,71.5 C 71.7354,71.2053 73.7354,71.5386 75.5,72.5C 73.8333,72.5 72.1667,72.5 70.5,72.5C 70.5,74.8333 70.5,77.1667 70.5,79.5C 69.5318,77.3926 69.1984,75.0593 69.5,72.5C 69.5,72.1667 69.5,71.8333 69.5,71.5 Z"/></g>
<g><path style="opacity:1" fill="#2d4f1e" d="M 108.5,70.5 C 108.5,70.8333 108.5,71.1667 108.5,71.5C 108.5,72.1667 108.5,72.8333 108.5,73.5C 108.12,74.1331 107.787,74.7997 107.5,75.5C 106.583,74.8728 105.583,74.5394 104.5,74.5C 104.261,72.5328 104.594,70.6995 105.5,69C 106.998,68.4153 107.998,68.9153 108.5,70.5 Z"/></g>
<g><path style="opacity:1" fill="#334c2e" d="M 109.5,73.5 C 112.518,73.3354 115.518,73.502 118.5,74C 119.056,74.3826 119.389,74.8826 119.5,75.5C 119.5,75.8333 119.5,76.1667 119.5,76.5C 118.292,77.2341 116.959,77.5674 115.5,77.5C 115.199,74.683 113.866,74.0163 111.5,75.5C 110.478,75.1445 109.811,74.4778 109.5,73.5 Z"/></g>
<g><path style="opacity:1" fill="#395134" d="M 134.5,66.5 C 136.167,66.5 137.833,66.5 139.5,66.5C 139.751,72.8918 139.418,79.2252 138.5,85.5C 138.167,85.5 137.833,85.5 137.5,85.5C 137.5,83.8333 137.5,82.1667 137.5,80.5C 137.5,76.1667 137.5,71.8333 137.5,67.5C 136.5,67.5 135.5,67.5 134.5,67.5C 134.5,71.5 134.5,75.5 134.5,79.5C 134.167,79.5 133.833,79.5 133.5,79.5C 133.182,74.9677 133.515,70.6344 134.5,66.5 Z"/></g>
<g><path style="opacity:0.243" fill="#c8f6ca" d="M 191.5,70.5 C 192.167,70.5 192.833,70.5 193.5,70.5C 193.5,74.8333 193.5,79.1667 193.5,83.5C 193.06,81.1561 192.06,79.1561 190.5,77.5C 190.5,77.1667 190.5,76.8333 190.5,76.5C 191.451,75.0813 191.784,73.4147 191.5,71.5C 191.5,71.1667 191.5,70.8333 191.5,70.5 Z"/></g>
<g><path style="opacity:1" fill="#274823" d="M 51.5,71.5 C 51.5,74.1667 51.5,76.8333 51.5,79.5C 54.8333,79.5 58.1667,79.5 61.5,79.5C 61.5,81.5 61.5,83.5 61.5,85.5C 60.8333,85.5 60.1667,85.5 59.5,85.5C 59.5,83.8333 59.5,82.1667 59.5,80.5C 57.2646,80.2053 55.2646,80.5386 53.5,81.5C 51.5,81.5 49.5,81.5 47.5,81.5C 47.5,82.5 47.5,83.5 47.5,84.5C 46.5233,81.7131 46.19,78.7131 46.5,75.5C 47.4511,74.0813 47.7845,72.4147 47.5,70.5C 48.9587,70.4326 50.2921,70.7659 51.5,71.5 Z"/></g>
<g><path style="opacity:1" fill="#374f30" d="M 97.5,66.5 C 98.4584,66.9528 99.2917,67.6195 100,68.5C 100.499,74.4908 100.666,80.4908 100.5,86.5C 98.5853,86.7845 96.9187,86.4511 95.5,85.5C 96.8333,85.5 98.1667,85.5 99.5,85.5C 98.9944,79.812 98.3277,74.1453 97.5,68.5C 97.5,67.8333 97.5,67.1667 97.5,66.5 Z"/></g>
<g><path style="opacity:1" fill="#2f9f2c" d="M 178.5,74.5 C 178.414,75.4959 178.748,76.3292 179.5,77C 181.708,77.1909 183.708,77.6909 185.5,78.5C 182.061,78.7471 178.728,78.4137 175.5,77.5C 175.5,74.8333 175.5,72.1667 175.5,69.5C 176.552,69.3505 177.552,69.5172 178.5,70C 177.199,71.6155 177.199,73.1155 178.5,74.5 Z"/></g>
<g><path style="opacity:1" fill="#389d2f" d="M 21.5,73.5 C 22.0869,77.2064 22.7536,80.873 23.5,84.5C 21.8333,83.1667 20.1667,81.8333 18.5,80.5C 18.7678,78.901 18.4345,77.5676 17.5,76.5C 17.1866,73.7531 17.52,71.0865 18.5,68.5C 19.7629,70.0287 20.7629,71.6954 21.5,73.5 Z"/></g>
<g><path style="opacity:1" fill="#24471e" d="M 80.5,82.5 C 80.4431,83.609 80.1098,84.609 79.5,85.5C 79.1667,85.5 78.8333,85.5 78.5,85.5C 78.5,85.1667 78.5,84.8333 78.5,84.5C 78.5111,82.4534 78.8444,80.4534 79.5,78.5C 79.2528,77.2867 78.5862,76.62 77.5,76.5C 77.4249,73.7938 77.0916,71.1272 76.5,68.5C 77.5,68.5 78.5,68.5 79.5,68.5C 80.3136,73.1191 80.6469,77.7858 80.5,82.5 Z"/></g>
<g><path style="opacity:1" fill="#2c4a1f" d="M 108.5,73.5 C 108.833,73.5 109.167,73.5 109.5,73.5C 109.811,74.4778 110.478,75.1445 111.5,75.5C 113.866,74.0163 115.199,74.683 115.5,77.5C 111.958,77.1872 108.625,77.5206 105.5,78.5C 104.833,78.5 104.167,78.5 103.5,78.5C 103.5,78.1667 103.5,77.8333 103.5,77.5C 104.404,76.791 104.737,75.791 104.5,74.5C 105.583,74.5394 106.583,74.8728 107.5,75.5C 107.787,74.7997 108.12,74.1331 108.5,73.5 Z"/></g>
<g><path style="opacity:1" fill="#24481f" d="M 127.5,67.5 C 127.5,71.8333 127.5,76.1667 127.5,80.5C 126.71,79.3915 126.21,78.0581 126,76.5C 125.223,79.4294 125.39,82.2628 126.5,85C 125.906,85.4643 125.239,85.631 124.5,85.5C 123.559,80.2949 123.226,75.1282 123.5,70C 124.032,67.9803 125.365,67.147 127.5,67.5 Z"/></g>
<g><path style="opacity:1" fill="#44953f" d="M 154.5,63.5 C 155.87,65.2504 156.87,67.2504 157.5,69.5C 158.371,72.1123 159.037,74.779 159.5,77.5C 159.5,77.8333 159.5,78.1667 159.5,78.5C 158.778,78.0825 158.278,77.4158 158,76.5C 156.316,81.8163 158.15,84.8163 163.5,85.5C 163.5,85.8333 163.5,86.1667 163.5,86.5C 161.5,86.5 159.5,86.5 157.5,86.5C 157.007,84.1944 156.674,81.861 156.5,79.5C 155.28,77.7179 154.614,75.7179 154.5,73.5C 154.5,70.1667 154.5,66.8333 154.5,63.5 Z"/></g>
<g><path style="opacity:0.478" fill="#9bcf99" d="M 199.5,72.5 C 201.5,72.5 203.5,72.5 205.5,72.5C 205.5,74.8333 205.5,77.1667 205.5,79.5C 205.5,80.1667 205.5,80.8333 205.5,81.5C 203.5,81.5 201.5,81.5 199.5,81.5C 199.5,81.1667 199.5,80.8333 199.5,80.5C 198.532,78.3926 198.198,76.0593 198.5,73.5C 198.5,72.8333 198.833,72.5 199.5,72.5 Z M 201.5,75.5 C 202.586,75.62 203.253,76.2867 203.5,77.5C 203.167,78.1667 202.833,78.8333 202.5,79.5C 201.571,78.3112 201.238,76.9778 201.5,75.5 Z"/></g>
<g><path style="opacity:0.029" fill="#edfdec" d="M 199.5,80.5 C 199.5,78.1667 199.5,75.8333 199.5,73.5C 201.167,73.5 202.833,73.5 204.5,73.5C 204.5,75.8333 204.5,78.1667 204.5,80.5C 202.833,80.5 201.167,80.5 199.5,80.5 Z M 201.5,75.5 C 201.238,76.9778 201.571,78.3112 202.5,79.5C 202.833,78.8333 203.167,78.1667 203.5,77.5C 203.253,76.2867 202.586,75.62 201.5,75.5 Z"/></g>
<g><path style="opacity:1" fill="#379032" d="M 32.5,71.5 C 36.0681,71.7593 37.4015,73.7593 36.5,77.5C 36.5,77.8333 36.5,78.1667 36.5,78.5C 34.8333,78.5 33.1667,78.5 31.5,78.5C 30.8333,78.1667 30.1667,77.8333 29.5,77.5C 29.5,76.8333 29.1667,76.5 28.5,76.5C 30.8204,75.6566 32.9871,75.6566 35,76.5C 35.2494,74.332 34.4161,72.6653 32.5,71.5 Z"/></g>
<g><path style="opacity:1" fill="#469341" d="M 149.5,60.5 C 151.167,60.5 152.833,60.5 154.5,60.5C 154.5,61.5 154.5,62.5 154.5,63.5C 153.833,63.5 153.167,63.5 152.5,63.5C 152.44,62.9569 152.107,62.6236 151.5,62.5C 150.503,69.4684 150.17,76.4684 150.5,83.5C 151.5,83.5 152.5,83.5 153.5,83.5C 153.232,81.901 153.566,80.5676 154.5,79.5C 154.5,81.8333 154.5,84.1667 154.5,86.5C 152.833,86.5 151.167,86.5 149.5,86.5C 149.5,77.8333 149.5,69.1667 149.5,60.5 Z"/></g>
<g><path style="opacity:0.031" fill="#f1fbef" d="M 75.5,72.5 C 75.5,74.8333 75.5,77.1667 75.5,79.5C 73.8333,79.5 72.1667,79.5 70.5,79.5C 70.5,77.1667 70.5,74.8333 70.5,72.5C 72.1667,72.5 73.8333,72.5 75.5,72.5 Z M 71.5,74.5 C 73.9732,74.9473 74.1399,75.9473 72,77.5C 71.5172,76.552 71.3505,75.552 71.5,74.5 Z"/></g>
<g><path style="opacity:1" fill="#4d9948" d="M 163.5,72.5 C 164.847,75.8402 166.18,79.1736 167.5,82.5C 167.5,83.8333 167.5,85.1667 167.5,86.5C 166.686,84.369 166.186,82.0356 166,79.5C 165.066,80.8584 164.232,82.1917 163.5,83.5C 163.785,81.712 163.452,80.0453 162.5,78.5C 161.473,79.7914 160.473,79.7914 159.5,78.5C 159.5,78.1667 159.5,77.8333 159.5,77.5C 161.534,76.4093 162.868,74.7426 163.5,72.5 Z"/></g>
<g><path style="opacity:1" fill="#359830" d="M 196.5,68.5 C 198.167,68.5 199.833,68.5 201.5,68.5C 201.473,70.1993 200.806,71.5326 199.5,72.5C 198.833,72.5 198.5,72.8333 198.5,73.5C 197.686,75.631 197.186,77.9644 197,80.5C 196.821,76.9748 196.321,73.6414 195.5,70.5C 195.833,69.8333 196.167,69.1667 196.5,68.5 Z"/></g>
<g><path style="opacity:0.992" fill="#669365" d="M 31.5,78.5 C 33.1667,78.5 34.8333,78.5 36.5,78.5C 36.5,78.8333 36.5,79.1667 36.5,79.5C 34.563,80.7058 32.8963,80.3725 31.5,78.5 Z"/></g>
<g><path style="opacity:1" fill="#325726" d="M 88.5,85.5 C 87.0813,86.4511 85.4147,86.7845 83.5,86.5C 83.5,86.1667 83.5,85.8333 83.5,85.5C 84.3195,82.6946 84.8195,79.6946 85,76.5C 85.414,76.9574 85.914,77.2907 86.5,77.5C 87.1676,80.3056 87.8343,82.9723 88.5,85.5 Z"/></g>
<g><path style="opacity:0.063" fill="#c9dac4" d="M 85.5,66.5 C 85.5,66.1667 85.5,65.8333 85.5,65.5C 91.5362,65.3599 97.5362,65.6932 103.5,66.5C 102.242,70.1996 102.242,73.8663 103.5,77.5C 103.5,77.8333 103.5,78.1667 103.5,78.5C 103.167,79.1667 102.833,79.8333 102.5,80.5C 102.205,82.7354 102.539,84.7354 103.5,86.5C 103.5,87.1667 103.5,87.8333 103.5,88.5C 102.883,88.3893 102.383,88.056 102,87.5C 99.2933,90.0589 96.7933,90.0589 94.5,87.5C 94.5,82.8333 94.5,78.1667 94.5,73.5C 94.5,73.1667 94.5,72.8333 94.5,72.5C 95.4345,73.5676 95.7678,74.901 95.5,76.5C 95.5,79.5 95.5,82.5 95.5,85.5C 96.9187,86.4511 98.5853,86.7845 100.5,86.5C 100.666,80.4908 100.499,74.4908 100,68.5C 99.2917,67.6195 98.4584,66.9528 97.5,66.5C 94.8333,66.5 92.1667,66.5 89.5,66.5C 88.1667,66.5 86.8333,66.5 85.5,66.5 Z"/></g>
<g><path style="opacity:1" fill="#38a031" d="M 167.5,68.5 C 168.167,68.8333 168.833,69.1667 169.5,69.5C 169.92,74.5116 170.087,79.5116 170,84.5C 169.667,84.8333 169.333,85.1667 169,85.5C 168.768,84.2625 168.268,83.2625 167.5,82.5C 166.18,79.1736 164.847,75.8402 163.5,72.5C 163.5,71.8333 163.5,71.1667 163.5,70.5C 165.062,70.2671 166.395,69.6005 167.5,68.5 Z"/></g>
<g><path style="opacity:0.141" fill="#d9f5d7" d="M 17.5,76.5 C 18.4345,77.5676 18.7678,78.901 18.5,80.5C 18.5,82.1667 18.5,83.8333 18.5,85.5C 20.4147,85.7845 22.0813,85.4511 23.5,84.5C 23.8333,84.5 24.1667,84.5 24.5,84.5C 25.209,85.404 26.209,85.7373 27.5,85.5C 26.8333,86.1667 26.1667,86.8333 25.5,87.5C 22.7531,87.8134 20.0865,87.48 17.5,86.5C 16.6906,84.9291 16.3573,83.2624 16.5,81.5C 14.1432,81.6633 11.8098,81.4966 9.5,81C 8.61947,80.2917 7.9528,79.4584 7.5,78.5C 8.60895,78.5569 9.60895,78.8902 10.5,79.5C 12.5101,80.3491 14.1767,79.6824 15.5,77.5C 16.1667,77.1667 16.8333,76.8333 17.5,76.5 Z"/></g>
<g><path style="opacity:0.25" fill="#b6d8b1" d="M 103.5,78.5 C 104.167,78.5 104.833,78.5 105.5,78.5C 108.572,78.1826 111.572,78.5159 114.5,79.5C 112.604,80.4656 110.604,80.7989 108.5,80.5C 106.833,80.5 105.167,80.5 103.5,80.5C 103.167,80.5 102.833,80.5 102.5,80.5C 102.833,79.8333 103.167,79.1667 103.5,78.5 Z"/></g>
<g><path style="opacity:1" fill="#25471d" d="M 119.5,76.5 C 119.664,79.1873 119.497,81.854 119,84.5C 118.617,85.056 118.117,85.3893 117.5,85.5C 117.167,85.5 116.833,85.5 116.5,85.5C 117.234,84.2921 117.567,82.9587 117.5,81.5C 115.304,81.59 113.137,81.9233 111,82.5C 109.624,82.3158 108.791,81.6491 108.5,80.5C 110.604,80.7989 112.604,80.4656 114.5,79.5C 111.572,78.5159 108.572,78.1826 105.5,78.5C 108.625,77.5206 111.958,77.1872 115.5,77.5C 116.959,77.5674 118.292,77.2341 119.5,76.5 Z"/></g>
<g><path style="opacity:1" fill="#263e1d" d="M 122.5,66.5 C 124.415,66.2155 126.081,66.5489 127.5,67.5C 125.365,67.147 124.032,67.9803 123.5,70C 123.226,75.1282 123.559,80.2949 124.5,85.5C 123.883,85.3893 123.383,85.056 123,84.5C 122.501,78.5092 122.334,72.5092 122.5,66.5 Z"/></g>
<g><path style="opacity:1" fill="#274810" d="M 133.5,79.5 C 133.833,79.5 134.167,79.5 134.5,79.5C 135.609,79.5569 136.609,79.8902 137.5,80.5C 137.5,82.1667 137.5,83.8333 137.5,85.5C 136.292,86.2341 134.959,86.5674 133.5,86.5C 133.5,84.5 133.5,82.5 133.5,80.5C 133.5,80.1667 133.5,79.8333 133.5,79.5 Z"/></g>
<g><path style="opacity:1" fill="#329d36" d="M 152.5,63.5 C 151.357,66.9758 151.19,70.6425 152,74.5C 152.671,73.7476 153.504,73.4142 154.5,73.5C 154.614,75.7179 155.28,77.7179 156.5,79.5C 155.833,79.5 155.167,79.5 154.5,79.5C 153.566,80.5676 153.232,81.901 153.5,83.5C 152.5,83.5 151.5,83.5 150.5,83.5C 150.17,76.4684 150.503,69.4684 151.5,62.5C 152.107,62.6236 152.44,62.9569 152.5,63.5 Z"/></g>
<g><path style="opacity:1" fill="#55994a" d="M 174.5,77.5 C 174.833,77.5 175.167,77.5 175.5,77.5C 178.728,78.4137 182.061,78.7471 185.5,78.5C 186.708,77.7659 188.041,77.4326 189.5,77.5C 186.454,78.9867 183.121,79.9867 179.5,80.5C 183.107,81.4892 186.774,81.8226 190.5,81.5C 190.5,82.8333 190.5,84.1667 190.5,85.5C 189.791,86.404 188.791,86.7373 187.5,86.5C 188.684,85.3121 188.684,84.1455 187.5,83C 183.472,82.6082 179.472,82.1082 175.5,81.5C 175.5,82.8333 175.5,84.1667 175.5,85.5C 174.527,83.0521 174.194,80.3854 174.5,77.5 Z"/></g>
<g><path style="opacity:1" fill="#4a9041" d="M 194.5,68.5 C 195.167,68.5 195.833,68.5 196.5,68.5C 196.167,69.1667 195.833,69.8333 195.5,70.5C 195.218,75.9265 195.551,81.2599 196.5,86.5C 196.167,86.5 195.833,86.5 195.5,86.5C 194.833,85.8333 194.167,85.1667 193.5,84.5C 193.5,84.1667 193.5,83.8333 193.5,83.5C 193.5,79.1667 193.5,74.8333 193.5,70.5C 193.328,69.5084 193.662,68.8417 194.5,68.5 Z"/></g>
<g><path style="opacity:1" fill="#4a8c46" d="M 25.5,76.5 C 25.8333,76.5 26.1667,76.5 26.5,76.5C 26.8333,76.5 27.1667,76.5 27.5,76.5C 27.5,79.1667 27.5,81.8333 27.5,84.5C 27.5,84.8333 27.5,85.1667 27.5,85.5C 26.209,85.7373 25.209,85.404 24.5,84.5C 24.5751,81.7938 24.9084,79.1272 25.5,76.5 Z"/></g>
<g><path style="opacity:0.044" fill="#f3fbec" d="M 89.5,72.5 C 91.1667,72.5 92.8333,72.5 94.5,72.5C 94.5,72.8333 94.5,73.1667 94.5,73.5C 93.209,73.2627 92.209,73.596 91.5,74.5C 92.054,78.6086 91.3873,82.6086 89.5,86.5C 89.5,81.8333 89.5,77.1667 89.5,72.5 Z"/></g>
<g><path style="opacity:1" fill="#234a1e" d="M 145.5,86.5 C 144.167,86.5 142.833,86.5 141.5,86.5C 141.5,78.8333 141.5,71.1667 141.5,63.5C 142.822,63.67 143.989,63.3366 145,62.5C 145.5,70.4931 145.666,78.4931 145.5,86.5 Z"/></g>
<g><path style="opacity:1" fill="#439d37" d="M 195.5,70.5 C 196.321,73.6414 196.821,76.9748 197,80.5C 197.186,77.9644 197.686,75.631 198.5,73.5C 198.198,76.0593 198.532,78.3926 199.5,80.5C 199.5,80.8333 199.5,81.1667 199.5,81.5C 200.038,83.1172 200.371,84.7839 200.5,86.5C 199.167,86.5 197.833,86.5 196.5,86.5C 195.551,81.2599 195.218,75.9265 195.5,70.5 Z"/></g>
<g><path style="opacity:0.124" fill="#e5fae9" d="M 29.5,77.5 C 30.1667,77.8333 30.8333,78.1667 31.5,78.5C 32.8963,80.3725 34.563,80.7058 36.5,79.5C 36.8333,79.5 37.1667,79.5 37.5,79.5C 37.3893,80.1174 37.056,80.6174 36.5,81C 31.9581,80.3303 29.2915,82.1637 28.5,86.5C 27.675,87.3857 26.675,87.719 25.5,87.5C 26.1667,86.8333 26.8333,86.1667 27.5,85.5C 27.5,85.1667 27.5,84.8333 27.5,84.5C 28.1667,82.1667 28.8333,79.8333 29.5,77.5 Z"/></g>
<g><path style="opacity:1" fill="#28481e" d="M 53.5,81.5 C 53.5,82.8333 53.5,84.1667 53.5,85.5C 51.2646,85.7947 49.2646,85.4614 47.5,84.5C 47.5,83.5 47.5,82.5 47.5,81.5C 49.5,81.5 51.5,81.5 53.5,81.5 Z"/></g>
<g><path style="opacity:1" fill="#1e4c13" d="M 59.5,85.5 C 57.5,85.5 55.5,85.5 53.5,85.5C 53.5,84.1667 53.5,82.8333 53.5,81.5C 55.2646,80.5386 57.2646,80.2053 59.5,80.5C 59.5,82.1667 59.5,83.8333 59.5,85.5 Z"/></g>
<g><path style="opacity:1" fill="#3d5834" d="M 63.5,68.5 C 63.8333,68.5 64.1667,68.5 64.5,68.5C 64.5,72.1667 64.5,75.8333 64.5,79.5C 65.8333,79.5 67.1667,79.5 68.5,79.5C 68.3284,80.4916 68.6618,81.1583 69.5,81.5C 69.9175,82.2216 70.5842,82.7216 71.5,83C 69.4817,83.5046 67.4817,84.0046 65.5,84.5C 64.8333,84.1667 64.1667,83.8333 63.5,83.5C 63.5,78.5 63.5,73.5 63.5,68.5 Z"/></g>
<g><path style="opacity:1" fill="#33572a" d="M 69.5,72.5 C 69.1984,75.0593 69.5318,77.3926 70.5,79.5C 72.1667,79.5 73.8333,79.5 75.5,79.5C 76.9063,79.0269 77.573,78.0269 77.5,76.5C 78.5862,76.62 79.2528,77.2867 79.5,78.5C 78.8444,80.4534 78.5111,82.4534 78.5,84.5C 76.4915,83.0084 74.3249,81.6751 72,80.5C 70.9302,80.528 70.0968,80.8614 69.5,81.5C 68.6618,81.1583 68.3284,80.4916 68.5,79.5C 68.1984,76.9407 68.5318,74.6074 69.5,72.5 Z"/></g>
<g><path style="opacity:0.041" fill="#f8fcf4" d="M 91.5,74.5 C 92.209,73.596 93.209,73.2627 94.5,73.5C 94.5,78.1667 94.5,82.8333 94.5,87.5C 93.0439,83.268 92.0439,78.9347 91.5,74.5 Z"/></g>
<g><path style="opacity:1" fill="#275319" d="M 127.5,80.5 C 127.833,80.5 128.167,80.5 128.5,80.5C 129.341,82.3792 129.675,84.3792 129.5,86.5C 127.833,86.5 126.167,86.5 124.5,86.5C 124.5,86.1667 124.5,85.8333 124.5,85.5C 125.239,85.631 125.906,85.4643 126.5,85C 125.39,82.2628 125.223,79.4294 126,76.5C 126.21,78.0581 126.71,79.3915 127.5,80.5 Z"/></g>
<g><path style="opacity:1" fill="#2a4a28" d="M 128.5,80.5 C 130.167,80.5 131.833,80.5 133.5,80.5C 133.5,82.5 133.5,84.5 133.5,86.5C 132.167,86.5 130.833,86.5 129.5,86.5C 129.675,84.3792 129.341,82.3792 128.5,80.5 Z"/></g>
<g><path style="opacity:1" fill="#349f31" d="M 159.5,78.5 C 160.473,79.7914 161.473,79.7914 162.5,78.5C 163.452,80.0453 163.785,81.712 163.5,83.5C 163.5,84.1667 163.5,84.8333 163.5,85.5C 158.15,84.8163 156.316,81.8163 158,76.5C 158.278,77.4158 158.778,78.0825 159.5,78.5 Z"/></g>
<g><path style="opacity:0.153" fill="#d5f1ce" d="M 189.5,77.5 C 189.833,77.5 190.167,77.5 190.5,77.5C 192.06,79.1561 193.06,81.1561 193.5,83.5C 193.5,83.8333 193.5,84.1667 193.5,84.5C 192.609,85.1098 191.609,85.4431 190.5,85.5C 190.5,84.1667 190.5,82.8333 190.5,81.5C 186.774,81.8226 183.107,81.4892 179.5,80.5C 183.121,79.9867 186.454,78.9867 189.5,77.5 Z"/></g>
<g><path style="opacity:1" fill="#5f965b" d="M 18.5,80.5 C 20.1667,81.8333 21.8333,83.1667 23.5,84.5C 22.0813,85.4511 20.4147,85.7845 18.5,85.5C 18.5,83.8333 18.5,82.1667 18.5,80.5 Z"/></g>
<g><path style="opacity:0.427" fill="#a6d5a6" d="M 27.5,76.5 C 27.8333,76.5 28.1667,76.5 28.5,76.5C 29.1667,76.5 29.5,76.8333 29.5,77.5C 28.8333,79.8333 28.1667,82.1667 27.5,84.5C 27.5,81.8333 27.5,79.1667 27.5,76.5 Z"/></g>
<g><path style="opacity:1" fill="#244717" d="M 78.5,84.5 C 78.5,84.8333 78.5,85.1667 78.5,85.5C 74.1667,85.5 69.8333,85.5 65.5,85.5C 65.5,85.1667 65.5,84.8333 65.5,84.5C 67.4817,84.0046 69.4817,83.5046 71.5,83C 70.5842,82.7216 69.9175,82.2216 69.5,81.5C 70.0968,80.8614 70.9302,80.528 72,80.5C 74.3249,81.6751 76.4915,83.0084 78.5,84.5 Z"/></g>
<g><path style="opacity:0.145" fill="#d3e4d3" d="M 141.5,60.5 C 141.5,61.5 141.5,62.5 141.5,63.5C 141.5,71.1667 141.5,78.8333 141.5,86.5C 141.5,87.1667 141.5,87.8333 141.5,88.5C 140.167,87.1667 138.833,87.1667 137.5,88.5C 137.557,87.391 137.89,86.391 138.5,85.5C 139.418,79.2252 139.751,72.8918 139.5,66.5C 137.833,66.5 136.167,66.5 134.5,66.5C 135.919,65.5489 137.585,65.2155 139.5,65.5C 140.791,64.4583 140.791,63.2917 139.5,62C 140.044,61.2828 140.711,60.7828 141.5,60.5 Z"/></g>
<g><path style="opacity:1" fill="#214a18" d="M 103.5,80.5 C 105.167,80.5 106.833,80.5 108.5,80.5C 108.791,81.6491 109.624,82.3158 111,82.5C 113.137,81.9233 115.304,81.59 117.5,81.5C 117.567,82.9587 117.234,84.2921 116.5,85.5C 112.167,85.5 107.833,85.5 103.5,85.5C 103.5,83.8333 103.5,82.1667 103.5,80.5 Z"/></g>
<g><path style="opacity:0.063" fill="#b9d1b7" d="M 119.5,75.5 C 120.482,78.9619 120.815,82.6286 120.5,86.5C 119.713,88.1042 118.38,88.7709 116.5,88.5C 116.5,87.8333 116.5,87.1667 116.5,86.5C 117.167,86.5 117.5,86.1667 117.5,85.5C 118.117,85.3893 118.617,85.056 119,84.5C 119.497,81.854 119.664,79.1873 119.5,76.5C 119.5,76.1667 119.5,75.8333 119.5,75.5 Z"/></g>
<g><path style="opacity:1" fill="#3b9e2f" d="M 187.5,86.5 C 183.5,86.1667 179.5,85.8333 175.5,85.5C 175.5,84.1667 175.5,82.8333 175.5,81.5C 179.472,82.1082 183.472,82.6082 187.5,83C 188.684,84.1455 188.684,85.3121 187.5,86.5 Z"/></g>
<g><path style="opacity:0.063" fill="#d2e9ca" d="M 193.5,84.5 C 194.167,85.1667 194.833,85.8333 195.5,86.5C 196.048,89.0838 197.715,90.0838 200.5,89.5C 196.946,91.2022 194.113,90.2022 192,86.5C 191.727,88.3289 190.893,89.8289 189.5,91C 188.563,91.6917 187.897,91.525 187.5,90.5C 187.5,89.5 187.5,88.5 187.5,87.5C 187.5,87.1667 187.5,86.8333 187.5,86.5C 188.791,86.7373 189.791,86.404 190.5,85.5C 191.609,85.4431 192.609,85.1098 193.5,84.5 Z"/></g>
<g><path style="opacity:0.059" fill="#cde0c7" d="M 61.5,79.5 C 62.0174,81.5095 62.684,82.8429 63.5,83.5C 64.1667,83.8333 64.8333,84.1667 65.5,84.5C 65.5,84.8333 65.5,85.1667 65.5,85.5C 65.6716,86.4916 65.3382,87.1583 64.5,87.5C 63.8826,87.3893 63.3826,87.056 63,86.5C 62.5776,88.4257 61.4109,89.4257 59.5,89.5C 59.7329,87.9382 60.3995,86.6049 61.5,85.5C 61.5,83.5 61.5,81.5 61.5,79.5 Z"/></g>
<g><path style="opacity:0.039" fill="#d5e9cf" d="M 82.5,65.5 C 82.8333,65.5 83.1667,65.5 83.5,65.5C 84.1667,65.5 84.8333,65.5 85.5,65.5C 85.5,65.8333 85.5,66.1667 85.5,66.5C 84.1938,67.4674 83.5271,68.8007 83.5,70.5C 83.5,75.5 83.5,80.5 83.5,85.5C 83.5,85.8333 83.5,86.1667 83.5,86.5C 83.5,87.1667 83.5,87.8333 83.5,88.5C 82.0357,87.5946 80.7024,87.5946 79.5,88.5C 79.5,87.5 79.5,86.5 79.5,85.5C 80.1098,84.609 80.4431,83.609 80.5,82.5C 82.0115,77.1333 81.6781,71.8 79.5,66.5C 80.4959,66.4142 81.3292,66.7476 82,67.5C 82.4643,66.9056 82.631,66.2389 82.5,65.5 Z"/></g>
<g><path style="opacity:0.933" fill="#527947" d="M 102.5,80.5 C 102.833,80.5 103.167,80.5 103.5,80.5C 103.5,82.1667 103.5,83.8333 103.5,85.5C 107.833,85.5 112.167,85.5 116.5,85.5C 116.833,85.5 117.167,85.5 117.5,85.5C 117.5,86.1667 117.167,86.5 116.5,86.5C 112.167,86.5 107.833,86.5 103.5,86.5C 102.539,84.7354 102.205,82.7354 102.5,80.5 Z"/></g>
<g><path style="opacity:1" fill="#3c8e38" d="M 171.5,67.5 C 171.5,73.8333 171.5,80.1667 171.5,86.5C 170.167,86.5 168.833,86.5 167.5,86.5C 167.5,85.1667 167.5,83.8333 167.5,82.5C 168.268,83.2625 168.768,84.2625 169,85.5C 169.333,85.1667 169.667,84.8333 170,84.5C 170.087,79.5116 169.92,74.5116 169.5,69.5C 169.833,68.5 170.5,67.8333 171.5,67.5 Z"/></g>
<g><path style="opacity:1" fill="#499d47" d="M 199.5,81.5 C 201.5,81.5 203.5,81.5 205.5,81.5C 205.5,82.8333 205.5,84.1667 205.5,85.5C 206.568,86.4345 207.901,86.7678 209.5,86.5C 209.5,86.8333 209.5,87.1667 209.5,87.5C 204.968,87.8182 200.634,87.4849 196.5,86.5C 197.833,86.5 199.167,86.5 200.5,86.5C 200.371,84.7839 200.038,83.1172 199.5,81.5 Z"/></g>
<g><path style="opacity:0.046" fill="#dbf3d7" d="M 154.5,79.5 C 155.167,79.5 155.833,79.5 156.5,79.5C 156.674,81.861 157.007,84.1944 157.5,86.5C 157.5,87.5 157.5,88.5 157.5,89.5C 156.041,89.4326 154.708,89.7659 153.5,90.5C 153.833,89.1667 154.167,87.8333 154.5,86.5C 154.5,84.1667 154.5,81.8333 154.5,79.5 Z"/></g>
<g><path style="opacity:0.212" fill="#bbe8b4" d="M 171.5,61.5 C 171.917,64.1589 172.917,66.4922 174.5,68.5C 174.5,71.5 174.5,74.5 174.5,77.5C 174.194,80.3854 174.527,83.0521 175.5,85.5C 175.5,86.1667 175.833,86.5 176.5,86.5C 175.4,87.6049 174.733,88.9382 174.5,90.5C 174.167,90.5 173.833,90.5 173.5,90.5C 173.843,88.5168 173.176,87.1834 171.5,86.5C 171.5,80.1667 171.5,73.8333 171.5,67.5C 171.5,66.1667 171.5,64.8333 171.5,63.5C 171.5,62.8333 171.5,62.1667 171.5,61.5 Z"/></g>
<g><path style="opacity:0.976" fill="#68af5d" d="M 175.5,85.5 C 179.5,85.8333 183.5,86.1667 187.5,86.5C 187.5,86.8333 187.5,87.1667 187.5,87.5C 185.5,87.5 183.5,87.5 181.5,87.5C 179.958,86.6993 178.292,86.366 176.5,86.5C 175.833,86.5 175.5,86.1667 175.5,85.5 Z"/></g>
<g><path style="opacity:0.176" fill="#abcba3" d="M 46.5,63.5 C 46.5,67.5 46.5,71.5 46.5,75.5C 46.19,78.7131 46.5233,81.7131 47.5,84.5C 49.2646,85.4614 51.2646,85.7947 53.5,85.5C 55.5,85.5 57.5,85.5 59.5,85.5C 60.1667,85.5 60.8333,85.5 61.5,85.5C 60.3995,86.6049 59.7329,87.9382 59.5,89.5C 55.5406,88.8939 51.5406,88.2272 47.5,87.5C 46.3698,86.3777 45.7031,85.0443 45.5,83.5C 45.176,76.6457 45.5093,69.979 46.5,63.5 Z"/></g>
<g><path style="opacity:0.161" fill="#a9c99f" d="M 65.5,85.5 C 69.8333,85.5 74.1667,85.5 78.5,85.5C 78.8333,85.5 79.1667,85.5 79.5,85.5C 79.5,86.5 79.5,87.5 79.5,88.5C 78.8826,88.6107 78.3826,88.944 78,89.5C 73.3993,88.858 68.8993,88.1913 64.5,87.5C 65.3382,87.1583 65.6716,86.4916 65.5,85.5 Z"/></g>
<g><path style="opacity:0.231" fill="#bed2b4" d="M 88.5,72.5 C 88.8333,72.5 89.1667,72.5 89.5,72.5C 89.5,77.1667 89.5,81.8333 89.5,86.5C 89.3146,88.1958 88.4813,89.5291 87,90.5C 86.1841,89.1772 85.0174,88.5106 83.5,88.5C 83.5,87.8333 83.5,87.1667 83.5,86.5C 85.4147,86.7845 87.0813,86.4511 88.5,85.5C 88.5,81.1667 88.5,76.8333 88.5,72.5 Z"/></g>
<g><path style="opacity:0.119" fill="#b1daa3" d="M 103.5,86.5 C 107.833,86.5 112.167,86.5 116.5,86.5C 116.5,87.1667 116.5,87.8333 116.5,88.5C 112.167,88.5 107.833,88.5 103.5,88.5C 103.5,87.8333 103.5,87.1667 103.5,86.5 Z"/></g>
<g><path style="opacity:0.098" fill="#bcd8b0" d="M 146.5,60.5 C 147.5,60.5 148.5,60.5 149.5,60.5C 149.5,69.1667 149.5,77.8333 149.5,86.5C 149.5,87.5 149.5,88.5 149.5,89.5C 146.615,89.8064 143.948,89.4731 141.5,88.5C 141.5,87.8333 141.5,87.1667 141.5,86.5C 142.833,86.5 144.167,86.5 145.5,86.5C 146.493,78.0161 146.826,69.3494 146.5,60.5 Z"/></g>
<g><path style="opacity:0.325" fill="#b5d4ae" d="M 176.5,86.5 C 178.292,86.366 179.958,86.6993 181.5,87.5C 181.833,88.1667 182.167,88.8333 182.5,89.5C 179.856,89.1601 177.523,89.8267 175.5,91.5C 174.893,91.3764 174.56,91.0431 174.5,90.5C 174.733,88.9382 175.4,87.6049 176.5,86.5 Z"/></g>
<g><path style="opacity:0.41" fill="#a7e29c" d="M 195.5,86.5 C 195.833,86.5 196.167,86.5 196.5,86.5C 200.634,87.4849 204.968,87.8182 209.5,87.5C 207.167,88.1667 204.833,88.8333 202.5,89.5C 201.833,89.5 201.167,89.5 200.5,89.5C 197.715,90.0838 196.048,89.0838 195.5,86.5 Z"/></g>
<g><path style="opacity:0.067" fill="#b9d8a8" d="M 137.5,85.5 C 137.833,85.5 138.167,85.5 138.5,85.5C 137.89,86.391 137.557,87.391 137.5,88.5C 133.253,89.6018 128.92,89.7684 124.5,89C 123.944,88.6174 123.611,88.1174 123.5,87.5C 124.167,87.5 124.5,87.1667 124.5,86.5C 126.167,86.5 127.833,86.5 129.5,86.5C 130.833,86.5 132.167,86.5 133.5,86.5C 134.959,86.5674 136.292,86.2341 137.5,85.5 Z"/></g>
<g><path style="opacity:0.224" fill="#addda0" d="M 149.5,86.5 C 151.167,86.5 152.833,86.5 154.5,86.5C 154.167,87.8333 153.833,89.1667 153.5,90.5C 152.292,89.7659 150.959,89.4326 149.5,89.5C 149.5,88.5 149.5,87.5 149.5,86.5 Z"/></g>
<g><path style="opacity:0.294" fill="#b1dca3" d="M 157.5,86.5 C 159.5,86.5 161.5,86.5 163.5,86.5C 163.5,87.5 163.5,88.5 163.5,89.5C 161.426,89.6733 159.426,89.6733 157.5,89.5C 157.5,88.5 157.5,87.5 157.5,86.5 Z"/></g>
<g><path style="opacity:0.376" fill="#ace6a1" d="M 181.5,87.5 C 183.5,87.5 185.5,87.5 187.5,87.5C 187.5,88.5 187.5,89.5 187.5,90.5C 185.958,89.6993 184.292,89.366 182.5,89.5C 182.167,88.8333 181.833,88.1667 181.5,87.5 Z"/></g>
<g><path style="opacity:0.165" fill="#cfe8c4" d="M 167.5,86.5 C 168.833,86.5 170.167,86.5 171.5,86.5C 173.176,87.1834 173.843,88.5168 173.5,90.5C 171.516,90.3832 169.85,91.0499 168.5,92.5C 167.579,90.244 165.912,89.244 163.5,89.5C 163.5,88.5 163.5,87.5 163.5,86.5C 163.5,86.1667 163.5,85.8333 163.5,85.5C 163.5,84.8333 163.5,84.1667 163.5,83.5C 164.232,82.1917 165.066,80.8584 166,79.5C 166.186,82.0356 166.686,84.369 167.5,86.5 Z"/></g>
<g><path style="opacity:0.012" fill="#f2f3ec" d="M 36.5,94.5 C 35.1667,94.5 33.8333,94.5 32.5,94.5C 32.0773,96.7812 32.744,98.4479 34.5,99.5C 35.1667,100.167 35.8333,100.833 36.5,101.5C 32.8183,101.665 29.1516,101.499 25.5,101C 24.565,98.6194 24.2317,96.1194 24.5,93.5C 28.7123,94.2714 32.7123,94.6047 36.5,94.5 Z"/></g>
<g><path style="opacity:0.059" fill="#d7e2d2" d="M 164.5,93.5 C 166.297,93.9349 168.297,93.9349 170.5,93.5C 170.5,94.5 170.5,95.5 170.5,96.5C 169.206,100.223 168.039,100.223 167,96.5C 166.601,96.7284 166.435,97.0618 166.5,97.5C 165.883,97.3893 165.383,97.056 165,96.5C 164.79,98.0581 164.29,99.3915 163.5,100.5C 163.5,98.8333 163.5,97.1667 163.5,95.5C 164.338,95.1583 164.672,94.4916 164.5,93.5 Z"/></g>
<g><path style="opacity:0.749" fill="#6c6b65" d="M 26.5,94.5 C 27.552,94.3505 28.552,94.5172 29.5,95C 28.1667,96.3333 28.1667,97.6667 29.5,99C 28.552,99.4828 27.552,99.6495 26.5,99.5C 26.5,97.8333 26.5,96.1667 26.5,94.5 Z"/></g>
<g><path style="opacity:1" fill="#757d70" d="M 36.5,94.5 C 36.9227,96.7812 36.256,98.4479 34.5,99.5C 32.744,98.4479 32.0773,96.7812 32.5,94.5C 33.8333,94.5 35.1667,94.5 36.5,94.5 Z"/></g>
<g><path style="opacity:0.071" fill="#e0e7dc" d="M 49.5,94.5 C 48.5,94.5 47.5,94.5 46.5,94.5C 46.5,96.1667 46.5,97.8333 46.5,99.5C 47.5,99.5 48.5,99.5 49.5,99.5C 47.6112,100.742 45.6112,100.742 43.5,99.5C 43.6567,98.1266 43.49,96.7932 43,95.5C 42.0138,96.1712 40.8471,96.1712 39.5,95.5C 39.5,95.1667 39.5,94.8333 39.5,94.5C 42.8714,94.4619 46.2048,94.4619 49.5,94.5 Z"/></g>
<g><path style="opacity:0.075" fill="#e0e6dc" d="M 77.5,94.5 C 78.791,94.2627 79.791,94.596 80.5,95.5C 79.5,95.5 78.5,95.5 77.5,95.5C 77.5,96.8333 77.5,98.1667 77.5,99.5C 75.3888,100.742 73.3888,100.742 71.5,99.5C 72.5,99.5 73.5,99.5 74.5,99.5C 74.5,98.1667 74.5,96.8333 74.5,95.5C 73.5,95.5 72.5,95.5 71.5,95.5C 70.596,96.209 70.2627,97.209 70.5,98.5C 69.1932,99.1534 67.8599,99.8201 66.5,100.5C 65.8933,100.376 65.56,100.043 65.5,99.5C 66.1667,98.5 66.8333,97.5 67.5,96.5C 68.3382,96.1583 68.6716,95.4916 68.5,94.5C 71.5,93.1667 74.5,93.1667 77.5,94.5 Z"/></g>
<g><path style="opacity:0.059" fill="#eff6eb" d="M 123.5,95.5 C 123.167,95.5 122.833,95.5 122.5,95.5C 121.5,95.5 120.5,95.5 119.5,95.5C 118.609,96.1098 117.609,96.4431 116.5,96.5C 115.432,95.5655 114.099,95.2322 112.5,95.5C 112.12,97.698 112.787,99.3646 114.5,100.5C 114.5,100.833 114.5,101.167 114.5,101.5C 112.265,101.795 110.265,101.461 108.5,100.5C 104.6,101.43 100.6,101.763 96.5,101.5C 96.5,101.167 96.5,100.833 96.5,100.5C 97.675,100.719 98.675,100.386 99.5,99.5C 98.2889,98.2798 98.2889,97.1131 99.5,96C 97.9473,93.8601 96.9473,94.0268 96.5,96.5C 95.2719,97.3065 94.2719,98.3065 93.5,99.5C 93.762,98.0222 93.4287,96.6888 92.5,95.5C 91.8076,96.0253 91.3076,96.6919 91,97.5C 90.6924,96.6919 90.1924,96.0253 89.5,95.5C 88.5713,96.6888 88.238,98.0222 88.5,99.5C 87.6618,99.8417 87.3284,100.508 87.5,101.5C 85.8122,98.3165 86.4789,95.6498 89.5,93.5C 99.4147,93.5854 109.915,93.5854 121,93.5C 121.833,93.6667 122.667,93.8333 123.5,94C 124.738,94.69 124.738,95.19 123.5,95.5 Z"/></g>
<g><path style="opacity:0.016" fill="#e7ece6" d="M 149.5,93.5 C 149.5,94.1667 149.5,94.8333 149.5,95.5C 147.744,96.5521 147.077,98.2188 147.5,100.5C 148.959,100.567 150.292,100.234 151.5,99.5C 152.222,99.0825 152.722,98.4158 153,97.5C 153.232,98.7375 153.732,99.7375 154.5,100.5C 155.833,100.5 156.5,99.8333 156.5,98.5C 157.404,99.209 157.737,100.209 157.5,101.5C 153.995,101.702 150.329,101.702 146.5,101.5C 145.167,99.1667 145.167,96.8333 146.5,94.5C 147.417,93.8728 148.417,93.5394 149.5,93.5 Z"/></g>
<g><path style="opacity:0.09" fill="#eef7e7" d="M 170.5,93.5 C 172.28,94.7547 174.113,94.7547 176,93.5C 177.459,93.8082 178.626,94.4749 179.5,95.5C 178.609,96.1098 177.609,96.4431 176.5,96.5C 175.432,95.5655 174.099,95.2322 172.5,95.5C 172.715,97.1788 172.048,98.1788 170.5,98.5C 170.5,97.8333 170.5,97.1667 170.5,96.5C 170.5,95.5 170.5,94.5 170.5,93.5 Z"/></g>
<g><path style="opacity:0.06" fill="#bbc1b5" d="M 179.5,95.5 C 180.167,95.5 180.833,95.5 181.5,95.5C 182.492,95.3284 183.158,95.6618 183.5,96.5C 180.203,96.3287 179.869,96.9954 182.5,98.5C 181.757,99.1818 181.091,99.8485 180.5,100.5C 179.542,100.047 178.708,99.3805 178,98.5C 177.399,100.359 176.566,100.692 175.5,99.5C 176.404,98.791 176.737,97.791 176.5,96.5C 177.609,96.4431 178.609,96.1098 179.5,95.5 Z"/></g>
<g><path style="opacity:0.408" fill="#abb0a6" d="M 186.5,96.5 C 186.5,95.8333 186.833,95.5 187.5,95.5C 188.5,95.5 189.5,95.5 190.5,95.5C 192.819,99.8546 191.486,101.855 186.5,101.5C 186.5,101.167 186.5,100.833 186.5,100.5C 187.5,100.5 188.5,100.5 189.5,100.5C 189.5,99.1667 189.5,97.8333 189.5,96.5C 188.5,96.5 187.5,96.5 186.5,96.5 Z"/></g>
<g><path style="opacity:0.91" fill="#52594d" d="M 39.5,95.5 C 40.8471,96.1712 42.0138,96.1712 43,95.5C 43.49,96.7932 43.6567,98.1266 43.5,99.5C 43.1667,99.5 42.8333,99.5 42.5,99.5C 41.8106,98.2264 40.9772,98.2264 40,99.5C 39.51,98.2068 39.3433,96.8734 39.5,95.5 Z"/></g>
<g><path style="opacity:0.831" fill="#4f564b" d="M 59.5,95.5 C 60.1859,96.8484 61.1859,98.015 62.5,99C 61.552,99.4828 60.552,99.6495 59.5,99.5C 59.5,98.1667 59.5,96.8333 59.5,95.5 Z"/></g>
<g><path style="opacity:0.41" fill="#a8afa4" d="M 102.5,95.5 C 102.5,96.8333 102.5,98.1667 102.5,99.5C 105.797,99.6713 106.131,99.0046 103.5,97.5C 104.243,96.8182 104.909,96.1515 105.5,95.5C 106.451,96.9187 106.784,98.5853 106.5,100.5C 104.833,100.5 103.167,100.5 101.5,100.5C 101.216,98.5853 101.549,96.9187 102.5,95.5 Z"/></g>
<g><path style="opacity:0.004" fill="#eaf0e6" d="M 130.5,93.5 C 133.909,93.2493 137.242,93.5827 140.5,94.5C 142.913,96.7371 142.913,99.0705 140.5,101.5C 137.872,101.537 135.205,101.871 132.5,102.5C 128.337,100.994 127.671,97.9936 130.5,93.5 Z"/></g>
<g><path style="opacity:0.737" fill="#5a6056" d="M 133.5,96.5 C 132.909,97.1515 132.243,97.8182 131.5,98.5C 131.846,99.6956 132.346,99.6956 133,98.5C 133.464,99.0944 133.631,99.7611 133.5,100.5C 132.5,100.5 131.5,100.5 130.5,100.5C 130.5,98.8333 130.5,97.1667 130.5,95.5C 131.791,95.2627 132.791,95.596 133.5,96.5 Z"/></g>
<g><path style="opacity:0.106" fill="#e3eddb" d="M 149.5,93.5 C 154.273,93.6516 159.273,93.6516 164.5,93.5C 164.672,94.4916 164.338,95.1583 163.5,95.5C 162.5,95.5 161.5,95.5 160.5,95.5C 160.5,97.1667 160.5,98.8333 160.5,100.5C 159.71,99.3915 159.21,98.0581 159,96.5C 158.617,97.056 158.117,97.3893 157.5,97.5C 157.179,95.9519 156.179,95.2852 154.5,95.5C 154.5,97.1667 154.5,98.8333 154.5,100.5C 153.732,99.7375 153.232,98.7375 153,97.5C 152.722,98.4158 152.222,99.0825 151.5,99.5C 151.011,98.0048 150.345,96.6715 149.5,95.5C 149.5,94.8333 149.5,94.1667 149.5,93.5 Z"/></g>
<g><path style="opacity:0.745" fill="#656d62" d="M 157.5,97.5 C 156.833,97.5 156.5,97.8333 156.5,98.5C 156.5,99.8333 155.833,100.5 154.5,100.5C 154.5,98.8333 154.5,97.1667 154.5,95.5C 156.179,95.2852 157.179,95.9519 157.5,97.5 Z"/></g>
<g><path style="opacity:0.965" fill="#596152" d="M 163.5,95.5 C 163.5,97.1667 163.5,98.8333 163.5,100.5C 162.5,100.5 161.5,100.5 160.5,100.5C 160.5,98.8333 160.5,97.1667 160.5,95.5C 161.5,95.5 162.5,95.5 163.5,95.5 Z"/></g>
<g><path style="opacity:0.929" fill="#52594d" d="M 170.5,96.5 C 170.5,97.1667 170.5,97.8333 170.5,98.5C 170.179,100.048 169.179,100.715 167.5,100.5C 166.596,99.791 166.263,98.791 166.5,97.5C 166.435,97.0618 166.601,96.7284 167,96.5C 168.039,100.223 169.206,100.223 170.5,96.5 Z"/></g>
<g><path style="opacity:0.024" fill="#d5dbd1" d="M 56.5,94.5 C 55.9379,97.0514 54.9379,98.7181 53.5,99.5C 52.1667,99.5 50.8333,99.5 49.5,99.5C 48.9285,97.64 48.9285,95.9733 49.5,94.5C 52.0409,93.8968 54.3743,93.8968 56.5,94.5 Z"/></g>
<g><path style="opacity:0.055" fill="#d7ddd1" d="M 68.5,94.5 C 68.6716,95.4916 68.3382,96.1583 67.5,96.5C 67.44,95.9569 67.1067,95.6236 66.5,95.5C 65.6143,96.325 65.281,97.325 65.5,98.5C 64.2003,99.1079 62.8669,99.7745 61.5,100.5C 60.5836,100.457 59.9169,100.124 59.5,99.5C 60.552,99.6495 61.552,99.4828 62.5,99C 61.1859,98.015 60.1859,96.8484 59.5,95.5C 59.5,95.1667 59.5,94.8333 59.5,94.5C 62.2769,94.9444 65.2769,94.9444 68.5,94.5 Z"/></g>
<g><path style="opacity:0.765" fill="#575f53" d="M 67.5,96.5 C 66.8333,97.5 66.1667,98.5 65.5,99.5C 65.5,99.1667 65.5,98.8333 65.5,98.5C 65.281,97.325 65.6143,96.325 66.5,95.5C 67.1067,95.6236 67.44,95.9569 67.5,96.5 Z"/></g>
<g><path style="opacity:0.714" fill="#8a9286" d="M 71.5,95.5 C 72.0906,96.1515 72.7573,96.8182 73.5,97.5C 72.7573,98.1818 72.0906,98.8485 71.5,99.5C 70.8333,99.5 70.5,99.1667 70.5,98.5C 70.2627,97.209 70.596,96.209 71.5,95.5 Z"/></g>
<g><path style="opacity:0.875" fill="#5f675a" d="M 80.5,95.5 C 81.782,96.7082 81.782,98.0416 80.5,99.5C 79.4728,98.2086 78.4728,98.2086 77.5,99.5C 77.5,98.1667 77.5,96.8333 77.5,95.5C 78.5,95.5 79.5,95.5 80.5,95.5 Z"/></g>
<g><path style="opacity:0.863" fill="#4e564a" d="M 102.5,95.5 C 103.5,95.5 104.5,95.5 105.5,95.5C 104.909,96.1515 104.243,96.8182 103.5,97.5C 106.131,99.0046 105.797,99.6713 102.5,99.5C 102.5,98.1667 102.5,96.8333 102.5,95.5 Z"/></g>
<g><path style="opacity:0.592" fill="#868d82" d="M 108.5,100.5 C 108.215,98.712 108.548,97.0453 109.5,95.5C 109.833,96.3333 110.167,97.1667 110.5,98C 110.316,99.3756 109.649,100.209 108.5,100.5 Z"/></g>
<g><path style="opacity:0.51" fill="#98a096" d="M 133.5,96.5 C 134.833,97.8333 134.833,99.1667 133.5,100.5C 133.631,99.7611 133.464,99.0944 133,98.5C 132.346,99.6956 131.846,99.6956 131.5,98.5C 132.243,97.8182 132.909,97.1515 133.5,96.5 Z"/></g>
<g><path style="opacity:0.922" fill="#424a3d" d="M 183.5,96.5 C 183.5,97.8333 183.5,99.1667 183.5,100.5C 182.5,100.5 181.5,100.5 180.5,100.5C 181.091,99.8485 181.757,99.1818 182.5,98.5C 179.869,96.9954 180.203,96.3287 183.5,96.5 Z"/></g>
<g><path style="opacity:0.016" fill="#edf2eb" d="M 36.5,94.5 C 37.5,94.5 38.5,94.5 39.5,94.5C 39.5,94.8333 39.5,95.1667 39.5,95.5C 39.3433,96.8734 39.51,98.2068 40,99.5C 40.9772,98.2264 41.8106,98.2264 42.5,99.5C 42.1667,100.167 41.8333,100.833 41.5,101.5C 39.8333,101.5 38.1667,101.5 36.5,101.5C 35.8333,100.833 35.1667,100.167 34.5,99.5C 36.256,98.4479 36.9227,96.7812 36.5,94.5 Z"/></g>
<g><path style="opacity:0.831" fill="#596255" d="M 49.5,94.5 C 48.9285,95.9733 48.9285,97.64 49.5,99.5C 48.5,99.5 47.5,99.5 46.5,99.5C 46.5,97.8333 46.5,96.1667 46.5,94.5C 47.5,94.5 48.5,94.5 49.5,94.5 Z"/></g>
<g><path style="opacity:0.843" fill="#52594f" d="M 56.5,94.5 C 56.5,96.1667 56.5,97.8333 56.5,99.5C 55.5,99.5 54.5,99.5 53.5,99.5C 54.9379,98.7181 55.9379,97.0514 56.5,94.5 Z"/></g>
<g><path style="opacity:0.894" fill="#464d43" d="M 71.5,95.5 C 72.5,95.5 73.5,95.5 74.5,95.5C 74.5,96.8333 74.5,98.1667 74.5,99.5C 73.5,99.5 72.5,99.5 71.5,99.5C 72.0906,98.8485 72.7573,98.1818 73.5,97.5C 72.7573,96.8182 72.0906,96.1515 71.5,95.5 Z"/></g>
<g><path style="opacity:0.886" fill="#5a6156" d="M 93.5,99.5 C 91.8333,99.5 90.1667,99.5 88.5,99.5C 88.238,98.0222 88.5713,96.6888 89.5,95.5C 90.1924,96.0253 90.6924,96.6919 91,97.5C 91.3076,96.6919 91.8076,96.0253 92.5,95.5C 93.4287,96.6888 93.762,98.0222 93.5,99.5 Z"/></g>
<g><path style="opacity:0.549" fill="#747b71" d="M 116.5,96.5 C 115.624,96.3691 114.957,96.7025 114.5,97.5C 115.653,98.6868 115.653,99.6868 114.5,100.5C 112.787,99.3646 112.12,97.698 112.5,95.5C 114.099,95.2322 115.432,95.5655 116.5,96.5 Z"/></g>
<g><path style="opacity:0.925" fill="#5d645a" d="M 136.5,95.5 C 137.5,95.5 138.5,95.5 139.5,95.5C 139.5,97.1667 139.5,98.8333 139.5,100.5C 138.5,100.5 137.5,100.5 136.5,100.5C 136.5,98.8333 136.5,97.1667 136.5,95.5 Z"/></g>
<g><path style="opacity:0.796" fill="#5d6558" d="M 186.5,96.5 C 187.5,96.5 188.5,96.5 189.5,96.5C 189.5,97.8333 189.5,99.1667 189.5,100.5C 188.5,100.5 187.5,100.5 186.5,100.5C 186.5,99.1667 186.5,97.8333 186.5,96.5 Z"/></g>
<g><path style="opacity:0.059" fill="#f0f5f0" d="M 56.5,94.5 C 57.5,94.5 58.5,94.5 59.5,94.5C 59.5,94.8333 59.5,95.1667 59.5,95.5C 59.5,96.8333 59.5,98.1667 59.5,99.5C 59.9169,100.124 60.5836,100.457 61.5,100.5C 62.8669,99.7745 64.2003,99.1079 65.5,98.5C 65.5,98.8333 65.5,99.1667 65.5,99.5C 64.6618,99.8417 64.3284,100.508 64.5,101.5C 56.8333,101.5 49.1667,101.5 41.5,101.5C 41.8333,100.833 42.1667,100.167 42.5,99.5C 42.8333,99.5 43.1667,99.5 43.5,99.5C 45.6112,100.742 47.6112,100.742 49.5,99.5C 50.8333,99.5 52.1667,99.5 53.5,99.5C 54.5,99.5 55.5,99.5 56.5,99.5C 56.5,97.8333 56.5,96.1667 56.5,94.5 Z"/></g>
<g><path style="opacity:0.013" fill="#f7fbf8" d="M 70.5,98.5 C 70.5,99.1667 70.8333,99.5 71.5,99.5C 73.3888,100.742 75.3888,100.742 77.5,99.5C 77.5,100.167 77.5,100.833 77.5,101.5C 73.3219,101.956 68.9886,101.956 64.5,101.5C 64.3284,100.508 64.6618,99.8417 65.5,99.5C 65.56,100.043 65.8933,100.376 66.5,100.5C 67.8599,99.8201 69.1932,99.1534 70.5,98.5 Z"/></g>
<g><path style="opacity:0.007" fill="#e6eae7" d="M 96.5,96.5 C 96.5,97.8333 96.5,99.1667 96.5,100.5C 96.5,100.833 96.5,101.167 96.5,101.5C 93.5,101.5 90.5,101.5 87.5,101.5C 87.3284,100.508 87.6618,99.8417 88.5,99.5C 90.1667,99.5 91.8333,99.5 93.5,99.5C 94.2719,98.3065 95.2719,97.3065 96.5,96.5 Z"/></g>
<g><path style="opacity:0.576" fill="#70786d" d="M 96.5,100.5 C 96.5,99.1667 96.5,97.8333 96.5,96.5C 96.9473,94.0268 97.9473,93.8601 99.5,96C 98.2889,97.1131 98.2889,98.2798 99.5,99.5C 98.675,100.386 97.675,100.719 96.5,100.5 Z"/></g>
<g><path style="opacity:0.925" fill="#585f55" d="M 149.5,95.5 C 150.345,96.6715 151.011,98.0048 151.5,99.5C 150.292,100.234 148.959,100.567 147.5,100.5C 147.077,98.2188 147.744,96.5521 149.5,95.5 Z"/></g>
<g><path style="opacity:0.863" fill="#4b5246" d="M 176.5,96.5 C 176.737,97.791 176.404,98.791 175.5,99.5C 174.883,99.6107 174.383,99.944 174,100.5C 173.51,99.2068 173.343,97.8734 173.5,96.5C 174.5,96.5 175.5,96.5 176.5,96.5 Z"/></g>
<g><path style="opacity:0.06" fill="#eaeee7" d="M 181.5,95.5 C 183.5,94.1667 185.5,94.1667 187.5,95.5C 186.833,95.5 186.5,95.8333 186.5,96.5C 186.5,97.8333 186.5,99.1667 186.5,100.5C 186.5,100.833 186.5,101.167 186.5,101.5C 184.388,102.275 182.388,102.275 180.5,101.5C 180.5,101.167 180.5,100.833 180.5,100.5C 181.5,100.5 182.5,100.5 183.5,100.5C 183.5,99.1667 183.5,97.8333 183.5,96.5C 183.158,95.6618 182.492,95.3284 181.5,95.5 Z"/></g>
<g><path style="opacity:0.006" fill="#eef3ec" d="M 77.5,94.5 C 79.4888,93.1134 81.3221,93.4468 83,95.5C 83.4955,97.4727 83.6621,99.4727 83.5,101.5C 81.2967,101.935 79.2967,101.935 77.5,101.5C 77.5,100.833 77.5,100.167 77.5,99.5C 78.4728,98.2086 79.4728,98.2086 80.5,99.5C 81.782,98.0416 81.782,96.7082 80.5,95.5C 79.791,94.596 78.791,94.2627 77.5,94.5 Z"/></g>
<g><path style="opacity:0.059" fill="#f2f7f0" d="M 160.5,100.5 C 161.5,100.5 162.5,100.5 163.5,100.5C 164.29,99.3915 164.79,98.0581 165,96.5C 165.383,97.056 165.883,97.3893 166.5,97.5C 166.263,98.791 166.596,99.791 167.5,100.5C 167.5,100.833 167.5,101.167 167.5,101.5C 164.167,102.833 160.833,102.833 157.5,101.5C 157.737,100.209 157.404,99.209 156.5,98.5C 156.5,97.8333 156.833,97.5 157.5,97.5C 158.117,97.3893 158.617,97.056 159,96.5C 159.21,98.0581 159.71,99.3915 160.5,100.5 Z"/></g>
<g><path style="opacity:0.051" fill="#e2e7e0" d="M 176.5,96.5 C 175.5,96.5 174.5,96.5 173.5,96.5C 173.343,97.8734 173.51,99.2068 174,100.5C 174.383,99.944 174.883,99.6107 175.5,99.5C 176.566,100.692 177.399,100.359 178,98.5C 178.708,99.3805 179.542,100.047 180.5,100.5C 180.5,100.833 180.5,101.167 180.5,101.5C 175.944,101.745 171.61,101.745 167.5,101.5C 167.5,101.167 167.5,100.833 167.5,100.5C 169.179,100.715 170.179,100.048 170.5,98.5C 172.048,98.1788 172.715,97.1788 172.5,95.5C 174.099,95.2322 175.432,95.5655 176.5,96.5 Z"/></g>
<g><path style="opacity:0.024" fill="#e4e9e2" d="M 119.5,95.5 C 119.5,97.1667 119.5,98.8333 119.5,100.5C 120.5,100.5 121.5,100.5 122.5,100.5C 122.5,98.8333 122.5,97.1667 122.5,95.5C 122.833,95.5 123.167,95.5 123.5,95.5C 125.27,98.7525 124.436,101.086 121,102.5C 118.959,101.577 116.792,101.244 114.5,101.5C 114.5,101.167 114.5,100.833 114.5,100.5C 115.653,99.6868 115.653,98.6868 114.5,97.5C 114.957,96.7025 115.624,96.3691 116.5,96.5C 117.609,96.4431 118.609,96.1098 119.5,95.5 Z"/></g>
<g><path style="opacity:0.62" fill="#656b62" d="M 119.5,95.5 C 120.5,95.5 121.5,95.5 122.5,95.5C 122.5,97.1667 122.5,98.8333 122.5,100.5C 121.5,100.5 120.5,100.5 119.5,100.5C 119.5,98.8333 119.5,97.1667 119.5,95.5 Z"/></g>
</svg>
