<?xml version="1.0" encoding="UTF-8"?>
<!DOCTYPE svg PUBLIC "-//W3C//DTD SVG 1.1//EN" "http://www.w3.org/Graphics/SVG/1.1/DTD/svg11.dtd">
<svg xmlns="http://www.w3.org/2000/svg" version="1.1" width="474px" height="273px" style="shape-rendering:geometricPrecision; text-rendering:geometricPrecision; image-rendering:optimizeQuality; fill-rule:evenodd; clip-rule:evenodd" xmlns:xlink="http://www.w3.org/1999/xlink">
<g><path style="opacity:0.345" fill="#999999" d="M 252.5,50.5 C 247.463,50.4126 242.463,50.746 237.5,51.5C 242.398,48.3771 247.398,48.0438 252.5,50.5 Z"/></g>
<g><path style="opacity:0.998" fill="#3c3c3c" d="M 252.5,50.5 C 253.791,50.2627 254.791,50.596 255.5,51.5C 255.973,52.9063 256.973,53.573 258.5,53.5C 259.5,53.8333 260.167,54.5 260.5,55.5C 261.134,59.4352 262.801,62.7685 265.5,65.5C 265.415,68.6489 266.415,71.3155 268.5,73.5C 271.975,80.4551 274.308,87.7884 275.5,95.5C 252.831,95.3334 230.164,95.5 207.5,96C 203.058,97.0571 199.058,98.8904 195.5,101.5C 193.413,102.585 192.08,104.251 191.5,106.5C 190.047,109.353 188.881,112.353 188,115.5C 187.806,124.548 187.306,133.548 186.5,142.5C 177.622,146.438 168.622,150.105 159.5,153.5C 157.623,154.659 157.123,156.326 158,158.5C 160.016,160.608 162.183,160.942 164.5,159.5C 168.764,159.523 172.431,158.19 175.5,155.5C 178.808,154.182 182.141,152.849 185.5,151.5C 186.086,151.709 186.586,152.043 187,152.5C 187.667,161.167 187.667,169.833 187,178.5C 178.582,182.786 169.749,186.12 160.5,188.5C 153.036,187.691 147.536,184.024 144,177.5C 139.874,166.92 136.041,156.253 132.5,145.5C 132.741,143.102 132.074,141.102 130.5,139.5C 130.33,138.178 130.663,137.011 131.5,136C 130.309,135.302 129.309,134.469 128.5,133.5C 127.069,132.22 126.402,130.553 126.5,128.5C 126.598,126.447 125.931,124.78 124.5,123.5C 114.218,103.733 119.885,91.4002 141.5,86.5C 144.716,86.6545 147.383,85.6545 149.5,83.5C 152.716,83.6545 155.383,82.6545 157.5,80.5C 159.421,79.6373 161.421,78.9707 163.5,78.5C 165.541,78.1459 167.374,78.1459 169,78.5C 170.054,76.2464 171.554,75.913 173.5,77.5C 174.696,77.1543 174.696,76.6543 173.5,76C 175.066,75.3918 176.4,74.5585 177.5,73.5C 183.648,70.9379 189.981,68.6045 196.5,66.5C 199.716,66.6545 202.383,65.6545 204.5,63.5C 205.209,62.596 206.209,62.2627 207.5,62.5C 210.716,62.6545 213.383,61.6545 215.5,59.5C 219.012,58.2744 222.179,58.2744 225,59.5C 225.483,58.552 225.649,57.552 225.5,56.5C 227.38,56.7709 228.713,56.1042 229.5,54.5C 232.716,54.6545 235.383,53.6545 237.5,51.5C 242.463,50.746 247.463,50.4126 252.5,50.5 Z M 167.5,109.5 C 167.833,109.5 168.167,109.5 168.5,109.5C 169.167,110.833 170.167,111.833 171.5,112.5C 172.53,116.423 173.863,120.256 175.5,124C 175.265,127.399 173.598,129.732 170.5,131C 164.998,133.225 159.331,134.725 153.5,135.5C 153.027,134.094 152.027,133.427 150.5,133.5C 149.696,130.421 148.696,127.421 147.5,124.5C 146.85,122.565 146.517,120.565 146.5,118.5C 147.906,118.027 148.573,117.027 148.5,115.5C 150.153,115.34 151.486,114.674 152.5,113.5C 153.791,113.737 154.791,113.404 155.5,112.5C 157.786,112.405 159.786,111.738 161.5,110.5C 163.5,110.167 165.5,109.833 167.5,109.5 Z"/></g>
<g><path style="opacity:0.102" fill="#b7b7b7" d="M 255.5,51.5 C 257.027,51.427 258.027,52.0937 258.5,53.5C 256.973,53.573 255.973,52.9063 255.5,51.5 Z"/></g>
<g><path style="opacity:0.4" fill="#8d8d8d" d="M 237.5,51.5 C 235.383,53.6545 232.716,54.6545 229.5,54.5C 231.936,53.129 234.603,52.129 237.5,51.5 Z"/></g>
<g><path style="opacity:0.824" fill="#646464" d="M 229.5,54.5 C 228.713,56.1042 227.38,56.7709 225.5,56.5C 225.649,57.552 225.483,58.552 225,59.5C 222.179,58.2744 219.012,58.2744 215.5,59.5C 219.952,57.4588 224.618,55.7921 229.5,54.5 Z"/></g>
<g><path style="opacity:0.782" fill="#757575" d="M 260.5,55.5 C 263.207,58.2466 264.873,61.5799 265.5,65.5C 262.801,62.7685 261.134,59.4352 260.5,55.5 Z"/></g>
<g><path style="opacity:0.451" fill="#848484" d="M 215.5,59.5 C 213.383,61.6545 210.716,62.6545 207.5,62.5C 209.936,61.129 212.603,60.129 215.5,59.5 Z"/></g>
<g><path style="opacity:0.459" fill="#898989" d="M 204.5,63.5 C 202.383,65.6545 199.716,66.6545 196.5,66.5C 198.89,64.9802 201.557,63.9802 204.5,63.5 Z"/></g>
<g><path style="opacity:0.29" fill="#a9a9a9" d="M 265.5,65.5 C 267.267,67.7916 268.267,70.4582 268.5,73.5C 266.415,71.3155 265.415,68.6489 265.5,65.5 Z"/></g>
<g><path style="opacity:0.824" fill="#797979" d="M 177.5,73.5 C 176.4,74.5585 175.066,75.3918 173.5,76C 174.696,76.6543 174.696,77.1543 173.5,77.5C 171.554,75.913 170.054,76.2464 169,78.5C 167.374,78.1459 165.541,78.1459 163.5,78.5C 167.799,76.0649 172.466,74.3982 177.5,73.5 Z"/></g>
<g><path style="opacity:0.263" fill="#8b8b8b" d="M 157.5,80.5 C 155.383,82.6545 152.716,83.6545 149.5,83.5C 151.936,82.129 154.603,81.129 157.5,80.5 Z"/></g>
<g><path style="opacity:0.361" fill="#7c7c7c" d="M 149.5,83.5 C 147.383,85.6545 144.716,86.6545 141.5,86.5C 143.936,85.129 146.603,84.129 149.5,83.5 Z"/></g>
<g><path style="opacity:0.264" fill="#979797" d="M 335.5,104.5 C 293.5,104.5 251.5,104.5 209.5,104.5C 240.527,103.823 271.694,103.156 303,102.5C 310.222,102.574 317.556,102.574 325,102.5C 328.654,103.062 332.154,103.729 335.5,104.5 Z"/></g>
<g><path style="opacity:0.035" fill="#c2c2c2" d="M 195.5,101.5 C 194.92,103.749 193.587,105.415 191.5,106.5C 192.08,104.251 193.413,102.585 195.5,101.5 Z"/></g>
<g><path style="opacity:0.276" fill="#9b9b9b" d="M 167.5,109.5 C 165.5,109.833 163.5,110.167 161.5,110.5C 163.32,108.539 165.32,108.206 167.5,109.5 Z"/></g>
<g><path style="opacity:0.435" fill="#909090" d="M 168.5,109.5 C 170.5,109.5 171.5,110.5 171.5,112.5C 170.167,111.833 169.167,110.833 168.5,109.5 Z"/></g>
<g><path style="opacity:0.988" fill="#3c3c3c" d="M 209.5,104.5 C 251.5,104.5 293.5,104.5 335.5,104.5C 338.849,105.169 341.516,106.836 343.5,109.5C 343.427,111.027 344.094,112.027 345.5,112.5C 346.793,113.842 347.626,115.509 348,117.5C 348.667,142.5 348.667,167.5 348,192.5C 346.788,196.528 344.621,199.862 341.5,202.5C 340.624,202.631 339.957,202.298 339.5,201.5C 340.59,200.391 340.59,199.391 339.5,198.5C 337.945,201.295 336.612,203.628 335.5,205.5C 293.335,206.665 251.002,206.831 208.5,206C 201.455,203.623 197.288,198.79 196,191.5C 195.333,167.167 195.333,142.833 196,118.5C 197.313,110.688 201.813,106.021 209.5,104.5 Z M 333.5,117.5 C 335.324,120.846 335.99,124.513 335.5,128.5C 293.167,128.5 250.833,128.5 208.5,128.5C 208.01,124.513 208.676,120.846 210.5,117.5C 251.47,116.172 292.47,116.172 333.5,117.5 Z M 335.5,151.5 C 334.719,164.014 334.719,176.68 335.5,189.5C 334.094,189.973 333.427,190.973 333.5,192.5C 292.876,193.489 252.209,193.822 211.5,193.5C 211.167,192.5 210.5,191.833 209.5,191.5C 209.689,178.372 209.355,165.206 208.5,152C 250.832,151.5 293.165,151.333 335.5,151.5 Z"/></g>
<g><path style="opacity:0.294" fill="#959595" d="M 343.5,109.5 C 344.906,109.973 345.573,110.973 345.5,112.5C 344.094,112.027 343.427,111.027 343.5,109.5 Z"/></g>
<g><path style="opacity:0.098" fill="#b9b9b9" d="M 161.5,110.5 C 159.786,111.738 157.786,112.405 155.5,112.5C 157.102,110.926 159.102,110.259 161.5,110.5 Z"/></g>
<g><path style="opacity:0.043" fill="#c3c3c3" d="M 152.5,113.5 C 151.486,114.674 150.153,115.34 148.5,115.5C 149.287,113.896 150.62,113.229 152.5,113.5 Z"/></g>
<g><path style="opacity:0.2" fill="#909090" d="M 333.5,117.5 C 292.47,116.172 251.47,116.172 210.5,117.5C 230.489,116.167 250.822,115.5 271.5,115.5C 291.833,115.667 312.167,115.833 332.5,116C 333.056,116.383 333.389,116.883 333.5,117.5 Z"/></g>
<g><path style="opacity:0.078" fill="#c8c8c8" d="M 148.5,115.5 C 148.573,117.027 147.906,118.027 146.5,118.5C 146.427,116.973 147.094,115.973 148.5,115.5 Z"/></g>
<g><path style="opacity:0.165" fill="#a0a0a0" d="M 146.5,118.5 C 146.517,120.565 146.85,122.565 147.5,124.5C 146.053,123.866 145.387,122.699 145.5,121C 145.528,119.93 145.861,119.097 146.5,118.5 Z"/></g>
<g><path style="opacity:0.169" fill="#b5b5b5" d="M 124.5,123.5 C 125.931,124.78 126.598,126.447 126.5,128.5C 125.069,127.22 124.402,125.553 124.5,123.5 Z"/></g>
<g><path style="opacity:0.024" fill="#c5c5c5" d="M 150.5,133.5 C 152.027,133.427 153.027,134.094 153.5,135.5C 151.973,135.573 150.973,134.906 150.5,133.5 Z"/></g>
<g><path style="opacity:0.714" fill="#808080" d="M 128.5,133.5 C 129.309,134.469 130.309,135.302 131.5,136C 130.663,137.011 130.33,138.178 130.5,139.5C 129.262,137.786 128.595,135.786 128.5,133.5 Z"/></g>
<g><path style="opacity:0.161" fill="#a6a6a6" d="M 130.5,139.5 C 132.074,141.102 132.741,143.102 132.5,145.5C 131.262,143.786 130.595,141.786 130.5,139.5 Z"/></g>
<g><path style="opacity:0.404" fill="#848484" d="M 175.5,155.5 C 172.431,158.19 168.764,159.523 164.5,159.5C 167.939,157.796 171.605,156.462 175.5,155.5 Z"/></g>
<g><path style="opacity:0.383" fill="#a8a8a8" d="M 335.5,150.5 C 335.5,150.833 335.5,151.167 335.5,151.5C 293.165,151.333 250.832,151.5 208.5,152C 209.355,165.206 209.689,178.372 209.5,191.5C 208.778,191.082 208.278,190.416 208,189.5C 207.5,176.504 207.333,163.504 207.5,150.5C 250.167,150.5 292.833,150.5 335.5,150.5 Z"/></g>
<g><path style="opacity:0.224" fill="#939393" d="M 159.5,153.5 C 158.047,157.734 159.713,159.734 164.5,159.5C 162.183,160.942 160.016,160.608 158,158.5C 157.123,156.326 157.623,154.659 159.5,153.5 Z"/></g>
<g><path style="opacity:0.375" fill="#787878" d="M 287.5,162.5 C 265.497,162.333 243.497,162.5 221.5,163C 220.956,163.717 220.289,164.217 219.5,164.5C 219.414,163.504 219.748,162.671 220.5,162C 232.033,161.802 243.533,161.302 255,160.5C 262.472,161.69 270.138,161.69 278,160.5C 281.412,160.614 284.579,161.281 287.5,162.5 Z"/></g>
<g><path style="opacity:0.996" fill="#3a3a3a" d="M 287.5,162.5 C 287.5,164.833 287.5,167.167 287.5,169.5C 265.671,170.663 243.671,170.83 221.5,170C 218.879,168.634 218.212,166.801 219.5,164.5C 220.289,164.217 220.956,163.717 221.5,163C 243.497,162.5 265.497,162.333 287.5,162.5 Z"/></g>
<g><path style="opacity:0.639" fill="#848484" d="M 287.5,162.5 C 290.167,164.833 290.167,167.167 287.5,169.5C 287.5,167.167 287.5,164.833 287.5,162.5 Z"/></g>
<g><path style="opacity:0.438" fill="#929292" d="M 335.5,150.5 C 336.833,163.5 336.833,176.5 335.5,189.5C 334.719,176.68 334.719,164.014 335.5,151.5C 335.5,151.167 335.5,150.833 335.5,150.5 Z"/></g>
<g><path style="opacity:0.157" fill="#cdcdcd" d="M 335.5,189.5 C 335.573,191.027 334.906,192.027 333.5,192.5C 333.427,190.973 334.094,189.973 335.5,189.5 Z"/></g>
<g><path style="opacity:0.192" fill="#979797" d="M 333.5,192.5 C 333.389,193.117 333.056,193.617 332.5,194C 291.998,194.831 251.665,194.665 211.5,193.5C 252.209,193.822 292.876,193.489 333.5,192.5 Z"/></g>
<g><path style="opacity:1" fill="#686868" d="M 341.5,202.5 C 340.089,204.539 338.089,205.539 335.5,205.5C 336.612,203.628 337.945,201.295 339.5,198.5C 340.59,199.391 340.59,200.391 339.5,201.5C 339.957,202.298 340.624,202.631 341.5,202.5 Z"/></g>
</svg>
