<?xml version="1.0" standalone="no"?>
<!DOCTYPE svg PUBLIC "-//W3C//DTD SVG 20010904//EN"
 "http://www.w3.org/TR/2001/REC-SVG-20010904/DTD/svg10.dtd">
<svg version="1.0" xmlns="http://www.w3.org/2000/svg"
 width="64.000000pt" height="64.000000pt" viewBox="0 0 64.000000 64.000000"
 preserveAspectRatio="xMidYMid meet">
<metadata>
Created by potrace 1.10, written by Peter Selinger 2001-2011
</metadata>
<g transform="translate(0.000000,64.000000) scale(0.100000,-0.100000)"
fill="#05668d" stroke="none">
<path d="M375 608 c-11 -7 -36 -11 -55 -9 -68 5 -140 -70 -140 -147 0 -18 -6
-42 -12 -53 -11 -18 -10 -23 15 -43 15 -12 27 -26 27 -31 0 -5 12 -21 27 -37
22 -23 24 -30 13 -43 -7 -8 -25 -15 -40 -15 -19 0 -36 -9 -49 -27 -12 -14 -24
-23 -28 -19 -4 3 -1 12 5 18 7 7 12 26 12 44 0 19 6 34 15 38 19 7 19 45 0 52
-8 4 -15 15 -15 25 0 10 -4 19 -10 19 -19 0 -11 76 10 95 24 22 26 48 4 69
-20 20 -48 20 -68 0 -22 -21 -20 -51 4 -71 21 -18 29 -93 10 -93 -5 0 -10 -9
-10 -20 0 -15 -7 -20 -25 -20 -46 0 -47 -10 -10 -277 l6 -43 218 0 219 0 12
30 c16 38 24 38 40 0 7 -16 15 -30 19 -30 4 0 12 19 18 43 6 23 17 62 24 85
13 40 12 45 -6 58 -11 8 -27 11 -39 7 -23 -7 -38 -7 -76 0 -110 21 -124 33
-87 76 14 17 27 36 30 43 3 9 10 7 25 -9 29 -30 92 -77 96 -72 3 2 -6 36 -20
74 -17 51 -24 92 -24 153 0 79 -2 85 -29 113 -32 31 -71 37 -106 17z m92 -30
c17 -19 21 -41 26 -124 3 -56 10 -111 17 -124 17 -31 7 -35 -25 -7 -25 21 -26
25 -14 45 11 17 11 24 1 34 -6 6 -12 29 -12 50 0 46 -20 89 -54 116 -14 11
-22 22 -19 26 14 14 61 5 80 -16z m-65 -36 c21 -21 31 -41 34 -73 3 -40 3 -41
-6 -13 -16 51 -55 79 -110 79 -55 0 -94 -28 -110 -79 -9 -28 -10 -27 -6 12 4
45 33 86 71 103 36 16 96 3 127 -29z m-257 -32 c0 -18 -6 -26 -23 -28 -24 -4
-38 18 -28 44 3 9 15 14 28 12 17 -2 23 -10 23 -28z m190 -20 c-25 -49 -116
-94 -115 -57 2 42 53 86 103 87 27 0 27 0 12 -30z m72 -24 l16 -31 -23 20
c-31 28 -46 57 -25 49 9 -4 23 -21 32 -38z m13 -87 l0 -29 -100 0 c-100 0
-100 0 -100 25 0 20 6 25 36 31 21 4 49 20 67 38 l31 31 33 -33 c22 -23 33
-44 33 -63z m-220 6 c0 -8 -4 -15 -10 -15 -5 0 -10 7 -10 15 0 8 5 15 10 15 6
0 10 -7 10 -15z m260 0 c0 -8 -4 -15 -10 -15 -5 0 -10 7 -10 15 0 8 5 15 10
15 6 0 10 -7 10 -15z m-330 -40 c0 -8 -4 -15 -10 -15 -5 0 -10 7 -10 15 0 8 5
15 10 15 6 0 10 -7 10 -15z m252 -45 c-18 -17 -44 -30 -58 -30 -32 0 -80 24
-87 45 -6 13 7 15 86 15 l92 -1 -33 -29z m-272 10 c0 -5 -9 -10 -20 -10 -11 0
-20 -4 -20 -10 0 -5 5 -10 10 -10 6 0 10 -16 10 -35 0 -28 -4 -35 -19 -35 -15
0 -20 9 -23 48 -3 26 -3 50 -1 55 6 11 63 9 63 -3z m50 0 c0 -5 -7 -10 -15
-10 -8 0 -15 5 -15 10 0 6 7 10 15 10 8 0 15 -4 15 -10z m-30 -60 c0 -22 -4
-40 -10 -40 -5 0 -10 18 -10 40 0 22 5 40 10 40 6 0 10 -18 10 -40z m230 -6
c0 -7 -9 -22 -20 -35 l-20 -24 -20 24 c-30 35 -25 46 20 46 23 0 40 -5 40 -11z
m-60 -74 c0 -3 -9 -11 -20 -17 -17 -11 -20 -9 -29 24 -14 50 -2 62 26 27 12
-16 23 -31 23 -34z m89 7 c-9 -34 -12 -37 -27 -26 -9 8 -19 14 -21 16 -2 1 7
16 19 33 28 39 43 27 29 -23z m-154 -10 c17 -51 20 -53 50 -33 l25 16 0 -55 0
-55 -114 0 -114 0 -6 28 c-2 15 -8 48 -11 75 -6 47 -6 47 23 47 25 0 30 -5 41
-42 10 -30 10 -43 2 -46 -19 -6 -12 -22 9 -22 17 0 20 7 20 49 0 84 50 109 75
38z m207 16 c-1 -11 6 -44 18 -72 24 -62 25 -71 5 -71 -9 0 -15 9 -15 25 0 14
-4 25 -10 25 -5 0 -10 -11 -10 -25 0 -23 -3 -25 -50 -25 l-50 0 0 56 c0 55 0
55 22 40 12 -9 25 -16 29 -16 6 0 18 26 33 73 8 25 32 16 28 -10z m78 -3 c33
-17 40 -18 40 -6 0 21 19 31 33 17 8 -8 6 -26 -8 -67 l-19 -56 -18 24 -18 23
-18 -23 -18 -23 -18 51 c-16 45 -17 80 -1 80 3 0 24 -9 45 -20z"/>
<path d="M254 389 c-10 -17 13 -36 27 -22 12 12 4 33 -11 33 -5 0 -12 -5 -16
-11z"/>
<path d="M354 389 c-10 -17 13 -36 27 -22 12 12 4 33 -11 33 -5 0 -12 -5 -16
-11z"/>
</g>
</svg>
