 <svg  version="1.0" xmlns="http://www.w3.org/2000/svg"  width="64.000000pt" height="64.000000pt" viewBox="0 0 64.000000 64.000000"  preserveAspectRatio="xMidYMid meet">  <g transform="translate(0.000000,64.000000) scale(0.100000,-0.100000)" fill="#05668d" stroke="none"> <path d="M181 630 c-51 -8 -101 -55 -101 -95 0 -13 -5 -27 -10 -30 -7 -4 -6 -13 1 -27 6 -11 9 -34 6 -52 -3 -23 2 -39 19 -59 13 -16 24 -37 24 -47 0 -10 11 -32 25 -48 36 -43 32 -56 -24 -76 -48 -17 -80 -41 -69 -51 3 -3 26 7 52 21 26 14 48 25 50 23 2 -2 19 -44 38 -94 20 -50 40 -90 44 -89 5 0 25 42 45 93 l36 92 6 -46 c6 -60 31 -94 90 -124 66 -32 123 -24 176 27 64 62 65 166 1 227 -42 40 -51 22 -10 -20 111 -114 -39 -301 -171 -212 -39 26 -69 79 -69 122 0 69 72 135 148 135 23 0 42 5 42 10 0 6 -22 10 -49 10 -56 0 -105 -28 -136 -77 -21 -34 -42 -38 -37 -7 2 10 13 31 23 45 10 15 19 34 19 42 0 9 11 28 23 44 19 22 23 36 19 66 -2 23 0 37 7 37 13 0 14 23 3 48 -5 9 -15 30 -23 46 -28 58 -99 82 -198 66z m102 -19 c45 -11 87 -46 87 -73 0 -23 -11 -23 -32 2 -25 29 -64 35 -93 16 -14 -9 -25 -21 -25 -26 0 -6 -16 -10 -35 -10 -19 0 -35 -4 -35 -10 0 -5 14 -10 30 -10 17 0 30 -4 30 -10 0 -13 -117 -13 -125 0 -4 6 5 10 19 10 14 0 26 5 26 10 0 6 -7 10 -15 10 -44 0 12 77 65 90 47 11 59 11 103 1z m35 -77 c24 -16 28 -44 12 -75 -12 -22 -68 -27 -88 -7 -28 28 -1 98 37 98 9 0 27 -7 39 -16z m-88 -94 c22 -22 79 -27 98 -8 9 9 12 1 12 -35 0 -89 -42 -147 -106 -147 -65 0 -104 60 -104 163 l0 47 40 0 c27 0 47 -7 60 -20z m-110 -35 c0 -25 -14 -34 -24 -16 -8 12 3 41 15 41 5 0 9 -11 9 -25z m255 0 c0 -10 -6 -20 -12 -22 -8 -3 -13 5 -13 22 0 17 5 25 13 23 6 -3 12 -13 12 -23z m-85 -182 c0 -17 -50 -54 -64 -46 -23 13 -46 36 -46 47 0 7 22 11 55 11 36 0 55 -4 55 -12z m-85 -53 c10 -11 23 -20 30 -20 7 0 20 9 30 20 33 36 33 21 2 -56 -28 -68 -33 -73 -41 -52 -5 13 -19 47 -32 76 -24 54 -20 66 11 32z"/> <path d="M262 518 c-30 -30 3 -77 40 -57 30 16 16 69 -17 69 -6 0 -16 -5 -23 -12z m38 -22 c0 -21 -21 -31 -30 -15 -5 7 -6 17 -4 21 9 14 34 9 34 -6z"/> <path d="M409 246 c-31 -15 -47 -60 -31 -86 23 -38 31 -55 37 -82 8 -40 43 -38 52 2 8 42 19 46 27 10 10 -52 55 -49 56 3 0 11 9 30 20 44 46 59 -1 137 -67 112 -13 -5 -34 -4 -46 0 -16 6 -32 5 -48 -3z m155 -39 c9 -14 6 -26 -11 -57 -13 -21 -23 -48 -23 -59 0 -12 -4 -21 -10 -21 -5 0 -10 11 -10 24 0 13 -7 29 -15 36 -20 17 -45 -3 -45 -36 0 -13 -4 -24 -10 -24 -5 0 -10 12 -10 26 0 14 -9 37 -20 51 -44 57 -21 82 73 80 55 -2 72 -6 81 -20z"/> <path d="M450 190 c0 -5 13 -10 29 -10 17 0 33 5 36 10 4 6 -8 10 -29 10 -20 0 -36 -4 -36 -10z"/> <path d="M11 99 c-13 -38 -14 -89 -2 -89 4 0 11 19 14 42 2 24 8 51 12 61 4 9 3 17 -3 17 -6 0 -15 -14 -21 -31z"/> <path d="M60 50 l0 -31 53 3 c48 3 52 5 52 28 0 23 -4 25 -52 28 l-53 3 0 -31z m90 0 c0 -5 -16 -10 -35 -10 -19 0 -35 5 -35 10 0 6 16 10 35 10 19 0 35 -4 35 -10z"/> </g> </svg> 