<?xml version="1.0" standalone="no"?>
<!DOCTYPE svg PUBLIC "-//W3C//DTD SVG 20010904//EN"
 "http://www.w3.org/TR/2001/REC-SVG-20010904/DTD/svg10.dtd">
<svg version="1.0" xmlns="http://www.w3.org/2000/svg"
 width="64.000000pt" height="64.000000pt" viewBox="0 0 64.000000 64.000000"
 preserveAspectRatio="xMidYMid meet">
<metadata>
Created by potrace 1.10, written by Peter Selinger 2001-2011
</metadata>
<g transform="translate(0.000000,64.000000) scale(0.100000,-0.100000)"
fill="#05668d" stroke="none">
<path d="M418 620 c-10 -16 -24 -20 -69 -20 -41 0 -60 -5 -71 -17 -20 -23 -28
-113 -11 -113 9 0 13 15 13 43 0 52 13 67 58 67 43 0 38 -24 -6 -28 -30 -3
-32 -6 -32 -43 0 -21 5 -39 10 -39 6 0 10 13 10 29 0 17 6 31 16 35 13 5 15 1
10 -19 l-6 -25 106 0 c101 0 106 1 101 20 -4 15 0 20 14 20 18 0 19 -9 19
-160 l0 -160 -45 0 -45 0 0 -40 0 -40 -70 0 c-40 0 -70 -4 -70 -10 0 -6 48
-10 125 -10 l125 0 0 219 0 220 -32 3 c-17 2 -33 9 -36 16 -5 16 60 16 76 0
17 -17 17 -464 0 -474 -7 -4 -68 -7 -135 -6 -103 1 -123 -1 -123 -13 0 -12 21
-15 125 -15 177 0 165 -19 165 270 0 217 -1 231 -20 250 -15 15 -33 20 -70 20
-37 0 -55 5 -70 20 -11 11 -27 20 -35 20 -8 0 -20 -9 -27 -20z m49 -19 c3 -11
13 -21 22 -24 10 -2 23 -18 29 -36 l11 -31 -80 0 c-43 0 -79 2 -79 4 0 23 26
66 40 66 10 0 20 9 23 20 7 25 27 26 34 1z m69 -436 l-26 -28 0 26 c0 19 6 27
23 29 31 5 31 4 3 -27z m44 -10 c0 -20 -5 -25 -27 -25 l-26 0 23 25 c13 14 25
25 27 25 2 0 3 -11 3 -25z"/>
<path d="M38 421 c-31 -28 -33 -33 -31 -90 1 -34 10 -75 18 -92 9 -17 21 -74
27 -126 10 -85 13 -96 35 -106 35 -16 52 7 64 89 16 113 17 116 42 112 19 -3
23 -13 37 -96 16 -100 31 -123 69 -103 21 12 26 31 37 130 3 35 15 82 25 105
20 45 25 126 9 157 -6 10 -25 26 -42 35 -28 14 -38 15 -86 3 -42 -10 -63 -10
-98 -1 -62 17 -70 16 -106 -17z m155 -3 c31 0 73 2 93 3 70 6 95 -72 54 -169
-11 -26 -24 -85 -30 -131 -16 -137 -41 -138 -59 -1 -14 96 -31 123 -72 113
-27 -8 -31 -17 -45 -112 -20 -134 -48 -138 -59 -10 -4 45 -16 101 -26 124 -11
24 -22 64 -25 89 -6 41 -4 48 25 77 26 26 36 30 59 24 15 -4 53 -8 85 -7z"/>
<path d="M62 387 c-6 -6 -13 -24 -17 -40 -6 -21 -4 -27 10 -27 9 0 13 5 10 10
-4 6 0 22 9 35 9 13 16 27 16 30 0 10 -17 5 -28 -8z"/>
<path d="M370 440 c0 -6 37 -10 90 -10 53 0 90 4 90 10 0 6 -37 10 -90 10 -53
0 -90 -4 -90 -10z"/>
<path d="M404 381 c-15 -15 5 -21 72 -21 51 0 74 4 72 11 -3 10 -134 19 -144
10z"/>
<path d="M400 310 c0 -6 32 -10 75 -10 43 0 75 4 75 10 0 6 -32 10 -75 10 -43
0 -75 -4 -75 -10z"/>
<path d="M402 248 c3 -9 26 -13 71 -13 92 0 91 19 -1 23 -57 2 -73 0 -70 -10z"/>
<path d="M400 180 c0 -5 16 -10 35 -10 19 0 35 5 35 10 0 6 -16 10 -35 10 -19
0 -35 -4 -35 -10z"/>
</g>
</svg>
