<?xml version="1.0" encoding="UTF-8"?>
<!DOCTYPE svg PUBLIC "-//W3C//DTD SVG 1.1//EN" "http://www.w3.org/Graphics/SVG/1.1/DTD/svg11.dtd">
<svg xmlns="http://www.w3.org/2000/svg" version="1.1" width="360px" height="360px" style="shape-rendering:geometricPrecision; text-rendering:geometricPrecision; image-rendering:optimizeQuality; fill-rule:evenodd; clip-rule:evenodd" xmlns:xlink="http://www.w3.org/1999/xlink">
<g><path style="opacity:1" fill="#353535" d="M 307.5,88.5 C 307.66,90.1992 307.494,91.8659 307,93.5C 305.418,89.5136 303.085,88.5136 300,90.5C 297.733,89.0652 295.733,89.3985 294,91.5C 292.984,90.3659 292.317,90.6992 292,92.5C 290.192,92.1119 288.525,92.1119 287,92.5C 286.667,93.1667 286.333,93.8333 286,94.5C 284.333,94.5 282.667,94.5 281,94.5C 277.769,96.1162 274.436,97.4495 271,98.5C 269.984,97.3659 269.317,97.6992 269,99.5C 265.856,98.5905 262.522,99.2572 259,101.5C 258.667,101.167 258.333,100.833 258,100.5C 254.925,101.249 251.925,102.249 249,103.5C 246.333,103.5 243.667,103.5 241,103.5C 240.667,104.167 240.333,104.833 240,105.5C 238.602,104.949 237.268,104.616 236,104.5C 235.333,105.167 234.667,105.833 234,106.5C 231.907,105.754 229.907,105.421 228,105.5C 225.763,106.056 223.763,107.056 222,108.5C 220.209,106.487 218.875,106.487 218,108.5C 216.602,107.949 215.268,107.616 214,107.5C 213.333,108.167 212.667,108.833 212,109.5C 209.568,108.707 207.234,108.374 205,108.5C 202.333,109.167 199.667,109.833 197,110.5C 195.221,109.521 193.555,109.854 192,111.5C 185.221,111.229 178.554,111.229 172,111.5C 171.333,112.167 170.667,112.833 170,113.5C 167.23,112.675 164.563,112.341 162,112.5C 161,113.167 160,113.833 159,114.5C 158,113.167 157,113.167 156,114.5C 155.333,111.833 154.667,111.833 154,114.5C 152.602,113.949 151.268,113.616 150,113.5C 149.333,116.167 148.667,116.167 148,113.5C 147.667,114.167 147.333,114.833 147,115.5C 145.602,114.949 144.268,114.616 143,114.5C 142.333,115.167 141.667,115.833 141,116.5C 138.23,115.675 135.563,115.341 133,115.5C 132.333,118.167 131.667,118.167 131,115.5C 128.91,116.794 126.91,117.794 125,118.5C 122.568,117.707 120.234,117.374 118,117.5C 116.333,118.167 114.667,118.833 113,119.5C 111.853,118.542 110.853,118.875 110,120.5C 106.475,119.499 102.809,120.166 99,122.5C 96.3876,121.327 93.7209,121.994 91,124.5C 89.6015,123.949 88.2682,123.616 87,123.5C 83.7709,124.345 80.4375,125.678 77,127.5C 73.918,126.79 71.2514,127.79 69,130.5C 68,130.167 67,129.833 66,129.5C 64.3483,130.068 62.6816,131.401 61,133.5C 59.8525,132.542 58.8525,132.875 58,134.5C 56.9505,133.483 55.7839,133.316 54.5,134C 54.9082,136.861 54.0749,137.028 52,134.5C 51.5348,135.931 50.7014,137.097 49.5,138C 50.6341,139.016 50.3008,139.683 48.5,140C 51.1667,140.667 51.1667,141.333 48.5,142C 50.4812,142.605 50.8146,143.605 49.5,145C 50.6667,146.833 52.1667,148.333 54,149.5C 54.3534,150.672 54.1868,151.838 53.5,153C 54.3839,154.098 55.3839,154.598 56.5,154.5C 55.1451,155.675 55.3117,156.675 57,157.5C 57.6667,153.5 58.3333,153.5 59,157.5C 59.3333,156.833 59.6667,156.167 60,155.5C 60.8624,157.087 61.5291,158.754 62,160.5C 62.2492,159.376 62.7492,158.376 63.5,157.5C 64.4255,158.641 65.2588,158.641 66,157.5C 66.3333,158.167 66.6667,158.833 67,159.5C 68.3161,158.026 69.3161,156.359 70,154.5C 70.6667,156.5 71.3333,158.5 72,160.5C 72.2213,157.057 73.2213,156.724 75,159.5C 76.7787,156.724 77.7787,157.057 78,160.5C 78.2213,157.057 79.2213,156.724 81,159.5C 81.3333,159.167 81.6667,158.833 82,158.5C 82.3333,159.5 82.6667,160.5 83,161.5C 83.2896,159.956 83.9563,158.623 85,157.5C 85.3333,158.167 85.6667,158.833 86,159.5C 87,158.167 88,156.833 89,155.5C 90,156.833 91,158.167 92,159.5C 93,158.167 94,156.833 95,155.5C 95.9745,157.878 96.6411,157.544 97,154.5C 97.2896,156.044 97.9563,157.377 99,158.5C 100.333,158.5 101.667,158.5 103,158.5C 104.333,157.833 105.333,156.833 106,155.5C 107.449,156.614 108.783,157.614 110,158.5C 110.333,157.167 110.667,155.833 111,154.5C 112.087,158.629 114.087,159.296 117,156.5C 117.869,161.508 118.536,161.175 119,155.5C 120.316,156.974 121.316,158.641 122,160.5C 124,153.833 126,153.833 128,160.5C 129.715,155.049 131.382,154.716 133,159.5C 133.317,157.699 133.984,157.366 135,158.5C 135.333,159.5 135.667,160.5 136,161.5C 136.29,159.956 136.956,158.623 138,157.5C 138.333,158.167 138.667,158.833 139,159.5C 140,158.167 141,156.833 142,155.5C 142.974,157.878 143.641,157.544 144,154.5C 144.667,156.5 145.333,158.5 146,160.5C 146.333,159.5 146.667,158.5 147,157.5C 148.364,158.258 149.531,157.758 150.5,156C 149.833,155.333 149.167,154.667 148.5,154C 150.008,152.493 151.341,150.827 152.5,149C 151.72,147.927 151.887,146.76 153,145.5C 153.805,147.901 154.638,147.734 155.5,145C 155.167,144.667 154.833,144.333 154.5,144C 156.348,142.482 157.848,140.649 159,138.5C 159.483,139.448 159.649,140.448 159.5,141.5C 157.699,145.933 157.033,150.6 157.5,155.5C 156.683,153.031 156.183,150.365 156,147.5C 155.667,150.5 155.333,153.5 155,156.5C 154.5,157 154,157.5 153.5,158C 155.455,160.168 156.121,162.502 155.5,165C 154.833,165.333 154.167,165.667 153.5,166C 155.904,166.508 156.571,167.675 155.5,169.5C 156,170.5 156.5,171.5 157,172.5C 157.914,171.346 158.747,171.513 159.5,173C 158.167,174.84 158.334,175.34 160,174.5C 161.487,175.253 161.654,176.086 160.5,177C 162.709,179.491 164.875,181.324 167,182.5C 167.667,179.833 168.333,179.833 169,182.5C 170.333,182.5 171.667,182.5 173,182.5C 174.204,183.471 174.704,184.471 174.5,185.5C 175.541,183.009 176.374,183.009 177,185.5C 177.667,184.167 178.333,184.167 179,185.5C 179.684,186.784 179.517,187.951 178.5,189C 175.964,189.186 173.631,189.686 171.5,190.5C 170.508,190.672 169.842,190.338 169.5,189.5C 172.034,188.162 171.7,187.162 168.5,186.5C 166.941,187.074 165.441,187.74 164,188.5C 162.038,188.031 160.205,188.697 158.5,190.5C 157.811,192.444 157.311,194.444 157,196.5C 156.506,194.866 156.34,193.199 156.5,191.5C 154.712,191.215 153.045,191.548 151.5,192.5C 152.557,192.906 153.891,192.906 155.5,192.5C 155.5,193.833 155.5,195.167 155.5,196.5C 153.876,196.64 152.71,195.973 152,194.5C 151.333,197.167 150.667,197.167 150,194.5C 149.333,197.167 148.667,197.167 148,194.5C 147.016,196.795 146.183,196.461 145.5,193.5C 146.603,193.002 147.603,192.669 148.5,192.5C 147.311,191.571 145.978,191.238 144.5,191.5C 144.167,195.5 143.833,195.5 143.5,191.5C 142.5,191.5 141.5,191.5 140.5,191.5C 140.649,192.552 140.483,193.552 140,194.5C 139.667,193.167 139.333,191.833 139,190.5C 138.748,192.378 138.081,194.378 137,196.5C 136.333,193.833 135.667,193.833 135,196.5C 133.293,194.091 132.46,191.425 132.5,188.5C 135.684,188.668 136.184,187.334 134,184.5C 133.667,185.5 133.333,186.5 133,187.5C 132.879,185.273 132.046,183.44 130.5,182C 132.901,181.195 132.734,180.362 130,179.5C 129.4,177.09 128.234,175.09 126.5,173.5C 118.821,160.553 108.154,157.387 94.5,164C 91.9334,166.396 89.6,168.896 87.5,171.5C 86.3172,172.504 84.9839,173.338 83.5,174C 84.1667,174.333 84.8333,174.667 85.5,175C 83.3215,175.442 82.6548,176.442 83.5,178C 82.1667,179.667 80.8333,181.333 79.5,183C 82.1667,184.667 82.1667,186.333 79.5,188C 79.8333,189 80.1667,190 80.5,191C 79.3224,191.967 77.989,192.467 76.5,192.5C 77.3128,193.814 78.3128,194.981 79.5,196C 78.0826,198.826 76.5826,198.993 75,196.5C 73.6667,199.167 72.3333,199.167 71,196.5C 69.6667,199.167 68.3333,199.167 67,196.5C 66.6667,196.833 66.3333,197.167 66,197.5C 61.649,194.821 60.149,191.155 61.5,186.5C 58.4017,186.587 58.0684,186.087 60.5,185C 58.6972,183.738 57.3639,182.071 56.5,180C 57.1667,179.667 57.8333,179.333 58.5,179C 56.3215,178.558 55.6548,177.558 56.5,176C 54.6933,171.362 52.5267,166.529 50,161.5C 49.5065,163.134 49.3398,164.801 49.5,166.5C 46.8622,155.034 44.5289,143.367 42.5,131.5C 42.5288,129.971 43.1955,128.804 44.5,128C 69.7792,118.944 95.7792,112.944 122.5,110C 152.141,107.058 181.808,104.391 211.5,102C 244.314,99.255 276.314,92.755 307.5,82.5C 307.5,84.5 307.5,86.5 307.5,88.5 Z"/></g>
<g><path style="opacity:1" fill="#3e3e3e" d="M 307.5,88.5 C 309.939,99.2916 311.939,110.292 313.5,121.5C 312.239,117.629 310.906,117.629 309.5,121.5C 310.78,123.702 310.78,125.868 309.5,128C 312.167,128.667 312.167,129.333 309.5,130C 310.167,130.333 310.833,130.667 311.5,131C 311.167,134.667 310.833,138.333 310.5,142C 311.167,142.333 311.833,142.667 312.5,143C 311.328,143.419 310.328,144.085 309.5,145C 310.641,145.741 310.641,146.575 309.5,147.5C 310.025,148.192 310.692,148.692 311.5,149C 308.833,150.333 308.833,151.667 311.5,153C 308.619,154.251 306.786,156.417 306,159.5C 303.983,154.967 302.316,155.634 301,161.5C 300.53,159.226 299.53,157.226 298,155.5C 297.683,157.301 297.016,157.634 296,156.5C 295.333,163.167 294.667,163.167 294,156.5C 290.24,151.495 286.74,147.828 283.5,145.5C 272.179,133.035 260.179,132.369 247.5,143.5C 246.25,143.577 245.417,144.244 245,145.5C 243.334,144.66 243.167,145.16 244.5,147C 243.747,148.487 242.914,148.654 242,147.5C 238.637,152.188 235.304,156.855 232,161.5C 231.71,159.956 231.044,158.623 230,157.5C 229.667,158.167 229.333,158.833 229,159.5C 226.74,157.003 225.407,157.67 225,161.5C 224.448,158.953 223.114,156.953 221,155.5C 220.333,159.5 219.667,159.5 219,155.5C 218.086,159.185 217.419,158.852 217,154.5C 215.902,159.84 213.735,160.507 210.5,156.5C 210.709,155.914 211.043,155.414 211.5,155C 209.934,153.316 208.934,151.316 208.5,149C 208.406,146.835 208.74,144.835 209.5,143C 209.121,140.812 207.954,138.645 206,136.5C 205.667,137.167 205.333,137.833 205,138.5C 204.667,136.167 204.333,133.833 204,131.5C 203.817,134.365 203.317,137.031 202.5,139.5C 202.5,136.833 202.5,134.167 202.5,131.5C 199.14,131.384 195.807,131.051 192.5,130.5C 190.735,129.539 188.735,129.205 186.5,129.5C 186.187,126.753 186.52,124.086 187.5,121.5C 190.499,123.334 192.999,125.667 195,128.5C 198.003,130.165 200.336,129.498 202,126.5C 202.442,128.679 203.442,129.345 205,128.5C 207.333,130.167 209.667,131.833 212,133.5C 213.333,130.833 214.667,130.833 216,133.5C 217.333,130.833 218.667,130.833 220,133.5C 221,132.5 222,131.5 223,130.5C 223.556,132.595 224.056,132.762 224.5,131C 221.61,129.108 221.944,128.275 225.5,128.5C 225.682,133.794 226.182,133.794 227,128.5C 227.667,133.833 228.333,133.833 229,128.5C 229.542,133.721 230.376,133.721 231.5,128.5C 231.833,128.667 232.167,128.833 232.5,129C 231.663,130.011 231.33,131.178 231.5,132.5C 232.5,132.5 233.5,132.5 234.5,132.5C 234.094,130.891 234.094,129.557 234.5,128.5C 235.624,133.721 236.458,133.721 237,128.5C 237.542,133.721 238.376,133.721 239.5,128.5C 239.833,128.667 240.167,128.833 240.5,129C 239.663,130.011 239.33,131.178 239.5,132.5C 241.143,132.52 242.476,131.853 243.5,130.5C 244.814,131.313 245.981,132.313 247,133.5C 248.333,130.833 249.667,130.833 251,133.5C 252.309,131.109 253.309,131.109 254,133.5C 254.333,132.833 254.667,132.167 255,131.5C 261.667,131.5 268.333,131.5 275,131.5C 275.333,132.167 275.667,132.833 276,133.5C 277.137,132.636 278.47,131.636 280,130.5C 280.915,131.328 281.581,132.328 282,133.5C 282.691,131.109 283.691,131.109 285,133.5C 286.883,132.347 287.716,130.681 287.5,128.5C 288.978,128.238 290.311,128.571 291.5,129.5C 290.603,129.669 289.603,130.002 288.5,130.5C 289.77,131.562 290.937,132.562 292,133.5C 292.333,132.833 292.667,132.167 293,131.5C 293.667,132.833 294.333,132.833 295,131.5C 295.667,134.167 296.333,134.167 297,131.5C 297.667,132.833 298.333,132.833 299,131.5C 299.333,132.167 299.667,132.833 300,133.5C 302.32,132.38 304.487,130.38 306.5,127.5C 306.444,117.862 306.444,108.528 306.5,99.5C 305.96,98.2519 305.293,97.0852 304.5,96C 304.833,95.6667 305.167,95.3333 305.5,95C 300.565,91.7113 295.731,91.8779 291,95.5C 289.667,95.5 288.333,95.5 287,95.5C 286.683,97.3008 286.016,97.6341 285,96.5C 282.912,97.3081 280.912,98.3081 279,99.5C 276.602,99.0647 274.269,99.7313 272,101.5C 271.667,101.167 271.333,100.833 271,100.5C 268.667,101.5 266.333,102.5 264,103.5C 262,103.5 260,103.5 258,103.5C 257.667,104.167 257.333,104.833 257,105.5C 254.812,104.553 252.478,104.553 250,105.5C 248.333,106.5 246.667,107.5 245,108.5C 243.691,106.109 242.691,106.109 242,108.5C 241,108.167 240,107.833 239,107.5C 238.333,110.167 237.667,110.167 237,107.5C 235.863,108.364 234.53,109.364 233,110.5C 227.834,111.495 222.834,111.495 218,110.5C 217.667,111.167 217.333,111.833 217,112.5C 215.602,111.949 214.268,111.616 213,111.5C 211.667,114.167 210.333,114.167 209,111.5C 207.667,112.167 206.333,112.833 205,113.5C 203.221,112.521 201.555,112.854 200,114.5C 198.691,112.109 197.691,112.109 197,114.5C 195.413,113.273 194.079,113.606 193,115.5C 191.691,113.109 190.691,113.109 190,115.5C 189.333,112.833 188.667,112.833 188,115.5C 187.333,112.833 186.667,112.833 186,115.5C 183.408,115.399 180.741,115.066 178,114.5C 176.212,115.358 174.378,116.358 172.5,117.5C 171.808,116.975 171.308,116.308 171,115.5C 169.541,118.443 167.874,118.776 166,116.5C 164.667,119.167 163.333,119.167 162,116.5C 161.311,117.357 160.478,118.023 159.5,118.5C 157.577,118.37 155.744,118.036 154,117.5C 153.333,120.167 152.667,120.167 152,117.5C 150.846,119.957 149.512,119.957 148,117.5C 147.147,119.125 146.147,119.458 145,118.5C 144.085,119.328 143.419,120.328 143,121.5C 142.581,120.328 141.915,119.328 141,118.5C 140.333,119.833 139.667,119.833 139,118.5C 137.318,120.599 135.652,121.932 134,122.5C 133.333,119.833 132.667,119.833 132,122.5C 131.333,119.833 130.667,119.833 130,122.5C 129.667,121.833 129.333,121.167 129,120.5C 127.541,123.443 125.874,123.776 124,121.5C 123.692,122.308 123.192,122.975 122.5,123.5C 121.575,122.359 120.741,122.359 120,123.5C 119.667,122.833 119.333,122.167 119,121.5C 118.019,124.689 116.686,125.022 115,122.5C 114.667,123.167 114.333,123.833 114,124.5C 111.824,124.572 109.824,124.238 108,123.5C 107.147,125.125 106.147,125.458 105,124.5C 103.899,126.394 102.566,127.061 101,126.5C 99.2759,128.897 99.2759,131.231 101,133.5C 101.333,132.833 101.667,132.167 102,131.5C 103.566,130.939 104.899,131.606 106,133.5C 106.853,131.875 107.853,131.542 109,132.5C 109.903,131.299 111.069,130.465 112.5,130C 111.5,129.667 110.5,129.333 109.5,129C 112.476,128.243 114.309,129.409 115,132.5C 115.667,129.833 116.333,129.833 117,132.5C 117.667,129.833 118.333,129.833 119,132.5C 119.667,129.833 120.333,129.833 121,132.5C 121.667,129.833 122.333,129.833 123,132.5C 123.667,129.833 124.333,129.833 125,132.5C 125.667,129.833 126.333,129.833 127,132.5C 127.667,129.833 128.333,129.833 129,132.5C 129.667,129.833 130.333,129.833 131,132.5C 131.333,131.833 131.667,131.167 132,130.5C 133.365,134.223 135.032,134.223 137,130.5C 137.667,133.167 138.333,133.167 139,130.5C 139.667,133.167 140.333,133.167 141,130.5C 141.667,133.167 142.333,133.167 143,130.5C 143.984,132.795 144.817,132.461 145.5,129.5C 146.628,128.738 147.795,128.071 149,127.5C 149.667,132.833 150.333,132.833 151,127.5C 152.385,128.551 153.385,129.884 154,131.5C 155.553,127.701 156.886,127.701 158,131.5C 158.667,127.5 159.333,127.5 160,131.5C 160.5,127.667 162.667,125.5 166.5,125C 162.815,124.086 163.148,123.419 167.5,123C 168.126,122.25 168.626,121.416 169,120.5C 169.278,121.416 169.778,122.082 170.5,122.5C 173.059,129.151 171.059,133.651 164.5,136C 162.598,137.73 160.931,139.563 159.5,141.5C 159.649,140.448 159.483,139.448 159,138.5C 157.848,140.649 156.348,142.482 154.5,144C 154.833,144.333 155.167,144.667 155.5,145C 154.638,147.734 153.805,147.901 153,145.5C 151.887,146.76 151.72,147.927 152.5,149C 151.341,150.827 150.008,152.493 148.5,154C 149.167,154.667 149.833,155.333 150.5,156C 149.531,157.758 148.364,158.258 147,157.5C 146.667,158.5 146.333,159.5 146,160.5C 145.333,158.5 144.667,156.5 144,154.5C 143.641,157.544 142.974,157.878 142,155.5C 141,156.833 140,158.167 139,159.5C 138.667,158.833 138.333,158.167 138,157.5C 136.956,158.623 136.29,159.956 136,161.5C 135.667,160.5 135.333,159.5 135,158.5C 133.984,157.366 133.317,157.699 133,159.5C 131.382,154.716 129.715,155.049 128,160.5C 126,153.833 124,153.833 122,160.5C 121.316,158.641 120.316,156.974 119,155.5C 118.536,161.175 117.869,161.508 117,156.5C 114.087,159.296 112.087,158.629 111,154.5C 110.667,155.833 110.333,157.167 110,158.5C 108.783,157.614 107.449,156.614 106,155.5C 105.333,156.833 104.333,157.833 103,158.5C 101.667,158.5 100.333,158.5 99,158.5C 97.9563,157.377 97.2896,156.044 97,154.5C 96.6411,157.544 95.9745,157.878 95,155.5C 94,156.833 93,158.167 92,159.5C 91,158.167 90,156.833 89,155.5C 88,156.833 87,158.167 86,159.5C 85.6667,158.833 85.3333,158.167 85,157.5C 83.9563,158.623 83.2896,159.956 83,161.5C 82.6667,160.5 82.3333,159.5 82,158.5C 81.6667,158.833 81.3333,159.167 81,159.5C 79.2213,156.724 78.2213,157.057 78,160.5C 77.7787,157.057 76.7787,156.724 75,159.5C 73.2213,156.724 72.2213,157.057 72,160.5C 71.3333,158.5 70.6667,156.5 70,154.5C 69.3161,156.359 68.3161,158.026 67,159.5C 66.6667,158.833 66.3333,158.167 66,157.5C 65.2588,158.641 64.4255,158.641 63.5,157.5C 62.7492,158.376 62.2492,159.376 62,160.5C 61.5291,158.754 60.8624,157.087 60,155.5C 59.6667,156.167 59.3333,156.833 59,157.5C 58.3333,153.5 57.6667,153.5 57,157.5C 55.3117,156.675 55.1451,155.675 56.5,154.5C 55.3839,154.598 54.3839,154.098 53.5,153C 54.1868,151.838 54.3534,150.672 54,149.5C 52.1667,148.333 50.6667,146.833 49.5,145C 50.8146,143.605 50.4812,142.605 48.5,142C 51.1667,141.333 51.1667,140.667 48.5,140C 50.3008,139.683 50.6341,139.016 49.5,138C 50.7014,137.097 51.5348,135.931 52,134.5C 54.0749,137.028 54.9082,136.861 54.5,134C 55.7839,133.316 56.9505,133.483 58,134.5C 58.8525,132.875 59.8525,132.542 61,133.5C 62.6816,131.401 64.3483,130.068 66,129.5C 67,129.833 68,130.167 69,130.5C 71.2514,127.79 73.918,126.79 77,127.5C 80.4375,125.678 83.7709,124.345 87,123.5C 88.2682,123.616 89.6015,123.949 91,124.5C 93.7209,121.994 96.3876,121.327 99,122.5C 102.809,120.166 106.475,119.499 110,120.5C 110.853,118.875 111.853,118.542 113,119.5C 114.667,118.833 116.333,118.167 118,117.5C 120.234,117.374 122.568,117.707 125,118.5C 126.91,117.794 128.91,116.794 131,115.5C 131.667,118.167 132.333,118.167 133,115.5C 135.563,115.341 138.23,115.675 141,116.5C 141.667,115.833 142.333,115.167 143,114.5C 144.268,114.616 145.602,114.949 147,115.5C 147.333,114.833 147.667,114.167 148,113.5C 148.667,116.167 149.333,116.167 150,113.5C 151.268,113.616 152.602,113.949 154,114.5C 154.667,111.833 155.333,111.833 156,114.5C 157,113.167 158,113.167 159,114.5C 160,113.833 161,113.167 162,112.5C 164.563,112.341 167.23,112.675 170,113.5C 170.667,112.833 171.333,112.167 172,111.5C 178.554,111.229 185.221,111.229 192,111.5C 193.555,109.854 195.221,109.521 197,110.5C 199.667,109.833 202.333,109.167 205,108.5C 207.234,108.374 209.568,108.707 212,109.5C 212.667,108.833 213.333,108.167 214,107.5C 215.268,107.616 216.602,107.949 218,108.5C 218.875,106.487 220.209,106.487 222,108.5C 223.763,107.056 225.763,106.056 228,105.5C 229.907,105.421 231.907,105.754 234,106.5C 234.667,105.833 235.333,105.167 236,104.5C 237.268,104.616 238.602,104.949 240,105.5C 240.333,104.833 240.667,104.167 241,103.5C 243.667,103.5 246.333,103.5 249,103.5C 251.925,102.249 254.925,101.249 258,100.5C 258.333,100.833 258.667,101.167 259,101.5C 262.522,99.2572 265.856,98.5905 269,99.5C 269.317,97.6992 269.984,97.3659 271,98.5C 274.436,97.4495 277.769,96.1162 281,94.5C 282.667,94.5 284.333,94.5 286,94.5C 286.333,93.8333 286.667,93.1667 287,92.5C 288.525,92.1119 290.192,92.1119 292,92.5C 292.317,90.6992 292.984,90.3659 294,91.5C 295.733,89.3985 297.733,89.0652 300,90.5C 303.085,88.5136 305.418,89.5136 307,93.5C 307.494,91.8659 307.66,90.1992 307.5,88.5 Z"/></g>
<g><path style="opacity:1" fill="#464646" d="M 192.5,130.5 C 190.167,130.5 187.833,130.5 185.5,130.5C 185.751,127.091 185.417,123.758 184.5,120.5C 180.878,119.341 177.211,119.175 173.5,120C 171.881,120.236 170.881,121.069 170.5,122.5C 169.778,122.082 169.278,121.416 169,120.5C 168.626,121.416 168.126,122.25 167.5,123C 163.148,123.419 162.815,124.086 166.5,125C 162.667,125.5 160.5,127.667 160,131.5C 159.333,127.5 158.667,127.5 158,131.5C 156.886,127.701 155.553,127.701 154,131.5C 153.385,129.884 152.385,128.551 151,127.5C 150.333,132.833 149.667,132.833 149,127.5C 147.795,128.071 146.628,128.738 145.5,129.5C 144.817,132.461 143.984,132.795 143,130.5C 142.333,133.167 141.667,133.167 141,130.5C 140.333,133.167 139.667,133.167 139,130.5C 138.333,133.167 137.667,133.167 137,130.5C 135.032,134.223 133.365,134.223 132,130.5C 131.667,131.167 131.333,131.833 131,132.5C 130.333,129.833 129.667,129.833 129,132.5C 128.333,129.833 127.667,129.833 127,132.5C 126.333,129.833 125.667,129.833 125,132.5C 124.333,129.833 123.667,129.833 123,132.5C 122.333,129.833 121.667,129.833 121,132.5C 120.333,129.833 119.667,129.833 119,132.5C 118.333,129.833 117.667,129.833 117,132.5C 116.333,129.833 115.667,129.833 115,132.5C 114.309,129.409 112.476,128.243 109.5,129C 110.5,129.333 111.5,129.667 112.5,130C 111.069,130.465 109.903,131.299 109,132.5C 107.853,131.542 106.853,131.875 106,133.5C 104.899,131.606 103.566,130.939 102,131.5C 101.667,132.167 101.333,132.833 101,133.5C 99.2759,131.231 99.2759,128.897 101,126.5C 102.566,127.061 103.899,126.394 105,124.5C 106.147,125.458 107.147,125.125 108,123.5C 109.824,124.238 111.824,124.572 114,124.5C 114.333,123.833 114.667,123.167 115,122.5C 116.686,125.022 118.019,124.689 119,121.5C 119.333,122.167 119.667,122.833 120,123.5C 120.741,122.359 121.575,122.359 122.5,123.5C 123.192,122.975 123.692,122.308 124,121.5C 125.874,123.776 127.541,123.443 129,120.5C 129.333,121.167 129.667,121.833 130,122.5C 130.667,119.833 131.333,119.833 132,122.5C 132.667,119.833 133.333,119.833 134,122.5C 135.652,121.932 137.318,120.599 139,118.5C 139.667,119.833 140.333,119.833 141,118.5C 141.915,119.328 142.581,120.328 143,121.5C 143.419,120.328 144.085,119.328 145,118.5C 146.147,119.458 147.147,119.125 148,117.5C 149.512,119.957 150.846,119.957 152,117.5C 152.667,120.167 153.333,120.167 154,117.5C 155.744,118.036 157.577,118.37 159.5,118.5C 160.478,118.023 161.311,117.357 162,116.5C 163.333,119.167 164.667,119.167 166,116.5C 167.874,118.776 169.541,118.443 171,115.5C 171.308,116.308 171.808,116.975 172.5,117.5C 174.378,116.358 176.212,115.358 178,114.5C 180.741,115.066 183.408,115.399 186,115.5C 186.667,112.833 187.333,112.833 188,115.5C 188.667,112.833 189.333,112.833 190,115.5C 190.691,113.109 191.691,113.109 193,115.5C 194.079,113.606 195.413,113.273 197,114.5C 197.691,112.109 198.691,112.109 200,114.5C 201.555,112.854 203.221,112.521 205,113.5C 206.333,112.833 207.667,112.167 209,111.5C 210.333,114.167 211.667,114.167 213,111.5C 214.268,111.616 215.602,111.949 217,112.5C 217.333,111.833 217.667,111.167 218,110.5C 222.834,111.495 227.834,111.495 233,110.5C 234.53,109.364 235.863,108.364 237,107.5C 237.667,110.167 238.333,110.167 239,107.5C 240,107.833 241,108.167 242,108.5C 242.691,106.109 243.691,106.109 245,108.5C 246.667,107.5 248.333,106.5 250,105.5C 252.478,104.553 254.812,104.553 257,105.5C 257.333,104.833 257.667,104.167 258,103.5C 260,103.5 262,103.5 264,103.5C 266.333,102.5 268.667,101.5 271,100.5C 271.333,100.833 271.667,101.167 272,101.5C 274.269,99.7313 276.602,99.0647 279,99.5C 280.912,98.3081 282.912,97.3081 285,96.5C 286.016,97.6341 286.683,97.3008 287,95.5C 288.333,95.5 289.667,95.5 291,95.5C 295.731,91.8779 300.565,91.7113 305.5,95C 305.167,95.3333 304.833,95.6667 304.5,96C 305.293,97.0852 305.96,98.2519 306.5,99.5C 306.444,108.528 306.444,117.862 306.5,127.5C 304.487,130.38 302.32,132.38 300,133.5C 299.667,132.833 299.333,132.167 299,131.5C 298.333,132.833 297.667,132.833 297,131.5C 296.333,134.167 295.667,134.167 295,131.5C 294.333,132.833 293.667,132.833 293,131.5C 292.667,132.167 292.333,132.833 292,133.5C 290.937,132.562 289.77,131.562 288.5,130.5C 289.603,130.002 290.603,129.669 291.5,129.5C 290.311,128.571 288.978,128.238 287.5,128.5C 287.716,130.681 286.883,132.347 285,133.5C 283.691,131.109 282.691,131.109 282,133.5C 281.581,132.328 280.915,131.328 280,130.5C 278.47,131.636 277.137,132.636 276,133.5C 275.667,132.833 275.333,132.167 275,131.5C 268.333,131.5 261.667,131.5 255,131.5C 254.667,132.167 254.333,132.833 254,133.5C 253.309,131.109 252.309,131.109 251,133.5C 249.667,130.833 248.333,130.833 247,133.5C 245.981,132.313 244.814,131.313 243.5,130.5C 242.476,131.853 241.143,132.52 239.5,132.5C 239.33,131.178 239.663,130.011 240.5,129C 240.167,128.833 239.833,128.667 239.5,128.5C 238.376,133.721 237.542,133.721 237,128.5C 236.458,133.721 235.624,133.721 234.5,128.5C 234.094,129.557 234.094,130.891 234.5,132.5C 233.5,132.5 232.5,132.5 231.5,132.5C 231.33,131.178 231.663,130.011 232.5,129C 232.167,128.833 231.833,128.667 231.5,128.5C 230.376,133.721 229.542,133.721 229,128.5C 228.333,133.833 227.667,133.833 227,128.5C 226.182,133.794 225.682,133.794 225.5,128.5C 221.944,128.275 221.61,129.108 224.5,131C 224.056,132.762 223.556,132.595 223,130.5C 222,131.5 221,132.5 220,133.5C 218.667,130.833 217.333,130.833 216,133.5C 214.667,130.833 213.333,130.833 212,133.5C 209.667,131.833 207.333,130.167 205,128.5C 203.442,129.345 202.442,128.679 202,126.5C 200.336,129.498 198.003,130.165 195,128.5C 192.999,125.667 190.499,123.334 187.5,121.5C 186.52,124.086 186.187,126.753 186.5,129.5C 188.735,129.205 190.735,129.539 192.5,130.5 Z"/></g>
<g><path style="opacity:0.995" fill="#363636" d="M 313.5,121.5 C 315.778,132.776 317.778,144.109 319.5,155.5C 317.896,154.713 317.229,153.38 317.5,151.5C 314.074,151.35 313.741,152.516 316.5,155C 316.5,156.333 316.5,157.667 316.5,159C 313.833,159.667 313.833,160.333 316.5,161C 313.833,161.667 313.833,162.333 316.5,163C 315.813,165.232 315.479,167.398 315.5,169.5C 316.04,170.748 316.707,171.915 317.5,173C 314.046,173.293 313.712,174.626 316.5,177C 313.833,177.667 313.833,178.333 316.5,179C 315.833,179.333 315.167,179.667 314.5,180C 316.515,181.818 317.515,183.818 317.5,186C 316.289,186.787 315.289,187.454 314.5,188C 316.756,189.834 316.756,191.501 314.5,193C 317.167,193.667 317.167,194.333 314.5,195C 316.901,195.805 316.734,196.638 314,197.5C 311.984,195.316 309.817,193.316 307.5,191.5C 306.808,192.025 306.308,192.692 306,193.5C 305.612,192.572 304.945,191.905 304,191.5C 302.765,192.615 301.598,192.615 300.5,191.5C 299.749,192.376 299.249,193.376 299,194.5C 298.751,193.376 298.251,192.376 297.5,191.5C 296.5,192.833 295.5,192.833 294.5,191.5C 293.402,195.361 292.569,195.361 292,191.5C 291.333,195.5 290.667,195.5 290,191.5C 289.431,195.361 288.598,195.361 287.5,191.5C 286.5,192.833 285.5,192.833 284.5,191.5C 283.749,192.376 283.249,193.376 283,194.5C 282.682,192.939 281.849,191.772 280.5,191C 282.993,189.417 282.826,187.917 280,186.5C 279.667,186.833 279.333,187.167 279,187.5C 277.601,186.773 276.101,186.273 274.5,186C 277.062,186.238 279.396,185.238 281.5,183C 280.833,182.667 280.167,182.333 279.5,182C 280.641,179.217 282.475,177.05 285,175.5C 285.303,173.112 286.137,170.945 287.5,169C 286.366,167.984 286.699,167.317 288.5,167C 285.833,166.333 285.833,165.667 288.5,165C 286.193,164.646 285.859,163.646 287.5,162C 287.101,160.272 286.434,158.772 285.5,157.5C 285.668,153.342 285.002,149.342 283.5,145.5C 286.74,147.828 290.24,151.495 294,156.5C 294.667,163.167 295.333,163.167 296,156.5C 297.016,157.634 297.683,157.301 298,155.5C 299.53,157.226 300.53,159.226 301,161.5C 302.316,155.634 303.983,154.967 306,159.5C 306.786,156.417 308.619,154.251 311.5,153C 308.833,151.667 308.833,150.333 311.5,149C 310.692,148.692 310.025,148.192 309.5,147.5C 310.641,146.575 310.641,145.741 309.5,145C 310.328,144.085 311.328,143.419 312.5,143C 311.833,142.667 311.167,142.333 310.5,142C 310.833,138.333 311.167,134.667 311.5,131C 310.833,130.667 310.167,130.333 309.5,130C 312.167,129.333 312.167,128.667 309.5,128C 310.78,125.868 310.78,123.702 309.5,121.5C 310.906,117.629 312.239,117.629 313.5,121.5 Z"/></g>
<g><path style="opacity:0.999" fill="#353535" d="M 247.5,143.5 C 245.405,146.876 244.071,150.542 243.5,154.5C 242.694,155.997 242.028,157.664 241.5,159.5C 242.902,160.842 242.569,161.676 240.5,162C 242.807,162.354 243.141,163.354 241.5,165C 241.759,166.261 242.426,167.261 243.5,168C 242.672,168.915 241.672,169.581 240.5,170C 242.158,171.624 243.825,173.291 245.5,175C 244.864,177.896 246.53,180.229 250.5,182C 247.833,182.667 247.833,183.333 250.5,184C 249.789,185.255 248.956,186.421 248,187.5C 246.636,186.742 245.469,187.242 244.5,189C 246.211,190.133 246.711,191.633 246,193.5C 245.395,191.519 244.395,191.185 243,192.5C 241.057,191.685 239.057,190.685 237,189.5C 235.556,191.155 233.722,191.822 231.5,191.5C 231.404,195.311 230.738,195.311 229.5,191.5C 227.316,192.108 225.316,191.441 223.5,189.5C 223.977,188.522 224.643,187.689 225.5,187C 224.167,186.667 222.833,186.333 221.5,186C 222.167,185.667 222.833,185.333 223.5,185C 222.151,184.228 221.318,183.061 221,181.5C 219.334,182.34 219.167,181.84 220.5,180C 218.981,178.649 217.648,177.149 216.5,175.5C 215.833,178.977 215.166,182.311 214.5,185.5C 215.248,173.075 209.581,165.241 197.5,162C 190.805,160.425 184.139,158.758 177.5,157C 173.239,152.517 173.572,148.517 178.5,145C 186.222,142.96 193.889,143.127 201.5,145.5C 202.466,143.604 202.799,141.604 202.5,139.5C 203.317,137.031 203.817,134.365 204,131.5C 204.333,133.833 204.667,136.167 205,138.5C 205.333,137.833 205.667,137.167 206,136.5C 207.954,138.645 209.121,140.812 209.5,143C 208.74,144.835 208.406,146.835 208.5,149C 208.934,151.316 209.934,153.316 211.5,155C 211.043,155.414 210.709,155.914 210.5,156.5C 213.735,160.507 215.902,159.84 217,154.5C 217.419,158.852 218.086,159.185 219,155.5C 219.667,159.5 220.333,159.5 221,155.5C 223.114,156.953 224.448,158.953 225,161.5C 225.407,157.67 226.74,157.003 229,159.5C 229.333,158.833 229.667,158.167 230,157.5C 231.044,158.623 231.71,159.956 232,161.5C 235.304,156.855 238.637,152.188 242,147.5C 242.914,148.654 243.747,148.487 244.5,147C 243.167,145.16 243.334,144.66 245,145.5C 245.417,144.244 246.25,143.577 247.5,143.5 Z"/></g>
<g><path style="opacity:0.999" fill="#2f2f2f" d="M 48.5,196.5 C 47.7321,195.737 47.2321,194.737 47,193.5C 46.4888,195.878 45.8221,198.212 45,200.5C 44.3333,196.5 43.6667,196.5 43,200.5C 42.1965,197.756 41.1965,195.089 40,192.5C 39.51,193.793 39.3433,195.127 39.5,196.5C 36.4761,182.204 33.8094,167.704 31.5,153C 31.8333,151.833 32.1667,150.667 32.5,149.5C 34.6416,148.399 36.8083,147.399 39,146.5C 42.9106,162.954 46.0772,179.62 48.5,196.5 Z"/></g>
<g><path style="opacity:1" fill="#f5f5f5" d="M 192.5,130.5 C 195.807,131.051 199.14,131.384 202.5,131.5C 202.5,134.167 202.5,136.833 202.5,139.5C 202.799,141.604 202.466,143.604 201.5,145.5C 193.889,143.127 186.222,142.96 178.5,145C 173.572,148.517 173.239,152.517 177.5,157C 184.139,158.758 190.805,160.425 197.5,162C 209.581,165.241 215.248,173.075 214.5,185.5C 214.167,187.5 213.833,189.5 213.5,191.5C 210.532,196.919 206.032,200.586 200,202.5C 199.624,206.918 200.124,211.251 201.5,215.5C 196.575,216.741 191.575,217.407 186.5,217.5C 186.448,213.802 186.114,210.135 185.5,206.5C 182.663,204.598 179.329,203.931 175.5,204.5C 171.753,204.608 168.086,204.108 164.5,203C 163.594,201.301 163.261,199.467 163.5,197.5C 164.768,195.095 165.435,192.428 165.5,189.5C 166.833,189.5 168.167,189.5 169.5,189.5C 169.842,190.338 170.508,190.672 171.5,190.5C 178.695,191.944 185.695,191.61 192.5,189.5C 197.078,188.207 198.578,185.207 197,180.5C 195.833,179.333 194.667,178.167 193.5,177C 184.593,175.517 175.926,173.183 167.5,170C 163.62,167.621 160.62,164.454 158.5,160.5C 158.371,158.784 158.038,157.117 157.5,155.5C 157.033,150.6 157.699,145.933 159.5,141.5C 160.931,139.563 162.598,137.73 164.5,136C 171.059,133.651 173.059,129.151 170.5,122.5C 170.881,121.069 171.881,120.236 173.5,120C 177.211,119.175 180.878,119.341 184.5,120.5C 185.417,123.758 185.751,127.091 185.5,130.5C 187.833,130.5 190.167,130.5 192.5,130.5 Z"/></g>
<g><path style="opacity:1" fill="#2d2d2d" d="M 157.5,155.5 C 158.038,157.117 158.371,158.784 158.5,160.5C 157.957,160.56 157.624,160.893 157.5,161.5C 159.824,166.142 162.657,170.475 166,174.5C 166.333,173.833 166.667,173.167 167,172.5C 167.667,173.833 168.333,175.167 169,176.5C 169.333,175.833 169.667,175.167 170,174.5C 170.667,175.833 171.333,177.167 172,178.5C 172.667,175.833 173.333,175.833 174,178.5C 174.333,177.833 174.667,177.167 175,176.5C 175.419,177.672 176.085,178.672 177,179.5C 178.808,179.112 180.475,179.112 182,179.5C 182.667,182.167 183.333,182.167 184,179.5C 185.53,180.636 186.863,181.636 188,182.5C 188.333,181.833 188.667,181.167 189,180.5C 189.667,181.833 190.333,183.167 191,184.5C 191.333,183.833 191.667,183.167 192,182.5C 192.5,184 193,185.5 193.5,187C 193.095,187.945 192.428,188.612 191.5,189C 191.728,189.399 192.062,189.565 192.5,189.5C 185.695,191.61 178.695,191.944 171.5,190.5C 173.631,189.686 175.964,189.186 178.5,189C 179.517,187.951 179.684,186.784 179,185.5C 178.333,184.167 177.667,184.167 177,185.5C 176.374,183.009 175.541,183.009 174.5,185.5C 174.704,184.471 174.204,183.471 173,182.5C 171.667,182.5 170.333,182.5 169,182.5C 168.333,179.833 167.667,179.833 167,182.5C 164.875,181.324 162.709,179.491 160.5,177C 161.654,176.086 161.487,175.253 160,174.5C 158.334,175.34 158.167,174.84 159.5,173C 158.747,171.513 157.914,171.346 157,172.5C 156.5,171.5 156,170.5 155.5,169.5C 156.571,167.675 155.904,166.508 153.5,166C 154.167,165.667 154.833,165.333 155.5,165C 156.121,162.502 155.455,160.168 153.5,158C 154,157.5 154.5,157 155,156.5C 155.333,153.5 155.667,150.5 156,147.5C 156.183,150.365 156.683,153.031 157.5,155.5 Z"/></g>
<g><path style="opacity:1" fill="#2e2e2e" d="M 319.5,155.5 C 322.497,172.145 325.497,188.812 328.5,205.5C 328.291,206.994 327.624,208.161 326.5,209C 322.284,210.684 317.951,211.851 313.5,212.5C 299.682,216.364 285.682,219.531 271.5,222C 246.591,225.725 221.591,228.559 196.5,230.5C 196.056,228.887 195.056,227.72 193.5,227C 194.76,225.887 195.927,225.72 197,226.5C 197.667,223.833 198.333,223.833 199,226.5C 200.439,224.725 201.439,222.725 202,220.5C 202.805,222.901 203.638,222.734 204.5,220C 202.364,214.944 203.697,210.61 208.5,207C 208.5,206 208.5,205 208.5,204C 210.974,203.887 212.974,202.887 214.5,201C 213.542,199.853 213.875,198.853 215.5,198C 214.167,197 214.167,196 215.5,195C 214.915,193.698 214.249,192.531 213.5,191.5C 213.833,189.5 214.167,187.5 214.5,185.5C 215.166,182.311 215.833,178.977 216.5,175.5C 217.648,177.149 218.981,178.649 220.5,180C 219.167,181.84 219.334,182.34 221,181.5C 221.318,183.061 222.151,184.228 223.5,185C 222.833,185.333 222.167,185.667 221.5,186C 222.833,186.333 224.167,186.667 225.5,187C 224.643,187.689 223.977,188.522 223.5,189.5C 225.316,191.441 227.316,192.108 229.5,191.5C 230.738,195.311 231.404,195.311 231.5,191.5C 233.722,191.822 235.556,191.155 237,189.5C 239.057,190.685 241.057,191.685 243,192.5C 244.395,191.185 245.395,191.519 246,193.5C 246.711,191.633 246.211,190.133 244.5,189C 245.469,187.242 246.636,186.742 248,187.5C 248.956,186.421 249.789,185.255 250.5,184C 247.833,183.333 247.833,182.667 250.5,182C 246.53,180.229 244.864,177.896 245.5,175C 243.825,173.291 242.158,171.624 240.5,170C 241.672,169.581 242.672,168.915 243.5,168C 242.426,167.261 241.759,166.261 241.5,165C 243.141,163.354 242.807,162.354 240.5,162C 242.569,161.676 242.902,160.842 241.5,159.5C 242.028,157.664 242.694,155.997 243.5,154.5C 245.775,172.479 255.775,179.313 273.5,175C 280.602,171.298 284.602,165.465 285.5,157.5C 286.434,158.772 287.101,160.272 287.5,162C 285.859,163.646 286.193,164.646 288.5,165C 285.833,165.667 285.833,166.333 288.5,167C 286.699,167.317 286.366,167.984 287.5,169C 286.137,170.945 285.303,173.112 285,175.5C 282.475,177.05 280.641,179.217 279.5,182C 280.167,182.333 280.833,182.667 281.5,183C 279.396,185.238 277.062,186.238 274.5,186C 276.101,186.273 277.601,186.773 279,187.5C 279.333,187.167 279.667,186.833 280,186.5C 282.826,187.917 282.993,189.417 280.5,191C 281.849,191.772 282.682,192.939 283,194.5C 283.249,193.376 283.749,192.376 284.5,191.5C 285.5,192.833 286.5,192.833 287.5,191.5C 288.598,195.361 289.431,195.361 290,191.5C 290.667,195.5 291.333,195.5 292,191.5C 292.569,195.361 293.402,195.361 294.5,191.5C 295.5,192.833 296.5,192.833 297.5,191.5C 298.251,192.376 298.751,193.376 299,194.5C 299.249,193.376 299.749,192.376 300.5,191.5C 301.598,192.615 302.765,192.615 304,191.5C 304.945,191.905 305.612,192.572 306,193.5C 306.308,192.692 306.808,192.025 307.5,191.5C 309.817,193.316 311.984,195.316 314,197.5C 316.734,196.638 316.901,195.805 314.5,195C 317.167,194.333 317.167,193.667 314.5,193C 316.756,191.501 316.756,189.834 314.5,188C 315.289,187.454 316.289,186.787 317.5,186C 317.515,183.818 316.515,181.818 314.5,180C 315.167,179.667 315.833,179.333 316.5,179C 313.833,178.333 313.833,177.667 316.5,177C 313.712,174.626 314.046,173.293 317.5,173C 316.707,171.915 316.04,170.748 315.5,169.5C 315.479,167.398 315.813,165.232 316.5,163C 313.833,162.333 313.833,161.667 316.5,161C 313.833,160.333 313.833,159.667 316.5,159C 316.5,157.667 316.5,156.333 316.5,155C 313.741,152.516 314.074,151.35 317.5,151.5C 317.229,153.38 317.896,154.713 319.5,155.5 Z"/></g>
<g><path style="opacity:0.999" fill="#2c2c2c" d="M 87.5,171.5 C 85.8874,176.007 85.2207,180.673 85.5,185.5C 85.5858,186.496 85.2524,187.329 84.5,188C 85.6303,191.544 86.9637,195.378 88.5,199.5C 89.5901,201.003 90.7567,201.336 92,200.5C 92.5029,202.615 93.8363,204.615 96,206.5C 96.3333,205.833 96.6667,205.167 97,204.5C 97.724,206.959 99.0573,207.959 101,207.5C 102.402,209.973 103.902,209.973 105.5,207.5C 106.192,208.025 106.692,208.692 107,209.5C 108.616,208.455 110.283,207.455 112,206.5C 114.757,207.971 117.09,206.971 119,203.5C 119.914,204.654 120.747,204.487 121.5,203C 120.483,201.951 120.316,200.784 121,199.5C 121.333,200.167 121.667,200.833 122,201.5C 122.574,199.508 123.741,198.008 125.5,197C 124.833,196.667 124.167,196.333 123.5,196C 127.494,194.385 128.494,191.885 126.5,188.5C 127.833,183.5 127.833,178.5 126.5,173.5C 128.234,175.09 129.4,177.09 130,179.5C 132.734,180.362 132.901,181.195 130.5,182C 132.046,183.44 132.879,185.273 133,187.5C 133.333,186.5 133.667,185.5 134,184.5C 136.184,187.334 135.684,188.668 132.5,188.5C 132.46,191.425 133.293,194.091 135,196.5C 135.667,193.833 136.333,193.833 137,196.5C 138.081,194.378 138.748,192.378 139,190.5C 139.333,191.833 139.667,193.167 140,194.5C 140.483,193.552 140.649,192.552 140.5,191.5C 141.5,191.5 142.5,191.5 143.5,191.5C 143.833,195.5 144.167,195.5 144.5,191.5C 145.978,191.238 147.311,191.571 148.5,192.5C 147.603,192.669 146.603,193.002 145.5,193.5C 146.183,196.461 147.016,196.795 148,194.5C 148.667,197.167 149.333,197.167 150,194.5C 150.667,197.167 151.333,197.167 152,194.5C 152.71,195.973 153.876,196.64 155.5,196.5C 155.5,195.167 155.5,193.833 155.5,192.5C 153.891,192.906 152.557,192.906 151.5,192.5C 153.045,191.548 154.712,191.215 156.5,191.5C 156.34,193.199 156.506,194.866 157,196.5C 157.311,194.444 157.811,192.444 158.5,190.5C 160.205,188.697 162.038,188.031 164,188.5C 165.441,187.74 166.941,187.074 168.5,186.5C 171.7,187.162 172.034,188.162 169.5,189.5C 168.167,189.5 166.833,189.5 165.5,189.5C 165.435,192.428 164.768,195.095 163.5,197.5C 160.549,201.22 161.216,204.387 165.5,207C 164.483,208.049 164.316,209.216 165,210.5C 165.333,209.833 165.667,209.167 166,208.5C 166.976,212.183 168.643,212.849 171,210.5C 171.359,213.544 172.026,213.878 173,211.5C 173.283,214.742 174.117,215.076 175.5,212.5C 177.028,213.861 178.695,215.028 180.5,216C 180.167,216.333 179.833,216.667 179.5,217C 181.138,217.242 182.638,218.075 184,219.5C 184.492,220.549 184.326,221.549 183.5,222.5C 185.795,224.509 187.128,226.675 187.5,229C 183.371,230.731 179.204,230.898 175,229.5C 172.955,230.926 170.788,231.926 168.5,232.5C 133.189,235.896 98.5223,242.896 64.5,253.5C 61.5803,234.64 58.247,215.974 54.5,197.5C 52.2934,187.26 50.6267,176.927 49.5,166.5C 49.3398,164.801 49.5065,163.134 50,161.5C 52.5267,166.529 54.6933,171.362 56.5,176C 55.6548,177.558 56.3215,178.558 58.5,179C 57.8333,179.333 57.1667,179.667 56.5,180C 57.3639,182.071 58.6972,183.738 60.5,185C 58.0684,186.087 58.4017,186.587 61.5,186.5C 60.149,191.155 61.649,194.821 66,197.5C 66.3333,197.167 66.6667,196.833 67,196.5C 68.3333,199.167 69.6667,199.167 71,196.5C 72.3333,199.167 73.6667,199.167 75,196.5C 76.5826,198.993 78.0826,198.826 79.5,196C 78.3128,194.981 77.3128,193.814 76.5,192.5C 77.989,192.467 79.3224,191.967 80.5,191C 80.1667,190 79.8333,189 79.5,188C 82.1667,186.333 82.1667,184.667 79.5,183C 80.8333,181.333 82.1667,179.667 83.5,178C 82.6548,176.442 83.3215,175.442 85.5,175C 84.8333,174.667 84.1667,174.333 83.5,174C 84.9839,173.338 86.3172,172.504 87.5,171.5 Z"/></g>
<g><path style="opacity:1" fill="#202020" d="M 158.5,160.5 C 160.62,164.454 163.62,167.621 167.5,170C 175.926,173.183 184.593,175.517 193.5,177C 194.667,178.167 195.833,179.333 197,180.5C 198.578,185.207 197.078,188.207 192.5,189.5C 192.062,189.565 191.728,189.399 191.5,189C 192.428,188.612 193.095,187.945 193.5,187C 193,185.5 192.5,184 192,182.5C 191.667,183.167 191.333,183.833 191,184.5C 190.333,183.167 189.667,181.833 189,180.5C 188.667,181.167 188.333,181.833 188,182.5C 186.863,181.636 185.53,180.636 184,179.5C 183.333,182.167 182.667,182.167 182,179.5C 180.475,179.112 178.808,179.112 177,179.5C 176.085,178.672 175.419,177.672 175,176.5C 174.667,177.167 174.333,177.833 174,178.5C 173.333,175.833 172.667,175.833 172,178.5C 171.333,177.167 170.667,175.833 170,174.5C 169.667,175.167 169.333,175.833 169,176.5C 168.333,175.167 167.667,173.833 167,172.5C 166.667,173.167 166.333,173.833 166,174.5C 162.657,170.475 159.824,166.142 157.5,161.5C 157.624,160.893 157.957,160.56 158.5,160.5 Z"/></g>
<g><path style="opacity:0.947" fill="#202020" d="M 85.5,185.5 C 93.7863,202.536 105.953,205.869 122,195.5C 123.524,193.102 125.024,190.769 126.5,188.5C 128.494,191.885 127.494,194.385 123.5,196C 124.167,196.333 124.833,196.667 125.5,197C 123.741,198.008 122.574,199.508 122,201.5C 121.667,200.833 121.333,200.167 121,199.5C 120.316,200.784 120.483,201.951 121.5,203C 120.747,204.487 119.914,204.654 119,203.5C 117.09,206.971 114.757,207.971 112,206.5C 110.283,207.455 108.616,208.455 107,209.5C 106.692,208.692 106.192,208.025 105.5,207.5C 103.902,209.973 102.402,209.973 101,207.5C 99.0573,207.959 97.724,206.959 97,204.5C 96.6667,205.167 96.3333,205.833 96,206.5C 93.8363,204.615 92.5029,202.615 92,200.5C 90.7567,201.336 89.5901,201.003 88.5,199.5C 86.9637,195.378 85.6303,191.544 84.5,188C 85.2524,187.329 85.5858,186.496 85.5,185.5 Z"/></g>
<g><path style="opacity:0.993" fill="#272727" d="M 48.5,196.5 C 49.3686,198.717 49.702,201.05 49.5,203.5C 52.8546,222.914 56.5213,242.247 60.5,261.5C 81.2242,253.819 102.557,248.319 124.5,245C 163.415,240.174 202.415,236.174 241.5,233C 266.508,229.957 291.175,225.123 315.5,218.5C 317.323,222.25 317.656,226.084 316.5,230C 291.405,238.219 265.738,243.886 239.5,247C 203.483,250.514 167.483,254.181 131.5,258C 104.616,261.479 78.2832,267.312 52.5,275.5C 48.0582,249.183 43.7249,222.849 39.5,196.5C 39.3433,195.127 39.51,193.793 40,192.5C 41.1965,195.089 42.1965,197.756 43,200.5C 43.6667,196.5 44.3333,196.5 45,200.5C 45.8221,198.212 46.4888,195.878 47,193.5C 47.2321,194.737 47.7321,195.737 48.5,196.5 Z"/></g>
<g><path style="opacity:1" fill="#222222" d="M 213.5,191.5 C 214.249,192.531 214.915,193.698 215.5,195C 214.167,196 214.167,197 215.5,198C 213.875,198.853 213.542,199.853 214.5,201C 212.974,202.887 210.974,203.887 208.5,204C 208.5,205 208.5,206 208.5,207C 203.697,210.61 202.364,214.944 204.5,220C 203.638,222.734 202.805,222.901 202,220.5C 201.439,222.725 200.439,224.725 199,226.5C 198.333,223.833 197.667,223.833 197,226.5C 195.927,225.72 194.76,225.887 193.5,227C 195.056,227.72 196.056,228.887 196.5,230.5C 187.187,231.431 177.854,232.098 168.5,232.5C 170.788,231.926 172.955,230.926 175,229.5C 179.204,230.898 183.371,230.731 187.5,229C 187.128,226.675 185.795,224.509 183.5,222.5C 184.326,221.549 184.492,220.549 184,219.5C 182.638,218.075 181.138,217.242 179.5,217C 179.833,216.667 180.167,216.333 180.5,216C 178.695,215.028 177.028,213.861 175.5,212.5C 174.117,215.076 173.283,214.742 173,211.5C 172.026,213.878 171.359,213.544 171,210.5C 168.643,212.849 166.976,212.183 166,208.5C 165.667,209.167 165.333,209.833 165,210.5C 164.316,209.216 164.483,208.049 165.5,207C 161.216,204.387 160.549,201.22 163.5,197.5C 163.261,199.467 163.594,201.301 164.5,203C 168.086,204.108 171.753,204.608 175.5,204.5C 178.725,205.237 182.059,205.903 185.5,206.5C 186.114,210.135 186.448,213.802 186.5,217.5C 191.575,217.407 196.575,216.741 201.5,215.5C 200.124,211.251 199.624,206.918 200,202.5C 206.032,200.586 210.532,196.919 213.5,191.5 Z"/></g>
<g><path style="opacity:1" fill="#848484" d="M 175.5,204.5 C 179.329,203.931 182.663,204.598 185.5,206.5C 182.059,205.903 178.725,205.237 175.5,204.5 Z"/></g>
<g><path style="opacity:1" fill="#f0f0f0" d="M 54.5,197.5 C 58.247,215.974 61.5803,234.64 64.5,253.5C 98.5223,242.896 133.189,235.896 168.5,232.5C 177.854,232.098 187.187,231.431 196.5,230.5C 221.591,228.559 246.591,225.725 271.5,222C 285.682,219.531 299.682,216.364 313.5,212.5C 313.196,213.15 312.863,213.817 312.5,214.5C 313.524,215.852 314.524,217.185 315.5,218.5C 291.175,225.123 266.508,229.957 241.5,233C 202.415,236.174 163.415,240.174 124.5,245C 102.557,248.319 81.2242,253.819 60.5,261.5C 56.5213,242.247 52.8546,222.914 49.5,203.5C 50.7124,204.23 51.7124,205.23 52.5,206.5C 54.2702,203.807 54.9368,200.807 54.5,197.5 Z"/></g>
</svg>
