<?xml version="1.0" encoding="UTF-8"?>
<!DOCTYPE svg PUBLIC "-//W3C//DTD SVG 1.1//EN" "http://www.w3.org/Graphics/SVG/1.1/DTD/svg11.dtd">
<svg xmlns="http://www.w3.org/2000/svg" version="1.1" width="1440px" height="800px" style="shape-rendering:geometricPrecision; text-rendering:geometricPrecision; image-rendering:optimizeQuality; fill-rule:evenodd; clip-rule:evenodd" xmlns:xlink="http://www.w3.org/1999/xlink">
<g><path style="opacity:1" fill="#5dc8ed" d="M 763.5,237.5 C 762.833,229.167 762.167,220.833 761.5,212.5C 760.616,175.94 745.949,146.44 717.5,124C 698.778,109.809 677.778,100.809 654.5,97C 634.962,95.441 616.295,98.7743 598.5,107C 584.172,113.491 570.839,121.491 558.5,131C 563.166,103.417 576.5,79.7503 598.5,60C 622.678,41.8865 650.011,33.0532 680.5,33.5C 719.675,33.6701 750.841,49.3368 774,80.5C 785.854,97.2089 794.187,115.542 799,135.5C 802.149,162.752 796.482,188.085 782,211.5C 776.747,220.903 770.58,229.57 763.5,237.5 Z"/></g>
<g><path style="opacity:1" fill="#1ebcbc" d="M 608.5,134.5 C 632.481,133.45 655.814,136.783 678.5,144.5C 658.087,151.706 639.087,161.539 621.5,174C 602.09,189.63 589.923,209.796 585,234.5C 573.03,281.917 585.53,321.417 622.5,353C 632.145,360.822 642.145,368.155 652.5,375C 573.912,381.626 526.078,346.459 509,269.5C 504.322,238.209 511.322,209.876 530,184.5C 539.833,170.667 551.667,158.833 565.5,149C 578.884,141.039 593.217,136.206 608.5,134.5 Z"/></g>
<g><path style="opacity:1" fill="#4185a4" d="M 819.5,171.5 C 860.97,225.58 860.803,279.58 819,333.5C 792.294,364.595 758.46,378.095 717.5,374C 672.318,371.346 640.484,349.513 622,308.5C 616.033,295.269 611.699,281.602 609,267.5C 628.749,285.629 651.582,298.463 677.5,306C 701.36,310.081 724.36,307.081 746.5,297C 784.316,281.512 807.15,253.679 815,213.5C 817.568,199.606 819.068,185.606 819.5,171.5 Z"/></g>
<g><path style="opacity:1" fill="#c7ecf8" d="M 761.5,212.5 C 762.167,220.833 762.833,229.167 763.5,237.5C 763.539,238.756 763.039,239.756 762,240.5C 761.5,231.173 761.334,221.839 761.5,212.5 Z"/></g>
<g><path style="opacity:1" fill="#101112" d="M 474.5,574.5 C 474.027,573.094 473.027,572.427 471.5,572.5C 454.237,560.009 444.07,543.009 441,521.5C 438.049,503.06 439.716,485.06 446,467.5C 447.418,462.99 449.585,458.99 452.5,455.5C 453.906,455.027 454.573,454.027 454.5,452.5C 456.458,449.208 458.791,446.208 461.5,443.5C 464.089,442.581 466.089,440.914 467.5,438.5C 484.265,424.642 503.598,419.142 525.5,422C 563.524,428.692 585.357,451.192 591,489.5C 594.695,516.055 588.695,540.055 573,561.5C 553.961,581.069 530.795,588.903 503.5,585C 492.846,583.951 483.18,580.451 474.5,574.5 Z M 479.5,545.5 C 479.573,543.973 478.906,542.973 477.5,542.5C 477.573,540.973 476.906,539.973 475.5,539.5C 465.865,517.862 465.032,495.862 473,473.5C 486.072,448.385 506.239,439.885 533.5,448C 547.772,454.942 556.938,466.108 561,481.5C 567.651,505.897 563.651,528.23 549,548.5C 530.193,564.927 510.026,566.761 488.5,554C 485.631,550.962 482.631,548.129 479.5,545.5 Z"/></g>
<g><path style="opacity:1" fill="#101212" d="M 629.5,571.5 C 629.027,570.094 628.027,569.427 626.5,569.5C 615.546,559.33 610.212,546.664 610.5,531.5C 618.833,531.5 627.167,531.5 635.5,531.5C 635.263,532.791 635.596,533.791 636.5,534.5C 640.325,548.491 649.325,557.325 663.5,561C 678.373,564.505 692.373,562.505 705.5,555C 712.779,549.164 715.279,541.664 713,532.5C 711.939,529.438 710.106,526.938 707.5,525C 701.512,521.506 695.179,518.839 688.5,517C 671.386,513.846 654.72,509.179 638.5,503C 620.593,494.023 613.093,479.523 616,459.5C 620.436,442.395 631.103,431.062 648,425.5C 666.879,420.052 685.713,420.219 704.5,426C 725.349,433.536 736.015,448.37 736.5,470.5C 727.808,470.831 719.141,470.498 710.5,469.5C 708.388,456.221 700.721,448.388 687.5,446C 674.543,443.184 662.21,444.851 650.5,451C 637.796,463.885 639.796,474.218 656.5,482C 674.505,487.001 692.505,492.001 710.5,497C 734.027,505.208 743.861,521.708 740,546.5C 734.359,566.138 721.526,578.305 701.5,583C 680.772,587.319 660.438,585.985 640.5,579C 636.42,576.971 632.754,574.471 629.5,571.5 Z"/></g>
<g><path style="opacity:1" fill="#0d0f0f" d="M 384.5,424.5 C 393.5,424.5 402.5,424.5 411.5,424.5C 411.5,477.5 411.5,530.5 411.5,583.5C 402.5,583.5 393.5,583.5 384.5,583.5C 384.5,530.5 384.5,477.5 384.5,424.5 Z"/></g>
<g><path style="opacity:1" fill="#060809" d="M 794.5,447.5 C 793.504,462.324 793.171,477.324 793.5,492.5C 817.167,492.5 840.833,492.5 864.5,492.5C 864.5,500.167 864.5,507.833 864.5,515.5C 841.167,515.5 817.833,515.5 794.5,515.5C 793.503,537.66 793.169,559.994 793.5,582.5C 784.833,582.5 776.167,582.5 767.5,582.5C 767.5,529.833 767.5,477.167 767.5,424.5C 803.833,424.5 840.167,424.5 876.5,424.5C 876.5,432.167 876.5,439.833 876.5,447.5C 849.167,447.5 821.833,447.5 794.5,447.5 Z"/></g>
<g><path style="opacity:1" fill="#0e1011" d="M 1033.5,580.5 C 1029.39,581.826 1024.89,582.493 1020,582.5C 1015.09,582.474 1010.25,582.141 1005.5,581.5C 1000.1,567.645 995.104,553.645 990.5,539.5C 980.172,538.833 969.672,538.5 959,538.5C 948.145,538.501 937.645,539.168 927.5,540.5C 923.23,554.309 918.564,567.976 913.5,581.5C 908.913,582.14 904.247,582.473 899.5,582.5C 894.778,582.492 890.445,581.825 886.5,580.5C 905.208,528.746 924.208,477.079 943.5,425.5C 953.483,424.334 963.483,424.168 973.5,425C 994.189,476.566 1014.19,528.399 1033.5,580.5 Z M 982.5,516.5 C 975.007,517.166 967.341,517.5 959.5,517.5C 951.47,517.498 943.803,516.831 936.5,515.5C 943.63,494.776 950.964,474.11 958.5,453.5C 966.891,474.339 974.891,495.339 982.5,516.5 Z"/></g>
<g><path style="opacity:1" fill="#595b5b" d="M 467.5,438.5 C 466.089,440.914 464.089,442.581 461.5,443.5C 462.911,441.086 464.911,439.419 467.5,438.5 Z"/></g>
<g><path style="opacity:1" fill="#818283" d="M 454.5,452.5 C 454.573,454.027 453.906,455.027 452.5,455.5C 452.427,453.973 453.094,452.973 454.5,452.5 Z"/></g>
<g><path style="opacity:1" fill="#b0b1b1" d="M 794.5,447.5 C 794.5,462.167 794.5,476.833 794.5,491.5C 818.167,491.5 841.833,491.5 865.5,491.5C 865.826,499.684 865.492,507.684 864.5,515.5C 864.5,507.833 864.5,500.167 864.5,492.5C 840.833,492.5 817.167,492.5 793.5,492.5C 793.171,477.324 793.504,462.324 794.5,447.5 Z"/></g>
<g><path style="opacity:1" fill="#474849" d="M 936.5,515.5 C 943.803,516.831 951.47,517.498 959.5,517.5C 967.341,517.5 975.007,517.166 982.5,516.5C 983.043,516.56 983.376,516.893 983.5,517.5C 967.514,518.499 951.514,518.833 935.5,518.5C 935.263,517.209 935.596,516.209 936.5,515.5 Z"/></g>
<g><path style="opacity:1" fill="#888989" d="M 636.5,534.5 C 635.596,533.791 635.263,532.791 635.5,531.5C 627.167,531.5 618.833,531.5 610.5,531.5C 618.414,530.501 627.08,530.168 636.5,530.5C 636.5,531.833 636.5,533.167 636.5,534.5 Z"/></g>
<g><path style="opacity:1" fill="#818282" d="M 990.5,539.5 C 969.424,539.179 948.424,539.512 927.5,540.5C 937.645,539.168 948.145,538.501 959,538.5C 969.672,538.5 980.172,538.833 990.5,539.5 Z"/></g>
<g><path style="opacity:1" fill="#808181" d="M 475.5,539.5 C 476.906,539.973 477.573,540.973 477.5,542.5C 476.094,542.027 475.427,541.027 475.5,539.5 Z"/></g>
<g><path style="opacity:1" fill="#7a7b7c" d="M 477.5,542.5 C 478.906,542.973 479.573,543.973 479.5,545.5C 478.094,545.027 477.427,544.027 477.5,542.5 Z"/></g>
<g><path style="opacity:1" fill="#777878" d="M 626.5,569.5 C 628.027,569.427 629.027,570.094 629.5,571.5C 627.973,571.573 626.973,570.906 626.5,569.5 Z"/></g>
<g><path style="opacity:1" fill="#88898a" d="M 471.5,572.5 C 473.027,572.427 474.027,573.094 474.5,574.5C 472.973,574.573 471.973,573.906 471.5,572.5 Z"/></g>
<g><path style="opacity:1" fill="#a6a7a7" d="M 794.5,515.5 C 794.5,538.167 794.5,560.833 794.5,583.5C 785.318,583.827 776.318,583.493 767.5,582.5C 776.167,582.5 784.833,582.5 793.5,582.5C 793.169,559.994 793.503,537.66 794.5,515.5 Z"/></g>
<g><path style="opacity:1" fill="#c0c1c1" d="M 886.5,580.5 C 890.445,581.825 894.778,582.492 899.5,582.5C 904.247,582.473 908.913,582.14 913.5,581.5C 904.56,583.472 895.227,584.139 885.5,583.5C 885.263,582.209 885.596,581.209 886.5,580.5 Z"/></g>
<g><path style="opacity:1" fill="#c1c2c2" d="M 1033.5,580.5 C 1034.4,581.209 1034.74,582.209 1034.5,583.5C 1024.44,584.14 1014.78,583.473 1005.5,581.5C 1010.25,582.141 1015.09,582.474 1020,582.5C 1024.89,582.493 1029.39,581.826 1033.5,580.5 Z"/></g>
<g><path style="opacity:1" fill="#202122" d="M 688.5,619.5 C 705.135,618.824 713.801,626.824 714.5,643.5C 713.014,660.823 703.681,668.323 686.5,666C 673.463,660.95 668.296,651.45 671,637.5C 673.041,627.627 678.875,621.627 688.5,619.5 Z M 703.5,653.5 C 701.5,654.833 699.833,656.5 698.5,658.5C 685.952,661.133 679.286,655.966 678.5,643C 679.906,629.483 686.906,624.816 699.5,629C 703.826,632.638 705.826,637.305 705.5,643C 705.519,646.652 704.852,650.152 703.5,653.5 Z"/></g>
<g><path style="opacity:1" fill="#212223" d="M 840.5,654.5 C 840.5,653.5 840.5,652.5 840.5,651.5C 842.833,651.5 845.167,651.5 847.5,651.5C 849.245,656.97 853.078,659.637 859,659.5C 864.112,659.704 867.612,657.538 869.5,653C 868.743,651.488 867.743,650.154 866.5,649C 860.921,647.083 855.254,645.416 849.5,644C 841.06,639.546 839.226,633.046 844,624.5C 851.958,618.913 860.458,618.08 869.5,622C 873.652,624.976 875.986,628.976 876.5,634C 873.833,634.667 871.167,634.667 868.5,634C 864.851,626.506 859.184,624.673 851.5,628.5C 848.464,632.189 849.13,635.022 853.5,637C 860.091,638.23 866.424,640.23 872.5,643C 879.011,649.64 879.011,656.306 872.5,663C 864.012,667.267 855.346,667.601 846.5,664C 843.02,661.703 841.02,658.536 840.5,654.5 Z"/></g>
<g><path style="opacity:1" fill="#1c1d1d" d="M 318.5,620.5 C 321.167,620.5 323.833,620.5 326.5,620.5C 326.5,635.5 326.5,650.5 326.5,665.5C 323.833,665.5 321.167,665.5 318.5,665.5C 318.5,650.5 318.5,635.5 318.5,620.5 Z"/></g>
<g><path style="opacity:1" fill="#555657" d="M 429.5,627.5 C 429.5,625.5 429.5,623.5 429.5,621.5C 427.5,621.5 425.5,621.5 423.5,621.5C 423.5,623.5 423.5,625.5 423.5,627.5C 422.532,625.393 422.198,623.059 422.5,620.5C 425.167,620.5 427.833,620.5 430.5,620.5C 430.802,623.059 430.468,625.393 429.5,627.5 Z"/></g>
<g><path style="opacity:1" fill="#040707" d="M 429.5,627.5 C 427.5,627.5 425.5,627.5 423.5,627.5C 423.5,625.5 423.5,623.5 423.5,621.5C 425.5,621.5 427.5,621.5 429.5,621.5C 429.5,623.5 429.5,625.5 429.5,627.5 Z"/></g>
<g><path style="opacity:1" fill="#c1c2c2" d="M 594.5,620.5 C 594.666,625.511 594.499,630.511 594,635.5C 593.005,634.934 592.172,634.267 591.5,633.5C 593.135,629.427 594.135,625.094 594.5,620.5 Z"/></g>
<g><path style="opacity:1" fill="#1a1b1c" d="M 594.5,620.5 C 596.833,620.5 599.167,620.5 601.5,620.5C 601.5,635.5 601.5,650.5 601.5,665.5C 599.167,665.5 596.833,665.5 594.5,665.5C 594.649,664.448 594.483,663.448 594,662.5C 587.737,667.773 581.403,667.773 575,662.5C 570.142,653.28 570.476,644.28 576,635.5C 580.966,632.461 586.133,631.794 591.5,633.5C 592.172,634.267 593.005,634.934 594,635.5C 594.499,630.511 594.666,625.511 594.5,620.5 Z M 584.5,638.5 C 587.602,638.154 590.435,638.821 593,640.5C 593.667,645.833 593.667,651.167 593,656.5C 589.888,660.699 586.221,661.366 582,658.5C 578.098,651.044 578.931,644.377 584.5,638.5 Z"/></g>
<g><path style="opacity:1" fill="#1d1e1f" d="M 729.5,664.5 C 728.377,663.243 727.711,663.576 727.5,665.5C 725.167,665.5 722.833,665.5 720.5,665.5C 720.5,650.5 720.5,635.5 720.5,620.5C 723.167,620.5 725.833,620.5 728.5,620.5C 728.334,625.511 728.501,630.511 729,635.5C 742.698,629.163 749.865,633.663 750.5,649C 749.921,663.455 742.921,668.621 729.5,664.5 Z M 732.5,638.5 C 737.624,637.464 740.79,639.464 742,644.5C 743.055,649.687 742.222,654.52 739.5,659C 735.612,661.223 732.112,660.723 729,657.5C 728.333,652.5 728.333,647.5 729,642.5C 730.376,641.295 731.542,639.962 732.5,638.5 Z"/></g>
<g><path style="opacity:1" fill="#555657" d="M 958.5,627.5 C 958.5,625.5 958.5,623.5 958.5,621.5C 956.5,621.5 954.5,621.5 952.5,621.5C 952.5,623.5 952.5,625.5 952.5,627.5C 951.532,625.393 951.198,623.059 951.5,620.5C 954.167,620.5 956.833,620.5 959.5,620.5C 959.802,623.059 959.468,625.393 958.5,627.5 Z"/></g>
<g><path style="opacity:1" fill="#040707" d="M 958.5,627.5 C 956.5,627.5 954.5,627.5 952.5,627.5C 952.5,625.5 952.5,623.5 952.5,621.5C 954.5,621.5 956.5,621.5 958.5,621.5C 958.5,623.5 958.5,625.5 958.5,627.5 Z"/></g>
<g><path style="opacity:1" fill="#1c1d1d" d="M 1003.5,620.5 C 1006.17,620.5 1008.83,620.5 1011.5,620.5C 1011.5,635.5 1011.5,650.5 1011.5,665.5C 1008.83,665.5 1006.17,665.5 1003.5,665.5C 1003.5,650.5 1003.5,635.5 1003.5,620.5 Z"/></g>
<g><path style="opacity:1" fill="#b1b2b2" d="M 412.5,625.5 C 410.167,625.5 407.833,625.5 405.5,625.5C 405.5,628.167 405.5,630.833 405.5,633.5C 404.167,633.5 402.833,633.5 401.5,633.5C 401.5,635.167 401.5,636.833 401.5,638.5C 400.539,636.735 400.205,634.735 400.5,632.5C 401.833,632.5 403.167,632.5 404.5,632.5C 404.5,629.833 404.5,627.167 404.5,624.5C 407.385,624.194 410.052,624.527 412.5,625.5 Z"/></g>
<g><path style="opacity:1" fill="#141516" d="M 412.5,625.5 C 412.5,627.833 412.5,630.167 412.5,632.5C 413.919,633.451 415.585,633.784 417.5,633.5C 417.5,635.167 417.5,636.833 417.5,638.5C 415.833,638.5 414.167,638.5 412.5,638.5C 412.334,644.842 412.5,651.175 413,657.5C 413.589,659.863 415.089,660.863 417.5,660.5C 417.5,662.167 417.5,663.833 417.5,665.5C 415.167,665.5 412.833,665.5 410.5,665.5C 410.167,665.5 409.833,665.5 409.5,665.5C 409.027,664.094 408.027,663.427 406.5,663.5C 405.71,662.391 405.21,661.058 405,659.5C 404.5,652.508 404.334,645.508 404.5,638.5C 403.5,638.5 402.5,638.5 401.5,638.5C 401.5,636.833 401.5,635.167 401.5,633.5C 402.833,633.5 404.167,633.5 405.5,633.5C 405.5,630.833 405.5,628.167 405.5,625.5C 407.833,625.5 410.167,625.5 412.5,625.5 Z"/></g>
<g><path style="opacity:1" fill="#b1b2b2" d="M 446.5,625.5 C 444.167,625.5 441.833,625.5 439.5,625.5C 439.5,628.167 439.5,630.833 439.5,633.5C 438.167,633.5 436.833,633.5 435.5,633.5C 435.5,635.167 435.5,636.833 435.5,638.5C 434.539,636.735 434.205,634.735 434.5,632.5C 435.833,632.5 437.167,632.5 438.5,632.5C 438.5,629.833 438.5,627.167 438.5,624.5C 441.385,624.194 444.052,624.527 446.5,625.5 Z"/></g>
<g><path style="opacity:1" fill="#141516" d="M 446.5,625.5 C 446.5,627.833 446.5,630.167 446.5,632.5C 447.919,633.451 449.585,633.784 451.5,633.5C 451.5,635.167 451.5,636.833 451.5,638.5C 449.833,638.5 448.167,638.5 446.5,638.5C 446.334,644.842 446.5,651.175 447,657.5C 447.589,659.863 449.089,660.863 451.5,660.5C 451.5,662.167 451.5,663.833 451.5,665.5C 449.167,665.5 446.833,665.5 444.5,665.5C 444.167,665.5 443.833,665.5 443.5,665.5C 443.027,664.094 442.027,663.427 440.5,663.5C 439.71,662.391 439.21,661.058 439,659.5C 438.5,652.508 438.334,645.508 438.5,638.5C 437.5,638.5 436.5,638.5 435.5,638.5C 435.5,636.833 435.5,635.167 435.5,633.5C 436.833,633.5 438.167,633.5 439.5,633.5C 439.5,630.833 439.5,628.167 439.5,625.5C 441.833,625.5 444.167,625.5 446.5,625.5 Z"/></g>
<g><path style="opacity:1" fill="#888989" d="M 501.5,625.5 C 499.167,625.5 496.833,625.5 494.5,625.5C 494.5,628.167 494.5,630.833 494.5,633.5C 493.167,633.5 491.833,633.5 490.5,633.5C 490.5,635.167 490.5,636.833 490.5,638.5C 489.539,636.735 489.205,634.735 489.5,632.5C 490.833,632.5 492.167,632.5 493.5,632.5C 493.5,629.833 493.5,627.167 493.5,624.5C 496.385,624.194 499.052,624.527 501.5,625.5 Z"/></g>
<g><path style="opacity:1" fill="#1c1d1d" d="M 501.5,625.5 C 501.5,627.833 501.5,630.167 501.5,632.5C 503.167,632.5 504.833,632.5 506.5,632.5C 506.5,634.5 506.5,636.5 506.5,638.5C 504.833,638.5 503.167,638.5 501.5,638.5C 501.334,645.175 501.5,651.842 502,658.5C 503.396,660.527 505.062,660.86 507,659.5C 507.758,661.769 507.591,663.936 506.5,666C 501.063,667.655 496.897,666.155 494,661.5C 493.5,653.841 493.334,646.174 493.5,638.5C 492.5,638.5 491.5,638.5 490.5,638.5C 490.5,636.833 490.5,635.167 490.5,633.5C 491.833,633.5 493.167,633.5 494.5,633.5C 494.5,630.833 494.5,628.167 494.5,625.5C 496.833,625.5 499.167,625.5 501.5,625.5 Z"/></g>
<g><path style="opacity:1" fill="#191a1a" d="M 336.5,665.5 C 336.5,654.833 336.5,644.167 336.5,633.5C 338.833,633.5 341.167,633.5 343.5,633.5C 343.369,634.239 343.536,634.906 344,635.5C 350.661,631.202 356.994,631.536 363,636.5C 364.42,646.086 364.92,655.753 364.5,665.5C 361.833,665.5 359.167,665.5 356.5,665.5C 356.666,657.493 356.5,649.493 356,641.5C 355.424,639.148 353.924,638.148 351.5,638.5C 348.677,639.139 346.177,640.473 344,642.5C 343.5,650.159 343.334,657.826 343.5,665.5C 341.167,665.5 338.833,665.5 336.5,665.5 Z"/></g>
<g><path style="opacity:1" fill="#232424" d="M 396.5,639.5 C 394.643,641.845 392.31,642.178 389.5,640.5C 386.68,637.239 383.346,636.739 379.5,639C 378.14,640.938 378.473,642.604 380.5,644C 386.583,644.803 392.083,646.97 397,650.5C 399.895,657.821 397.728,662.988 390.5,666C 386.167,666.667 381.833,666.667 377.5,666C 373.544,664.882 371.211,662.382 370.5,658.5C 372.357,656.155 374.69,655.822 377.5,657.5C 378.874,659.959 381.04,660.959 384,660.5C 389.772,660.774 391.272,658.607 388.5,654C 382.497,652.965 376.997,650.798 372,647.5C 369.496,642.354 370.329,637.854 374.5,634C 380.08,632.483 385.747,632.149 391.5,633C 394.534,634.191 396.201,636.358 396.5,639.5 Z"/></g>
<g><path style="opacity:1" fill="#202122" d="M 536.5,635.5 C 536.427,637.027 537.094,638.027 538.5,638.5C 540.942,641.465 541.942,644.965 541.5,649C 541.106,662.722 534.106,668.389 520.5,666C 519.263,665.768 518.263,665.268 517.5,664.5C 517.027,663.094 516.027,662.427 514.5,662.5C 508.865,655.154 508.031,647.154 512,638.5C 513.961,635.865 516.461,634.031 519.5,633C 523.833,632.333 528.167,632.333 532.5,633C 533.984,633.662 535.317,634.496 536.5,635.5 Z M 522.5,638.5 C 527.772,637.549 531.272,639.549 533,644.5C 534.588,650.645 533.088,655.811 528.5,660C 522.543,661.054 519.043,658.554 518,652.5C 517.053,646.929 518.553,642.262 522.5,638.5 Z"/></g>
<g><path style="opacity:1" fill="#1b1c1c" d="M 635.5,636.5 C 635.427,638.027 636.094,639.027 637.5,639.5C 638.222,639.918 638.722,640.584 639,641.5C 639.498,644.482 639.665,647.482 639.5,650.5C 631.5,650.5 623.5,650.5 615.5,650.5C 615.232,652.099 615.566,653.432 616.5,654.5C 618.796,659.812 622.796,661.646 628.5,660C 629.71,658.961 630.71,657.794 631.5,656.5C 634.059,656.198 636.393,656.532 638.5,657.5C 637.349,662.149 634.349,664.982 629.5,666C 625.833,666.667 622.167,666.667 618.5,666C 616.934,665.392 615.6,664.558 614.5,663.5C 614.027,662.094 613.027,661.427 611.5,661.5C 606.46,653.672 606.294,645.672 611,637.5C 614.459,633.605 618.792,631.939 624,632.5C 628.656,631.795 632.49,633.129 635.5,636.5 Z M 631.5,643.5 C 629.429,644.809 626.929,645.475 624,645.5C 621.071,645.475 618.571,644.809 616.5,643.5C 618.902,637.801 622.902,636.301 628.5,639C 629.883,640.271 630.883,641.771 631.5,643.5 Z"/></g>
<g><path style="opacity:1" fill="#c0c1c1" d="M 756.5,633.5 C 758.948,632.527 761.615,632.194 764.5,632.5C 764.263,633.791 764.596,634.791 765.5,635.5C 765.217,636.289 764.717,636.956 764,637.5C 763.51,636.207 763.343,634.873 763.5,633.5C 761.167,633.5 758.833,633.5 756.5,633.5 Z"/></g>
<g><path style="opacity:1" fill="#171818" d="M 774.5,632.5 C 774.5,634.5 774.5,636.5 774.5,638.5C 772.585,638.216 770.919,638.549 769.5,639.5C 767.771,640.117 766.271,641.117 765,642.5C 764.5,650.159 764.334,657.826 764.5,665.5C 761.833,665.5 759.167,665.5 756.5,665.5C 756.5,654.833 756.5,644.167 756.5,633.5C 758.833,633.5 761.167,633.5 763.5,633.5C 763.343,634.873 763.51,636.207 764,637.5C 764.717,636.956 765.217,636.289 765.5,635.5C 767.845,632.925 770.845,631.925 774.5,632.5 Z"/></g>
<g><path style="opacity:1" fill="#1f2121" d="M 785.5,632.5 C 790.511,632.334 795.511,632.501 800.5,633C 802.848,633.346 804.681,634.513 806,636.5C 807.448,646.061 807.948,655.727 807.5,665.5C 804.289,665.988 801.456,665.321 799,663.5C 793.498,666.866 787.665,667.366 781.5,665C 776.617,659.942 776.284,654.609 780.5,649C 786.446,645.918 792.779,644.751 799.5,645.5C 799.226,638.601 795.726,636.268 789,638.5C 786.419,641.868 782.919,643.201 778.5,642.5C 778.893,637.687 781.226,634.353 785.5,632.5 Z M 791.5,650.5 C 794.167,650.5 796.833,650.5 799.5,650.5C 800.065,659.077 796.065,662.244 787.5,660C 785.675,658.534 785.175,656.701 786,654.5C 787.5,652.531 789.333,651.198 791.5,650.5 Z"/></g>
<g><path style="opacity:1" fill="#202122" d="M 908.5,635.5 C 908.427,637.027 909.094,638.027 910.5,638.5C 912.942,641.465 913.942,644.965 913.5,649C 913.106,662.722 906.106,668.389 892.5,666C 891.263,665.768 890.263,665.268 889.5,664.5C 889.027,663.094 888.027,662.427 886.5,662.5C 880.865,655.154 880.031,647.154 884,638.5C 885.961,635.865 888.461,634.031 891.5,633C 895.833,632.333 900.167,632.333 904.5,633C 905.984,633.662 907.317,634.496 908.5,635.5 Z M 894.5,638.5 C 899.772,637.549 903.272,639.549 905,644.5C 906.588,650.645 905.088,655.811 900.5,660C 894.543,661.054 891.043,658.554 890,652.5C 889.053,646.929 890.553,642.262 894.5,638.5 Z"/></g>
<g><path style="opacity:1" fill="#212223" d="M 944.5,636.5 C 944.427,638.027 945.094,639.027 946.5,639.5C 947.234,640.708 947.567,642.041 947.5,643.5C 943.17,644.268 939.837,642.935 937.5,639.5C 929.417,637.565 925.417,640.898 925.5,649.5C 926.457,659.635 931.123,662.302 939.5,657.5C 941.456,655.852 943.789,655.185 946.5,655.5C 946.5,656.5 946.5,657.5 946.5,658.5C 945.644,662.854 942.977,665.354 938.5,666C 933.864,666.939 929.531,666.439 925.5,664.5C 925.027,663.094 924.027,662.427 922.5,662.5C 916.865,655.154 916.031,647.154 920,638.5C 923.308,633.895 927.808,631.895 933.5,632.5C 938.019,631.891 941.685,633.224 944.5,636.5 Z"/></g>
<g><path style="opacity:1" fill="#1f2121" d="M 973.5,632.5 C 978.511,632.334 983.511,632.501 988.5,633C 990.848,633.346 992.681,634.513 994,636.5C 995.448,646.061 995.948,655.727 995.5,665.5C 992.289,665.988 989.456,665.321 987,663.5C 981.498,666.866 975.665,667.366 969.5,665C 964.617,659.942 964.284,654.609 968.5,649C 974.446,645.918 980.779,644.751 987.5,645.5C 987.226,638.601 983.726,636.268 977,638.5C 974.419,641.868 970.919,643.201 966.5,642.5C 966.893,637.687 969.226,634.353 973.5,632.5 Z M 979.5,650.5 C 982.167,650.5 984.833,650.5 987.5,650.5C 988.065,659.077 984.065,662.244 975.5,660C 973.675,658.534 973.175,656.701 974,654.5C 975.5,652.531 977.333,651.198 979.5,650.5 Z"/></g>
<g><path style="opacity:1" fill="#8c8d8d" d="M 343.5,633.5 C 341.167,633.5 338.833,633.5 336.5,633.5C 336.5,644.167 336.5,654.833 336.5,665.5C 335.505,654.679 335.172,643.679 335.5,632.5C 338.385,632.194 341.052,632.527 343.5,633.5 Z"/></g>
<g><path style="opacity:1" fill="#c2c3c3" d="M 412.5,632.5 C 414.5,632.5 416.5,632.5 418.5,632.5C 418.795,634.735 418.461,636.735 417.5,638.5C 417.5,636.833 417.5,635.167 417.5,633.5C 415.585,633.784 413.919,633.451 412.5,632.5 Z"/></g>
<g><path style="opacity:1" fill="#101112" d="M 422.5,633.5 C 424.833,633.5 427.167,633.5 429.5,633.5C 429.5,644.167 429.5,654.833 429.5,665.5C 427.167,665.5 424.833,665.5 422.5,665.5C 422.5,654.833 422.5,644.167 422.5,633.5 Z"/></g>
<g><path style="opacity:1" fill="#8c8d8d" d="M 422.5,633.5 C 424.948,632.527 427.615,632.194 430.5,632.5C 430.828,643.679 430.495,654.679 429.5,665.5C 429.5,654.833 429.5,644.167 429.5,633.5C 427.167,633.5 424.833,633.5 422.5,633.5 Z"/></g>
<g><path style="opacity:1" fill="#c2c3c3" d="M 446.5,632.5 C 448.5,632.5 450.5,632.5 452.5,632.5C 452.795,634.735 452.461,636.735 451.5,638.5C 451.5,636.833 451.5,635.167 451.5,633.5C 449.585,633.784 447.919,633.451 446.5,632.5 Z"/></g>
<g><path style="opacity:1" fill="#929393" d="M 464.5,633.5 C 462.167,633.5 459.833,633.5 457.5,633.5C 457.5,641.833 457.5,650.167 457.5,658.5C 456.507,650.016 456.174,641.349 456.5,632.5C 459.385,632.194 462.052,632.527 464.5,633.5 Z"/></g>
<g><path style="opacity:1" fill="#161717" d="M 464.5,633.5 C 464.334,641.174 464.5,648.841 465,656.5C 465.734,658.736 467.234,660.069 469.5,660.5C 472.655,659.85 475.155,658.183 477,655.5C 477.5,648.174 477.666,640.841 477.5,633.5C 479.833,633.5 482.167,633.5 484.5,633.5C 484.5,644.167 484.5,654.833 484.5,665.5C 481.534,665.89 478.868,665.223 476.5,663.5C 470.7,667.47 464.867,667.47 459,663.5C 457.991,661.975 457.491,660.308 457.5,658.5C 457.5,650.167 457.5,641.833 457.5,633.5C 459.833,633.5 462.167,633.5 464.5,633.5 Z"/></g>
<g><path style="opacity:1" fill="#8c8d8d" d="M 477.5,633.5 C 479.948,632.527 482.615,632.194 485.5,632.5C 485.828,643.679 485.495,654.679 484.5,665.5C 484.5,654.833 484.5,644.167 484.5,633.5C 482.167,633.5 479.833,633.5 477.5,633.5 Z"/></g>
<g><path style="opacity:1" fill="#8c8d8d" d="M 959.5,633.5 C 957.167,633.5 954.833,633.5 952.5,633.5C 952.5,644.167 952.5,654.833 952.5,665.5C 951.505,654.679 951.172,643.679 951.5,632.5C 954.385,632.194 957.052,632.527 959.5,633.5 Z"/></g>
<g><path style="opacity:1" fill="#101112" d="M 959.5,633.5 C 959.5,644.167 959.5,654.833 959.5,665.5C 957.167,665.5 954.833,665.5 952.5,665.5C 952.5,654.833 952.5,644.167 952.5,633.5C 954.833,633.5 957.167,633.5 959.5,633.5 Z"/></g>
<g><path style="opacity:1" fill="#7f8181" d="M 536.5,635.5 C 537.906,635.973 538.573,636.973 538.5,638.5C 537.094,638.027 536.427,637.027 536.5,635.5 Z"/></g>
<g><path style="opacity:1" fill="#7f8181" d="M 908.5,635.5 C 909.906,635.973 910.573,636.973 910.5,638.5C 909.094,638.027 908.427,637.027 908.5,635.5 Z"/></g>
<g><path style="opacity:1" fill="#878889" d="M 635.5,636.5 C 636.906,636.973 637.573,637.973 637.5,639.5C 636.094,639.027 635.427,638.027 635.5,636.5 Z"/></g>
<g><path style="opacity:1" fill="#777878" d="M 774.5,632.5 C 775.468,634.607 775.802,636.941 775.5,639.5C 773.5,639.5 771.5,639.5 769.5,639.5C 770.919,638.549 772.585,638.216 774.5,638.5C 774.5,636.5 774.5,634.5 774.5,632.5 Z"/></g>
<g><path style="opacity:1" fill="#8a8b8b" d="M 944.5,636.5 C 945.906,636.973 946.573,637.973 946.5,639.5C 945.094,639.027 944.427,638.027 944.5,636.5 Z"/></g>
<g><path style="opacity:1" fill="#bfc0c0" d="M 396.5,639.5 C 397.404,640.209 397.737,641.209 397.5,642.5C 394.302,643.036 391.635,642.369 389.5,640.5C 392.31,642.178 394.643,641.845 396.5,639.5 Z"/></g>
<g><path style="opacity:1" fill="#7c7e7e" d="M 616.5,643.5 C 618.571,644.809 621.071,645.475 624,645.5C 626.929,645.475 629.429,644.809 631.5,643.5C 632.404,644.209 632.737,645.209 632.5,646.5C 626.833,646.5 621.167,646.5 615.5,646.5C 615.263,645.209 615.596,644.209 616.5,643.5 Z"/></g>
<g><path style="opacity:1" fill="#838484" d="M 639.5,650.5 C 632.018,651.492 624.352,651.825 616.5,651.5C 616.5,652.5 616.5,653.5 616.5,654.5C 615.566,653.432 615.232,652.099 615.5,650.5C 623.5,650.5 631.5,650.5 639.5,650.5 Z"/></g>
<g><path style="opacity:1" fill="#979898" d="M 847.5,651.5 C 845.167,651.5 842.833,651.5 840.5,651.5C 840.5,652.5 840.5,653.5 840.5,654.5C 839.566,653.432 839.232,652.099 839.5,650.5C 842.385,650.194 845.052,650.527 847.5,651.5 Z"/></g>
<g><path style="opacity:1" fill="#b6b7b8" d="M 946.5,658.5 C 946.5,657.5 946.5,656.5 946.5,655.5C 943.789,655.185 941.456,655.852 939.5,657.5C 939.5,656.5 939.5,655.5 939.5,654.5C 942.167,654.5 944.833,654.5 947.5,654.5C 947.768,656.099 947.434,657.432 946.5,658.5 Z"/></g>
<g><path style="opacity:1" fill="#646565" d="M 377.5,657.5 C 374.69,655.822 372.357,656.155 370.5,658.5C 369.596,657.791 369.263,656.791 369.5,655.5C 372.698,654.964 375.365,655.631 377.5,657.5 Z"/></g>
<g><path style="opacity:1" fill="#5e5f60" d="M 631.5,656.5 C 634.024,655.2 636.691,655.2 639.5,656.5C 639.376,657.107 639.043,657.44 638.5,657.5C 636.393,656.532 634.059,656.198 631.5,656.5 Z"/></g>
<g><path style="opacity:1" fill="#696b6b" d="M 703.5,653.5 C 702.833,656.167 701.167,657.833 698.5,658.5C 699.833,656.5 701.5,654.833 703.5,653.5 Z"/></g>
<g><path style="opacity:1" fill="#838484" d="M 611.5,661.5 C 613.027,661.427 614.027,662.094 614.5,663.5C 612.973,663.573 611.973,662.906 611.5,661.5 Z"/></g>
<g><path style="opacity:1" fill="#838485" d="M 514.5,662.5 C 516.027,662.427 517.027,663.094 517.5,664.5C 515.973,664.573 514.973,663.906 514.5,662.5 Z"/></g>
<g><path style="opacity:1" fill="#b0b1b1" d="M 729.5,664.5 C 728.833,664.833 728.167,665.167 727.5,665.5C 727.711,663.576 728.377,663.243 729.5,664.5 Z"/></g>
<g><path style="opacity:1" fill="#838485" d="M 886.5,662.5 C 888.027,662.427 889.027,663.094 889.5,664.5C 887.973,664.573 886.973,663.906 886.5,662.5 Z"/></g>
<g><path style="opacity:1" fill="#838485" d="M 922.5,662.5 C 924.027,662.427 925.027,663.094 925.5,664.5C 923.973,664.573 922.973,663.906 922.5,662.5 Z"/></g>
<g><path style="opacity:1" fill="#757676" d="M 406.5,663.5 C 408.027,663.427 409.027,664.094 409.5,665.5C 407.973,665.573 406.973,664.906 406.5,663.5 Z"/></g>
<g><path style="opacity:1" fill="#757676" d="M 440.5,663.5 C 442.027,663.427 443.027,664.094 443.5,665.5C 441.973,665.573 440.973,664.906 440.5,663.5 Z"/></g>
<g><path style="opacity:1" fill="#878888" d="M 410.5,665.5 C 412.833,665.5 415.167,665.5 417.5,665.5C 417.5,663.833 417.5,662.167 417.5,660.5C 418.513,661.659 418.847,663.659 418.5,666.5C 415.615,666.806 412.948,666.473 410.5,665.5 Z"/></g>
<g><path style="opacity:1" fill="#878888" d="M 444.5,665.5 C 446.833,665.5 449.167,665.5 451.5,665.5C 451.5,663.833 451.5,662.167 451.5,660.5C 452.513,661.659 452.847,663.659 452.5,666.5C 449.615,666.806 446.948,666.473 444.5,665.5 Z"/></g>
<g><path style="opacity:1" fill="#191a1b" d="M 346.5,745.5 C 344.5,745.5 342.5,745.5 340.5,745.5C 340.657,744.127 340.49,742.793 340,741.5C 339.283,742.044 338.783,742.711 338.5,743.5C 337.653,744.966 336.32,745.8 334.5,746C 331.408,746.736 328.408,746.569 325.5,745.5C 325.027,744.094 324.027,743.427 322.5,743.5C 318.594,739.961 316.927,735.461 317.5,730C 317.873,714.661 325.207,709.494 339.5,714.5C 340.501,710.94 340.834,706.607 340.5,701.5C 342.5,701.5 344.5,701.5 346.5,701.5C 346.5,716.167 346.5,730.833 346.5,745.5 Z M 329.5,718.5 C 332.724,718.203 335.724,718.87 338.5,720.5C 339.663,725.802 339.829,731.136 339,736.5C 333.583,742.225 329.25,741.558 326,734.5C 324.622,728.492 325.789,723.159 329.5,718.5 Z"/></g>
<g><path style="opacity:1" fill="#505152" d="M 346.5,745.5 C 346.5,730.833 346.5,716.167 346.5,701.5C 344.5,701.5 342.5,701.5 340.5,701.5C 340.834,706.607 340.501,710.94 339.5,714.5C 339.5,709.833 339.5,705.167 339.5,700.5C 342.167,700.5 344.833,700.5 347.5,700.5C 347.829,715.676 347.496,730.676 346.5,745.5 Z"/></g>
<g><path style="opacity:1" fill="#1c1d1d" d="M 417.5,700.5 C 420.167,700.5 422.833,700.5 425.5,700.5C 425.5,715.5 425.5,730.5 425.5,745.5C 422.833,745.5 420.167,745.5 417.5,745.5C 417.5,730.5 417.5,715.5 417.5,700.5 Z"/></g>
<g><path style="opacity:1" fill="#6c6d6e" d="M 535.5,707.5 C 542.982,706.508 550.648,706.175 558.5,706.5C 558.5,704.833 558.5,703.167 558.5,701.5C 548.5,701.5 538.5,701.5 528.5,701.5C 528.5,716.167 528.5,730.833 528.5,745.5C 527.504,730.676 527.171,715.676 527.5,700.5C 538.167,700.5 548.833,700.5 559.5,700.5C 559.5,702.833 559.5,705.167 559.5,707.5C 551.5,707.5 543.5,707.5 535.5,707.5 Z"/></g>
<g><path style="opacity:1" fill="#0b0d0e" d="M 535.5,707.5 C 535.5,711.5 535.5,715.5 535.5,719.5C 542.167,719.5 548.833,719.5 555.5,719.5C 555.5,721.833 555.5,724.167 555.5,726.5C 548.833,726.5 542.167,726.5 535.5,726.5C 535.5,732.833 535.5,739.167 535.5,745.5C 533.167,745.5 530.833,745.5 528.5,745.5C 528.5,730.833 528.5,716.167 528.5,701.5C 538.5,701.5 548.5,701.5 558.5,701.5C 558.5,703.167 558.5,704.833 558.5,706.5C 550.648,706.175 542.982,706.508 535.5,707.5 Z"/></g>
<g><path style="opacity:1" fill="#1e1f1f" d="M 798.5,700.5 C 801.777,700.216 804.943,700.549 808,701.5C 814.002,716.008 819.502,730.675 824.5,745.5C 821.813,745.664 819.146,745.497 816.5,745C 814.47,741.411 813.137,737.578 812.5,733.5C 806.5,733.5 800.5,733.5 794.5,733.5C 793.863,737.578 792.53,741.411 790.5,745C 787.773,745.818 785.106,745.652 782.5,744.5C 788.037,729.886 793.371,715.22 798.5,700.5 Z M 802.5,710.5 C 803.167,710.833 803.833,711.167 804.5,711.5C 805.796,716.393 807.462,721.06 809.5,725.5C 805.5,726.833 801.5,726.833 797.5,725.5C 799.367,720.567 801.033,715.567 802.5,710.5 Z"/></g>
<g><path style="opacity:1" fill="#5f6061" d="M 968.5,745.5 C 968.5,730.833 968.5,716.167 968.5,701.5C 966.5,701.5 964.5,701.5 962.5,701.5C 962.827,706.214 962.493,710.88 961.5,715.5C 960.893,715.376 960.56,715.043 960.5,714.5C 961.486,710.03 961.819,705.363 961.5,700.5C 964.167,700.5 966.833,700.5 969.5,700.5C 969.829,715.676 969.496,730.676 968.5,745.5 Z"/></g>
<g><path style="opacity:1" fill="#18191a" d="M 968.5,745.5 C 966.5,745.5 964.5,745.5 962.5,745.5C 962.657,744.127 962.49,742.793 962,741.5C 961.283,742.044 960.783,742.711 960.5,743.5C 951.534,748.997 944.701,746.997 940,737.5C 939.139,731.415 939.473,725.415 941,719.5C 943.343,714.329 947.343,711.995 953,712.5C 955.866,712.3 958.366,712.967 960.5,714.5C 960.56,715.043 960.893,715.376 961.5,715.5C 962.493,710.88 962.827,706.214 962.5,701.5C 964.5,701.5 966.5,701.5 968.5,701.5C 968.5,716.167 968.5,730.833 968.5,745.5 Z M 951.5,718.5 C 955.192,717.971 958.358,718.971 961,721.5C 961.667,726.167 961.667,730.833 961,735.5C 956.578,742.059 952.245,742.059 948,735.5C 946.487,729.13 947.653,723.464 951.5,718.5 Z"/></g>
<g><path style="opacity:1" fill="#bebfc0" d="M 802.5,710.5 C 803.623,709.243 804.289,709.576 804.5,711.5C 803.833,711.167 803.167,710.833 802.5,710.5 Z"/></g>
<g><path style="opacity:1" fill="#1f2020" d="M 384.5,723.5 C 384.5,725.833 384.5,728.167 384.5,730.5C 376.648,730.175 368.982,730.508 361.5,731.5C 362.16,739 366.16,741.833 373.5,740C 374.942,739.623 375.942,738.79 376.5,737.5C 378.717,736.631 381.05,736.298 383.5,736.5C 383.5,737.5 383.5,738.5 383.5,739.5C 382.723,742.112 381.056,743.945 378.5,745C 356.746,748.568 349.246,739.735 356,718.5C 357.873,716.291 360.04,714.458 362.5,713C 367.921,712.161 373.254,712.494 378.5,714C 381.98,716.297 383.98,719.464 384.5,723.5 Z M 367.5,717.5 C 372.69,717.523 376.023,720.023 377.5,725C 372.167,725.667 366.833,725.667 361.5,725C 362.608,721.732 364.608,719.232 367.5,717.5 Z"/></g>
<g><path style="opacity:1" fill="#202121" d="M 457.5,714.5 C 457.427,716.027 458.094,717.027 459.5,717.5C 460.29,718.609 460.79,719.942 461,721.5C 461.5,729.493 461.666,737.493 461.5,745.5C 458.289,745.988 455.456,745.321 453,743.5C 447.197,746.936 441.364,747.27 435.5,744.5C 435.027,743.094 434.027,742.427 432.5,742.5C 428.795,733.488 431.795,727.988 441.5,726C 445.486,725.501 449.486,725.334 453.5,725.5C 452.618,717.889 448.618,715.722 441.5,719C 439.267,721.907 436.267,723.074 432.5,722.5C 432.349,717.486 434.683,714.32 439.5,713C 445.71,711.979 451.71,712.479 457.5,714.5 Z M 445.5,730.5 C 448.167,730.5 450.833,730.5 453.5,730.5C 453.568,738.587 449.568,741.754 441.5,740C 439.352,737.925 439.018,735.592 440.5,733C 442.315,732.243 443.981,731.41 445.5,730.5 Z"/></g>
<g><path style="opacity:1" fill="#232425" d="M 490.5,714.5 C 490.427,716.027 491.094,717.027 492.5,717.5C 493.451,718.919 493.784,720.585 493.5,722.5C 491.076,722.808 488.743,722.474 486.5,721.5C 482.439,716.19 478.439,716.19 474.5,721.5C 475.09,722.799 476.09,723.632 477.5,724C 481.88,725.178 486.213,726.512 490.5,728C 494.327,731.308 495.494,735.474 494,740.5C 490.733,745.095 486.233,747.095 480.5,746.5C 472.217,747.201 467.551,743.535 466.5,735.5C 468.857,735.337 471.19,735.503 473.5,736C 476.34,740.542 480.34,741.709 485.5,739.5C 488.167,737.833 488.167,736.167 485.5,734.5C 480.839,733.001 476.172,731.501 471.5,730C 467.673,726.692 466.506,722.526 468,717.5C 469.543,715.622 471.376,714.122 473.5,713C 479.38,711.99 485.046,712.49 490.5,714.5 Z"/></g>
<g><path style="opacity:1" fill="#1e1f1f" d="M 626.5,715.5 C 626.427,717.027 627.094,718.027 628.5,718.5C 629.674,719.514 630.34,720.847 630.5,722.5C 630.5,725.167 630.5,727.833 630.5,730.5C 622.648,730.175 614.982,730.508 607.5,731.5C 608.629,738.469 612.629,741.303 619.5,740C 621.5,739.333 622.833,738 623.5,736C 632.548,734.292 633.548,736.958 626.5,744C 605.306,750.143 596.806,742.31 601,720.5C 604.046,714.257 609.046,711.59 616,712.5C 619.993,712.062 623.493,713.062 626.5,715.5 Z M 623.5,725.5 C 618.5,725.5 613.5,725.5 608.5,725.5C 608.5,724.5 608.5,723.5 608.5,722.5C 611.441,717.431 615.441,716.431 620.5,719.5C 622.038,721.243 623.038,723.243 623.5,725.5 Z"/></g>
<g><path style="opacity:1" fill="#c0c1c1" d="M 637.5,713.5 C 639.948,712.527 642.615,712.194 645.5,712.5C 645.263,713.791 645.596,714.791 646.5,715.5C 646.217,716.289 645.717,716.956 645,717.5C 644.51,716.207 644.343,714.873 644.5,713.5C 642.167,713.5 639.833,713.5 637.5,713.5 Z"/></g>
<g><path style="opacity:1" fill="#171818" d="M 655.5,712.5 C 655.5,714.5 655.5,716.5 655.5,718.5C 653.585,718.216 651.919,718.549 650.5,719.5C 648.771,720.117 647.271,721.117 646,722.5C 645.5,730.159 645.334,737.826 645.5,745.5C 642.833,745.5 640.167,745.5 637.5,745.5C 637.5,734.833 637.5,724.167 637.5,713.5C 639.833,713.5 642.167,713.5 644.5,713.5C 644.343,714.873 644.51,716.207 645,717.5C 645.717,716.956 646.217,716.289 646.5,715.5C 648.845,712.925 651.845,711.925 655.5,712.5 Z"/></g>
<g><path style="opacity:1" fill="#b9baba" d="M 658.5,713.5 C 667.652,712.506 676.985,712.173 686.5,712.5C 686.802,715.059 686.468,717.393 685.5,719.5C 685.5,717.5 685.5,715.5 685.5,713.5C 676.5,713.5 667.5,713.5 658.5,713.5 Z"/></g>
<g><path style="opacity:1" fill="#1f2121" d="M 698.5,712.5 C 703.511,712.334 708.511,712.501 713.5,713C 715.848,713.346 717.681,714.513 719,716.5C 720.448,726.061 720.948,735.727 720.5,745.5C 717.289,745.988 714.456,745.321 712,743.5C 706.498,746.866 700.665,747.366 694.5,745C 689.617,739.942 689.284,734.609 693.5,729C 699.446,725.918 705.779,724.751 712.5,725.5C 712.226,718.601 708.726,716.268 702,718.5C 699.419,721.868 695.919,723.201 691.5,722.5C 691.893,717.687 694.226,714.353 698.5,712.5 Z M 704.5,730.5 C 707.167,730.5 709.833,730.5 712.5,730.5C 713.065,739.077 709.065,742.244 700.5,740C 698.675,738.534 698.175,736.701 699,734.5C 700.5,732.531 702.333,731.198 704.5,730.5 Z"/></g>
<g><path style="opacity:1" fill="#232424" d="M 752.5,719.5 C 750.643,721.845 748.31,722.178 745.5,720.5C 742.68,717.239 739.346,716.739 735.5,719C 734.14,720.938 734.473,722.604 736.5,724C 742.583,724.803 748.083,726.97 753,730.5C 755.895,737.821 753.728,742.988 746.5,746C 742.167,746.667 737.833,746.667 733.5,746C 729.544,744.882 727.211,742.382 726.5,738.5C 728.357,736.155 730.69,735.822 733.5,737.5C 734.874,739.959 737.04,740.959 740,740.5C 745.772,740.774 747.272,738.607 744.5,734C 738.497,732.965 732.997,730.798 728,727.5C 725.496,722.354 726.329,717.854 730.5,714C 736.08,712.483 741.747,712.149 747.5,713C 750.534,714.191 752.201,716.358 752.5,719.5 Z"/></g>
<g><path style="opacity:1" fill="#c0c1c1" d="M 828.5,713.5 C 830.948,712.527 833.615,712.194 836.5,712.5C 836.263,713.791 836.596,714.791 837.5,715.5C 837.217,716.289 836.717,716.956 836,717.5C 835.51,716.207 835.343,714.873 835.5,713.5C 833.167,713.5 830.833,713.5 828.5,713.5 Z"/></g>
<g><path style="opacity:1" fill="#171818" d="M 846.5,712.5 C 846.5,714.5 846.5,716.5 846.5,718.5C 844.585,718.216 842.919,718.549 841.5,719.5C 839.771,720.117 838.271,721.117 837,722.5C 836.5,730.159 836.334,737.826 836.5,745.5C 833.833,745.5 831.167,745.5 828.5,745.5C 828.5,734.833 828.5,724.167 828.5,713.5C 830.833,713.5 833.167,713.5 835.5,713.5C 835.343,714.873 835.51,716.207 836,717.5C 836.717,716.956 837.217,716.289 837.5,715.5C 839.845,712.925 842.845,711.925 846.5,712.5 Z"/></g>
<g><path style="opacity:1" fill="#bebfbf" d="M 851.5,713.5 C 853.948,712.527 856.615,712.194 859.5,712.5C 859.263,713.791 859.596,714.791 860.5,715.5C 860.44,716.043 860.107,716.376 859.5,716.5C 858.614,715.675 858.281,714.675 858.5,713.5C 856.167,713.5 853.833,713.5 851.5,713.5 Z"/></g>
<g><path style="opacity:1" fill="#1c1d1e" d="M 851.5,713.5 C 853.833,713.5 856.167,713.5 858.5,713.5C 858.281,714.675 858.614,715.675 859.5,716.5C 860.107,716.376 860.44,716.043 860.5,715.5C 862.508,713.073 865.174,712.073 868.5,712.5C 870.167,712.667 871.833,712.833 873.5,713C 874.685,714.353 876.019,715.52 877.5,716.5C 882.601,712.254 888.268,711.421 894.5,714C 895.893,715.171 896.727,716.671 897,718.5C 897.5,727.494 897.666,736.494 897.5,745.5C 894.833,745.5 892.167,745.5 889.5,745.5C 889.666,737.16 889.5,728.827 889,720.5C 885.182,717.78 881.849,718.447 879,722.5C 878.5,730.159 878.334,737.826 878.5,745.5C 875.833,745.5 873.167,745.5 870.5,745.5C 870.666,737.493 870.5,729.493 870,721.5C 869.592,719.59 868.425,718.59 866.5,718.5C 863.786,718.94 861.62,720.274 860,722.5C 859.5,730.159 859.334,737.826 859.5,745.5C 856.833,745.5 854.167,745.5 851.5,745.5C 851.5,734.833 851.5,724.167 851.5,713.5 Z"/></g>
<g><path style="opacity:1" fill="#1f2021" d="M 911.5,712.5 C 916.511,712.334 921.511,712.501 926.5,713C 930,713.833 932.167,716 933,719.5C 933.5,728.16 933.666,736.827 933.5,745.5C 930.289,745.988 927.456,745.321 925,743.5C 920.219,746.363 915.052,747.196 909.5,746C 903.831,743.185 901.998,738.685 904,732.5C 906.169,728.99 909.336,726.823 913.5,726C 917.486,725.501 921.486,725.334 925.5,725.5C 924.387,717.528 920.221,715.528 913,719.5C 912.517,720.448 912.351,721.448 912.5,722.5C 909.833,722.5 907.167,722.5 904.5,722.5C 904.52,717.489 906.853,714.156 911.5,712.5 Z M 917.5,730.5 C 920.167,730.5 922.833,730.5 925.5,730.5C 925.77,738.572 921.77,741.738 913.5,740C 911.327,738.135 910.993,735.969 912.5,733.5C 914.145,732.304 915.811,731.304 917.5,730.5 Z"/></g>
<g><path style="opacity:1" fill="#1f2021" d="M 983.5,712.5 C 988.511,712.334 993.511,712.501 998.5,713C 1002,713.833 1004.17,716 1005,719.5C 1005.5,728.16 1005.67,736.827 1005.5,745.5C 1002.29,745.988 999.456,745.321 997,743.5C 992.219,746.363 987.052,747.196 981.5,746C 975.831,743.185 973.998,738.685 976,732.5C 978.169,728.99 981.336,726.823 985.5,726C 989.486,725.501 993.486,725.334 997.5,725.5C 996.387,717.528 992.221,715.528 985,719.5C 984.517,720.448 984.351,721.448 984.5,722.5C 981.833,722.5 979.167,722.5 976.5,722.5C 976.52,717.489 978.853,714.156 983.5,712.5 Z M 989.5,730.5 C 992.167,730.5 994.833,730.5 997.5,730.5C 997.77,738.572 993.77,741.738 985.5,740C 983.327,738.135 982.993,735.969 984.5,733.5C 986.145,732.304 987.811,731.304 989.5,730.5 Z"/></g>
<g><path style="opacity:1" fill="#212223" d="M 1037.5,720.5 C 1035.39,721.468 1033.06,721.802 1030.5,721.5C 1028.13,717.322 1024.8,716.489 1020.5,719C 1019.01,721.022 1019.34,722.688 1021.5,724C 1026.94,725.149 1032.11,726.983 1037,729.5C 1040.04,734.564 1039.54,739.397 1035.5,744C 1028.97,746.877 1022.31,747.21 1015.5,745C 1013.54,743.549 1012.2,741.716 1011.5,739.5C 1011.5,738.5 1011.5,737.5 1011.5,736.5C 1014.21,736.185 1016.54,736.852 1018.5,738.5C 1021.86,740.487 1025.53,740.987 1029.5,740C 1032.46,736.237 1031.46,733.904 1026.5,733C 1020.85,732.553 1016.02,730.387 1012,726.5C 1010.63,721.563 1011.8,717.396 1015.5,714C 1020.72,712.437 1026.05,712.104 1031.5,713C 1035.52,713.863 1037.52,716.363 1037.5,720.5 Z"/></g>
<g><path style="opacity:1" fill="#0f1111" d="M 565.5,713.5 C 567.833,713.5 570.167,713.5 572.5,713.5C 572.174,721.684 572.508,729.684 573.5,737.5C 574.519,739.101 576.019,740.101 578,740.5C 581.008,740.006 583.508,738.673 585.5,736.5C 586.492,729.018 586.825,721.352 586.5,713.5C 588.833,713.5 591.167,713.5 593.5,713.5C 593.5,724.167 593.5,734.833 593.5,745.5C 591.167,745.5 588.833,745.5 586.5,745.5C 586.657,744.127 586.49,742.793 586,741.5C 585.283,742.044 584.783,742.711 584.5,743.5C 578.441,747.773 572.608,747.44 567,742.5C 565.552,732.939 565.052,723.273 565.5,713.5 Z"/></g>
<g><path style="opacity:1" fill="#bdbebe" d="M 565.5,713.5 C 567.948,712.527 570.615,712.194 573.5,712.5C 573.5,720.833 573.5,729.167 573.5,737.5C 572.508,729.684 572.174,721.684 572.5,713.5C 570.167,713.5 567.833,713.5 565.5,713.5 Z"/></g>
<g><path style="opacity:1" fill="#bfc0c0" d="M 593.5,713.5 C 591.167,713.5 588.833,713.5 586.5,713.5C 586.825,721.352 586.492,729.018 585.5,736.5C 585.5,728.5 585.5,720.5 585.5,712.5C 588.385,712.194 591.052,712.527 593.5,713.5 Z"/></g>
<g><path style="opacity:1" fill="#141516" d="M 658.5,713.5 C 667.5,713.5 676.5,713.5 685.5,713.5C 685.5,715.5 685.5,717.5 685.5,719.5C 680.175,726.157 674.509,732.49 668.5,738.5C 667.957,738.56 667.624,738.893 667.5,739.5C 673.798,740.496 680.132,740.83 686.5,740.5C 686.5,742.167 686.5,743.833 686.5,745.5C 676.833,745.5 667.167,745.5 657.5,745.5C 657.337,743.143 657.503,740.81 658,738.5C 663.338,732.33 668.838,726.33 674.5,720.5C 675.289,720.217 675.956,719.717 676.5,719C 670.509,718.501 664.509,718.334 658.5,718.5C 658.5,716.833 658.5,715.167 658.5,713.5 Z"/></g>
<g><path style="opacity:1" fill="#8a8b8c" d="M 457.5,714.5 C 458.906,714.973 459.573,715.973 459.5,717.5C 458.094,717.027 457.427,716.027 457.5,714.5 Z"/></g>
<g><path style="opacity:1" fill="#8a8b8c" d="M 490.5,714.5 C 491.906,714.973 492.573,715.973 492.5,717.5C 491.094,717.027 490.427,716.027 490.5,714.5 Z"/></g>
<g><path style="opacity:1" fill="#838484" d="M 626.5,715.5 C 627.906,715.973 628.573,716.973 628.5,718.5C 627.094,718.027 626.427,717.027 626.5,715.5 Z"/></g>
<g><path style="opacity:1" fill="#777878" d="M 655.5,712.5 C 656.468,714.607 656.802,716.941 656.5,719.5C 654.5,719.5 652.5,719.5 650.5,719.5C 651.919,718.549 653.585,718.216 655.5,718.5C 655.5,716.5 655.5,714.5 655.5,712.5 Z"/></g>
<g><path style="opacity:1" fill="#878888" d="M 658.5,718.5 C 664.509,718.334 670.509,718.501 676.5,719C 675.956,719.717 675.289,720.217 674.5,720.5C 669.167,719.833 663.833,719.167 658.5,718.5 Z"/></g>
<g><path style="opacity:1" fill="#777878" d="M 846.5,712.5 C 847.468,714.607 847.802,716.941 847.5,719.5C 845.5,719.5 843.5,719.5 841.5,719.5C 842.919,718.549 844.585,718.216 846.5,718.5C 846.5,716.5 846.5,714.5 846.5,712.5 Z"/></g>
<g><path style="opacity:1" fill="#bfc0c0" d="M 752.5,719.5 C 753.404,720.209 753.737,721.209 753.5,722.5C 750.302,723.036 747.635,722.369 745.5,720.5C 748.31,722.178 750.643,721.845 752.5,719.5 Z"/></g>
<g><path style="opacity:1" fill="#c9c9ca" d="M 1037.5,720.5 C 1038.04,720.56 1038.38,720.893 1038.5,721.5C 1035.69,722.8 1033.02,722.8 1030.5,721.5C 1033.06,721.802 1035.39,721.468 1037.5,720.5 Z"/></g>
<g><path style="opacity:1" fill="#848585" d="M 608.5,722.5 C 608.5,723.5 608.5,724.5 608.5,725.5C 613.5,725.5 618.5,725.5 623.5,725.5C 618.36,726.488 613.026,726.821 607.5,726.5C 607.232,724.901 607.566,723.568 608.5,722.5 Z"/></g>
<g><path style="opacity:1" fill="#b1b2b2" d="M 797.5,725.5 C 801.5,726.833 805.5,726.833 809.5,725.5C 810.043,725.56 810.376,725.893 810.5,726.5C 805.833,727.833 801.167,727.833 796.5,726.5C 796.624,725.893 796.957,725.56 797.5,725.5 Z"/></g>
<g><path style="opacity:1" fill="#868787" d="M 384.5,723.5 C 385.473,725.948 385.806,728.615 385.5,731.5C 377.5,731.5 369.5,731.5 361.5,731.5C 368.982,730.508 376.648,730.175 384.5,730.5C 384.5,728.167 384.5,725.833 384.5,723.5 Z"/></g>
<g><path style="opacity:1" fill="#7c7d7d" d="M 630.5,722.5 C 631.477,725.287 631.81,728.287 631.5,731.5C 623.5,731.5 615.5,731.5 607.5,731.5C 614.982,730.508 622.648,730.175 630.5,730.5C 630.5,727.833 630.5,725.167 630.5,722.5 Z"/></g>
<g><path style="opacity:1" fill="#666768" d="M 383.5,739.5 C 383.5,738.5 383.5,737.5 383.5,736.5C 381.05,736.298 378.717,736.631 376.5,737.5C 378.635,735.631 381.302,734.964 384.5,735.5C 384.768,737.099 384.434,738.432 383.5,739.5 Z"/></g>
<g><path style="opacity:1" fill="#646565" d="M 733.5,737.5 C 730.69,735.822 728.357,736.155 726.5,738.5C 725.596,737.791 725.263,736.791 725.5,735.5C 728.698,734.964 731.365,735.631 733.5,737.5 Z"/></g>
<g><path style="opacity:1" fill="#666768" d="M 1018.5,738.5 C 1016.54,736.852 1014.21,736.185 1011.5,736.5C 1011.5,737.5 1011.5,738.5 1011.5,739.5C 1010.57,738.432 1010.23,737.099 1010.5,735.5C 1013.17,735.5 1015.83,735.5 1018.5,735.5C 1018.5,736.5 1018.5,737.5 1018.5,738.5 Z"/></g>
<g><path style="opacity:1" fill="#545556" d="M 668.5,738.5 C 674.645,739.49 680.978,739.823 687.5,739.5C 687.795,741.735 687.461,743.735 686.5,745.5C 686.5,743.833 686.5,742.167 686.5,740.5C 680.132,740.83 673.798,740.496 667.5,739.5C 667.624,738.893 667.957,738.56 668.5,738.5 Z"/></g>
<g><path style="opacity:1" fill="#aaabab" d="M 340.5,745.5 C 339.833,744.833 339.167,744.167 338.5,743.5C 338.783,742.711 339.283,742.044 340,741.5C 340.49,742.793 340.657,744.127 340.5,745.5 Z"/></g>
<g><path style="opacity:1" fill="#7f8181" d="M 432.5,742.5 C 434.027,742.427 435.027,743.094 435.5,744.5C 433.973,744.573 432.973,743.906 432.5,742.5 Z"/></g>
<g><path style="opacity:1" fill="#adaeae" d="M 586.5,745.5 C 585.833,744.833 585.167,744.167 584.5,743.5C 584.783,742.711 585.283,742.044 586,741.5C 586.49,742.793 586.657,744.127 586.5,745.5 Z"/></g>
<g><path style="opacity:1" fill="#868787" d="M 962.5,745.5 C 961.833,744.833 961.167,744.167 960.5,743.5C 960.783,742.711 961.283,742.044 962,741.5C 962.49,742.793 962.657,744.127 962.5,745.5 Z"/></g>
<g><path style="opacity:1" fill="#8a8b8b" d="M 322.5,743.5 C 324.027,743.427 325.027,744.094 325.5,745.5C 323.973,745.573 322.973,744.906 322.5,743.5 Z"/></g>
</svg>
