<?xml version="1.0" encoding="UTF-8"?>
<!DOCTYPE svg PUBLIC "-//W3C//DTD SVG 1.1//EN" "http://www.w3.org/Graphics/SVG/1.1/DTD/svg11.dtd">
<svg xmlns="http://www.w3.org/2000/svg" version="1.1" width="828px" height="301px" style="shape-rendering:geometricPrecision; text-rendering:geometricPrecision; image-rendering:optimizeQuality; fill-rule:evenodd; clip-rule:evenodd" xmlns:xlink="http://www.w3.org/1999/xlink">
<g><path style="opacity:0.004" fill="#fefbf9" d="M 78.5,-0.5 C 78.8333,-0.5 79.1667,-0.5 79.5,-0.5C 79.3147,0.170143 78.9813,0.170143 78.5,-0.5 Z"/></g>
<g><path style="opacity:1" fill="#1c2b74" d="M 88.5,-0.5 C 98.5,-0.5 108.5,-0.5 118.5,-0.5C 125.905,0.383765 133.239,2.05043 140.5,4.5C 142.102,6.07394 144.102,6.74061 146.5,6.5C 149.063,7.08828 151.396,8.08828 153.5,9.5C 153.859,11.4846 154.692,12.1513 156,11.5C 157.667,12.8333 159.333,14.1667 161,15.5C 161.383,14.944 161.883,14.6107 162.5,14.5C 164.777,15.4486 166.777,16.7819 168.5,18.5C 169.262,20.2624 170.596,21.2624 172.5,21.5C 173.833,22.1667 174.833,23.1667 175.5,24.5C 175.81,26.1436 176.81,27.1436 178.5,27.5C 178.5,29.5 179.5,30.5 181.5,30.5C 181.427,32.0269 182.094,33.0269 183.5,33.5C 183.738,35.4044 184.738,36.7377 186.5,37.5C 186.427,39.0269 187.094,40.0269 188.5,40.5C 188.427,42.0269 189.094,43.0269 190.5,43.5C 191.833,45.5 193.167,47.5 194.5,49.5C 195.234,50.7079 195.567,52.0413 195.5,53.5C 195.157,55.4832 195.824,56.8166 197.5,57.5C 199.072,60.2154 200.072,63.2154 200.5,66.5C 200.328,67.4916 200.662,68.1583 201.5,68.5C 201.5,68.8333 201.5,69.1667 201.5,69.5C 201.41,72.1522 202.076,74.4855 203.5,76.5C 209.299,102.094 208.633,127.427 201.5,152.5C 200.262,154.214 199.595,156.214 199.5,158.5C 199.741,160.898 199.074,162.898 197.5,164.5C 196.596,165.209 196.263,166.209 196.5,167.5C 196.204,169.403 195.537,171.07 194.5,172.5C 193.662,172.842 193.328,173.508 193.5,174.5C 192.5,174.5 191.5,174.5 190.5,174.5C 190.5,175.833 190.5,177.167 190.5,178.5C 190.443,179.609 190.11,180.609 189.5,181.5C 188.241,185.025 186.241,188.025 183.5,190.5C 182.662,190.842 182.328,191.508 182.5,192.5C 180.167,195.5 177.5,198.167 174.5,200.5C 173.5,200.833 172.833,201.5 172.5,202.5C 171.421,204.543 169.754,205.876 167.5,206.5C 165.973,206.427 164.973,207.094 164.5,208.5C 161.948,210.943 158.948,212.61 155.5,213.5C 153.801,213.34 152.134,213.506 150.5,214C 151.598,214.77 151.598,215.603 150.5,216.5C 141.337,220.544 131.67,223.211 121.5,224.5C 109.167,224.5 96.8333,224.5 84.5,224.5C 82.3792,224.675 80.3792,224.341 78.5,223.5C 76.4855,222.076 74.1522,221.41 71.5,221.5C 71.1667,221.5 70.8333,221.5 70.5,221.5C 68.4855,220.076 66.1522,219.41 63.5,219.5C 62.209,219.737 61.209,219.404 60.5,218.5C 59.3646,216.787 57.698,216.12 55.5,216.5C 52.5152,215.674 49.8485,214.341 47.5,212.5C 47.0269,211.094 46.0269,210.427 44.5,210.5C 41.2957,209.617 38.6291,207.95 36.5,205.5C 36.1667,204.5 35.5,203.833 34.5,203.5C 34.1667,202.5 33.5,201.833 32.5,201.5C 30.4429,197.129 27.1096,194.129 22.5,192.5C 22.7148,190.821 22.0481,189.821 20.5,189.5C 19.5,189.167 18.8333,188.5 18.5,187.5C 18.1287,183.665 16.462,180.665 13.5,178.5C 13.7148,176.821 13.0481,175.821 11.5,175.5C 10.8902,174.609 10.5569,173.609 10.5,172.5C 10.6959,168.394 9.36254,165.061 6.5,162.5C 5.38815,160.401 4.72148,158.067 4.5,155.5C 4.66212,153.473 4.49546,151.473 4,149.5C 3.61742,148.944 3.11742,148.611 2.5,148.5C 1.42275,142.749 0.422754,137.082 -0.5,131.5C -0.5,120.5 -0.5,109.5 -0.5,98.5C 0.434475,97.4324 0.767809,96.099 0.5,94.5C 2.13566,90.7905 2.80233,86.7905 2.5,82.5C 2.23219,80.901 2.56552,79.5676 3.5,78.5C 4.92381,76.4855 5.59047,74.1522 5.5,71.5C 6.35897,65.9226 8.02564,60.5893 10.5,55.5C 12.7593,54.656 13.7593,52.9893 13.5,50.5C 13.5,50.1667 13.5,49.8333 13.5,49.5C 14.8897,48.1007 15.8897,46.4341 16.5,44.5C 16.3284,43.5084 16.6618,42.8417 17.5,42.5C 18.4884,41.205 19.4884,39.8717 20.5,38.5C 20.3284,37.5084 20.6618,36.8417 21.5,36.5C 23.5869,35.4154 24.9202,33.7488 25.5,31.5C 26.326,29.7356 27.6593,28.4023 29.5,27.5C 30.8333,26.8333 31.8333,25.8333 32.5,24.5C 32.8333,23.5 33.5,22.8333 34.5,22.5C 37.0892,21.5806 39.0892,19.914 40.5,17.5C 41.9778,17.762 43.3112,17.4287 44.5,16.5C 46.0792,15.3331 47.4125,13.9998 48.5,12.5C 50.0269,12.573 51.0269,11.9063 51.5,10.5C 53.698,10.8799 55.3646,10.2132 56.5,8.5C 57.4916,8.67158 58.1583,8.33825 58.5,7.5C 62.403,5.1022 66.7363,3.76887 71.5,3.5C 74.1522,3.59047 76.4855,2.92381 78.5,1.5C 81.9828,0.989877 85.3162,0.32321 88.5,-0.5 Z M 116.5,34.5 C 119.992,36.0688 123.659,37.4021 127.5,38.5C 127.973,39.9063 128.973,40.573 130.5,40.5C 130.973,41.9063 131.973,42.573 133.5,42.5C 134.585,44.5869 136.251,45.9202 138.5,46.5C 138.5,47.1667 138.833,47.5 139.5,47.5C 139.427,49.0269 140.094,50.0269 141.5,50.5C 141.833,51.5 142.5,52.1667 143.5,52.5C 143.427,54.0269 144.094,55.0269 145.5,55.5C 146.584,58.0041 147.917,60.3374 149.5,62.5C 149.98,65.4432 150.98,68.1098 152.5,70.5C 153.431,75.6242 154.765,80.6242 156.5,85.5C 157.302,97.1483 157.635,108.815 157.5,120.5C 156.882,134.591 154.215,148.258 149.5,161.5C 147.75,162.659 146.75,164.326 146.5,166.5C 143.887,170.207 140.887,174.207 137.5,178.5C 136.167,179.167 135.167,180.167 134.5,181.5C 132.596,181.738 131.262,182.738 130.5,184.5C 124.504,187.501 118.171,189.501 111.5,190.5C 103.804,190.646 96.1377,190.313 88.5,189.5C 86.4006,188.388 84.0673,187.721 81.5,187.5C 80.4863,186.326 79.153,185.66 77.5,185.5C 74.4797,182.484 71.1464,179.817 67.5,177.5C 66.9202,175.251 65.5869,173.585 63.5,172.5C 63.573,170.973 62.9063,169.973 61.5,169.5C 61.573,167.973 60.9063,166.973 59.5,166.5C 59.5,166.167 59.5,165.833 59.5,165.5C 59.573,163.973 58.9063,162.973 57.5,162.5C 57.3404,160.847 56.6737,159.514 55.5,158.5C 55.5905,155.848 54.9238,153.515 53.5,151.5C 53.405,149.214 52.7384,147.214 51.5,145.5C 50.8537,137.982 49.8537,130.648 48.5,123.5C 48.4637,114.03 48.797,104.364 49.5,94.5C 50.7408,87.1469 52.0741,79.8136 53.5,72.5C 55.0739,70.8984 55.7406,68.8984 55.5,66.5C 56.404,65.791 56.7373,64.791 56.5,63.5C 58.0481,63.1788 58.7148,62.1788 58.5,60.5C 60.1042,59.713 60.7709,58.3797 60.5,56.5C 62.3786,56.6068 62.7119,56.1068 61.5,55C 62.8825,53.7292 63.8825,52.2292 64.5,50.5C 65.8333,50.5 66.5,49.8333 66.5,48.5C 67.8333,47.8333 68.8333,46.8333 69.5,45.5C 70.9245,47.0311 71.5912,46.6977 71.5,44.5C 84.9278,34.7149 99.9278,31.3816 116.5,34.5 Z"/></g>
<g><path style="opacity:0.004" fill="#eaeef4" d="M 514.5,-0.5 C 514.833,-0.5 515.167,-0.5 515.5,-0.5C 515.5,0.166667 515.833,0.5 516.5,0.5C 516.158,1.33825 515.492,1.67158 514.5,1.5C 514.5,0.833333 514.5,0.166667 514.5,-0.5 Z"/></g>
<g><path style="opacity:1" fill="#222f76" d="M 517.5,-0.5 C 522.167,-0.5 526.833,-0.5 531.5,-0.5C 549.93,8.88191 553.93,22.5486 543.5,40.5C 539.72,44.6143 535.054,46.9476 529.5,47.5C 523.712,47.6882 518.045,47.0215 512.5,45.5C 511.833,45.5 511.5,45.1667 511.5,44.5C 511.027,43.0937 510.027,42.427 508.5,42.5C 506.086,41.0892 504.419,39.0892 503.5,36.5C 503.536,33.539 502.536,31.2057 500.5,29.5C 498.23,21.6283 499.897,14.6283 505.5,8.5C 506.833,7.83333 507.833,6.83333 508.5,5.5C 509.802,3.17823 511.802,1.8449 514.5,1.5C 515.492,1.67158 516.158,1.33825 516.5,0.5C 517.167,0.5 517.5,0.166667 517.5,-0.5 Z"/></g>
<g><path style="opacity:0.902" fill="#767d9f" d="M 78.5,1.5 C 76.4855,2.92381 74.1522,3.59047 71.5,3.5C 73.5145,2.07619 75.8478,1.40953 78.5,1.5 Z"/></g>
<g><path style="opacity:0.004" fill="#fbfafa" d="M 506.5,3.5 C 507.833,4.16667 507.833,4.16667 506.5,3.5 Z"/></g>
<g><path style="opacity:0.553" fill="#a2a9c3" d="M 140.5,4.5 C 142.786,4.59495 144.786,5.26162 146.5,6.5C 144.102,6.74061 142.102,6.07394 140.5,4.5 Z"/></g>
<g><path style="opacity:0.063" fill="#d9deea" d="M 58.5,7.5 C 58.1583,8.33825 57.4916,8.67158 56.5,8.5C 56.4088,6.30228 57.0755,5.96895 58.5,7.5 Z"/></g>
<g><path style="opacity:0.451" fill="#acb4ca" d="M 508.5,5.5 C 507.833,6.83333 506.833,7.83333 505.5,8.5C 505.5,6.5 506.5,5.5 508.5,5.5 Z"/></g>
<g><path style="opacity:0.886" fill="#8e94b4" d="M 56.5,8.5 C 55.3646,10.2132 53.698,10.8799 51.5,10.5C 52.7804,9.06873 54.4471,8.40206 56.5,8.5 Z"/></g>
<g><path style="opacity:0.498" fill="#b5bdd5" d="M 51.5,10.5 C 51.0269,11.9063 50.0269,12.573 48.5,12.5C 48.9731,11.0937 49.9731,10.427 51.5,10.5 Z"/></g>
<g><path style="opacity:1" fill="#616596" d="M 153.5,9.5 C 156.992,10.4097 159.992,12.0764 162.5,14.5C 161.883,14.6107 161.383,14.944 161,15.5C 159.333,14.1667 157.667,12.8333 156,11.5C 154.692,12.1513 153.859,11.4846 153.5,9.5 Z"/></g>
<g><path style="opacity:0.694" fill="#777ca5" d="M 48.5,12.5 C 47.4125,13.9998 46.0792,15.3331 44.5,16.5C 43.3112,17.4287 41.9778,17.762 40.5,17.5C 42.6291,15.0499 45.2957,13.3833 48.5,12.5 Z"/></g>
<g><path style="opacity:0.494" fill="#9ea5c0" d="M 40.5,17.5 C 39.0892,19.914 37.0892,21.5806 34.5,22.5C 35.9108,20.086 37.9108,18.4194 40.5,17.5 Z"/></g>
<g><path style="opacity:0.008" fill="#c6ccdc" d="M 168.5,18.5 C 170.404,18.7376 171.738,19.7376 172.5,21.5C 170.596,21.2624 169.262,20.2624 168.5,18.5 Z"/></g>
<g><path style="opacity:0.6" fill="#9ba3bf" d="M 32.5,24.5 C 31.8333,25.8333 30.8333,26.8333 29.5,27.5C 29.5,25.5 30.5,24.5 32.5,24.5 Z"/></g>
<g><path style="opacity:1" fill="#192a73" d="M 785.5,25.5 C 786.492,25.3284 787.158,25.6618 787.5,26.5C 787.738,28.4044 788.738,29.7377 790.5,30.5C 791.404,31.209 791.737,32.209 791.5,33.5C 791.5,45.8333 791.5,58.1667 791.5,70.5C 803.167,70.5 814.833,70.5 826.5,70.5C 826.5,79.8333 826.5,89.1667 826.5,98.5C 814.833,98.5 803.167,98.5 791.5,98.5C 791.169,125.339 791.502,152.005 792.5,178.5C 793.234,179.708 793.567,181.041 793.5,182.5C 793.5,184.5 794.5,185.5 796.5,185.5C 798.001,186.752 799.668,187.752 801.5,188.5C 802.609,189.29 803.942,189.79 805.5,190C 812.158,190.5 818.825,190.666 825.5,190.5C 825.5,199.833 825.5,209.167 825.5,218.5C 806.747,224.352 787.747,224.852 768.5,220C 764.589,218.556 761.256,216.389 758.5,213.5C 758.027,212.094 757.027,211.427 755.5,211.5C 754.662,211.158 754.328,210.492 754.5,209.5C 754.102,206.576 752.769,204.242 750.5,202.5C 748.926,200.898 748.259,198.898 748.5,196.5C 748.5,194.833 748.5,193.167 748.5,191.5C 748.5,136.167 748.5,80.8333 748.5,25.5C 760.833,25.5 773.167,25.5 785.5,25.5 Z"/></g>
<g><path style="opacity:0.482" fill="#989dba" d="M 175.5,24.5 C 177.19,24.8564 178.19,25.8564 178.5,27.5C 176.81,27.1436 175.81,26.1436 175.5,24.5 Z"/></g>
<g><path style="opacity:0.95" fill="#686b97" d="M 785.5,25.5 C 773.167,25.5 760.833,25.5 748.5,25.5C 748.5,80.8333 748.5,136.167 748.5,191.5C 748.167,191.5 747.833,191.5 747.5,191.5C 746.338,135.904 746.171,80.2372 747,24.5C 758.09,23.3467 769.257,23.18 780.5,24C 782.382,24.1981 784.048,24.6981 785.5,25.5 Z"/></g>
<g><path style="opacity:0.812" fill="#8c90b2" d="M 178.5,27.5 C 179.833,28.1667 180.833,29.1667 181.5,30.5C 179.5,30.5 178.5,29.5 178.5,27.5 Z"/></g>
<g><path style="opacity:0.604" fill="#a4a9c2" d="M 787.5,26.5 C 788.683,27.5045 790.016,28.3378 791.5,29C 790.944,29.3826 790.611,29.8826 790.5,30.5C 788.738,29.7377 787.738,28.4044 787.5,26.5 Z"/></g>
<g><path style="opacity:0.953" fill="#7478a1" d="M 500.5,29.5 C 502.536,31.2057 503.536,33.539 503.5,36.5C 501.707,34.5739 500.707,32.2406 500.5,29.5 Z"/></g>
<g><path style="opacity:0.369" fill="#acb1c7" d="M 181.5,30.5 C 182.906,30.9731 183.573,31.9731 183.5,33.5C 182.094,33.0269 181.427,32.0269 181.5,30.5 Z"/></g>
<g><path style="opacity:0.631" fill="#a0a7c1" d="M 25.5,31.5 C 24.9202,33.7488 23.5869,35.4154 21.5,36.5C 22.0798,34.2512 23.4131,32.5846 25.5,31.5 Z"/></g>
<g><path style="opacity:0.871" fill="#8c93b5" d="M 183.5,33.5 C 185.262,34.2623 186.262,35.5956 186.5,37.5C 184.738,36.7377 183.738,35.4044 183.5,33.5 Z"/></g>
<g><path style="opacity:1" fill="#54598c" d="M 116.5,34.5 C 120.046,35.2726 123.546,35.2726 127,34.5C 127.5,34.6667 128,34.8333 128.5,35C 126.069,36.0924 126.069,37.2591 128.5,38.5C 128.167,38.5 127.833,38.5 127.5,38.5C 123.659,37.4021 119.992,36.0688 116.5,34.5 Z"/></g>
<g><path style="opacity:0.361" fill="#b5b9d0" d="M 127.5,38.5 C 127.833,38.5 128.167,38.5 128.5,38.5C 129.5,38.8333 130.167,39.5 130.5,40.5C 128.973,40.573 127.973,39.9063 127.5,38.5 Z"/></g>
<g><path style="opacity:0.31" fill="#acb5cd" d="M 186.5,37.5 C 187.906,37.9731 188.573,38.9731 188.5,40.5C 187.094,40.0269 186.427,39.0269 186.5,37.5 Z"/></g>
<g><path style="opacity:0.008" fill="#dce1ea" d="M 20.5,38.5 C 19.4884,39.8717 18.4884,41.205 17.5,42.5C 17.0882,40.0274 18.0882,38.6941 20.5,38.5 Z"/></g>
<g><path style="opacity:0.004" fill="#fdfcfc" d="M 543.5,40.5 C 544.833,41.1667 544.833,41.1667 543.5,40.5 Z"/></g>
<g><path style="opacity:0.353" fill="#b1b8cd" d="M 130.5,40.5 C 132.027,40.427 133.027,41.0937 133.5,42.5C 131.973,42.573 130.973,41.9063 130.5,40.5 Z"/></g>
<g><path style="opacity:0.706" fill="#a1a7c2" d="M 133.5,42.5 C 135.749,43.0798 137.415,44.4131 138.5,46.5C 136.251,45.9202 134.585,44.5869 133.5,42.5 Z"/></g>
<g><path style="opacity:0.459" fill="#a2abc5" d="M 188.5,40.5 C 189.906,40.9731 190.573,41.9731 190.5,43.5C 189.094,43.0269 188.427,42.0269 188.5,40.5 Z"/></g>
<g><path style="opacity:0.431" fill="#a4adc5" d="M 508.5,42.5 C 510.027,42.427 511.027,43.0937 511.5,44.5C 509.973,44.573 508.973,43.9063 508.5,42.5 Z"/></g>
<g><path style="opacity:0.024" fill="#d8ddea" d="M 69.5,45.5 C 69.8417,44.6618 70.5084,44.3284 71.5,44.5C 71.5912,46.6977 70.9245,47.0311 69.5,45.5 Z"/></g>
<g><path style="opacity:0.424" fill="#b9bfd3" d="M 16.5,44.5 C 15.8897,46.4341 14.8897,48.1007 13.5,49.5C 13.2729,47.0672 14.2729,45.4006 16.5,44.5 Z"/></g>
<g><path style="opacity:0.51" fill="#9ba1ba" d="M 512.5,45.5 C 518.045,47.0215 523.712,47.6882 529.5,47.5C 523.601,49.1144 517.935,48.4477 512.5,45.5 Z"/></g>
<g><path style="opacity:0.008" fill="#cbd1e0" d="M 139.5,47.5 C 140.906,47.9731 141.573,48.9731 141.5,50.5C 140.094,50.0269 139.427,49.0269 139.5,47.5 Z"/></g>
<g><path style="opacity:0.004" fill="#fcfefc" d="M 194.5,48.5 C 195.833,49.1667 195.833,49.1667 194.5,48.5 Z"/></g>
<g><path style="opacity:0.004" fill="#c4cbda" d="M 66.5,48.5 C 66.5,49.8333 65.8333,50.5 64.5,50.5C 64.8333,49.5 65.5,48.8333 66.5,48.5 Z"/></g>
<g><path style="opacity:0.999" fill="#8f97bc" d="M 81.5,149.5 C 81.1449,144.674 80.8116,139.841 80.5,135C 81.5481,128.542 82.5481,122.042 83.5,115.5C 86.9545,107.541 91.4545,100.208 97,93.5C 104.088,81.743 106.421,69.0763 104,55.5C 103.22,52.4883 102.053,49.6549 100.5,47C 101.5,46.3333 102.5,46.3333 103.5,47C 118.755,59.5158 127.422,75.5158 129.5,95C 128.567,110.365 122.401,123.198 111,133.5C 101.679,146.757 98.8454,161.257 102.5,177C 101.5,177.667 100.5,177.667 99.5,177C 90.8505,169.526 84.8505,160.359 81.5,149.5 Z"/></g>
<g><path style="opacity:1" fill="#7377a2" d="M 13.5,50.5 C 13.7593,52.9893 12.7593,54.656 10.5,55.5C 10.7497,53.326 11.7497,51.6594 13.5,50.5 Z"/></g>
<g><path style="opacity:0.024" fill="#c6cbdc" d="M 143.5,52.5 C 144.906,52.9731 145.573,53.9731 145.5,55.5C 144.094,55.0269 143.427,54.0269 143.5,52.5 Z"/></g>
<g><path style="opacity:0.965" fill="#7f82a8" d="M 195.5,53.5 C 197.394,54.6011 198.061,55.9345 197.5,57.5C 195.824,56.8166 195.157,55.4832 195.5,53.5 Z"/></g>
<g><path style="opacity:0.006" fill="#e2e6ed" d="M 60.5,56.5 C 60.7709,58.3797 60.1042,59.713 58.5,60.5C 58.6596,58.847 59.3263,57.5137 60.5,56.5 Z"/></g>
<g><path style="opacity:0.004" fill="#e1e7f1" d="M 58.5,60.5 C 58.7148,62.1788 58.0481,63.1788 56.5,63.5C 56.9321,62.2905 57.5987,61.2905 58.5,60.5 Z"/></g>
<g><path style="opacity:1" fill="#7a7fa8" d="M 149.5,62.5 C 151.856,64.5573 152.856,67.224 152.5,70.5C 150.98,68.1098 149.98,65.4432 149.5,62.5 Z"/></g>
<g><path style="opacity:0.004" fill="#eceff2" d="M 201.5,68.5 C 200.662,68.1583 200.328,67.4916 200.5,66.5C 201.222,66.0825 201.722,65.4158 202,64.5C 202.579,65.9285 202.412,67.2618 201.5,68.5 Z"/></g>
<g><path style="opacity:1" fill="#182973" d="M 687.5,67.5 C 688.687,68.5336 689.52,69.867 690,71.5C 692.868,70.1742 695.034,71.0075 696.5,74C 698.134,74.4935 699.801,74.6602 701.5,74.5C 702.5,74.8333 703.167,75.5 703.5,76.5C 704.5,78.1667 705.833,79.5 707.5,80.5C 708.5,80.8333 709.167,81.5 709.5,82.5C 709.427,84.0269 710.094,85.0269 711.5,85.5C 711.427,87.0269 712.094,88.0269 713.5,88.5C 713.795,92.2279 714.461,95.8946 715.5,99.5C 716.183,99.1373 716.85,98.8039 717.5,98.5C 718.414,101.728 718.747,105.061 718.5,108.5C 718.5,145.5 718.5,182.5 718.5,219.5C 705.47,219.756 692.47,219.423 679.5,218.5C 679.027,217.094 678.027,216.427 676.5,216.5C 675.326,215.486 674.66,214.153 674.5,212.5C 674.667,180.498 674.5,148.498 674,116.5C 673.802,114.618 673.302,112.952 672.5,111.5C 671.18,109.537 669.846,107.537 668.5,105.5C 668.5,103.5 667.5,102.5 665.5,102.5C 663.632,101.737 661.965,100.737 660.5,99.5C 658.562,97.8372 656.228,97.1706 653.5,97.5C 647.414,97.5797 641.747,98.913 636.5,101.5C 632.812,103.188 630.145,105.855 628.5,109.5C 628.167,109.5 627.833,109.5 627.5,109.5C 625.461,110.911 624.461,112.911 624.5,115.5C 624.768,117.099 624.434,118.432 623.5,119.5C 622.698,120.952 622.198,122.618 622,124.5C 621.5,156.165 621.333,187.832 621.5,219.5C 606.755,219.816 592.088,219.483 577.5,218.5C 577.5,176.5 577.5,134.5 577.5,92.5C 577.5,84.8333 577.5,77.1667 577.5,69.5C 589.167,69.5 600.833,69.5 612.5,69.5C 617.684,71.3507 620.017,75.0173 619.5,80.5C 619.18,83.8984 619.513,87.2317 620.5,90.5C 621.298,90.0431 621.631,89.3764 621.5,88.5C 623.262,87.7377 624.262,86.4044 624.5,84.5C 625.693,82.9459 626.86,81.2792 628,79.5C 628.671,78.7476 629.504,78.4142 630.5,78.5C 631.756,78.0962 632.923,77.4295 634,76.5C 634.772,76.6448 635.439,76.9781 636,77.5C 636.847,75.8068 637.68,74.1401 638.5,72.5C 640.027,72.573 641.027,71.9063 641.5,70.5C 641.833,70.5 642.167,70.5 642.5,70.5C 644.153,70.3404 645.486,69.6737 646.5,68.5C 649.152,68.5905 651.485,67.9238 653.5,66.5C 665.016,63.6309 676.35,63.9642 687.5,67.5 Z"/></g>
<g><path style="opacity:1" fill="#1b2b74" d="M 347.5,70.5 C 347.859,72.4846 348.692,73.1513 350,72.5C 351.049,74.1066 352.549,74.7733 354.5,74.5C 358.1,76.4302 361.1,79.0969 363.5,82.5C 363.427,84.0269 364.094,85.0269 365.5,85.5C 365.427,87.0269 366.094,88.0269 367.5,88.5C 368.674,89.5137 369.34,90.847 369.5,92.5C 370.301,94.7929 370.968,94.4596 371.5,91.5C 371.845,88.8021 373.178,86.8021 375.5,85.5C 377.86,84.135 379.527,82.135 380.5,79.5C 382.754,78.5849 384.754,77.2516 386.5,75.5C 390.425,74.4213 393.758,72.4213 396.5,69.5C 399.152,69.5905 401.485,68.9238 403.5,67.5C 413.309,65.0226 423.309,64.856 433.5,67C 436.718,67.9003 439.718,69.067 442.5,70.5C 442.859,72.4846 443.692,73.1513 445,72.5C 446.746,74.4567 448.912,75.4567 451.5,75.5C 452.035,77.4456 453.368,78.4456 455.5,78.5C 456.5,78.8333 457.167,79.5 457.5,80.5C 458.08,82.7488 459.413,84.4154 461.5,85.5C 462.906,85.9731 463.573,86.9731 463.5,88.5C 463.738,90.4044 464.738,91.7377 466.5,92.5C 467.73,94.2972 468.396,96.2972 468.5,98.5C 468.41,101.152 469.076,103.485 470.5,105.5C 470.194,108.385 470.527,111.052 471.5,113.5C 471.5,113.833 471.5,114.167 471.5,114.5C 471.5,149.5 471.5,184.5 471.5,219.5C 459.167,219.5 446.833,219.5 434.5,219.5C 434.027,218.094 433.027,217.427 431.5,217.5C 431.167,216.5 430.5,215.833 429.5,215.5C 428.207,214.158 427.374,212.491 427,210.5C 426.667,180.167 426.333,149.833 426,119.5C 425.207,113.584 423.04,108.251 419.5,103.5C 418.738,101.738 417.404,100.738 415.5,100.5C 408.626,98.6083 401.626,98.1083 394.5,99C 391.435,99.3683 388.768,100.535 386.5,102.5C 385.508,102.328 384.842,102.662 384.5,103.5C 384.5,104.167 384.167,104.5 383.5,104.5C 382.662,104.842 382.328,105.508 382.5,106.5C 382.068,107.71 381.401,108.71 380.5,109.5C 379.326,110.514 378.66,111.847 378.5,113.5C 377.107,119.433 376.107,125.433 375.5,131.5C 374.502,160.662 374.169,189.995 374.5,219.5C 359.657,219.829 344.99,219.496 330.5,218.5C 331.017,183.79 330.351,149.123 328.5,114.5C 330.386,111.509 329.72,109.509 326.5,108.5C 326.371,105.13 324.705,103.13 321.5,102.5C 321.027,101.094 320.027,100.427 318.5,100.5C 317.365,98.7868 315.698,98.1201 313.5,98.5C 306.164,97.6624 298.831,98.3291 291.5,100.5C 290.508,100.328 289.842,100.662 289.5,101.5C 289.027,102.906 288.027,103.573 286.5,103.5C 285.094,103.973 284.427,104.973 284.5,106.5C 283.5,106.833 282.833,107.5 282.5,108.5C 280.273,110.229 279.273,112.562 279.5,115.5C 279.768,117.099 279.434,118.432 278.5,119.5C 277.502,152.662 277.168,185.996 277.5,219.5C 262.833,219.5 248.167,219.5 233.5,219.5C 233.759,169.492 233.426,119.492 232.5,69.5C 244.538,69.2285 256.538,69.5618 268.5,70.5C 270.404,70.7376 271.738,71.7376 272.5,73.5C 272.427,75.0269 273.094,76.0269 274.5,76.5C 275.451,77.9187 275.784,79.5853 275.5,81.5C 275.201,83.604 275.534,85.604 276.5,87.5C 277.107,87.3764 277.44,87.0431 277.5,86.5C 278.906,86.0269 279.573,85.0269 279.5,83.5C 280.5,83.5 281.5,83.5 282.5,83.5C 282.433,82.0413 282.766,80.7079 283.5,79.5C 285.749,78.9202 287.415,77.5869 288.5,75.5C 290.663,72.329 293.663,70.6623 297.5,70.5C 300.649,70.5848 303.316,69.5848 305.5,67.5C 317.73,64.7326 330.063,64.8993 342.5,68C 344.491,68.3736 346.158,69.207 347.5,70.5 Z"/></g>
<g><path style="opacity:0.922" fill="#787da2" d="M 653.5,66.5 C 651.485,67.9238 649.152,68.5905 646.5,68.5C 648.515,67.0762 650.848,66.4095 653.5,66.5 Z"/></g>
<g><path style="opacity:0.244" fill="#a8b0c5" d="M 268.5,70.5 C 256.538,69.5618 244.538,69.2285 232.5,69.5C 233.426,119.492 233.759,169.492 233.5,219.5C 233.5,219.833 233.5,220.167 233.5,220.5C 232.744,169.996 232.077,119.329 231.5,68.5C 243.171,68.3335 254.838,68.5001 266.5,69C 267.416,69.2784 268.082,69.7784 268.5,70.5 Z"/></g>
<g><path style="opacity:0.784" fill="#878daf" d="M 403.5,67.5 C 401.485,68.9238 399.152,69.5905 396.5,69.5C 398.515,68.0762 400.848,67.4095 403.5,67.5 Z"/></g>
<g><path style="opacity:0.497" fill="#a5acc1" d="M 546.5,70.5 C 546.5,69.8333 546.167,69.5 545.5,69.5C 531.167,69.5 516.833,69.5 502.5,69.5C 502.5,119.5 502.5,169.5 502.5,219.5C 502.5,219.833 502.5,220.167 502.5,220.5C 501.501,170.003 501.168,119.336 501.5,68.5C 516.848,68.1673 532.181,68.5006 547.5,69.5C 547.376,70.1067 547.043,70.44 546.5,70.5 Z"/></g>
<g><path style="opacity:0.961" fill="#7c7fa2" d="M 612.5,69.5 C 600.833,69.5 589.167,69.5 577.5,69.5C 577.5,77.1667 577.5,84.8333 577.5,92.5C 576.509,85.6866 576.175,78.6866 576.5,71.5C 576.5,70.5 576.5,69.5 576.5,68.5C 582.377,68.0009 588.544,67.6676 595,67.5C 601.083,67.2989 606.916,67.9656 612.5,69.5 Z"/></g>
<g><path style="opacity:0.004" fill="#ced3e1" d="M 55.5,66.5 C 55.7406,68.8984 55.0739,70.8984 53.5,72.5C 53.595,70.2143 54.2616,68.2143 55.5,66.5 Z"/></g>
<g><path style="opacity:0.953" fill="#6e739c" d="M 305.5,67.5 C 303.316,69.5848 300.649,70.5848 297.5,70.5C 299.792,68.7329 302.458,67.7329 305.5,67.5 Z"/></g>
<g><path style="opacity:1" fill="#172972" d="M 545.5,69.5 C 545.5,119.5 545.5,169.5 545.5,219.5C 531.167,219.5 516.833,219.5 502.5,219.5C 502.5,169.5 502.5,119.5 502.5,69.5C 516.833,69.5 531.167,69.5 545.5,69.5 Z"/></g>
<g><path style="opacity:0.008" fill="#f7fcfd" d="M 576.5,68.5 C 576.5,69.5 576.5,70.5 576.5,71.5C 574.443,71.0433 574.443,70.0433 576.5,68.5 Z"/></g>
<g><path style="opacity:0.592" fill="#abb1ca" d="M 646.5,68.5 C 645.486,69.6737 644.153,70.3404 642.5,70.5C 643.287,68.8958 644.62,68.2291 646.5,68.5 Z"/></g>
<g><path style="opacity:1" fill="#6a6f9d" d="M 687.5,67.5 C 692.83,68.7081 697.497,71.0414 701.5,74.5C 699.801,74.6602 698.134,74.4935 696.5,74C 695.034,71.0075 692.868,70.1742 690,71.5C 689.52,69.867 688.687,68.5336 687.5,67.5 Z"/></g>
<g><path style="opacity:0.248" fill="#ced4e5" d="M 791.5,33.5 C 792.495,45.3217 792.828,57.3217 792.5,69.5C 804.167,69.5 815.833,69.5 827.5,69.5C 827.5,69.8333 827.5,70.1667 827.5,70.5C 827.167,70.5 826.833,70.5 826.5,70.5C 814.833,70.5 803.167,70.5 791.5,70.5C 791.5,58.1667 791.5,45.8333 791.5,33.5 Z"/></g>
<g><path style="opacity:0.936" fill="#62688e" d="M 545.5,69.5 C 546.167,69.5 546.5,69.8333 546.5,70.5C 547.487,120.069 547.82,169.569 547.5,219C 532.656,220.483 517.656,220.983 502.5,220.5C 502.5,220.167 502.5,219.833 502.5,219.5C 516.833,219.5 531.167,219.5 545.5,219.5C 545.5,169.5 545.5,119.5 545.5,69.5 Z"/></g>
<g><path style="opacity:0.827" fill="#8289ab" d="M 641.5,70.5 C 641.027,71.9063 640.027,72.573 638.5,72.5C 638.973,71.0937 639.973,70.427 641.5,70.5 Z"/></g>
<g><path style="opacity:0.996" fill="#585d8e" d="M 396.5,69.5 C 393.758,72.4213 390.425,74.4213 386.5,75.5C 386.5,75.1667 386.5,74.8333 386.5,74.5C 389.27,71.7814 392.604,70.1148 396.5,69.5 Z"/></g>
<g><path style="opacity:1" fill="#7478a2" d="M 442.5,70.5 C 445.992,71.4097 448.992,73.0764 451.5,75.5C 448.912,75.4567 446.746,74.4567 445,72.5C 443.692,73.1513 442.859,72.4846 442.5,70.5 Z"/></g>
<g><path style="opacity:1" fill="#676b9b" d="M 347.5,70.5 C 350.326,70.9977 352.66,72.3311 354.5,74.5C 352.549,74.7733 351.049,74.1066 350,72.5C 348.692,73.1513 347.859,72.4846 347.5,70.5 Z"/></g>
<g><path style="opacity:0.91" fill="#787fa4" d="M 5.5,71.5 C 5.59047,74.1522 4.92381,76.4855 3.5,78.5C 3.40953,75.8478 4.07619,73.5145 5.5,71.5 Z"/></g>
<g><path style="opacity:0.545" fill="#979eba" d="M 201.5,69.5 C 202.924,71.5145 203.59,73.8478 203.5,76.5C 202.076,74.4855 201.41,72.1522 201.5,69.5 Z"/></g>
<g><path style="opacity:0.435" fill="#9ea4c0" d="M 272.5,73.5 C 273.906,73.9731 274.573,74.9731 274.5,76.5C 273.094,76.0269 272.427,75.0269 272.5,73.5 Z"/></g>
<g><path style="opacity:0.451" fill="#a6adc6" d="M 386.5,74.5 C 386.5,74.8333 386.5,75.1667 386.5,75.5C 384.754,77.2516 382.754,78.5849 380.5,79.5C 381.911,77.086 383.911,75.4194 386.5,74.5 Z"/></g>
<g><path style="opacity:1" fill="#4b5289" d="M 638.5,72.5 C 637.68,74.1401 636.847,75.8068 636,77.5C 635.439,76.9781 634.772,76.6448 634,76.5C 632.923,77.4295 631.756,78.0962 630.5,78.5C 632.403,75.5416 635.07,73.5416 638.5,72.5 Z"/></g>
<g><path style="opacity:0.008" fill="#c0c8d9" d="M 703.5,76.5 C 705.833,76.8333 707.167,78.1667 707.5,80.5C 705.833,79.5 704.5,78.1667 703.5,76.5 Z"/></g>
<g><path style="opacity:0.729" fill="#858dae" d="M 288.5,75.5 C 287.415,77.5869 285.749,78.9202 283.5,79.5C 284.585,77.4131 286.251,76.0798 288.5,75.5 Z"/></g>
<g><path style="opacity:0.678" fill="#8b91b1" d="M 451.5,75.5 C 453.23,76.0256 454.564,77.0256 455.5,78.5C 453.368,78.4456 452.035,77.4456 451.5,75.5 Z"/></g>
<g><path style="opacity:0.847" fill="#8c93b2" d="M 457.5,80.5 C 459.587,81.5846 460.92,83.2512 461.5,85.5C 459.413,84.4154 458.08,82.7488 457.5,80.5 Z"/></g>
<g><path style="opacity:1" fill="#686b9a" d="M 283.5,79.5 C 282.766,80.7079 282.433,82.0413 282.5,83.5C 281.5,83.5 280.5,83.5 279.5,83.5C 280.402,81.6593 281.736,80.326 283.5,79.5 Z"/></g>
<g><path style="opacity:0.494" fill="#969cba" d="M 363.5,82.5 C 364.906,82.9731 365.573,83.9731 365.5,85.5C 364.094,85.0269 363.427,84.0269 363.5,82.5 Z"/></g>
<g><path style="opacity:0.996" fill="#646896" d="M 380.5,79.5 C 379.527,82.135 377.86,84.135 375.5,85.5C 376.419,82.9108 378.086,80.9108 380.5,79.5 Z"/></g>
<g><path style="opacity:0.302" fill="#b3b7d1" d="M 709.5,82.5 C 710.906,82.9731 711.573,83.9731 711.5,85.5C 710.094,85.0269 709.427,84.0269 709.5,82.5 Z"/></g>
<g><path style="opacity:0.243" fill="#c8d0e1" d="M 275.5,81.5 C 276.167,83.1667 276.833,84.8333 277.5,86.5C 277.44,87.0431 277.107,87.3764 276.5,87.5C 275.534,85.604 275.201,83.604 275.5,81.5 Z"/></g>
<g><path style="opacity:0.518" fill="#8b96b4" d="M 279.5,83.5 C 279.573,85.0269 278.906,86.0269 277.5,86.5C 277.427,84.9731 278.094,83.9731 279.5,83.5 Z"/></g>
<g><path style="opacity:0.839" fill="#7d82a6" d="M 365.5,85.5 C 366.906,85.9731 367.573,86.9731 367.5,88.5C 366.094,88.0269 365.427,87.0269 365.5,85.5 Z"/></g>
<g><path style="opacity:0.004" fill="#c9cedd" d="M 624.5,84.5 C 624.262,86.4044 623.262,87.7377 621.5,88.5C 621.468,86.3812 622.468,85.0478 624.5,84.5 Z"/></g>
<g><path style="opacity:0.365" fill="#b8bfd3" d="M 619.5,80.5 C 620.167,83.1667 620.833,85.8333 621.5,88.5C 621.631,89.3764 621.298,90.0431 620.5,90.5C 619.513,87.2317 619.18,83.8984 619.5,80.5 Z"/></g>
<g><path style="opacity:0.408" fill="#a9b1c7" d="M 711.5,85.5 C 712.906,85.9731 713.573,86.9731 713.5,88.5C 712.094,88.0269 711.427,87.0269 711.5,85.5 Z"/></g>
<g><path style="opacity:0.855" fill="#8891b1" d="M 2.5,82.5 C 2.80233,86.7905 2.13566,90.7905 0.5,94.5C 0.716665,90.2949 1.38333,86.2949 2.5,82.5 Z"/></g>
<g><path style="opacity:0.49" fill="#a7afc9" d="M 463.5,88.5 C 465.262,89.2623 466.262,90.5956 466.5,92.5C 464.738,91.7377 463.738,90.4044 463.5,88.5 Z"/></g>
<g><path style="opacity:0.663" fill="#8b99bd" d="M 371.5,91.5 C 370.968,94.4596 370.301,94.7929 369.5,92.5C 370.167,92.1667 370.833,91.8333 371.5,91.5 Z"/></g>
<g><path style="opacity:1" fill="#505489" d="M 713.5,88.5 C 715.4,91.5178 716.733,94.8512 717.5,98.5C 716.85,98.8039 716.183,99.1373 715.5,99.5C 714.461,95.8946 713.795,92.2279 713.5,88.5 Z"/></g>
<g><path style="opacity:0.784" fill="#a1a8c1" d="M 653.5,97.5 C 656.228,97.1706 658.562,97.8372 660.5,99.5C 657.933,99.2785 655.599,98.6118 653.5,97.5 Z"/></g>
<g><path style="opacity:0.831" fill="#8b93b4" d="M 313.5,98.5 C 315.698,98.1201 317.365,98.7868 318.5,100.5C 316.597,100.204 314.93,99.5375 313.5,98.5 Z"/></g>
<g><path style="opacity:0.806" fill="#8187af" d="M 826.5,70.5 C 826.833,70.5 827.167,70.5 827.5,70.5C 827.5,80.5 827.5,90.5 827.5,100.5C 815.946,99.593 804.446,99.2597 793,99.5C 792.5,125.831 792.333,152.165 792.5,178.5C 791.502,152.005 791.169,125.339 791.5,98.5C 803.167,98.5 814.833,98.5 826.5,98.5C 826.5,89.1667 826.5,79.8333 826.5,70.5 Z"/></g>
<g><path style="opacity:0.031" fill="#d9dee7" d="M 289.5,101.5 C 289.842,100.662 290.508,100.328 291.5,100.5C 291.591,102.698 290.925,103.031 289.5,101.5 Z"/></g>
<g><path style="opacity:0.565" fill="#afb8cf" d="M 415.5,100.5 C 417.404,100.738 418.738,101.738 419.5,103.5C 417.596,103.262 416.262,102.262 415.5,100.5 Z"/></g>
<g><path style="opacity:0.392" fill="#aab3c8" d="M 318.5,100.5 C 320.027,100.427 321.027,101.094 321.5,102.5C 319.973,102.573 318.973,101.906 318.5,100.5 Z"/></g>
<g><path style="opacity:0.91" fill="#6d759a" d="M 468.5,98.5 C 469.924,100.515 470.59,102.848 470.5,105.5C 469.076,103.485 468.41,101.152 468.5,98.5 Z"/></g>
<g><path style="opacity:0.004" fill="#f9fefa" d="M 636.5,101.5 C 637.833,102.167 637.833,102.167 636.5,101.5 Z"/></g>
<g><path style="opacity:0.012" fill="#dde0eb" d="M 384.5,103.5 C 384.842,102.662 385.508,102.328 386.5,102.5C 386.591,104.698 385.925,105.031 384.5,103.5 Z"/></g>
<g><path style="opacity:0.725" fill="#9fa7c1" d="M 665.5,102.5 C 667.5,102.5 668.5,103.5 668.5,105.5C 667.167,104.833 666.167,103.833 665.5,102.5 Z"/></g>
<g><path style="opacity:1" fill="#616698" d="M 321.5,102.5 C 324.705,103.13 326.371,105.13 326.5,108.5C 324.844,106.54 323.177,104.54 321.5,102.5 Z"/></g>
<g><path style="opacity:0.012" fill="#cfd5e2" d="M 286.5,103.5 C 287.491,105.123 286.824,106.123 284.5,106.5C 284.427,104.973 285.094,103.973 286.5,103.5 Z"/></g>
<g><path style="opacity:0.027" fill="#d8dee9" d="M 383.5,104.5 C 385.031,105.925 384.698,106.591 382.5,106.5C 382.328,105.508 382.662,104.842 383.5,104.5 Z"/></g>
<g><path style="opacity:0.149" fill="#bdc4d5" d="M 156.5,85.5 C 158.03,92.0969 158.697,98.9303 158.5,106C 158.499,111.012 158.166,115.845 157.5,120.5C 157.635,108.815 157.302,97.1483 156.5,85.5 Z"/></g>
<g><path style="opacity:0.008" fill="#eff2f9" d="M 284.5,106.5 C 284.5,107.167 284.5,107.833 284.5,108.5C 283.833,108.5 283.167,108.5 282.5,108.5C 282.833,107.5 283.5,106.833 284.5,106.5 Z"/></g>
<g><path style="opacity:0.004" fill="#fcfdfc" d="M 284.5,108.5 C 285.833,109.167 285.833,109.167 284.5,108.5 Z"/></g>
<g><path style="opacity:0.613" fill="#7e86ab" d="M 49.5,94.5 C 48.797,104.364 48.4637,114.03 48.5,123.5C 47.8348,120.183 47.5014,116.683 47.5,113C 47.4227,106.608 48.0893,100.441 49.5,94.5 Z"/></g>
<g><path style="opacity:1" fill="#686a9c" d="M 326.5,108.5 C 329.72,109.509 330.386,111.509 328.5,114.5C 327.262,112.786 326.595,110.786 326.5,108.5 Z"/></g>
<g><path style="opacity:0.008" fill="#fcfdf8" d="M 628.5,109.5 C 629.833,110.167 629.833,110.167 628.5,109.5 Z"/></g>
<g><path style="opacity:0.925" fill="#8488ac" d="M 282.5,108.5 C 282.293,111.241 281.293,113.574 279.5,115.5C 279.273,112.562 280.273,110.229 282.5,108.5 Z"/></g>
<g><path style="opacity:0.067" fill="#d3d8e6" d="M 627.5,109.5 C 627.346,111.97 626.346,113.97 624.5,115.5C 624.461,112.911 625.461,110.911 627.5,109.5 Z"/></g>
<g><path style="opacity:0.008" fill="#e6ecf1" d="M 380.5,109.5 C 380.843,111.483 380.176,112.817 378.5,113.5C 378.66,111.847 379.326,110.514 380.5,109.5 Z"/></g>
<g><path style="opacity:0.804" fill="#8a90b2" d="M 470.5,105.5 C 471.267,106.172 471.934,107.005 472.5,108C 471.74,110.025 471.406,111.858 471.5,113.5C 470.527,111.052 470.194,108.385 470.5,105.5 Z"/></g>
<g><path style="opacity:0.824" fill="#49537f" d="M 718.5,108.5 C 719.184,114.901 719.85,121.401 720.5,128C 719.167,158.667 719.167,189.333 720.5,220C 707.5,220.667 694.5,220.667 681.5,220C 680.584,219.722 679.918,219.222 679.5,218.5C 692.47,219.423 705.47,219.756 718.5,219.5C 718.5,182.5 718.5,145.5 718.5,108.5 Z"/></g>
<g><path style="opacity:0.617" fill="#6a739d" d="M 623.5,119.5 C 622.542,153.149 622.209,186.816 622.5,220.5C 607.496,220.667 592.496,220.5 577.5,220C 576.262,219.31 576.262,218.81 577.5,218.5C 592.088,219.483 606.755,219.816 621.5,219.5C 621.333,187.832 621.5,156.165 622,124.5C 622.198,122.618 622.698,120.952 623.5,119.5 Z"/></g>
<g><path style="opacity:0.379" fill="#a6aec1" d="M 672.5,111.5 C 673.302,112.952 673.802,114.618 674,116.5C 674.5,148.498 674.667,180.498 674.5,212.5C 673.791,178.987 673.125,145.32 672.5,111.5 Z"/></g>
<g><path style="opacity:0.78" fill="#b2b7cc" d="M 83.5,115.5 C 82.5481,122.042 81.5481,128.542 80.5,135C 80.8116,139.841 81.1449,144.674 81.5,149.5C 78.5855,141.426 78.0855,133.093 80,124.5C 80.6608,121.198 81.8275,118.198 83.5,115.5 Z"/></g>
<g><path style="opacity:0.824" fill="#969ebb" d="M 51.5,145.5 C 52.7384,147.214 53.405,149.214 53.5,151.5C 51.9261,149.898 51.2594,147.898 51.5,145.5 Z"/></g>
<g><path style="opacity:0.949" fill="#7377a0" d="M 2.5,148.5 C 3.11742,148.611 3.61742,148.944 4,149.5C 4.49546,151.473 4.66212,153.473 4.5,155.5C 3.38815,153.401 2.72148,151.067 2.5,148.5 Z"/></g>
<g><path style="opacity:0.824" fill="#888fb0" d="M 53.5,151.5 C 54.9238,153.515 55.5905,155.848 55.5,158.5C 54.0762,156.485 53.4095,154.152 53.5,151.5 Z"/></g>
<g><path style="opacity:0.008" fill="#cacfde" d="M 201.5,152.5 C 201.741,154.898 201.074,156.898 199.5,158.5C 199.595,156.214 200.262,154.214 201.5,152.5 Z"/></g>
<g><path style="opacity:0.227" fill="#bcc0d5" d="M 57.5,162.5 C 58.9063,162.973 59.573,163.973 59.5,165.5C 58.0937,165.027 57.427,164.027 57.5,162.5 Z"/></g>
<g><path style="opacity:0.976" fill="#6c7099" d="M 149.5,161.5 C 149.408,163.848 148.408,165.514 146.5,166.5C 146.75,164.326 147.75,162.659 149.5,161.5 Z"/></g>
<g><path style="opacity:1" fill="#696d9d" d="M 6.5,162.5 C 9.36254,165.061 10.6959,168.394 10.5,172.5C 8.64767,169.449 7.31433,166.116 6.5,162.5 Z"/></g>
<g><path style="opacity:0.004" fill="#dfe4ec" d="M 197.5,164.5 C 199.129,166.196 198.796,167.196 196.5,167.5C 196.263,166.209 196.596,165.209 197.5,164.5 Z"/></g>
<g><path style="opacity:0.424" fill="#a8b0c9" d="M 59.5,166.5 C 60.9063,166.973 61.573,167.973 61.5,169.5C 60.0937,169.027 59.427,168.027 59.5,166.5 Z"/></g>
<g><path style="opacity:0.373" fill="#a9b0c7" d="M 61.5,169.5 C 62.9063,169.973 63.573,170.973 63.5,172.5C 62.0937,172.027 61.427,171.027 61.5,169.5 Z"/></g>
<g><path style="opacity:0.016" fill="#e4eaf2" d="M 194.5,172.5 C 196.031,173.925 195.698,174.591 193.5,174.5C 193.328,173.508 193.662,172.842 194.5,172.5 Z"/></g>
<g><path style="opacity:0.482" fill="#afb7cc" d="M 63.5,172.5 C 65.5869,173.585 66.9202,175.251 67.5,177.5C 65.4131,176.415 64.0798,174.749 63.5,172.5 Z"/></g>
<g><path style="opacity:0.994" fill="#616796" d="M 193.5,174.5 C 193.267,176.062 192.6,177.395 191.5,178.5C 191.167,178.5 190.833,178.5 190.5,178.5C 190.5,177.167 190.5,175.833 190.5,174.5C 191.5,174.5 192.5,174.5 193.5,174.5 Z"/></g>
<g><path style="opacity:0.863" fill="#9297b7" d="M 11.5,175.5 C 13.0481,175.821 13.7148,176.821 13.5,178.5C 12.5987,177.71 11.9321,176.71 11.5,175.5 Z"/></g>
<g><path style="opacity:1" fill="#7378a1" d="M 13.5,178.5 C 16.462,180.665 18.1287,183.665 18.5,187.5C 16.4405,184.76 14.7738,181.76 13.5,178.5 Z"/></g>
<g><path style="opacity:0.702" fill="#8e97b3" d="M 137.5,178.5 C 137.5,180.5 136.5,181.5 134.5,181.5C 135.167,180.167 136.167,179.167 137.5,178.5 Z"/></g>
<g><path style="opacity:0.008" fill="#dfe4ed" d="M 190.5,178.5 C 190.833,178.5 191.167,178.5 191.5,178.5C 191.715,180.179 191.048,181.179 189.5,181.5C 190.11,180.609 190.443,179.609 190.5,178.5 Z"/></g>
<g><path style="opacity:0.471" fill="#aeb3cc" d="M 134.5,181.5 C 133.738,183.262 132.404,184.262 130.5,184.5C 131.262,182.738 132.596,181.738 134.5,181.5 Z"/></g>
<g><path style="opacity:0.694" fill="#a0a8c0" d="M 793.5,182.5 C 794.833,183.167 795.833,184.167 796.5,185.5C 794.5,185.5 793.5,184.5 793.5,182.5 Z"/></g>
<g><path style="opacity:1" fill="#53578e" d="M 67.5,177.5 C 71.1464,179.817 74.4797,182.484 77.5,185.5C 76.5768,186.303 75.5768,186.47 74.5,186C 73.2947,183.294 71.2947,181.461 68.5,180.5C 67.8728,179.583 67.5394,178.583 67.5,177.5 Z"/></g>
<g><path style="opacity:0.914" fill="#8085a8" d="M 20.5,189.5 C 22.0481,189.821 22.7148,190.821 22.5,192.5C 21.5987,191.71 20.9321,190.71 20.5,189.5 Z"/></g>
<g><path style="opacity:1" fill="#7d80ab" d="M 81.5,187.5 C 84.0673,187.721 86.4006,188.388 88.5,189.5C 86.8561,189.286 85.3561,189.62 84,190.5C 83.3021,189.309 82.4687,188.309 81.5,187.5 Z"/></g>
<g><path style="opacity:0.106" fill="#bdc5da" d="M 88.5,189.5 C 96.1377,190.313 103.804,190.646 111.5,190.5C 108.518,191.165 105.352,191.498 102,191.5C 97.2279,191.692 92.7279,191.025 88.5,189.5 Z"/></g>
<g><path style="opacity:0.055" fill="#d7dce6" d="M 183.5,190.5 C 185.031,191.925 184.698,192.591 182.5,192.5C 182.328,191.508 182.662,190.842 183.5,190.5 Z"/></g>
<g><path style="opacity:0.749" fill="#9a9fbd" d="M 747.5,191.5 C 747.833,191.5 748.167,191.5 748.5,191.5C 748.5,193.167 748.5,194.833 748.5,196.5C 747.766,195.122 747.099,193.622 746.5,192C 746.728,191.601 747.062,191.435 747.5,191.5 Z"/></g>
<g><path style="opacity:0.951" fill="#73789c" d="M 801.5,188.5 C 810.097,189.479 818.43,189.479 826.5,188.5C 826.205,190.735 826.539,192.735 827.5,194.5C 827.5,200.833 827.5,207.167 827.5,213.5C 826.833,215.167 826.167,216.833 825.5,218.5C 825.5,209.167 825.5,199.833 825.5,190.5C 818.825,190.666 812.158,190.5 805.5,190C 803.942,189.79 802.609,189.29 801.5,188.5 Z"/></g>
<g><path style="opacity:1" fill="#50548a" d="M 22.5,192.5 C 27.1096,194.129 30.4429,197.129 32.5,201.5C 32.1667,201.5 31.8333,201.5 31.5,201.5C 27.8333,199.167 24.8333,196.167 22.5,192.5 Z"/></g>
<g><path style="opacity:0.573" fill="#aeb5cb" d="M 31.5,201.5 C 31.8333,201.5 32.1667,201.5 32.5,201.5C 33.5,201.833 34.1667,202.5 34.5,203.5C 32.9731,203.573 31.9731,202.906 31.5,201.5 Z"/></g>
<g><path style="opacity:0.004" fill="#dfe4ec" d="M 174.5,200.5 C 174.5,201.833 173.833,202.5 172.5,202.5C 172.833,201.5 173.5,200.833 174.5,200.5 Z"/></g>
<g><path style="opacity:0.004" fill="#ced2e0" d="M 34.5,203.5 C 35.5,203.833 36.1667,204.5 36.5,205.5C 35.1667,205.5 34.5,204.833 34.5,203.5 Z"/></g>
<g><path style="opacity:1" fill="#7276a0" d="M 750.5,202.5 C 752.769,204.242 754.102,206.576 754.5,209.5C 751.888,207.948 750.555,205.614 750.5,202.5 Z"/></g>
<g><path style="opacity:0.012" fill="#cdd3e3" d="M 167.5,206.5 C 167.027,207.906 166.027,208.573 164.5,208.5C 164.973,207.094 165.973,206.427 167.5,206.5 Z"/></g>
<g><path style="opacity:0.49" fill="#9aa0bc" d="M 44.5,210.5 C 46.0269,210.427 47.0269,211.094 47.5,212.5C 45.9731,212.573 44.9731,211.906 44.5,210.5 Z"/></g>
<g><path style="opacity:0.416" fill="#a8b2c9" d="M 755.5,211.5 C 757.027,211.427 758.027,212.094 758.5,213.5C 756.973,213.573 755.973,212.906 755.5,211.5 Z"/></g>
<g><path style="opacity:1" fill="#7c7fa9" d="M 155.5,213.5 C 155.167,214.167 154.833,214.833 154.5,215.5C 153.167,215.833 151.833,216.167 150.5,216.5C 151.598,215.603 151.598,214.77 150.5,214C 152.134,213.506 153.801,213.34 155.5,213.5 Z"/></g>
<g><path style="opacity:0.012" fill="#fbfcf5" d="M 154.5,215.5 C 155.833,216.167 155.833,216.167 154.5,215.5 Z"/></g>
<g><path style="opacity:0.875" fill="#8389ac" d="M 55.5,216.5 C 57.698,216.12 59.3646,216.787 60.5,218.5C 58.597,218.204 56.9303,217.537 55.5,216.5 Z"/></g>
<g><path style="opacity:0.051" fill="#b1b7cd" d="M 429.5,215.5 C 430.5,215.833 431.167,216.5 431.5,217.5C 430.167,217.5 429.5,216.833 429.5,215.5 Z"/></g>
<g><path style="opacity:0.431" fill="#a4aac3" d="M 676.5,216.5 C 678.027,216.427 679.027,217.094 679.5,218.5C 677.973,218.573 676.973,217.906 676.5,216.5 Z"/></g>
<g><path style="opacity:0.553" fill="#8b93b3" d="M 431.5,217.5 C 433.027,217.427 434.027,218.094 434.5,219.5C 432.973,219.573 431.973,218.906 431.5,217.5 Z"/></g>
<g><path style="opacity:0.73" fill="#7881a4" d="M 278.5,119.5 C 278.5,153.167 278.5,186.833 278.5,220.5C 263.5,220.5 248.5,220.5 233.5,220.5C 233.5,220.167 233.5,219.833 233.5,219.5C 248.167,219.5 262.833,219.5 277.5,219.5C 277.168,185.996 277.502,152.662 278.5,119.5 Z"/></g>
<g><path style="opacity:0.731" fill="#6a759a" d="M 375.5,131.5 C 375.5,161.167 375.5,190.833 375.5,220.5C 360.152,220.833 344.819,220.499 329.5,219.5C 329.624,218.893 329.957,218.56 330.5,218.5C 344.99,219.496 359.657,219.829 374.5,219.5C 374.169,189.995 374.502,160.662 375.5,131.5 Z"/></g>
<g><path style="opacity:0.73" fill="#6f799d" d="M 471.5,114.5 C 472.498,149.663 472.832,184.996 472.5,220.5C 459.656,220.829 446.989,220.495 434.5,219.5C 446.833,219.5 459.167,219.5 471.5,219.5C 471.5,184.5 471.5,149.5 471.5,114.5 Z"/></g>
<g><path style="opacity:0.663" fill="#848bad" d="M 63.5,219.5 C 66.1522,219.41 68.4855,220.076 70.5,221.5C 67.8478,221.59 65.5145,220.924 63.5,219.5 Z"/></g>
<g><path style="opacity:0.596" fill="#979fbc" d="M 71.5,221.5 C 74.1522,221.41 76.4855,222.076 78.5,223.5C 75.7718,223.829 73.4385,223.163 71.5,221.5 Z"/></g>
<g><path style="opacity:0.813" fill="#767ea4" d="M 84.5,224.5 C 96.8333,224.5 109.167,224.5 121.5,224.5C 114.099,225.182 106.599,225.848 99,226.5C 94.0664,225.856 89.233,225.19 84.5,224.5 Z"/></g>
<g><path style="opacity:1" fill="#a0a7c4" d="M 339.5,243.5 C 341.564,243.687 343.564,244.187 345.5,245C 346.517,246.049 346.684,247.216 346,248.5C 343.315,252.927 339.482,254.76 334.5,254C 334.043,253.586 333.709,253.086 333.5,252.5C 335.262,249.299 337.262,246.299 339.5,243.5 Z"/></g>
<g><path style="opacity:0.999" fill="#929abc" d="M 501.5,263.5 C 493.427,262.868 485.76,263.535 478.5,265.5C 479.38,267.389 479.38,269.389 478.5,271.5C 478.5,272.5 478.5,273.5 478.5,274.5C 484.5,274.5 490.5,274.5 496.5,274.5C 500.225,274.78 501.392,276.78 500,280.5C 499.617,281.056 499.117,281.389 498.5,281.5C 491.416,280.874 484.75,281.541 478.5,283.5C 478.5,284.5 478.5,285.5 478.5,286.5C 478.5,288.833 478.5,291.167 478.5,293.5C 486.167,293.5 493.833,293.5 501.5,293.5C 503.647,294.932 503.98,296.765 502.5,299C 493.99,299.171 485.657,299.671 477.5,300.5C 476.833,300.5 476.167,300.5 475.5,300.5C 475.167,299.167 474.833,299.167 474.5,300.5C 474.167,300.5 473.833,300.5 473.5,300.5C 472.828,299.733 471.995,299.066 471,298.5C 470.167,284.821 470.334,271.154 471.5,257.5C 481.119,256.359 490.786,256.193 500.5,257C 502.668,258.97 503.002,261.137 501.5,263.5 Z"/></g>
<g><path style="opacity:0.998" fill="#9099bc" d="M 442.5,263.5 C 434.833,263.5 427.167,263.5 419.5,263.5C 419.5,267.167 419.5,270.833 419.5,274.5C 425.5,274.5 431.5,274.5 437.5,274.5C 441.225,274.78 442.392,276.78 441,280.5C 440.617,281.056 440.117,281.389 439.5,281.5C 432.416,280.874 425.75,281.541 419.5,283.5C 419.5,284.833 419.5,286.167 419.5,287.5C 419.5,289.5 419.5,291.5 419.5,293.5C 427.167,293.5 434.833,293.5 442.5,293.5C 444.745,294.828 445.078,296.661 443.5,299C 435.656,299.171 427.989,299.671 420.5,300.5C 420.167,300.5 419.833,300.5 419.5,300.5C 418.5,299.167 417.5,299.167 416.5,300.5C 416.167,300.5 415.833,300.5 415.5,300.5C 415.5,299.833 415.167,299.5 414.5,299.5C 414.217,298.711 413.717,298.044 413,297.5C 412.5,284.504 412.333,271.504 412.5,258.5C 412.611,257.883 412.944,257.383 413.5,257C 423.167,256.333 432.833,256.333 442.5,257C 445.134,259.293 445.134,261.46 442.5,263.5 Z"/></g>
<g><path style="opacity:0.997" fill="#8e96bb" d="M 730.5,258.5 C 732.089,261.349 733.923,264.016 736,266.5C 738.44,270.5 737.774,273.833 734,276.5C 733.228,276.355 732.561,276.022 732,275.5C 731.577,276.956 730.744,277.456 729.5,277C 730.252,276.329 730.586,275.496 730.5,274.5C 730.795,272.265 730.461,270.265 729.5,268.5C 728.694,267.272 727.694,266.272 726.5,265.5C 725.737,264.732 724.737,264.232 723.5,264C 719.179,263.501 714.846,263.334 710.5,263.5C 710.5,268.5 710.5,273.5 710.5,278.5C 714.167,278.5 717.833,278.5 721.5,278.5C 723.017,279.735 724.684,279.735 726.5,278.5C 727.262,279.628 727.929,280.795 728.5,282C 726.956,282.29 725.623,282.956 724.5,284C 727.943,285.046 730.609,287.046 732.5,290C 731.898,293.626 730.232,294.293 727.5,292C 729.443,290.807 729.276,289.307 727,287.5C 726.29,288.973 725.124,289.64 723.5,289.5C 722.094,289.027 721.427,288.027 721.5,286.5C 721.389,285.883 721.056,285.383 720.5,285C 717.183,284.502 713.85,284.335 710.5,284.5C 710.5,289.167 710.5,293.833 710.5,298.5C 709.833,299.167 709.167,299.833 708.5,300.5C 707.5,300.5 706.5,300.5 705.5,300.5C 705.167,299.833 704.833,299.167 704.5,298.5C 703.52,285.579 703.186,272.579 703.5,259.5C 704.464,257.595 706.131,256.595 708.5,256.5C 713.853,256.557 719.187,256.557 724.5,256.5C 726.657,257.05 728.657,257.717 730.5,258.5 Z M 726.5,265.5 C 727.694,266.272 728.694,267.272 729.5,268.5C 729.552,270.903 729.219,273.236 728.5,275.5C 726.938,275.733 725.605,276.4 724.5,277.5C 720.167,277.5 715.833,277.5 711.5,277.5C 711.176,273.445 711.509,269.445 712.5,265.5C 717.141,264.383 721.808,264.383 726.5,265.5 Z"/></g>
<g><path style="opacity:0.463" fill="#c0c4d4" d="M 319.5,257.5 C 321.817,256.058 323.984,256.392 326,258.5C 326.5,267.16 326.666,275.827 326.5,284.5C 325.671,276.677 325.171,268.677 325,260.5C 323.814,258.323 321.981,257.323 319.5,257.5 Z"/></g>
<g><path style="opacity:0.483" fill="#c7ccd7" d="M 412.5,258.5 C 412.333,271.504 412.5,284.504 413,297.5C 413.717,298.044 414.217,298.711 414.5,299.5C 413.504,299.586 412.671,299.252 412,298.5C 411.173,284.994 411.34,271.66 412.5,258.5 Z"/></g>
<g><path style="opacity:0.356" fill="#d4d8e6" d="M 501.5,263.5 C 493.933,264.196 486.266,264.863 478.5,265.5C 485.76,263.535 493.427,262.868 501.5,263.5 Z"/></g>
<g><path style="opacity:0.446" fill="#d2d6e1" d="M 601.5,263.5 C 594.345,264.329 587.011,264.829 579.5,265C 578.556,267.719 578.223,270.552 578.5,273.5C 584.69,273.177 590.69,273.51 596.5,274.5C 590.167,274.5 583.833,274.5 577.5,274.5C 577.211,270.894 577.544,267.394 578.5,264C 586.159,263.5 593.826,263.334 601.5,263.5 Z"/></g>
<g><path style="opacity:0.111" fill="#eef1f9" d="M 703.5,259.5 C 703.186,272.579 703.52,285.579 704.5,298.5C 703.17,292.369 702.503,285.869 702.5,279C 702.5,272.325 702.834,265.825 703.5,259.5 Z"/></g>
<g><path style="opacity:0.999" fill="#a2a9c5" d="M 382.5,300.5 C 377.5,300.5 372.5,300.5 367.5,300.5C 366.828,299.733 365.995,299.066 365,298.5C 363.189,284.859 363.023,271.193 364.5,257.5C 375.26,255.336 385.593,256.503 395.5,261C 403.773,269.172 405.607,278.672 401,289.5C 396.532,296.146 390.365,299.813 382.5,300.5 Z M 382.5,264.5 C 393.622,268.411 396.789,275.744 392,286.5C 390.195,288.826 388.028,290.492 385.5,291.5C 381.064,291.942 376.731,291.942 372.5,291.5C 372.5,282.833 372.5,274.167 372.5,265.5C 375.807,264.949 379.14,264.616 382.5,264.5 Z"/></g>
<g><path style="opacity:0.631" fill="#bdc3d4" d="M 382.5,263.5 C 382.5,263.833 382.5,264.167 382.5,264.5C 379.14,264.616 375.807,264.949 372.5,265.5C 372.5,274.167 372.5,282.833 372.5,291.5C 376.731,291.942 381.064,291.942 385.5,291.5C 384.167,292.167 382.833,292.833 381.5,293.5C 378.223,293.784 375.057,293.451 372,292.5C 371.333,283.167 371.333,273.833 372,264.5C 375.394,263.544 378.894,263.211 382.5,263.5 Z"/></g>
<g><path style="opacity:1" fill="#8a93ba" d="M 382.5,263.5 C 378.894,263.211 375.394,263.544 372,264.5C 371.333,273.833 371.333,283.167 372,292.5C 375.057,293.451 378.223,293.784 381.5,293.5C 384.045,293.151 386.045,293.984 387.5,296C 386.833,296.667 386.167,297.333 385.5,298C 378.918,298.81 372.418,298.643 366,297.5C 365.5,284.504 365.333,271.504 365.5,258.5C 372.508,258.334 379.508,258.5 386.5,259C 389.81,260.248 392.81,261.915 395.5,264C 394.069,264.465 392.903,265.299 392,266.5C 390.705,265.159 390.205,263.826 390.5,262.5C 387.916,263.393 385.249,263.726 382.5,263.5 Z"/></g>
<g><path style="opacity:1" fill="#959dbf" d="M 638.5,291.5 C 639.496,291.586 640.329,291.252 641,290.5C 641.498,287.518 641.665,284.518 641.5,281.5C 638.482,281.665 635.482,281.498 632.5,281C 631.62,279.644 631.286,278.144 631.5,276.5C 636.762,276.195 641.928,276.529 647,277.5C 647.499,283.157 647.666,288.824 647.5,294.5C 644.438,297.63 640.771,299.63 636.5,300.5C 632.833,300.5 629.167,300.5 625.5,300.5C 612.428,296.388 606.928,287.388 609,273.5C 613.481,258.835 623.315,253.335 638.5,257C 641.787,257.616 644.621,259.116 647,261.5C 648.417,265.465 647.084,267.799 643,268.5C 638.017,264.945 632.517,263.779 626.5,265C 616.616,271.148 614.949,279.148 621.5,289C 626.732,292.53 632.399,293.363 638.5,291.5 Z"/></g>
<g><path style="opacity:0.241" fill="#d2d7e4" d="M 726.5,265.5 C 721.808,264.383 717.141,264.383 712.5,265.5C 711.509,269.445 711.176,273.445 711.5,277.5C 715.833,277.5 720.167,277.5 724.5,277.5C 723.791,278.404 722.791,278.737 721.5,278.5C 717.833,278.5 714.167,278.5 710.5,278.5C 710.5,273.5 710.5,268.5 710.5,263.5C 714.846,263.334 719.179,263.501 723.5,264C 724.737,264.232 725.737,264.732 726.5,265.5 Z"/></g>
<g><path style="opacity:1" fill="#99a0c0" d="M 788.5,273.5 C 788.563,278.203 788.229,282.87 787.5,287.5C 784.635,294.369 779.635,298.703 772.5,300.5C 768.833,300.5 765.167,300.5 761.5,300.5C 746.959,295.118 741.792,284.785 746,269.5C 753.089,257.081 763.589,253.248 777.5,258C 783.748,261.328 787.415,266.494 788.5,273.5 Z M 762.5,264.5 C 775.631,263.464 781.464,269.464 780,282.5C 775.741,292.141 768.908,294.641 759.5,290C 750.819,280.273 751.819,271.773 762.5,264.5 Z"/></g>
<g><path style="opacity:0.059" fill="#e3e8f0" d="M 729.5,268.5 C 730.461,270.265 730.795,272.265 730.5,274.5C 729.833,274.833 729.167,275.167 728.5,275.5C 729.219,273.236 729.552,270.903 729.5,268.5 Z"/></g>
<g><path style="opacity:0.01" fill="#edf1f6" d="M 442.5,263.5 C 435.352,264.492 428.019,264.825 420.5,264.5C 420.5,267.5 420.5,270.5 420.5,273.5C 426.358,273.178 432.025,273.511 437.5,274.5C 431.5,274.5 425.5,274.5 419.5,274.5C 419.5,270.833 419.5,267.167 419.5,263.5C 427.167,263.5 434.833,263.5 442.5,263.5 Z"/></g>
<g><path style="opacity:0.01" fill="#fbfdfe" d="M 478.5,271.5 C 484.401,273.077 490.401,274.077 496.5,274.5C 490.5,274.5 484.5,274.5 478.5,274.5C 478.5,273.5 478.5,272.5 478.5,271.5 Z"/></g>
<g><path style="opacity:0.998" fill="#979fc0" d="M 255.5,300.5 C 251.833,300.5 248.167,300.5 244.5,300.5C 240.206,299.556 236.372,297.556 233,294.5C 230.991,291.11 231.991,288.777 236,287.5C 240.315,290.273 244.982,292.273 250,293.5C 252.088,292.692 254.088,291.692 256,290.5C 256.667,288.833 256.667,287.167 256,285.5C 249.371,283.469 242.871,280.969 236.5,278C 230.371,264.758 234.537,257.258 249,255.5C 253.243,256.293 257.41,257.46 261.5,259C 265.828,262.84 265.328,265.674 260,267.5C 255.72,265.569 251.553,264.236 247.5,263.5C 242.405,265.079 241.405,267.913 244.5,272C 250.366,273.4 256.033,275.4 261.5,278C 265.776,282.892 266.61,288.392 264,294.5C 261.678,297.395 258.845,299.395 255.5,300.5 Z"/></g>
<g><path style="opacity:0.999" fill="#969ebf" d="M 310.5,300.5 C 309.167,300.5 307.833,300.5 306.5,300.5C 304.308,297.45 302.642,294.117 301.5,290.5C 298.183,289.835 294.683,289.501 291,289.5C 287.098,289.512 283.598,290.179 280.5,291.5C 279.546,294.706 278.213,297.706 276.5,300.5C 275.167,300.5 273.833,300.5 272.5,300.5C 270.292,299.082 269.458,297.082 270,294.5C 275.722,282.667 281.055,270.667 286,258.5C 289.333,254.5 292.667,254.5 296,258.5C 302.16,270.658 307.66,283.158 312.5,296C 312.481,297.833 311.815,299.333 310.5,300.5 Z M 297.5,280.5 C 293.5,281.833 289.5,281.833 285.5,280.5C 287.021,276.451 288.855,272.451 291,268.5C 292.926,272.69 295.093,276.69 297.5,280.5 Z"/></g>
<g><path style="opacity:0.999" fill="#979fc0" d="M 552.5,300.5 C 549.167,300.5 545.833,300.5 542.5,300.5C 536.77,299.466 532.103,296.633 528.5,292C 529.369,289.632 531.035,288.132 533.5,287.5C 538.591,291.391 544.258,292.891 550.5,292C 553.553,290.419 554.22,288.086 552.5,285C 547.604,283.085 542.604,281.418 537.5,280C 528.566,273.11 528.233,265.776 536.5,258C 543.152,256.049 549.819,256.049 556.5,258C 559.064,259.062 560.731,260.896 561.5,263.5C 561.471,265.029 560.804,266.196 559.5,267C 554.959,266.661 550.459,265.828 546,264.5C 542.451,263.773 540.284,265.106 539.5,268.5C 540.054,270.628 541.387,272.128 543.5,273C 548.768,273.867 553.768,275.534 558.5,278C 562.776,282.892 563.61,288.392 561,294.5C 558.678,297.395 555.845,299.395 552.5,300.5 Z"/></g>
<g><path style="opacity:0.999" fill="#979ec0" d="M 827.5,282.5 C 827.5,285.833 827.5,289.167 827.5,292.5C 825.108,296.868 821.441,299.534 816.5,300.5C 813.5,300.5 810.5,300.5 807.5,300.5C 803.824,299.322 800.157,297.822 796.5,296C 793.242,291.858 794.075,289.024 799,287.5C 802.908,290.288 807.242,291.955 812,292.5C 815.764,293.064 818.264,291.564 819.5,288C 818.899,286.395 817.899,285.062 816.5,284C 809.115,283.097 802.615,280.264 797,275.5C 793.621,263.035 798.454,256.701 811.5,256.5C 816.257,256.272 820.591,257.438 824.5,260C 827.167,262.333 827.167,264.667 824.5,267C 819.662,266.762 814.996,265.595 810.5,263.5C 807.68,264.236 805.68,265.902 804.5,268.5C 804.919,269.672 805.585,270.672 806.5,271.5C 812.273,273.369 817.939,275.536 823.5,278C 825.07,279.397 826.404,280.897 827.5,282.5 Z"/></g>
<g><path style="opacity:1" fill="#9ea5c3" d="M 730.5,258.5 C 737.509,261.984 740.009,267.651 738,275.5C 736.382,279.281 733.882,282.281 730.5,284.5C 733.376,288.206 736.043,292.039 738.5,296C 738.043,297.94 737.043,299.44 735.5,300.5C 734.5,300.5 733.5,300.5 732.5,300.5C 729.182,297.173 726.182,293.507 723.5,289.5C 725.124,289.64 726.29,288.973 727,287.5C 729.276,289.307 729.443,290.807 727.5,292C 730.232,294.293 731.898,293.626 732.5,290C 730.609,287.046 727.943,285.046 724.5,284C 725.623,282.956 726.956,282.29 728.5,282C 727.929,280.795 727.262,279.628 726.5,278.5C 724.684,279.735 723.017,279.735 721.5,278.5C 722.791,278.737 723.791,278.404 724.5,277.5C 725.605,276.4 726.938,275.733 728.5,275.5C 729.167,275.167 729.833,274.833 730.5,274.5C 730.586,275.496 730.252,276.329 729.5,277C 730.744,277.456 731.577,276.956 732,275.5C 732.561,276.022 733.228,276.355 734,276.5C 737.774,273.833 738.44,270.5 736,266.5C 733.923,264.016 732.089,261.349 730.5,258.5 Z"/></g>
<g><path style="opacity:0.353" fill="#dde1eb" d="M 788.5,273.5 C 789.161,275.134 789.494,276.967 789.5,279C 789.64,282.15 788.973,284.983 787.5,287.5C 788.229,282.87 788.563,278.203 788.5,273.5 Z"/></g>
<g><path style="opacity:0.007" fill="#f5f7fa" d="M 285.5,280.5 C 289.5,281.833 293.5,281.833 297.5,280.5C 298.043,280.56 298.376,280.893 298.5,281.5C 293.833,282.833 289.167,282.833 284.5,281.5C 284.624,280.893 284.957,280.56 285.5,280.5 Z"/></g>
<g><path style="opacity:0.154" fill="#eaedf4" d="M 439.5,281.5 C 432.933,282.201 426.267,282.868 419.5,283.5C 425.75,281.541 432.416,280.874 439.5,281.5 Z"/></g>
<g><path style="opacity:0.147" fill="#ebedf4" d="M 498.5,281.5 C 491.933,282.201 485.267,282.868 478.5,283.5C 484.75,281.541 491.416,280.874 498.5,281.5 Z"/></g>
<g><path style="opacity:0.712" fill="#b1b7cc" d="M 647.5,294.5 C 647.666,288.824 647.499,283.157 647,277.5C 641.928,276.529 636.762,276.195 631.5,276.5C 631.286,278.144 631.62,279.644 632.5,281C 635.482,281.498 638.482,281.665 641.5,281.5C 641.665,284.518 641.498,287.518 641,290.5C 640.329,291.252 639.496,291.586 638.5,291.5C 640.226,289.18 640.893,286.513 640.5,283.5C 637.187,282.955 633.854,282.455 630.5,282C 629.167,280 629.167,278 630.5,276C 636.416,275.193 642.25,275.359 648,276.5C 648.418,280.178 648.918,283.845 649.5,287.5C 649.276,290.08 648.609,292.414 647.5,294.5 Z"/></g>
<g><path style="opacity:0.625" fill="#c4c8d9" d="M 597.5,281.5 C 591.347,282.328 585.013,282.828 578.5,283C 578.545,285.636 578.712,288.47 579,291.5C 583.106,292.662 587.272,292.662 591.5,291.5C 595.024,291.901 598.358,292.567 601.5,293.5C 593.826,293.666 586.159,293.5 578.5,293C 577.54,289.27 577.207,285.437 577.5,281.5C 584.167,281.5 590.833,281.5 597.5,281.5 Z"/></g>
<g><path style="opacity:0.229" fill="#dde1ea" d="M 721.5,286.5 C 718.236,285.676 714.902,285.342 711.5,285.5C 711.818,290.032 711.485,294.366 710.5,298.5C 710.5,293.833 710.5,289.167 710.5,284.5C 713.85,284.335 717.183,284.502 720.5,285C 721.056,285.383 721.389,285.883 721.5,286.5 Z"/></g>
<g><path style="opacity:0.012" fill="#f9fcfd" d="M 301.5,290.5 C 294.412,290.205 287.412,290.538 280.5,291.5C 283.598,290.179 287.098,289.512 291,289.5C 294.683,289.501 298.183,289.835 301.5,290.5 Z"/></g>
<g><path style="opacity:0.55" fill="#c2c8d8" d="M 419.5,287.5 C 420.451,288.919 420.784,290.585 420.5,292.5C 428.019,292.175 435.352,292.508 442.5,293.5C 434.833,293.5 427.167,293.5 419.5,293.5C 419.5,291.5 419.5,289.5 419.5,287.5 Z"/></g>
<g><path style="opacity:0.546" fill="#c4cad9" d="M 478.5,286.5 C 479.461,288.265 479.795,290.265 479.5,292.5C 487.019,292.175 494.352,292.508 501.5,293.5C 493.833,293.5 486.167,293.5 478.5,293.5C 478.5,291.167 478.5,288.833 478.5,286.5 Z"/></g>
<g><path style="opacity:0.998" fill="#98a0c1" d="M 664.5,258.5 C 664.849,269.324 664.349,279.99 663,290.5C 664.113,291.711 665.28,291.711 666.5,290.5C 670.229,293.463 674.229,294.129 678.5,292.5C 680.355,291.31 682.188,289.977 684,288.5C 685.038,278.197 685.871,267.864 686.5,257.5C 689.78,255.717 692.28,256.383 694,259.5C 694.895,269.561 694.562,279.561 693,289.5C 690.463,295.215 686.296,298.882 680.5,300.5C 676.833,300.5 673.167,300.5 669.5,300.5C 666.58,299.122 663.746,297.455 661,295.5C 659.175,292.689 657.842,289.689 657,286.5C 656.333,277.167 656.333,267.833 657,258.5C 659.621,255.86 662.121,255.86 664.5,258.5 Z"/></g>
<g><path style="opacity:1" fill="#b2b8cf" d="M 664.5,258.5 C 665.33,267.324 665.83,276.324 666,285.5C 668.448,290.809 672.614,293.142 678.5,292.5C 674.229,294.129 670.229,293.463 666.5,290.5C 665.28,291.711 664.113,291.711 663,290.5C 664.349,279.99 664.849,269.324 664.5,258.5 Z"/></g>
<g><path style="opacity:0.998" fill="#98a0c1" d="M 352.5,292.5 C 350.142,294.529 347.808,296.529 345.5,298.5C 344.5,299.167 343.5,299.833 342.5,300.5C 338.5,300.5 334.5,300.5 330.5,300.5C 322.782,298.274 318.448,293.107 317.5,285C 317.005,275.751 317.671,266.584 319.5,257.5C 321.981,257.323 323.814,258.323 325,260.5C 325.171,268.677 325.671,276.677 326.5,284.5C 328.846,290.961 333.512,293.461 340.5,292C 343.381,290.749 345.214,288.583 346,285.5C 346.333,276.5 346.667,267.5 347,258.5C 349.667,255.833 352.333,255.833 355,258.5C 355.667,267.5 355.667,276.5 355,285.5C 354.621,288.03 353.787,290.363 352.5,292.5 Z"/></g>
<g><path style="opacity:0.995" fill="#9098bc" d="M 601.5,263.5 C 593.826,263.334 586.159,263.5 578.5,264C 577.544,267.394 577.211,270.894 577.5,274.5C 583.833,274.5 590.167,274.5 596.5,274.5C 597.5,274.5 598.5,274.5 599.5,274.5C 600.01,277.388 599.344,279.721 597.5,281.5C 590.833,281.5 584.167,281.5 577.5,281.5C 577.207,285.437 577.54,289.27 578.5,293C 586.159,293.5 593.826,293.666 601.5,293.5C 604.167,295.167 604.167,296.833 601.5,298.5C 591.584,298.819 581.75,298.486 572,297.5C 571.187,284.092 571.353,270.758 572.5,257.5C 582.457,256.215 592.457,256.215 602.5,257.5C 602.795,259.735 602.461,261.735 601.5,263.5 Z"/></g>
<g><path style="opacity:0.008" fill="#e7e9f0" d="M 352.5,292.5 C 351.388,295.946 349.055,297.946 345.5,298.5C 347.808,296.529 350.142,294.529 352.5,292.5 Z"/></g>
<g><path style="opacity:0.68" fill="#a9aec4" d="M 572.5,257.5 C 571.353,270.758 571.187,284.092 572,297.5C 581.75,298.486 591.584,298.819 601.5,298.5C 591.431,299.829 581.265,299.829 571,298.5C 570.813,291.919 570.313,285.419 569.5,279C 569.822,271.508 570.822,264.341 572.5,257.5 Z"/></g>
</svg>
