<?xml version="1.0" encoding="UTF-8"?>
<!DOCTYPE svg PUBLIC "-//W3C//DTD SVG 1.1//EN" "http://www.w3.org/Graphics/SVG/1.1/DTD/svg11.dtd">
<svg xmlns="http://www.w3.org/2000/svg" version="1.1" width="612px" height="408px" style="shape-rendering:geometricPrecision; text-rendering:geometricPrecision; image-rendering:optimizeQuality; fill-rule:evenodd; clip-rule:evenodd" xmlns:xlink="http://www.w3.org/1999/xlink">
<g><path style="opacity:1" fill="#e9081b" d="M 305.5,95.5 C 305.5,96.1667 305.5,96.8333 305.5,97.5C 295.563,104.27 287.063,112.603 280,122.5C 250.933,165.106 245.933,210.44 265,258.5C 273.104,276.207 284.27,291.707 298.5,305C 300.734,306.75 303.068,308.25 305.5,309.5C 305.5,310.167 305.5,310.833 305.5,311.5C 252.747,348.103 199.081,349.936 144.5,317C 93.8362,278.352 75.6696,227.852 90,165.5C 112.165,103.111 156.165,70.1111 222,66.5C 253.009,67.2652 280.842,76.9318 305.5,95.5 Z"/></g>
<g><path style="opacity:1" fill="#f59d1c" d="M 305.5,311.5 C 305.5,310.833 305.5,310.167 305.5,309.5C 313.731,304.106 320.898,297.44 327,289.5C 359.597,246.151 365.93,199.151 346,148.5C 337.546,131.046 326.379,115.546 312.5,102C 310.266,100.25 307.932,98.7502 305.5,97.5C 305.5,96.8333 305.5,96.1667 305.5,95.5C 359.424,58.1416 414.09,56.9749 469.5,92C 515.768,128.803 533.602,176.303 523,234.5C 503.183,300.808 458.683,336.142 389.5,340.5C 358.184,339.814 330.184,330.147 305.5,311.5 Z"/></g>
<g><path style="opacity:1" fill="#fe5f00" d="M 305.5,97.5 C 307.932,98.7502 310.266,100.25 312.5,102C 326.379,115.546 337.546,131.046 346,148.5C 365.93,199.151 359.597,246.151 327,289.5C 320.898,297.44 313.731,304.106 305.5,309.5C 303.068,308.25 300.734,306.75 298.5,305C 284.27,291.707 273.104,276.207 265,258.5C 245.933,210.44 250.933,165.106 280,122.5C 287.063,112.603 295.563,104.27 305.5,97.5 Z"/></g>
</svg>
