<?xml version="1.0" standalone="no"?>
<!DOCTYPE svg PUBLIC "-//W3C//DTD SVG 20010904//EN"
 "http://www.w3.org/TR/2001/REC-SVG-20010904/DTD/svg10.dtd">
<svg version="1.0" xmlns="http://www.w3.org/2000/svg"
 width="64.000000pt" height="64.000000pt" viewBox="0 0 64.000000 64.000000"
 preserveAspectRatio="xMidYMid meet">
<metadata>
Created by potrace 1.10, written by Peter Selinger 2001-2011
</metadata>
<g transform="translate(0.000000,64.000000) scale(0.100000,-0.100000)"
fill="#05668d" stroke="none">
<path d="M233 633 c-67 -13 -69 -103 -6 -246 29 -65 52 -72 65 -21 4 17 15 37
23 44 12 10 18 6 35 -22 11 -18 20 -39 20 -45 0 -7 7 -13 16 -13 19 0 67 103
83 178 20 94 -24 142 -113 122 -30 -6 -54 -7 -71 0 -15 6 -27 9 -28 9 -1 -1
-12 -4 -24 -6z m57 -28 c35 -20 94 -20 86 0 -7 20 23 20 53 -1 21 -15 23 -22
18 -75 -3 -32 -17 -84 -32 -116 l-26 -58 -13 30 c-16 37 -41 59 -60 52 -8 -3
-23 -22 -34 -43 l-19 -36 -21 49 c-22 51 -41 124 -42 156 0 20 34 57 53 57 6
-1 23 -7 37 -15z"/>
<path d="M37 583 c-17 -29 -37 -208 -27 -242 4 -16 29 -54 54 -85 46 -57 55
-79 36 -91 -9 -6 24 -85 35 -85 6 0 148 70 154 76 2 2 -4 22 -14 44 -12 26
-23 39 -32 36 -8 -3 -13 2 -13 15 0 25 -27 79 -40 79 -5 0 -21 22 -35 50 -14
27 -36 57 -50 66 -19 13 -23 21 -18 45 3 15 3 40 -1 53 -6 26 -41 53 -49 39z
m23 -97 c-8 -53 -7 -63 16 -107 13 -28 29 -47 35 -44 6 4 0 25 -16 52 -14 25
-23 48 -20 51 9 9 37 -22 61 -69 13 -26 30 -52 37 -56 19 -11 37 -47 37 -72 0
-14 -13 -27 -40 -41 -33 -17 -40 -18 -40 -6 0 9 -20 39 -44 69 -68 83 -69 87
-56 175 16 105 21 125 31 115 5 -5 4 -35 -1 -67z m197 -298 c9 -20 4 -24 -51
-51 -57 -26 -61 -27 -73 -11 -7 10 -13 21 -13 24 0 6 104 56 121 59 3 1 10 -9
16 -21z"/>
<path d="M569 569 c-17 -17 -20 -29 -16 -66 4 -39 2 -46 -17 -55 -13 -5 -35
-34 -49 -64 -15 -30 -31 -54 -37 -54 -13 0 -40 -54 -40 -79 0 -13 -5 -18 -13
-15 -9 3 -20 -10 -32 -36 -10 -22 -16 -42 -14 -44 6 -6 148 -76 154 -76 11 0
44 79 35 85 -19 12 -10 34 36 91 67 82 68 88 42 256 -5 38 -14 70 -19 73 -4 3
-18 -4 -30 -16z m40 -126 c14 -94 13 -96 -55 -180 -24 -30 -44 -60 -44 -69 0
-12 -7 -11 -40 6 -27 14 -40 27 -40 41 0 26 18 60 39 76 9 6 27 34 40 62 21
44 46 69 58 58 2 -2 -8 -25 -22 -50 -16 -27 -22 -48 -16 -52 6 -3 22 16 35 44
23 44 24 54 16 106 -9 58 -3 95 10 59 4 -10 13 -56 19 -101z m-141 -263 c56
-24 58 -27 39 -54 -12 -16 -16 -15 -73 11 -56 27 -60 31 -51 51 6 13 15 21 21
18 6 -2 35 -14 64 -26z"/>
</g>
</svg>
