<?xml version="1.0" encoding="UTF-8"?>
<!DOCTYPE svg PUBLIC "-//W3C//DTD SVG 1.1//EN" "http://www.w3.org/Graphics/SVG/1.1/DTD/svg11.dtd">
<svg xmlns="http://www.w3.org/2000/svg" version="1.1" width="802px" height="311px" style="shape-rendering:geometricPrecision; text-rendering:geometricPrecision; image-rendering:optimizeQuality; fill-rule:evenodd; clip-rule:evenodd" xmlns:xlink="http://www.w3.org/1999/xlink">
<g><path style="opacity:0.533" fill="#b6bbcd" d="M 147.5,65.5 C 147.5,65.8333 147.5,66.1667 147.5,66.5C 144.5,66.5 141.5,66.5 138.5,66.5C 141.228,65.7948 144.061,65.1281 147,64.5C 147.399,64.7284 147.565,65.0618 147.5,65.5 Z"/></g>
<g><path style="opacity:0.818" fill="#8c92b4" d="M 184.5,66.5 C 172.167,66.5 159.833,66.5 147.5,66.5C 147.5,66.1667 147.5,65.8333 147.5,65.5C 160.003,64.2113 172.336,64.5446 184.5,66.5 Z"/></g>
<g><path style="opacity:0.435" fill="#adb2c8" d="M 186.5,66.5 C 190.387,66.6459 194.054,67.3126 197.5,68.5C 193.511,68.8836 189.845,68.217 186.5,66.5 Z"/></g>
<g><path style="opacity:0.055" fill="#b7bccf" d="M 202.5,69.5 C 206.837,69.5841 210.837,70.5841 214.5,72.5C 210.2,72.2809 206.2,71.2809 202.5,69.5 Z"/></g>
<g><path style="opacity:0.784" fill="#9299b8" d="M 112.5,71.5 C 110.898,73.0739 108.898,73.7406 106.5,73.5C 108.214,72.2616 110.214,71.595 112.5,71.5 Z"/></g>
<g><path style="opacity:0.475" fill="#afb5c9" d="M 665.5,71.5 C 664.5,73.1667 663.167,74.5 661.5,75.5C 661.833,73.1667 663.167,71.8333 665.5,71.5 Z"/></g>
<g><path style="opacity:1" fill="#212f6e" d="M 674.5,70.5 C 674.787,91.1934 674.454,111.86 673.5,132.5C 673.34,134.153 672.674,135.486 671.5,136.5C 669.833,137.5 668.5,138.833 667.5,140.5C 667.5,141.167 667.167,141.5 666.5,141.5C 664.181,141.992 662.181,142.992 660.5,144.5C 659.791,145.404 658.791,145.737 657.5,145.5C 652.156,145.666 646.823,145.499 641.5,145C 638.647,143.57 635.647,142.737 632.5,142.5C 630.833,140.167 628.833,138.167 626.5,136.5C 625.094,136.027 624.427,135.027 624.5,133.5C 621.509,122.03 621.842,110.696 625.5,99.5C 625.5,98.8333 625.5,98.1667 625.5,97.5C 625.833,97.5 626.167,97.5 626.5,97.5C 628.5,95.5 630.5,93.5 632.5,91.5C 634.027,91.573 635.027,90.9063 635.5,89.5C 642.618,87.8996 649.618,88.2329 656.5,90.5C 657.211,92.0301 658.211,93.3634 659.5,94.5C 659.56,95.0431 659.893,95.3764 660.5,95.5C 661.497,88.8665 661.83,82.1998 661.5,75.5C 663.167,74.5 664.5,73.1667 665.5,71.5C 668.482,71.0371 671.482,70.7038 674.5,70.5 Z M 644.5,101.5 C 647.902,101.342 651.236,101.676 654.5,102.5C 655.167,103.833 656.167,104.833 657.5,105.5C 660.863,112.705 661.197,120.038 658.5,127.5C 657.512,128.795 656.512,130.128 655.5,131.5C 654.508,131.328 653.842,131.662 653.5,132.5C 648.085,133.396 643.418,132.063 639.5,128.5C 639.443,127.391 639.11,126.391 638.5,125.5C 639.364,122.644 639.03,119.811 637.5,117C 638.973,113.664 639.64,110.164 639.5,106.5C 640.833,104.5 642.5,102.833 644.5,101.5 Z"/></g>
<g><path style="opacity:0.255" fill="#bdc2d3" d="M 214.5,72.5 C 222.307,74.0798 229.641,76.7464 236.5,80.5C 228.884,78.3471 221.551,75.6805 214.5,72.5 Z"/></g>
<g><path style="opacity:0.784" fill="#888fb1" d="M 102.5,74.5 C 100.383,76.6545 97.716,77.6545 94.5,77.5C 96.8902,75.9802 99.5568,74.9802 102.5,74.5 Z"/></g>
<g><path style="opacity:0.322" fill="#aeb3c9" d="M 94.5,77.5 C 92.5739,79.2927 90.2406,80.2927 87.5,80.5C 89.4261,78.7073 91.7594,77.7073 94.5,77.5 Z"/></g>
<g><path style="opacity:0.745" fill="#5c6c99" d="M 661.5,75.5 C 661.83,82.1998 661.497,88.8665 660.5,95.5C 659.893,95.3764 659.56,95.0431 659.5,94.5C 660.488,89.3595 660.821,84.0262 660.5,78.5C 660.263,77.209 660.596,76.209 661.5,75.5 Z"/></g>
<g><path style="opacity:0.259" fill="#c0c5d6" d="M 236.5,80.5 C 240.655,81.7417 244.322,83.7417 247.5,86.5C 243.345,85.2583 239.678,83.2583 236.5,80.5 Z"/></g>
<g><path style="opacity:0.584" fill="#a2a8c1" d="M 77.5,85.5 C 77.0269,86.9063 76.0269,87.573 74.5,87.5C 74.9731,86.0937 75.9731,85.427 77.5,85.5 Z"/></g>
<g><path style="opacity:0.006" fill="#dee0e5" d="M 660.5,78.5 C 660.821,84.0262 660.488,89.3595 659.5,94.5C 658.211,93.3634 657.211,92.0301 656.5,90.5C 657.833,90.1667 657.833,89.8333 656.5,89.5C 657.469,88.6906 658.302,87.6906 659,86.5C 659.183,83.6353 659.683,80.9686 660.5,78.5 Z"/></g>
<g><path style="opacity:0.29" fill="#bcc1d3" d="M 247.5,86.5 C 249.674,86.7497 251.341,87.7497 252.5,89.5C 250.326,89.2503 248.659,88.2503 247.5,86.5 Z"/></g>
<g><path style="opacity:0.657" fill="#8e96b5" d="M 456.5,90.5 C 448.964,88.742 441.297,88.0753 433.5,88.5C 435.218,87.776 437.052,87.1094 439,86.5C 443.08,87.3002 447.247,87.8002 451.5,88C 453.491,88.3736 455.158,89.207 456.5,90.5 Z"/></g>
<g><path style="opacity:0.106" fill="#bcc1d1" d="M 724.5,91.5 C 716.208,87.5532 707.541,86.5532 698.5,88.5C 697.833,88.5 697.167,88.5 696.5,88.5C 697.609,87.71 698.942,87.21 700.5,87C 705.5,86.3333 710.5,86.3333 715.5,87C 719.11,87.4717 722.11,88.9717 724.5,91.5 Z"/></g>
<g><path style="opacity:0.875" fill="#9298b7" d="M 358.5,87.5 C 358.5,87.8333 358.5,88.1667 358.5,88.5C 353.13,88.3921 347.797,88.7255 342.5,89.5C 347.459,86.4689 352.792,85.8022 358.5,87.5 Z"/></g>
<g><path style="opacity:1" fill="#253271" d="M 358.5,88.5 C 360.117,89.038 361.784,89.3713 363.5,89.5C 365.027,89.427 366.027,90.0937 366.5,91.5C 369.489,95.5248 372.156,95.1914 374.5,90.5C 374.842,89.6618 375.508,89.3284 376.5,89.5C 382.797,88.6803 389.131,88.347 395.5,88.5C 396.659,90.2503 398.326,91.2503 400.5,91.5C 401.167,92.8333 402.167,93.8333 403.5,94.5C 403.738,96.4044 404.738,97.7377 406.5,98.5C 406.372,100.655 406.872,102.655 408,104.5C 408.5,117.829 408.667,131.163 408.5,144.5C 404.5,144.5 400.5,144.5 396.5,144.5C 396.667,132.829 396.5,121.162 396,109.5C 395.768,108.263 395.268,107.263 394.5,106.5C 394.573,104.973 393.906,103.973 392.5,103.5C 391.508,103.672 390.842,103.338 390.5,102.5C 387.696,101.362 384.696,101.195 381.5,102C 380.944,102.383 380.611,102.883 380.5,103.5C 380.167,104.5 379.5,105.167 378.5,105.5C 377.883,105.611 377.383,105.944 377,106.5C 376.5,119.162 376.333,131.829 376.5,144.5C 371.833,144.5 367.167,144.5 362.5,144.5C 362.5,137.833 362.5,131.167 362.5,124.5C 362.823,118.31 362.49,112.31 361.5,106.5C 361.573,104.973 360.906,103.973 359.5,103.5C 354.414,101.718 349.748,102.385 345.5,105.5C 344.883,105.611 344.383,105.944 344,106.5C 343.5,119.162 343.333,131.829 343.5,144.5C 338.833,144.5 334.167,144.5 329.5,144.5C 329.333,131.163 329.5,117.829 330,104.5C 330.67,101.826 331.837,99.4927 333.5,97.5C 336.167,95.5 338.5,93.1667 340.5,90.5C 340.842,89.6618 341.508,89.3284 342.5,89.5C 347.797,88.7255 353.13,88.3921 358.5,88.5 Z"/></g>
<g><path style="opacity:0.349" fill="#bbc0d3" d="M 358.5,88.5 C 358.5,88.1667 358.5,87.8333 358.5,87.5C 360.553,87.4021 362.22,88.0687 363.5,89.5C 361.784,89.3713 360.117,89.038 358.5,88.5 Z"/></g>
<g><path style="opacity:0.918" fill="#969bb8" d="M 395.5,88.5 C 389.131,88.347 382.797,88.6803 376.5,89.5C 378.109,88.2291 379.942,87.2291 382,86.5C 386.574,86.0529 391.074,86.7195 395.5,88.5 Z"/></g>
<g><path style="opacity:1" fill="#212f6e" d="M 433.5,88.5 C 441.297,88.0753 448.964,88.742 456.5,90.5C 457.492,90.3284 458.158,90.6618 458.5,91.5C 460.167,93.8333 462.167,95.8333 464.5,97.5C 464.427,99.0269 465.094,100.027 466.5,100.5C 466.69,103.855 467.69,106.855 469.5,109.5C 469.5,113.167 469.5,116.833 469.5,120.5C 456.167,120.5 442.833,120.5 429.5,120.5C 429.216,122.415 429.549,124.081 430.5,125.5C 430.328,126.492 430.662,127.158 431.5,127.5C 432.167,130.167 433.833,131.833 436.5,132.5C 442.52,135.497 448.187,134.831 453.5,130.5C 458.167,130.5 462.833,130.5 467.5,130.5C 467.5,131.5 467.5,132.5 467.5,133.5C 466.094,133.973 465.427,134.973 465.5,136.5C 463.833,138.833 461.833,140.833 459.5,142.5C 455.596,143.809 451.596,144.809 447.5,145.5C 443.818,145.665 440.152,145.499 436.5,145C 433.647,143.57 430.647,142.737 427.5,142.5C 426.508,142.672 425.842,142.338 425.5,141.5C 423.452,138.785 421.118,136.452 418.5,134.5C 417.662,134.158 417.328,133.492 417.5,132.5C 415.716,124.294 415.05,115.961 415.5,107.5C 415.232,105.901 415.566,104.568 416.5,103.5C 417.674,102.486 418.34,101.153 418.5,99.5C 421.167,96.8333 423.833,94.1667 426.5,91.5C 426.842,90.6618 427.508,90.3284 428.5,90.5C 430.698,90.8799 432.365,90.2132 433.5,88.5 Z M 452.5,105.5 C 453.038,107.117 453.371,108.784 453.5,110.5C 447.167,110.5 440.833,110.5 434.5,110.5C 434.918,109.778 435.584,109.278 436.5,109C 434.011,106.566 434.011,104.066 436.5,101.5C 442.741,99.4343 448.074,100.768 452.5,105.5 Z"/></g>
<g><path style="opacity:1" fill="#202e6e" d="M 496.5,104.5 C 494.5,104.5 493.5,105.5 493.5,107.5C 492.21,108.058 491.377,109.058 491,110.5C 490.5,121.828 490.333,133.162 490.5,144.5C 485.833,144.5 481.167,144.5 476.5,144.5C 476.5,132.5 476.5,120.5 476.5,108.5C 476.5,108.167 476.5,107.833 476.5,107.5C 477.931,106.22 478.598,104.553 478.5,102.5C 481.123,98.2092 484.456,94.5425 488.5,91.5C 491.425,91.5402 494.091,90.7068 496.5,89C 500.486,88.5012 504.486,88.3345 508.5,88.5C 508.5,93.1667 508.5,97.8333 508.5,102.5C 505.15,102.335 501.817,102.502 498.5,103C 497.584,103.278 496.918,103.778 496.5,104.5 Z"/></g>
<g><path style="opacity:0.588" fill="#a9aec6" d="M 548.5,88.5 C 540.021,88.05 531.688,88.7167 523.5,90.5C 531.55,86.1014 539.883,85.4347 548.5,88.5 Z"/></g>
<g><path style="opacity:0.71" fill="#9ca1bd" d="M 609.5,90.5 C 599.148,87.8352 588.815,87.8352 578.5,90.5C 583.13,87.6002 588.297,86.2669 594,86.5C 599.703,86.2669 604.87,87.6002 609.5,90.5 Z"/></g>
<g><path style="opacity:1" fill="#283372" d="M 609.5,90.5 C 610.492,90.3284 611.158,90.6618 611.5,91.5C 612.5,93.1667 613.833,94.5 615.5,95.5C 615.66,97.153 616.326,98.4863 617.5,99.5C 618.166,103.988 618.499,108.654 618.5,113.5C 618.692,120.404 618.025,127.07 616.5,133.5C 615.094,133.973 614.427,134.973 614.5,136.5C 614.672,137.492 614.338,138.158 613.5,138.5C 611.596,138.738 610.262,139.738 609.5,141.5C 607.181,141.992 605.181,142.992 603.5,144.5C 594.059,146.125 584.726,145.792 575.5,143.5C 574.738,141.738 573.404,140.738 571.5,140.5C 570.326,139.486 569.66,138.153 569.5,136.5C 569.5,131.5 569.5,126.5 569.5,121.5C 570.906,121.027 571.573,120.027 571.5,118.5C 572.833,117.833 573.833,116.833 574.5,115.5C 583.294,112.606 592.294,110.439 601.5,109C 604.002,106.299 604.002,103.799 601.5,101.5C 595.648,98.442 590.314,99.1087 585.5,103.5C 584.596,104.209 584.263,105.209 584.5,106.5C 579.833,106.5 575.167,106.5 570.5,106.5C 570.833,103.833 571.167,101.167 571.5,98.5C 572.906,98.0269 573.573,97.0269 573.5,95.5C 575.5,94.1667 577.167,92.5 578.5,90.5C 588.815,87.8352 599.148,87.8352 609.5,90.5 Z M 601.5,127.5 C 600.326,128.514 599.66,129.847 599.5,131.5C 597.973,131.427 596.973,132.094 596.5,133.5C 596.167,133.5 595.833,133.5 595.5,133.5C 592.167,134.833 588.833,134.833 585.5,133.5C 583.946,129.61 584.279,125.943 586.5,122.5C 589.373,122.198 592.039,121.531 594.5,120.5C 596.591,120.682 598.591,120.348 600.5,119.5C 601.48,122.086 601.813,124.753 601.5,127.5 Z"/></g>
<g><path style="opacity:0.827" fill="#a5aac2" d="M 656.5,89.5 C 656.5,89.8333 656.5,90.1667 656.5,90.5C 649.618,88.2329 642.618,87.8996 635.5,89.5C 642.365,85.62 649.365,85.62 656.5,89.5 Z"/></g>
<g><path style="opacity:1" fill="#253270" d="M 724.5,91.5 C 726.167,93.8333 728.167,95.8333 730.5,97.5C 730.427,99.0269 731.094,100.027 732.5,100.5C 732.69,103.855 733.69,106.855 735.5,109.5C 736.833,114.833 736.833,120.167 735.5,125.5C 733.597,128.979 731.93,132.646 730.5,136.5C 728.761,139.243 726.427,141.243 723.5,142.5C 721.847,142.66 720.514,143.326 719.5,144.5C 718.791,145.404 717.791,145.737 716.5,145.5C 710.5,145.5 704.5,145.5 698.5,145.5C 697.22,144.069 695.553,143.402 693.5,143.5C 692.508,143.672 691.842,143.338 691.5,142.5C 690.167,140.5 688.5,138.833 686.5,137.5C 684.738,136.738 683.738,135.404 683.5,133.5C 683.293,130.759 682.293,128.426 680.5,126.5C 680.169,123.175 679.836,119.841 679.5,116.5C 680.033,111.374 681.033,106.374 682.5,101.5C 684.162,99.6373 685.829,97.6373 687.5,95.5C 689.473,94.194 691.139,92.5273 692.5,90.5C 694.898,90.7406 696.898,90.0739 698.5,88.5C 707.541,86.5532 716.208,87.5532 724.5,91.5 Z M 713.5,101.5 C 713.842,102.338 714.508,102.672 715.5,102.5C 716.026,104.23 717.026,105.564 718.5,106.5C 719.521,112.13 719.687,117.796 719,123.5C 718.258,126.238 716.758,128.905 714.5,131.5C 708.764,133.329 703.43,132.662 698.5,129.5C 695.954,122.625 695.288,115.292 696.5,107.5C 697.906,107.027 698.573,106.027 698.5,104.5C 699.5,104.167 700.167,103.5 700.5,102.5C 704.623,100.279 708.957,99.9457 713.5,101.5 Z"/></g>
<g><path style="opacity:0.533" fill="#abb1c7" d="M 72.5,88.5 C 72.0269,89.9063 71.0269,90.573 69.5,90.5C 69.9731,89.0937 70.9731,88.427 72.5,88.5 Z"/></g>
<g><path style="opacity:0.384" fill="#a9afc5" d="M 395.5,88.5 C 397.674,88.7497 399.341,89.7497 400.5,91.5C 398.326,91.2503 396.659,90.2503 395.5,88.5 Z"/></g>
<g><path style="opacity:0.902" fill="#828aae" d="M 433.5,88.5 C 432.365,90.2132 430.698,90.8799 428.5,90.5C 429.78,89.0687 431.447,88.4021 433.5,88.5 Z"/></g>
<g><path style="opacity:1" fill="#23306f" d="M 548.5,88.5 C 549.635,90.2132 551.302,90.8799 553.5,90.5C 554.492,90.3284 555.158,90.6618 555.5,91.5C 556.785,93.4516 558.451,95.1182 560.5,96.5C 562.316,100.284 563.316,104.284 563.5,108.5C 557.865,109.037 552.532,108.37 547.5,106.5C 546.662,106.158 546.328,105.492 546.5,104.5C 546.5,102.5 545.5,101.5 543.5,101.5C 540.167,98.8333 536.833,98.8333 533.5,101.5C 532.71,102.401 531.71,103.068 530.5,103.5C 529.094,103.973 528.427,104.973 528.5,106.5C 526.981,109.526 526.315,112.859 526.5,116.5C 526.503,119.025 526.837,121.359 527.5,123.5C 527.5,123.833 527.5,124.167 527.5,124.5C 527.755,126.967 528.755,128.967 530.5,130.5C 531.167,130.833 531.833,131.167 532.5,131.5C 533.871,132.787 535.705,133.453 538,133.5C 539.833,133.333 541.667,133.167 543.5,133C 545.426,132.578 546.426,131.411 546.5,129.5C 548.213,128.365 548.88,126.698 548.5,124.5C 553.5,124.5 558.5,124.5 563.5,124.5C 563.5,125.833 563.5,127.167 563.5,128.5C 563.598,130.553 562.931,132.22 561.5,133.5C 560.094,133.973 559.427,134.973 559.5,136.5C 558.167,138.5 556.5,140.167 554.5,141.5C 552.326,141.75 550.659,142.75 549.5,144.5C 548.432,145.434 547.099,145.768 545.5,145.5C 540.489,145.666 535.489,145.499 530.5,145C 527.647,143.57 524.647,142.737 521.5,142.5C 519.452,139.785 517.118,137.452 514.5,135.5C 511.57,127.776 510.237,119.776 510.5,111.5C 512.025,108.417 513.025,105.084 513.5,101.5C 513.328,100.508 513.662,99.8417 514.5,99.5C 517.833,96.8333 520.833,93.8333 523.5,90.5C 531.688,88.7167 540.021,88.05 548.5,88.5 Z"/></g>
<g><path style="opacity:0.671" fill="#9ea6c2" d="M 548.5,88.5 C 550.553,88.4021 552.22,89.0687 553.5,90.5C 551.302,90.8799 549.635,90.2132 548.5,88.5 Z"/></g>
<g><path style="opacity:0.945" fill="#69719c" d="M 696.5,88.5 C 697.167,88.5 697.833,88.5 698.5,88.5C 696.898,90.0739 694.898,90.7406 692.5,90.5C 693.514,89.3263 694.847,88.6596 696.5,88.5 Z"/></g>
<g><path style="opacity:0.808" fill="#888fb2" d="M 635.5,89.5 C 635.027,90.9063 634.027,91.573 632.5,91.5C 632.973,90.0937 633.973,89.427 635.5,89.5 Z"/></g>
<g><path style="opacity:0.553" fill="#9ba1bd" d="M 69.5,90.5 C 68.7377,92.2624 67.4044,93.2624 65.5,93.5C 66.2623,91.7376 67.5956,90.7376 69.5,90.5 Z"/></g>
<g><path style="opacity:0.055" fill="#b7bbce" d="M 254.5,90.5 C 256.23,91.0256 257.564,92.0256 258.5,93.5C 256.368,93.4456 255.035,92.4456 254.5,90.5 Z"/></g>
<g><path style="opacity:0.486" fill="#b8bdd0" d="M 374.5,90.5 C 372.156,95.1914 369.489,95.5248 366.5,91.5C 368.017,91.5106 369.184,92.1772 370,93.5C 371.129,91.8588 372.629,90.8588 374.5,90.5 Z"/></g>
<g><path style="opacity:0.031" fill="#c6c9d6" d="M 400.5,91.5 C 402.5,91.5 403.5,92.5 403.5,94.5C 402.167,93.8333 401.167,92.8333 400.5,91.5 Z"/></g>
<g><path style="opacity:0.024" fill="#c8ccda" d="M 458.5,91.5 C 461.5,92.5 463.5,94.5 464.5,97.5C 462.167,95.8333 460.167,93.8333 458.5,91.5 Z"/></g>
<g><path style="opacity:0.015" fill="#ededed" d="M 512.5,90.5 C 514.086,91.1481 515.753,91.6481 517.5,92C 516.667,92.1667 515.833,92.3333 515,92.5C 513.624,92.3158 512.791,91.6491 512.5,90.5 Z"/></g>
<g><path style="opacity:0.404" fill="#c4c7d5" d="M 578.5,90.5 C 577.167,92.5 575.5,94.1667 573.5,95.5C 573.389,94.8826 573.056,94.3826 572.5,94C 574.667,93.1667 576.167,91.6667 577,89.5C 577.383,90.056 577.883,90.3893 578.5,90.5 Z"/></g>
<g><path style="opacity:0.031" fill="#bec3d3" d="M 611.5,91.5 C 613.833,91.8333 615.167,93.1667 615.5,95.5C 613.833,94.5 612.5,93.1667 611.5,91.5 Z"/></g>
<g><path style="opacity:0.039" fill="#b8bed1" d="M 724.5,91.5 C 727.5,92.5 729.5,94.5 730.5,97.5C 728.167,95.8333 726.167,93.8333 724.5,91.5 Z"/></g>
<g><path style="opacity:0.447" fill="#c2c5d5" d="M 426.5,91.5 C 423.833,94.1667 421.167,96.8333 418.5,99.5C 419.833,95.5 422.5,92.8333 426.5,91.5 Z"/></g>
<g><path style="opacity:0.018" fill="#c5c8d7" d="M 488.5,91.5 C 484.456,94.5425 481.123,98.2092 478.5,102.5C 479.421,96.5809 482.755,92.9142 488.5,91.5 Z"/></g>
<g><path style="opacity:0.166" fill="#bbbfd1" d="M 496.5,104.5 C 496.918,103.778 497.584,103.278 498.5,103C 501.817,102.502 505.15,102.335 508.5,102.5C 508.5,97.8333 508.5,93.1667 508.5,88.5C 504.486,88.3345 500.486,88.5012 496.5,89C 494.091,90.7068 491.425,91.5402 488.5,91.5C 492.538,88.7628 497.038,87.0962 502,86.5C 504.133,87.4177 506.3,87.5844 508.5,87C 509.473,92.4066 509.807,97.9066 509.5,103.5C 505.119,103.372 500.785,103.705 496.5,104.5 Z"/></g>
<g><path style="opacity:0.745" fill="#8b91b2" d="M 523.5,90.5 C 520.833,93.8333 517.833,96.8333 514.5,99.5C 516.5,95.5 519.5,92.5 523.5,90.5 Z"/></g>
<g><path style="opacity:0.451" fill="#aab0c7" d="M 555.5,91.5 C 558.189,92.1894 559.856,93.856 560.5,96.5C 558.451,95.1182 556.785,93.4516 555.5,91.5 Z"/></g>
<g><path style="opacity:0.007" fill="#c6cad7" d="M 632.5,91.5 C 630.5,93.5 628.5,95.5 626.5,97.5C 626.672,96.5084 626.338,95.8417 625.5,95.5C 627.454,93.7304 629.787,92.3971 632.5,91.5 Z"/></g>
<g><path style="opacity:0.009" fill="#d9dae2" d="M 692.5,90.5 C 691.139,92.5273 689.473,94.194 687.5,95.5C 687.167,95.5 686.833,95.5 686.5,95.5C 686.167,94.1667 685.833,94.1667 685.5,95.5C 684.833,95.5 684.5,95.8333 684.5,96.5C 683.833,96.5 683.5,96.8333 683.5,97.5C 682.25,97.5774 681.417,98.244 681,99.5C 680.749,97.567 680.249,95.7337 679.5,94C 680.744,93.5439 681.577,94.0439 682,95.5C 685.613,94.0899 689.113,92.4233 692.5,90.5 Z"/></g>
<g><path style="opacity:0.008" fill="#b8bdd1" d="M 258.5,93.5 C 260.754,94.1237 262.421,95.457 263.5,97.5C 261.205,96.8645 259.539,95.5311 258.5,93.5 Z"/></g>
<g><path style="opacity:0.58" fill="#a8aec6" d="M 340.5,90.5 C 338.5,93.1667 336.167,95.5 333.5,97.5C 334.833,94.1667 337.167,91.8333 340.5,90.5 Z"/></g>
<g><path style="opacity:0.871" fill="#7f88ac" d="M 403.5,94.5 C 405.262,95.2623 406.262,96.5956 406.5,98.5C 404.738,97.7377 403.738,96.4044 403.5,94.5 Z"/></g>
<g><path style="opacity:0.007" fill="#eeefee" d="M 625.5,95.5 C 625.5,96.1667 625.5,96.8333 625.5,97.5C 624.662,97.8417 624.328,98.5084 624.5,99.5C 623.833,99.5 623.5,99.8333 623.5,100.5C 622.133,98.2104 622.8,96.5437 625.5,95.5 Z"/></g>
<g><path style="opacity:0.882" fill="#7981a8" d="M 65.5,93.5 C 64.4154,95.5869 62.7488,96.9202 60.5,97.5C 61.5846,95.4131 63.2512,94.0798 65.5,93.5 Z"/></g>
<g><path style="opacity:0.794" fill="#546292" d="M 674.5,70.5 C 675.497,88.9925 675.83,107.659 675.5,126.5C 675.741,128.898 675.074,130.898 673.5,132.5C 674.454,111.86 674.787,91.1934 674.5,70.5 Z"/></g>
<g><path style="opacity:0.322" fill="#a6acc4" d="M 573.5,95.5 C 573.573,97.0269 572.906,98.0269 571.5,98.5C 571.427,96.9731 572.094,95.9731 573.5,95.5 Z"/></g>
<g><path style="opacity:0.11" fill="#c3c7d5" d="M 615.5,95.5 C 617.104,96.287 617.771,97.6203 617.5,99.5C 616.326,98.4863 615.66,97.153 615.5,95.5 Z"/></g>
<g><path style="opacity:0.008" fill="#eeefee" d="M 569.5,101.5 C 568.732,102.263 568.232,103.263 568,104.5C 567.18,102.272 567.513,100.272 569,98.5C 569.483,99.448 569.649,100.448 569.5,101.5 Z"/></g>
<g><path style="opacity:0.008" fill="#c9cedc" d="M 265.5,99.5 C 269.167,101.167 271.833,103.833 273.5,107.5C 270.5,105.167 267.833,102.5 265.5,99.5 Z"/></g>
<g><path style="opacity:0.025" fill="#dfe1e6" d="M 418.5,99.5 C 418.34,101.153 417.674,102.486 416.5,103.5C 416.157,101.517 416.824,100.183 418.5,99.5 Z"/></g>
<g><path style="opacity:0.475" fill="#8e95b5" d="M 452.5,105.5 C 448.074,100.768 442.741,99.4343 436.5,101.5C 436.167,101.5 435.833,101.5 435.5,101.5C 435.918,100.778 436.584,100.278 437.5,100C 440.833,99.3333 444.167,99.3333 447.5,100C 450.079,101.076 451.746,102.909 452.5,105.5 Z"/></g>
<g><path style="opacity:0.345" fill="#b3bacd" d="M 464.5,97.5 C 465.906,97.9731 466.573,98.9731 466.5,100.5C 465.094,100.027 464.427,99.0269 464.5,97.5 Z"/></g>
<g><path style="opacity:0.68" fill="#8792b4" d="M 543.5,101.5 C 540.167,100.167 536.833,100.167 533.5,101.5C 536.833,98.8333 540.167,98.8333 543.5,101.5 Z"/></g>
<g><path style="opacity:0.271" fill="#abb1c8" d="M 713.5,101.5 C 708.957,99.9457 704.623,100.279 700.5,102.5C 702.056,100.012 704.389,99.0118 707.5,99.5C 709.167,99.6667 710.833,99.8333 712.5,100C 713.056,100.383 713.389,100.883 713.5,101.5 Z"/></g>
<g><path style="opacity:0.325" fill="#b6bbcf" d="M 730.5,97.5 C 731.906,97.9731 732.573,98.9731 732.5,100.5C 731.094,100.027 730.427,99.0269 730.5,97.5 Z"/></g>
<g><path style="opacity:0.133" fill="#d7d8e2" d="M 675.5,126.5 C 675.83,107.659 675.497,88.9925 674.5,70.5C 671.482,70.7038 668.482,71.0371 665.5,71.5C 665.918,70.7784 666.584,70.2784 667.5,70C 670.482,69.502 673.482,69.3354 676.5,69.5C 676.83,88.674 676.497,107.674 675.5,126.5 Z"/></g>
<g><path style="opacity:0.925" fill="#8187ab" d="M 685.5,95.5 C 685.833,95.5 686.167,95.5 686.5,95.5C 686.833,95.5 687.167,95.5 687.5,95.5C 685.829,97.6373 684.162,99.6373 682.5,101.5C 682.833,100.167 683.167,98.8333 683.5,97.5C 684.167,97.5 684.5,97.1667 684.5,96.5C 685.167,96.5 685.5,96.1667 685.5,95.5 Z"/></g>
<g><path style="opacity:0.596" fill="#a6acc3" d="M 543.5,101.5 C 545.5,101.5 546.5,102.5 546.5,104.5C 545.167,103.833 544.167,102.833 543.5,101.5 Z"/></g>
<g><path style="opacity:0.376" fill="#adb3ca" d="M 644.5,101.5 C 647.304,100.362 650.304,100.195 653.5,101C 654.056,101.383 654.389,101.883 654.5,102.5C 651.236,101.676 647.902,101.342 644.5,101.5 Z"/></g>
<g><path style="opacity:1" fill="#273573" d="M 138.5,66.5 C 141.5,66.5 144.5,66.5 147.5,66.5C 159.833,66.5 172.167,66.5 184.5,66.5C 185.167,66.5 185.833,66.5 186.5,66.5C 189.845,68.217 193.511,68.8836 197.5,68.5C 199.415,68.2155 201.081,68.5489 202.5,69.5C 206.2,71.2809 210.2,72.2809 214.5,72.5C 221.551,75.6805 228.884,78.3471 236.5,80.5C 239.678,83.2583 243.345,85.2583 247.5,86.5C 248.659,88.2503 250.326,89.2503 252.5,89.5C 253.492,89.3284 254.158,89.6618 254.5,90.5C 255.035,92.4456 256.368,93.4456 258.5,93.5C 259.539,95.5311 261.205,96.8645 263.5,97.5C 264.5,97.8333 265.167,98.5 265.5,99.5C 267.833,102.5 270.5,105.167 273.5,107.5C 274.419,110.089 276.086,112.089 278.5,113.5C 278.427,115.027 279.094,116.027 280.5,116.5C 280.427,118.027 281.094,119.027 282.5,119.5C 283.674,120.514 284.34,121.847 284.5,123.5C 285.508,125.544 286.508,127.544 287.5,129.5C 290.001,140.315 291.001,151.315 290.5,162.5C 290.749,166.458 290.082,170.124 288.5,173.5C 286.733,175.792 285.733,178.458 285.5,181.5C 283.992,183.181 282.992,185.181 282.5,187.5C 281.326,188.514 280.66,189.847 280.5,191.5C 278.6,195.732 275.933,199.399 272.5,202.5C 268.5,205.833 264.833,209.5 261.5,213.5C 261.5,214.167 261.167,214.5 260.5,214.5C 258.973,214.427 257.973,215.094 257.5,216.5C 254.554,219.313 251.221,221.646 247.5,223.5C 245.62,223.229 244.287,223.896 243.5,225.5C 240.485,227.674 237.151,229.341 233.5,230.5C 230.351,230.415 227.684,231.415 225.5,233.5C 214.425,236.353 203.425,239.02 192.5,241.5C 186.312,241.757 180.312,242.423 174.5,243.5C 161.7,244.904 149.033,244.571 136.5,242.5C 135.737,241.732 134.737,241.232 133.5,241C 129.848,240.501 126.182,240.335 122.5,240.5C 118.526,238.425 114.192,237.425 109.5,237.5C 107.208,235.733 104.542,234.733 101.5,234.5C 98.1996,232.358 94.533,231.025 90.5,230.5C 89.209,230.737 88.209,230.404 87.5,229.5C 86.713,227.896 85.3797,227.229 83.5,227.5C 82.5084,227.672 81.8417,227.338 81.5,226.5C 81.0269,225.094 80.0269,224.427 78.5,224.5C 77.5084,224.672 76.8417,224.338 76.5,223.5C 76.0269,222.094 75.0269,221.427 73.5,221.5C 72.5084,221.672 71.8417,221.338 71.5,220.5C 71.0269,219.094 70.0269,218.427 68.5,218.5C 67.4154,216.413 65.7488,215.08 63.5,214.5C 61.4309,211.427 58.7642,209.094 55.5,207.5C 54.5,207.167 53.8333,206.5 53.5,205.5C 52.9202,203.251 51.5869,201.585 49.5,200.5C 48.5,200.167 47.8333,199.5 47.5,198.5C 47.573,196.973 46.9063,195.973 45.5,195.5C 45.573,193.973 44.9063,192.973 43.5,192.5C 42.6618,192.158 42.3284,191.492 42.5,190.5C 40.1484,185.09 37.8151,179.756 35.5,174.5C 34.5655,173.432 34.2322,172.099 34.5,170.5C 34.7678,168.901 34.4345,167.568 33.5,166.5C 32.1847,157.598 32.1847,148.598 33.5,139.5C 35.0395,137.162 35.7062,134.495 35.5,131.5C 38.5562,129.353 39.8895,126.353 39.5,122.5C 41.4077,121.514 42.4077,119.848 42.5,117.5C 43.9063,117.027 44.573,116.027 44.5,114.5C 46.2624,113.738 47.2624,112.404 47.5,110.5C 52.1667,106.5 56.5,102.167 60.5,97.5C 62.7488,96.9202 64.4154,95.5869 65.5,93.5C 67.4044,93.2624 68.7377,92.2624 69.5,90.5C 71.0269,90.573 72.0269,89.9063 72.5,88.5C 72.8417,87.6618 73.5084,87.3284 74.5,87.5C 76.0269,87.573 77.0269,86.9063 77.5,85.5C 80.5154,83.3256 83.8487,81.6589 87.5,80.5C 90.2406,80.2927 92.5739,79.2927 94.5,77.5C 97.716,77.6545 100.383,76.6545 102.5,74.5C 103.568,73.5655 104.901,73.2322 106.5,73.5C 108.898,73.7406 110.898,73.0739 112.5,71.5C 120.81,68.5957 129.477,66.929 138.5,66.5 Z"/></g>
<g><path style="opacity:1" fill="#fbfbfc" d="M 126.5,133.5 C 129.976,134.643 133.642,134.81 137.5,134C 138.056,133.617 138.389,133.117 138.5,132.5C 145.232,128.608 151.565,124.108 157.5,119C 161.486,116.335 165.819,115.335 170.5,116C 174.828,117.829 178.828,120.162 182.5,123C 198.614,136.48 214.448,150.313 230,164.5C 230.961,173.013 227.127,176.18 218.5,174C 211.833,168 205.167,162 198.5,156C 197.552,155.517 196.552,155.351 195.5,155.5C 195.351,156.552 195.517,157.552 196,158.5C 202,164.5 208,170.5 214,176.5C 214.879,185.607 210.712,189.107 201.5,187C 197.5,183 193.5,179 189.5,175C 187.783,173.441 185.783,172.608 183.5,172.5C 188.101,178.784 192.768,185.118 197.5,191.5C 195.842,196.997 192.175,198.83 186.5,197C 182.28,192.277 177.613,188.11 172.5,184.5C 170.899,185.035 170.399,186.035 171,187.5C 175.059,191.056 178.559,195.056 181.5,199.5C 180.68,201.111 179.346,201.778 177.5,201.5C 173.767,201.13 170.101,200.463 166.5,199.5C 168.81,189.111 165.143,182.111 155.5,178.5C 154.791,177.596 153.791,177.263 152.5,177.5C 152.784,175.585 152.451,173.919 151.5,172.5C 148.062,164.943 142.062,161.776 133.5,163C 127.745,156.429 120.912,154.929 113,158.5C 109.793,156.766 106.46,155.433 103,154.5C 99.8935,154.807 97.0602,155.807 94.5,157.5C 76.9713,148.996 58.638,142.996 39.5,139.5C 42.5396,122.786 51.2063,109.786 65.5,100.5C 83.0603,108.31 101.394,111.81 120.5,111C 123.253,109.228 126.253,108.562 129.5,109C 125.348,114.119 120.848,118.952 116,123.5C 115.953,130.283 119.453,133.617 126.5,133.5 Z"/></g>
<g><path style="opacity:0.999" fill="#fbfbfc" d="M 263.5,145.5 C 261.447,145.402 259.78,146.069 258.5,147.5C 248.746,150.727 239.079,153.894 229.5,157C 211.869,141.524 193.869,126.524 175.5,112C 170.905,110.607 166.239,110.274 161.5,111C 152.647,115.925 144.314,121.591 136.5,128C 131.53,130.152 126.696,129.986 122,127.5C 121.333,126.5 121.333,125.5 122,124.5C 128.871,115.962 136.704,108.462 145.5,102C 155.731,97.6985 166.398,96.3652 177.5,98C 186.765,100.753 195.765,104.087 204.5,108C 222.722,112.339 240.389,110.672 257.5,103C 258.833,102.333 260.167,102.333 261.5,103C 273.889,112.612 281.555,125.112 284.5,140.5C 277.349,141.53 270.349,143.197 263.5,145.5 Z"/></g>
<g><path style="opacity:1" fill="#01b2e9" d="M 144.5,70.5 C 177.321,68.0969 208.654,73.5969 238.5,87C 244.304,90.4052 249.97,94.0718 255.5,98C 233.143,108.414 211.143,107.747 189.5,96C 175.911,91.8214 162.245,91.4881 148.5,95C 144.697,97.0711 141.03,99.4044 137.5,102C 129.917,102.597 122.584,104.263 115.5,107C 99.7664,106.71 84.7664,103.21 70.5,96.5C 80.7957,88.8509 92.129,83.0176 104.5,79C 117.801,75.4 131.134,72.5667 144.5,70.5 Z"/></g>
<g><path style="opacity:0.075" fill="#c7cad8" d="M 390.5,102.5 C 387.098,102.342 383.764,102.676 380.5,103.5C 380.611,102.883 380.944,102.383 381.5,102C 384.696,101.195 387.696,101.362 390.5,102.5 Z"/></g>
<g><path style="opacity:0.596" fill="#b0b5cb" d="M 654.5,102.5 C 656.5,102.5 657.5,103.5 657.5,105.5C 656.167,104.833 655.167,103.833 654.5,102.5 Z"/></g>
<g><path style="opacity:0.071" fill="#c8ccd9" d="M 700.5,102.5 C 700.167,103.5 699.5,104.167 698.5,104.5C 698.5,103.167 699.167,102.5 700.5,102.5 Z"/></g>
<g><path style="opacity:0.922" fill="#878fb1" d="M 466.5,100.5 C 468.472,103.084 469.472,106.084 469.5,109.5C 467.69,106.855 466.69,103.855 466.5,100.5 Z"/></g>
<g><path style="opacity:0.976" fill="#7a81a8" d="M 732.5,100.5 C 734.472,103.084 735.472,106.084 735.5,109.5C 733.69,106.855 732.69,103.855 732.5,100.5 Z"/></g>
<g><path style="opacity:0.02" fill="#c7cad8" d="M 359.5,103.5 C 360.906,103.973 361.573,104.973 361.5,106.5C 360.094,106.027 359.427,105.027 359.5,103.5 Z"/></g>
<g><path style="opacity:0.016" fill="#d2d5e1" d="M 392.5,103.5 C 393.906,103.973 394.573,104.973 394.5,106.5C 393.094,106.027 392.427,105.027 392.5,103.5 Z"/></g>
<g><path style="opacity:0.012" fill="#dfe0e6" d="M 435.5,101.5 C 435.833,101.5 436.167,101.5 436.5,101.5C 434.011,104.066 434.011,106.566 436.5,109C 435.584,109.278 434.918,109.778 434.5,110.5C 433.833,110.5 433.167,110.5 432.5,110.5C 432.167,109.167 431.833,109.167 431.5,110.5C 431.167,110.5 430.833,110.5 430.5,110.5C 430.355,106.453 432.022,103.453 435.5,101.5 Z"/></g>
<g><path style="opacity:0.439" fill="#abb1c9" d="M 715.5,102.5 C 717.446,103.035 718.446,104.368 718.5,106.5C 717.026,105.564 716.026,104.23 715.5,102.5 Z"/></g>
<g><path style="opacity:0.11" fill="#d7dbe5" d="M 478.5,102.5 C 478.598,104.553 477.931,106.22 476.5,107.5C 476.402,105.447 477.069,103.78 478.5,102.5 Z"/></g>
<g><path style="opacity:0.176" fill="#c0c6d7" d="M 530.5,103.5 C 530.573,105.027 529.906,106.027 528.5,106.5C 528.427,104.973 529.094,103.973 530.5,103.5 Z"/></g>
<g><path style="opacity:0.078" fill="#c1c5d4" d="M 496.5,104.5 C 495.833,105.833 494.833,106.833 493.5,107.5C 493.5,105.5 494.5,104.5 496.5,104.5 Z"/></g>
<g><path style="opacity:0.667" fill="#8991b2" d="M 513.5,101.5 C 513.025,105.084 512.025,108.417 510.5,111.5C 510.024,107.622 511.024,104.288 513.5,101.5 Z"/></g>
<g><path style="opacity:0.544" fill="#a7acc4" d="M 571.5,98.5 C 571.167,101.167 570.833,103.833 570.5,106.5C 575.167,106.5 579.833,106.5 584.5,106.5C 584.263,105.209 584.596,104.209 585.5,103.5C 585.5,104.833 585.5,106.167 585.5,107.5C 580.821,107.334 576.155,107.501 571.5,108C 570.975,108.692 570.308,109.192 569.5,109.5C 569.051,106.956 569.051,104.29 569.5,101.5C 570.167,100.5 570.833,99.5 571.5,98.5 Z"/></g>
<g><path style="opacity:0.184" fill="#c4c9d7" d="M 698.5,104.5 C 698.573,106.027 697.906,107.027 696.5,107.5C 696.427,105.973 697.094,104.973 698.5,104.5 Z"/></g>
<g><path style="opacity:0.604" fill="#8d94b4" d="M 60.5,97.5 C 56.5,102.167 52.1667,106.5 47.5,110.5C 50.8333,105.167 55.1667,100.833 60.5,97.5 Z"/></g>
<g><path style="opacity:0.007" fill="#eeeeee" d="M 544.5,107.5 C 545.267,108.172 545.934,109.005 546.5,110C 544.939,110.188 544.272,109.355 544.5,107.5 Z"/></g>
<g><path style="opacity:0.438" fill="#a0a7c0" d="M 560.5,96.5 C 564.003,100.031 565.337,104.364 564.5,109.5C 558.833,109.5 553.167,109.5 547.5,109.5C 547.5,108.5 547.5,107.5 547.5,106.5C 552.532,108.37 557.865,109.037 563.5,108.5C 563.316,104.284 562.316,100.284 560.5,96.5 Z"/></g>
<g><path style="opacity:0.012" fill="#eeeeee" d="M 575.5,113.5 C 573.397,111.982 573.23,110.315 575,108.5C 575.494,110.134 575.66,111.801 575.5,113.5 Z"/></g>
<g><path style="opacity:0.557" fill="#a0a6c1" d="M 273.5,107.5 C 275.914,108.911 277.581,110.911 278.5,113.5C 276.086,112.089 274.419,110.089 273.5,107.5 Z"/></g>
<g><path style="opacity:0.373" fill="#a7adc5" d="M 452.5,105.5 C 454.28,106.99 454.946,108.99 454.5,111.5C 446.316,111.826 438.316,111.492 430.5,110.5C 430.833,110.5 431.167,110.5 431.5,110.5C 431.833,110.5 432.167,110.5 432.5,110.5C 433.167,110.5 433.833,110.5 434.5,110.5C 440.833,110.5 447.167,110.5 453.5,110.5C 453.371,108.784 453.038,107.117 452.5,105.5 Z"/></g>
<g><path style="opacity:0.769" fill="#868daf" d="M 47.5,110.5 C 47.2624,112.404 46.2624,113.738 44.5,114.5C 44.7376,112.596 45.7376,111.262 47.5,110.5 Z"/></g>
<g><path style="opacity:0.01" fill="#eaeaec" d="M 361.5,106.5 C 362.49,112.31 362.823,118.31 362.5,124.5C 361.325,124.719 360.325,124.386 359.5,123.5C 361.388,118.062 362.054,112.395 361.5,106.5 Z"/></g>
<g><path style="opacity:0.694" fill="#989ebb" d="M 601.5,101.5 C 604.002,103.799 604.002,106.299 601.5,109C 592.294,110.439 583.294,112.606 574.5,115.5C 574.833,114.833 575.167,114.167 575.5,113.5C 583.716,111.241 592.05,109.407 600.5,108C 601.167,107 601.833,106 602.5,105C 601.663,103.989 601.33,102.822 601.5,101.5 Z"/></g>
<g><path style="opacity:0.125" fill="#cdd2de" d="M 528.5,106.5 C 527.708,112.13 527.375,117.797 527.5,123.5C 526.837,121.359 526.503,119.025 526.5,116.5C 526.315,112.859 526.981,109.526 528.5,106.5 Z"/></g>
<g><path style="opacity:0.726" fill="#979dba" d="M 624.5,99.5 C 624.833,99.5 625.167,99.5 625.5,99.5C 621.842,110.696 621.509,122.03 624.5,133.5C 623.207,132.158 622.374,130.491 622,128.5C 620.034,119.029 620.534,109.695 623.5,100.5C 624.167,100.5 624.5,100.167 624.5,99.5 Z"/></g>
<g><path style="opacity:0.416" fill="#aab0c7" d="M 696.5,107.5 C 695.288,115.292 695.954,122.625 698.5,129.5C 696.306,127.779 695.139,125.445 695,122.5C 694.333,118.5 694.333,114.5 695,110.5C 695.232,109.263 695.732,108.263 696.5,107.5 Z"/></g>
<g><path style="opacity:0.09" fill="#c5c9d9" d="M 718.5,106.5 C 719.117,106.611 719.617,106.944 720,107.5C 721.126,115.045 720.46,122.379 718,129.5C 717.184,130.823 716.017,131.489 714.5,131.5C 716.758,128.905 718.258,126.238 719,123.5C 719.687,117.796 719.521,112.13 718.5,106.5 Z"/></g>
<g><path style="opacity:0.412" fill="#adb2c8" d="M 278.5,113.5 C 279.906,113.973 280.573,114.973 280.5,116.5C 279.094,116.027 278.427,115.027 278.5,113.5 Z"/></g>
<g><path style="opacity:0.459" fill="#979ebb" d="M 44.5,114.5 C 44.573,116.027 43.9063,117.027 42.5,117.5C 42.427,115.973 43.0937,114.973 44.5,114.5 Z"/></g>
<g><path style="opacity:0.286" fill="#bec2d2" d="M 639.5,106.5 C 639.64,110.164 638.973,113.664 637.5,117C 639.03,119.811 639.364,122.644 638.5,125.5C 637.778,125.082 637.278,124.416 637,123.5C 636.333,119.167 636.333,114.833 637,110.5C 637.608,108.934 638.442,107.6 639.5,106.5 Z"/></g>
<g><path style="opacity:0.388" fill="#b1b7cb" d="M 574.5,115.5 C 573.833,116.833 572.833,117.833 571.5,118.5C 571.5,116.5 572.5,115.5 574.5,115.5 Z"/></g>
<g><path style="opacity:0.286" fill="#babed1" d="M 280.5,116.5 C 281.906,116.973 282.573,117.973 282.5,119.5C 281.094,119.027 280.427,118.027 280.5,116.5 Z"/></g>
<g><path style="opacity:0.073" fill="#c7cad8" d="M 682.5,101.5 C 681.033,106.374 680.033,111.374 679.5,116.5C 679.836,119.841 680.169,123.175 680.5,126.5C 679.778,126.082 679.278,125.416 679,124.5C 678.333,119.5 678.333,114.5 679,109.5C 679.705,106.524 680.871,103.858 682.5,101.5 Z"/></g>
<g><path style="opacity:0.688" fill="#626c98" d="M 600.5,118.5 C 601.209,117.596 602.209,117.263 603.5,117.5C 603.806,120.385 603.473,123.052 602.5,125.5C 603.01,122.612 602.344,120.279 600.5,118.5 Z"/></g>
<g><path style="opacity:0.486" fill="#96a0bc" d="M 469.5,109.5 C 470.483,113.298 470.817,117.298 470.5,121.5C 462.833,121.5 455.167,121.5 447.5,121.5C 446.167,121.5 444.833,121.5 443.5,121.5C 441.703,121.935 439.703,121.935 437.5,121.5C 435.5,121.5 433.5,121.5 431.5,121.5C 430.662,121.842 430.328,122.508 430.5,123.5C 430.5,124.167 430.5,124.833 430.5,125.5C 429.549,124.081 429.216,122.415 429.5,120.5C 442.833,120.5 456.167,120.5 469.5,120.5C 469.5,116.833 469.5,113.167 469.5,109.5 Z"/></g>
<g><path style="opacity:0.016" fill="#ececed" d="M 548.5,123.5 C 548.5,123.833 548.5,124.167 548.5,124.5C 548.167,124.5 547.833,124.5 547.5,124.5C 546.5,124.5 545.5,124.5 544.5,124.5C 544.343,123.127 544.51,121.793 545,120.5C 546.067,121.191 547.234,121.691 548.5,122C 547.262,122.69 547.262,123.19 548.5,123.5 Z"/></g>
<g><path style="opacity:0.333" fill="#a4aac2" d="M 571.5,118.5 C 571.573,120.027 570.906,121.027 569.5,121.5C 569.427,119.973 570.094,118.973 571.5,118.5 Z"/></g>
<g><path style="opacity:0.027" fill="#dce0e9" d="M 600.5,118.5 C 602.344,120.279 603.01,122.612 602.5,125.5C 602.672,126.492 602.338,127.158 601.5,127.5C 601.813,124.753 601.48,122.086 600.5,119.5C 598.591,120.348 596.591,120.682 594.5,120.5C 596.302,119.542 598.302,118.875 600.5,118.5 Z"/></g>
<g><path style="opacity:0.573" fill="#a0a6c1" d="M 657.5,105.5 C 660.491,108.634 661.824,112.468 661.5,117C 661.418,120.235 660.918,123.402 660,126.5C 659.617,127.056 659.117,127.389 658.5,127.5C 661.197,120.038 660.863,112.705 657.5,105.5 Z"/></g>
<g><path style="opacity:0.984" fill="#7277a1" d="M 42.5,117.5 C 42.4077,119.848 41.4077,121.514 39.5,122.5C 39.7497,120.326 40.7497,118.659 42.5,117.5 Z"/></g>
<g><path style="opacity:0.014" fill="#e9eaec" d="M 431.5,121.5 C 433.5,121.5 435.5,121.5 437.5,121.5C 436.077,123.545 434.077,124.545 431.5,124.5C 431.5,125.5 431.5,126.5 431.5,127.5C 430.662,127.158 430.328,126.492 430.5,125.5C 430.5,124.833 430.5,124.167 430.5,123.5C 431.338,123.158 431.672,122.492 431.5,121.5 Z"/></g>
<g><path style="opacity:0.004" fill="#edeeef" d="M 443.5,121.5 C 444.833,121.5 446.167,121.5 447.5,121.5C 447.5,122.5 447.5,123.5 447.5,124.5C 444.402,124.587 444.068,124.087 446.5,123C 445.263,122.768 444.263,122.268 443.5,121.5 Z"/></g>
<g><path style="opacity:0.188" fill="#c0c5d6" d="M 594.5,120.5 C 592.039,121.531 589.373,122.198 586.5,122.5C 588.78,120.777 591.447,120.111 594.5,120.5 Z"/></g>
<g><path style="opacity:0.008" fill="#edeeed" d="M 492.5,123.5 C 493.833,124.167 493.833,124.167 492.5,123.5 Z"/></g>
<g><path style="opacity:0.502" fill="#acb2c8" d="M 563.5,128.5 C 563.5,127.167 563.5,125.833 563.5,124.5C 558.5,124.5 553.5,124.5 548.5,124.5C 548.5,124.167 548.5,123.833 548.5,123.5C 555.167,122.832 561.501,122.832 567.5,123.5C 566.675,124.386 565.675,124.719 564.5,124.5C 564.768,126.099 564.434,127.432 563.5,128.5 Z"/></g>
<g><path style="opacity:0.016" fill="#dadce3" d="M 284.5,123.5 C 286.975,124.687 287.975,126.687 287.5,129.5C 286.508,127.544 285.508,125.544 284.5,123.5 Z"/></g>
<g><path style="opacity:0.008" fill="#eeeeee" d="M 327.5,125.5 C 328.525,125.897 328.692,126.563 328,127.5C 327.536,126.906 327.369,126.239 327.5,125.5 Z"/></g>
<g><path style="opacity:0.088" fill="#d6d8e2" d="M 378.5,105.5 C 377.536,118.784 377.203,132.117 377.5,145.5C 372.305,145.821 367.305,145.487 362.5,144.5C 367.167,144.5 371.833,144.5 376.5,144.5C 376.333,131.829 376.5,119.162 377,106.5C 377.383,105.944 377.883,105.611 378.5,105.5 Z"/></g>
<g><path style="opacity:0.118" fill="#b5bace" d="M 415.5,107.5 C 415.05,115.961 415.716,124.294 417.5,132.5C 416.207,131.158 415.374,129.491 415,127.5C 414.179,120.654 414.346,113.987 415.5,107.5 Z"/></g>
<g><path style="opacity:0.009" fill="#edeeed" d="M 451.5,126.5 C 452.946,125.387 454.613,125.22 456.5,126C 454.866,126.494 453.199,126.66 451.5,126.5 Z"/></g>
<g><path style="opacity:0.004" fill="#edeeed" d="M 464.5,126.5 C 464.897,125.475 465.563,125.308 466.5,126C 465.906,126.464 465.239,126.631 464.5,126.5 Z"/></g>
<g><path style="opacity:0.306" fill="#b8bdcf" d="M 510.5,111.5 C 510.237,119.776 511.57,127.776 514.5,135.5C 512.153,132.32 510.653,128.653 510,124.5C 509.186,119.98 509.353,115.646 510.5,111.5 Z"/></g>
<g><path style="opacity:0.018" fill="#d2d5df" d="M 527.5,124.5 C 529.245,126.033 530.245,128.033 530.5,130.5C 528.755,128.967 527.755,126.967 527.5,124.5 Z"/></g>
<g><path style="opacity:1" fill="#5d6293" d="M 39.5,122.5 C 39.8895,126.353 38.5562,129.353 35.5,131.5C 36.0421,128.088 37.3754,125.088 39.5,122.5 Z"/></g>
<g><path style="opacity:0.005" fill="#eeefee" d="M 452.5,128.5 C 451.833,128.5 451.5,128.833 451.5,129.5C 450.957,129.44 450.624,129.107 450.5,128.5C 451.257,127.227 451.923,127.227 452.5,128.5 Z"/></g>
<g><path style="opacity:0.831" fill="#8189ad" d="M 547.5,124.5 C 547.833,124.5 548.167,124.5 548.5,124.5C 548.88,126.698 548.213,128.365 546.5,129.5C 546.629,127.784 546.962,126.117 547.5,124.5 Z"/></g>
<g><path style="opacity:0.91" fill="#7f85ab" d="M 569.5,121.5 C 569.5,126.5 569.5,131.5 569.5,136.5C 566.913,131.517 566.913,126.517 569.5,121.5 Z"/></g>
<g><path style="opacity:0.073" fill="#d3d7e1" d="M 345.5,105.5 C 345.301,118.901 344.968,132.235 344.5,145.5C 339.305,145.821 334.305,145.487 329.5,144.5C 334.167,144.5 338.833,144.5 343.5,144.5C 343.333,131.829 343.5,119.162 344,106.5C 344.383,105.944 344.883,105.611 345.5,105.5 Z"/></g>
<g><path style="opacity:0.537" fill="#b7bccf" d="M 431.5,127.5 C 433.5,128.833 435.167,130.5 436.5,132.5C 433.833,131.833 432.167,130.167 431.5,127.5 Z"/></g>
<g><path style="opacity:0.033" fill="#e8eaec" d="M 452.5,129.5 C 452.5,129.167 452.5,128.833 452.5,128.5C 458.167,128.5 463.833,128.5 469.5,128.5C 469.737,129.791 469.404,130.791 468.5,131.5C 463.944,129.558 458.944,128.892 453.5,129.5C 453.167,129.5 452.833,129.5 452.5,129.5 Z"/></g>
<g><path style="opacity:0.756" fill="#596493" d="M 453.5,130.5 C 453.5,130.167 453.5,129.833 453.5,129.5C 458.944,128.892 463.944,129.558 468.5,131.5C 468.672,132.492 468.338,133.158 467.5,133.5C 467.5,132.5 467.5,131.5 467.5,130.5C 462.833,130.5 458.167,130.5 453.5,130.5 Z"/></g>
<g><path style="opacity:0.455" fill="#a3a8c1" d="M 680.5,126.5 C 682.293,128.426 683.293,130.759 683.5,133.5C 681.707,131.574 680.707,129.241 680.5,126.5 Z"/></g>
<g><path style="opacity:0.325" fill="#bec3d3" d="M 601.5,127.5 C 601.771,129.38 601.104,130.713 599.5,131.5C 599.66,129.847 600.326,128.514 601.5,127.5 Z"/></g>
<g><path style="opacity:0.769" fill="#8990b2" d="M 658.5,127.5 C 658.912,129.973 657.912,131.306 655.5,131.5C 656.512,130.128 657.512,128.795 658.5,127.5 Z"/></g>
<g><path style="opacity:0.235" fill="#b5bacd" d="M 735.5,125.5 C 735.154,129.852 733.488,133.519 730.5,136.5C 731.93,132.646 733.597,128.979 735.5,125.5 Z"/></g>
<g><path style="opacity:0.635" fill="#8d96b6" d="M 394.5,106.5 C 395.268,107.263 395.768,108.263 396,109.5C 396.5,121.162 396.667,132.829 396.5,144.5C 395.509,138.021 395.176,131.354 395.5,124.5C 394.545,118.591 394.211,112.591 394.5,106.5 Z"/></g>
<g><path style="opacity:0.727" fill="#5f6a97" d="M 406.5,98.5 C 408.868,100.956 409.868,103.956 409.5,107.5C 409.829,120.011 409.495,132.345 408.5,144.5C 408.667,131.163 408.5,117.829 408,104.5C 406.872,102.655 406.372,100.655 406.5,98.5 Z"/></g>
<g><path style="opacity:0.051" fill="#dadce4" d="M 409.5,107.5 C 410.495,119.989 410.829,132.656 410.5,145.5C 405.167,145.5 399.833,145.5 394.5,145.5C 394.175,138.313 394.509,131.313 395.5,124.5C 395.176,131.354 395.509,138.021 396.5,144.5C 400.5,144.5 404.5,144.5 408.5,144.5C 409.495,132.345 409.829,120.011 409.5,107.5 Z"/></g>
<g><path style="opacity:0.475" fill="#b7bbce" d="M 546.5,129.5 C 546.426,131.411 545.426,132.578 543.5,133C 541.667,133.167 539.833,133.333 538,133.5C 535.705,133.453 533.871,132.787 532.5,131.5C 537.545,133.16 542.212,132.494 546.5,129.5 Z"/></g>
<g><path style="opacity:0.529" fill="#9fa8c1" d="M 599.5,131.5 C 599.027,132.906 598.027,133.573 596.5,133.5C 596.973,132.094 597.973,131.427 599.5,131.5 Z"/></g>
<g><path style="opacity:0.024" fill="#ced1dc" d="M 639.5,128.5 C 643.418,132.063 648.085,133.396 653.5,132.5C 650.36,133.641 647.027,133.808 643.5,133C 641.249,132.252 639.916,130.752 639.5,128.5 Z"/></g>
<g><path style="opacity:1" fill="#a0a7c2" d="M 138.5,132.5 C 138.389,133.117 138.056,133.617 137.5,134C 133.642,134.81 129.976,134.643 126.5,133.5C 130.566,133.693 134.566,133.36 138.5,132.5 Z"/></g>
<g><path style="opacity:0.522" fill="#99a0bc" d="M 451.5,129.5 C 451.833,129.5 452.167,129.5 452.5,129.5C 452.833,129.5 453.167,129.5 453.5,129.5C 453.5,129.833 453.5,130.167 453.5,130.5C 448.187,134.831 442.52,135.497 436.5,132.5C 440.513,133.705 444.513,133.705 448.5,132.5C 448.413,129.402 448.913,129.068 450,131.5C 450.717,130.956 451.217,130.289 451.5,129.5 Z"/></g>
<g><path style="opacity:0.364" fill="#b4b9cd" d="M 585.5,133.5 C 588.833,134.833 592.167,134.833 595.5,133.5C 592.167,136.167 588.833,136.167 585.5,133.5 Z"/></g>
<g><path style="opacity:0.141" fill="#bbbfd0" d="M 467.5,133.5 C 467.573,135.027 466.906,136.027 465.5,136.5C 465.427,134.973 466.094,133.973 467.5,133.5 Z"/></g>
<g><path style="opacity:0.404" fill="#a9b0c6" d="M 493.5,107.5 C 491.709,120.081 491.043,132.748 491.5,145.5C 486.167,145.5 480.833,145.5 475.5,145.5C 475.5,139.167 475.5,132.833 475.5,126.5C 464.833,126.167 464.833,125.833 475.5,125.5C 475.178,119.642 475.511,113.975 476.5,108.5C 476.5,120.5 476.5,132.5 476.5,144.5C 481.167,144.5 485.833,144.5 490.5,144.5C 490.333,133.162 490.5,121.828 491,110.5C 491.377,109.058 492.21,108.058 493.5,107.5 Z"/></g>
<g><path style="opacity:0.192" fill="#bfc5d6" d="M 561.5,133.5 C 561.573,135.027 560.906,136.027 559.5,136.5C 559.427,134.973 560.094,133.973 561.5,133.5 Z"/></g>
<g><path style="opacity:0.282" fill="#b6bbce" d="M 616.5,133.5 C 616.573,135.027 615.906,136.027 614.5,136.5C 614.427,134.973 615.094,133.973 616.5,133.5 Z"/></g>
<g><path style="opacity:0.62" fill="#a3a8c2" d="M 418.5,134.5 C 421.118,136.452 423.452,138.785 425.5,141.5C 422.189,140.189 419.855,137.855 418.5,134.5 Z"/></g>
<g><path style="opacity:0.529" fill="#9fa4bf" d="M 514.5,135.5 C 517.118,137.452 519.452,139.785 521.5,142.5C 518.189,141.189 515.855,138.855 514.5,135.5 Z"/></g>
<g><path style="opacity:0.047" fill="#b7bcd0" d="M 626.5,136.5 C 628.833,138.167 630.833,140.167 632.5,142.5C 629.5,141.5 627.5,139.5 626.5,136.5 Z"/></g>
<g><path style="opacity:0.016" fill="#cbcdda" d="M 671.5,136.5 C 671.167,138.833 669.833,140.167 667.5,140.5C 668.5,138.833 669.833,137.5 671.5,136.5 Z"/></g>
<g><path style="opacity:0.478" fill="#a3aac3" d="M 35.5,131.5 C 35.7062,134.495 35.0395,137.162 33.5,139.5C 33.5651,136.572 34.2318,133.905 35.5,131.5 Z"/></g>
<g><path style="opacity:0.047" fill="#c1c6d7" d="M 686.5,137.5 C 688.5,138.833 690.167,140.5 691.5,142.5C 688.833,141.833 687.167,140.167 686.5,137.5 Z"/></g>
<g><path style="opacity:0.075" fill="#c9ccdb" d="M 613.5,138.5 C 612.738,140.262 611.404,141.262 609.5,141.5C 610.262,139.738 611.596,138.738 613.5,138.5 Z"/></g>
<g><path style="opacity:0.659" fill="#a4a9c3" d="M 571.5,140.5 C 573.404,140.738 574.738,141.738 575.5,143.5C 573.596,143.262 572.262,142.262 571.5,140.5 Z"/></g>
<g><path style="opacity:0.298" fill="#b4b9ce" d="M 554.5,141.5 C 553.341,143.25 551.674,144.25 549.5,144.5C 550.659,142.75 552.326,141.75 554.5,141.5 Z"/></g>
<g><path style="opacity:0.314" fill="#aeb4c9" d="M 609.5,141.5 C 608.089,143.539 606.089,144.539 603.5,144.5C 605.181,142.992 607.181,141.992 609.5,141.5 Z"/></g>
<g><path style="opacity:0.235" fill="#b1b6ca" d="M 666.5,141.5 C 665.089,143.539 663.089,144.539 660.5,144.5C 662.181,142.992 664.181,141.992 666.5,141.5 Z"/></g>
<g><path style="opacity:0.251" fill="#b2b7cb" d="M 723.5,142.5 C 722.713,144.104 721.38,144.771 719.5,144.5C 720.514,143.326 721.847,142.66 723.5,142.5 Z"/></g>
<g><path style="opacity:0.145" fill="#bcc0d1" d="M 459.5,142.5 C 456.044,145.208 452.044,146.541 447.5,146.5C 447.5,146.167 447.5,145.833 447.5,145.5C 451.596,144.809 455.596,143.809 459.5,142.5 Z"/></g>
<g><path style="opacity:0.141" fill="#cdd1de" d="M 693.5,143.5 C 695.553,143.402 697.22,144.069 698.5,145.5C 696.447,145.598 694.78,144.931 693.5,143.5 Z"/></g>
<g><path style="opacity:0.552" fill="#868daf" d="M 427.5,142.5 C 430.647,142.737 433.647,143.57 436.5,145C 440.152,145.499 443.818,145.665 447.5,145.5C 447.5,145.833 447.5,146.167 447.5,146.5C 443.154,146.666 438.821,146.499 434.5,146C 431.826,145.33 429.493,144.163 427.5,142.5 Z"/></g>
<g><path style="opacity:0.52" fill="#8e96b5" d="M 521.5,142.5 C 524.647,142.737 527.647,143.57 530.5,145C 535.489,145.499 540.489,145.666 545.5,145.5C 540.015,146.652 534.349,146.818 528.5,146C 525.826,145.33 523.493,144.163 521.5,142.5 Z"/></g>
<g><path style="opacity:0.427" fill="#aeb4c9" d="M 575.5,143.5 C 584.726,145.792 594.059,146.125 603.5,144.5C 602.737,145.268 601.737,145.768 600.5,146C 593.5,146.667 586.5,146.667 579.5,146C 577.68,145.8 576.347,144.966 575.5,143.5 Z"/></g>
<g><path style="opacity:0.31" fill="#a5abc4" d="M 632.5,142.5 C 635.647,142.737 638.647,143.57 641.5,145C 646.823,145.499 652.156,145.666 657.5,145.5C 652.015,146.652 646.349,146.818 640.5,146C 637.401,145.613 634.734,144.446 632.5,142.5 Z"/></g>
<g><path style="opacity:0.529" fill="#a7adc5" d="M 698.5,145.5 C 704.5,145.5 710.5,145.5 716.5,145.5C 712.969,146.23 709.303,146.896 705.5,147.5C 703.018,146.933 700.684,146.266 698.5,145.5 Z"/></g>
<g><path style="opacity:1" fill="#01b3ea" d="M 47.5,146.5 C 61.9412,150.036 75.9412,154.869 89.5,161C 90.1667,161.667 90.8333,162.333 91.5,163C 89.4093,168.747 90.7427,173.58 95.5,177.5C 98.7672,178.712 102.101,179.712 105.5,180.5C 108.448,188.31 114.114,192.143 122.5,192C 126.512,197.906 132.179,200.572 139.5,200C 143.304,206.607 148.97,208.94 156.5,207C 158.909,206.252 161.075,205.085 163,203.5C 170.571,207.579 178.071,207.412 185.5,203C 193.207,203.48 198.874,200.313 202.5,193.5C 209.704,193.484 215.204,190.484 219,184.5C 219.494,182.866 219.66,181.199 219.5,179.5C 232.468,179.667 237.801,173.5 235.5,161C 251.755,154.365 268.421,149.198 285.5,145.5C 285.987,161.872 280.821,176.205 270,188.5C 253.871,204.656 234.705,215.822 212.5,222C 200.348,225.289 188.015,227.456 175.5,228.5C 163.484,228.61 151.484,228.277 139.5,227.5C 107.714,224.35 79.8811,212.35 56,191.5C 46.8438,181.506 41.0104,169.839 38.5,156.5C 38.5,152.833 38.5,149.167 38.5,145.5C 41.4824,145.963 44.4824,146.296 47.5,146.5 Z"/></g>
<g><path style="opacity:1" fill="#7f88ac" d="M 263.5,145.5 C 262.22,146.931 260.553,147.598 258.5,147.5C 259.78,146.069 261.447,145.402 263.5,145.5 Z"/></g>
<g><path style="opacity:0.227" fill="#cacfdb" d="M 287.5,129.5 C 289.718,133.434 290.885,137.768 291,142.5C 291.821,149.346 291.654,156.013 290.5,162.5C 291.001,151.315 290.001,140.315 287.5,129.5 Z"/></g>
<g><path style="opacity:1" fill="#126ca7" d="M 47.5,146.5 C 44.4824,146.296 41.4824,145.963 38.5,145.5C 38.5,149.167 38.5,152.833 38.5,156.5C 37.5166,152.702 37.1832,148.702 37.5,144.5C 41.1224,144.322 44.4557,144.989 47.5,146.5 Z"/></g>
<g><path style="opacity:1" fill="#f6f7f9" d="M 99.5,159.5 C 102.32,159.248 104.986,159.748 107.5,161C 109.293,162.78 110.96,164.613 112.5,166.5C 118.373,159.878 124.206,159.878 130,166.5C 130.49,167.793 130.657,169.127 130.5,170.5C 132.952,169.078 135.619,168.078 138.5,167.5C 146.95,169.732 149.617,175.065 146.5,183.5C 157.488,181.339 162.655,185.673 162,196.5C 158.723,202.109 153.89,203.942 147.5,202C 143.808,199.45 142.142,195.95 142.5,191.5C 140.319,191.284 138.653,192.117 137.5,194C 129.932,195.262 126.265,192.095 126.5,184.5C 115.609,188.492 109.775,184.492 109,172.5C 101.756,177.462 97.2558,175.629 95.5,167C 95.6667,165.833 95.8333,164.667 96,163.5C 97.3756,162.295 98.5423,160.962 99.5,159.5 Z"/></g>
<g><path style="opacity:0.369" fill="#bdc1d1" d="M 33.5,166.5 C 34.4345,167.568 34.7678,168.901 34.5,170.5C 32.8906,169.335 32.5573,168.001 33.5,166.5 Z"/></g>
<g><path style="opacity:0.71" fill="#9cdef4" d="M 477.5,168.5 C 469.799,168.309 462.132,168.642 454.5,169.5C 462.034,166.1 469.7,165.767 477.5,168.5 Z"/></g>
<g><path style="opacity:0.624" fill="#b7e4f3" d="M 366.5,168.5 C 359.132,168.317 351.799,168.65 344.5,169.5C 351.726,166.109 359.059,165.776 366.5,168.5 Z"/></g>
<g><path style="opacity:1" fill="#30b9ec" d="M 366.5,168.5 C 374.06,170.392 379.06,175.059 381.5,182.5C 382.49,190.477 382.657,198.477 382,206.5C 380.704,209.839 379.537,213.173 378.5,216.5C 376.855,220.145 374.188,222.812 370.5,224.5C 364.545,225.363 358.545,225.697 352.5,225.5C 350.147,224.66 348.147,223.326 346.5,221.5C 346.631,220.624 346.298,219.957 345.5,219.5C 344.503,226.134 344.17,232.8 344.5,239.5C 343.972,240.721 343.305,241.887 342.5,243C 338.27,244.29 333.936,244.79 329.5,244.5C 328.621,225.764 328.621,207.098 329.5,188.5C 330.924,186.485 331.59,184.152 331.5,181.5C 333.9,175.434 338.233,171.434 344.5,169.5C 351.799,168.65 359.132,168.317 366.5,168.5 Z M 366.5,187.5 C 367.329,192.453 367.663,197.453 367.5,202.5C 366.608,205.952 364.942,208.952 362.5,211.5C 359.236,212.324 355.902,212.658 352.5,212.5C 346.536,207.297 344.37,200.631 346,192.5C 347.552,182.64 353.052,179.473 362.5,183C 364.07,184.397 365.404,185.897 366.5,187.5 Z"/></g>
<g><path style="opacity:1" fill="#36baed" d="M 421.5,168.5 C 423.89,170.02 426.557,171.02 429.5,171.5C 434.232,173.938 436.732,177.938 437,183.5C 437.786,193.207 437.453,202.874 436,212.5C 432.166,221.352 425.333,226.186 415.5,227C 410.5,227.667 405.5,227.667 400.5,227C 397.719,226.478 395.385,225.311 393.5,223.5C 391.471,221.142 389.471,218.808 387.5,216.5C 387.217,210.198 388.217,204.198 390.5,198.5C 391.585,196.413 393.251,195.08 395.5,194.5C 402.66,192.379 409.993,191.212 417.5,191C 418.056,190.617 418.389,190.117 418.5,189.5C 419.496,189.586 420.329,189.252 421,188.5C 421.789,186.288 421.622,184.288 420.5,182.5C 412.569,178.545 406.569,180.378 402.5,188C 398.167,188.667 393.833,188.667 389.5,188C 387.932,178.85 391.599,172.517 400.5,169C 407.611,167.312 414.611,167.145 421.5,168.5 Z M 420.5,208.5 C 415.98,214.608 410.314,215.942 403.5,212.5C 402.652,210.591 402.318,208.591 402.5,206.5C 404.191,205.136 405.858,203.803 407.5,202.5C 411.889,202.361 416.056,201.361 420,199.5C 420.498,202.482 420.665,205.482 420.5,208.5 Z"/></g>
<g><path style="opacity:1" fill="#30b9ec" d="M 477.5,168.5 C 479.03,170.346 481.03,171.346 483.5,171.5C 488.338,173.671 491.338,177.337 492.5,182.5C 493.418,197.809 493.751,213.142 493.5,228.5C 490.612,241.801 482.278,248.801 468.5,249.5C 459.392,249.746 452.058,246.412 446.5,239.5C 446.573,237.973 445.906,236.973 444.5,236.5C 442.466,234.635 441.799,232.468 442.5,230C 447.833,229.333 453.167,229.333 458.5,230C 464.188,235.775 470.022,235.941 476,230.5C 477.721,227.685 478.388,224.685 478,221.5C 468.476,228.253 458.976,228.087 449.5,221C 447.611,218.618 445.945,216.118 444.5,213.5C 441.835,202.148 441.835,190.815 444.5,179.5C 446.167,174.5 449.5,171.167 454.5,169.5C 462.132,168.642 469.799,168.309 477.5,168.5 Z M 476.5,186.5 C 478.085,191.675 478.752,197.009 478.5,202.5C 475.857,211.986 469.857,214.819 460.5,211C 458.711,208.262 457.378,205.428 456.5,202.5C 456.365,197.05 457.031,191.716 458.5,186.5C 461.897,181.693 466.564,180.193 472.5,182C 474.041,183.371 475.375,184.871 476.5,186.5 Z"/></g>
<g><path style="opacity:0.765" fill="#9dddf4" d="M 540.5,169.5 C 531.825,168.249 523.159,168.249 514.5,169.5C 523.147,165.504 531.813,165.504 540.5,169.5 Z"/></g>
<g><path style="opacity:1" fill="#35baec" d="M 540.5,169.5 C 551.314,175.272 556.647,184.438 556.5,197C 554.209,220.985 541.209,230.652 517.5,226C 507.419,222.249 501.252,215.082 499,204.5C 496.56,192.498 499.394,181.998 507.5,173C 509.577,171.295 511.91,170.128 514.5,169.5C 523.159,168.249 531.825,168.249 540.5,169.5 Z M 532.5,181.5 C 536.598,183.893 538.765,187.56 539,192.5C 540.034,198.527 539.034,204.194 536,209.5C 526.217,215.845 519.383,213.512 515.5,202.5C 515.123,196.677 515.79,191.011 517.5,185.5C 518.833,184.167 520.167,182.833 521.5,181.5C 525.167,180.167 528.833,180.167 532.5,181.5 Z"/></g>
<g><path style="opacity:0.314" fill="#aedff0" d="M 477.5,168.5 C 480.089,168.461 482.089,169.461 483.5,171.5C 481.03,171.346 479.03,170.346 477.5,168.5 Z"/></g>
<g><path style="opacity:0.369" fill="#afe0f0" d="M 421.5,168.5 C 424.649,168.415 427.316,169.415 429.5,171.5C 426.557,171.02 423.89,170.02 421.5,168.5 Z"/></g>
<g><path style="opacity:1" fill="#a8aec6" d="M 151.5,172.5 C 152.451,173.919 152.784,175.585 152.5,177.5C 153.791,177.263 154.791,177.596 155.5,178.5C 154.167,178.5 152.833,178.5 151.5,178.5C 151.5,176.5 151.5,174.5 151.5,172.5 Z"/></g>
<g><path style="opacity:0.431" fill="#aaafc7" d="M 288.5,173.5 C 288.267,176.542 287.267,179.208 285.5,181.5C 285.733,178.458 286.733,175.792 288.5,173.5 Z"/></g>
<g><path style="opacity:0.373" fill="#b1e5f6" d="M 532.5,181.5 C 528.833,180.167 525.167,180.167 521.5,181.5C 525.167,178.833 528.833,178.833 532.5,181.5 Z"/></g>
<g><path style="opacity:0.282" fill="#b1b8cd" d="M 285.5,181.5 C 285.539,184.089 284.539,186.089 282.5,187.5C 282.992,185.181 283.992,183.181 285.5,181.5 Z"/></g>
<g><path style="opacity:0.286" fill="#abb0c7" d="M 35.5,174.5 C 37.8151,179.756 40.1484,185.09 42.5,190.5C 38.6353,185.93 36.302,180.596 35.5,174.5 Z"/></g>
<g><path style="opacity:0.263" fill="#c2ebf8" d="M 331.5,181.5 C 331.59,184.152 330.924,186.485 329.5,188.5C 329.41,185.848 330.076,183.515 331.5,181.5 Z"/></g>
<g><path style="opacity:0.62" fill="#a5daed" d="M 420.5,182.5 C 421.622,184.288 421.789,186.288 421,188.5C 420.329,189.252 419.496,189.586 418.5,189.5C 420.168,187.521 420.834,185.188 420.5,182.5 Z"/></g>
<g><path style="opacity:0.204" fill="#b1b5ca" d="M 282.5,187.5 C 282.771,189.38 282.104,190.713 280.5,191.5C 280.66,189.847 281.326,188.514 282.5,187.5 Z"/></g>
<g><path style="opacity:0.553" fill="#9bd5ed" d="M 418.5,189.5 C 418.389,190.117 418.056,190.617 417.5,191C 409.993,191.212 402.66,192.379 395.5,194.5C 398.135,192.672 401.135,191.505 404.5,191C 409.156,190.335 413.823,189.835 418.5,189.5 Z"/></g>
<g><path style="opacity:0.533" fill="#9cd7ee" d="M 476.5,186.5 C 478.117,187.589 478.95,189.256 479,191.5C 479.81,195.358 479.643,199.024 478.5,202.5C 478.752,197.009 478.085,191.675 476.5,186.5 Z"/></g>
<g><path style="opacity:0.286" fill="#aee0f0" d="M 492.5,182.5 C 493.268,183.263 493.768,184.263 494,185.5C 494.827,200.006 494.661,214.339 493.5,228.5C 493.751,213.142 493.418,197.809 492.5,182.5 Z"/></g>
<g><path style="opacity:0.978" fill="#85d3f1" d="M 381.5,182.5 C 385.307,191.939 385.474,201.606 382,211.5C 381.303,213.584 380.136,215.251 378.5,216.5C 379.537,213.173 380.704,209.839 382,206.5C 382.657,198.477 382.49,190.477 381.5,182.5 Z"/></g>
<g><path style="opacity:0.965" fill="#88d4f1" d="M 444.5,179.5 C 441.835,190.815 441.835,202.148 444.5,213.5C 441.659,208.317 440.326,202.65 440.5,196.5C 440.326,190.35 441.659,184.683 444.5,179.5 Z"/></g>
<g><path style="opacity:0.106" fill="#d0d3df" d="M 43.5,192.5 C 44.9063,192.973 45.573,193.973 45.5,195.5C 44.0937,195.027 43.427,194.027 43.5,192.5 Z"/></g>
<g><path style="opacity:0.404" fill="#a5dcee" d="M 458.5,186.5 C 457.031,191.716 456.365,197.05 456.5,202.5C 455.359,199.36 455.192,196.027 456,192.5C 456.037,190.026 456.87,188.026 458.5,186.5 Z"/></g>
<g><path style="opacity:0.086" fill="#c7e0eb" d="M 517.5,185.5 C 515.79,191.011 515.123,196.677 515.5,202.5C 514.353,198.354 514.186,194.02 515,189.5C 515.2,187.68 516.034,186.347 517.5,185.5 Z"/></g>
<g><path style="opacity:0.094" fill="#ccedf8" d="M 366.5,187.5 C 367.222,187.918 367.722,188.584 368,189.5C 368.814,194.02 368.647,198.354 367.5,202.5C 367.663,197.453 367.329,192.453 366.5,187.5 Z"/></g>
<g><path style="opacity:0.016" fill="#d3d6e2" d="M 45.5,195.5 C 46.9063,195.973 47.573,196.973 47.5,198.5C 46.0937,198.027 45.427,197.027 45.5,195.5 Z"/></g>
<g><path style="opacity:1" fill="#aab0c7" d="M 166.5,199.5 C 170.101,200.463 173.767,201.13 177.5,201.5C 173.545,202.895 169.878,202.229 166.5,199.5 Z"/></g>
<g><path style="opacity:0.195" fill="#bfe7f5" d="M 420.5,208.5 C 420.665,205.482 420.498,202.482 420,199.5C 416.056,201.361 411.889,202.361 407.5,202.5C 411.978,200.877 416.645,199.544 421.5,198.5C 421.813,202.042 421.479,205.375 420.5,208.5 Z"/></g>
<g><path style="opacity:0.063" fill="#bdc1d3" d="M 49.5,200.5 C 51.5869,201.585 52.9202,203.251 53.5,205.5C 51.4131,204.415 50.0798,202.749 49.5,200.5 Z"/></g>
<g><path style="opacity:0.043" fill="#cde5ee" d="M 407.5,202.5 C 405.858,203.803 404.191,205.136 402.5,206.5C 402.967,203.703 404.633,202.369 407.5,202.5 Z"/></g>
<g><path style="opacity:0.729" fill="#abb0c7" d="M 55.5,207.5 C 58.7642,209.094 61.4309,211.427 63.5,214.5C 60.2358,212.906 57.5691,210.573 55.5,207.5 Z"/></g>
<g><path style="opacity:0.494" fill="#9fdaef" d="M 390.5,198.5 C 388.217,204.198 387.217,210.198 387.5,216.5C 386.353,212.354 386.186,208.02 387,203.5C 387.223,201.119 388.39,199.453 390.5,198.5 Z"/></g>
<g><path style="opacity:0.027" fill="#caceda" d="M 272.5,202.5 C 269.833,207.167 266.167,210.833 261.5,213.5C 264.833,209.5 268.5,205.833 272.5,202.5 Z"/></g>
<g><path style="opacity:0.671" fill="#ace3f6" d="M 362.5,211.5 C 362.389,212.117 362.056,212.617 361.5,213C 358.304,213.805 355.304,213.638 352.5,212.5C 355.902,212.658 359.236,212.324 362.5,211.5 Z"/></g>
<g><path style="opacity:0.043" fill="#c9cdd9" d="M 260.5,214.5 C 260.027,215.906 259.027,216.573 257.5,216.5C 257.973,215.094 258.973,214.427 260.5,214.5 Z"/></g>
<g><path style="opacity:0.018" fill="#c1c5d4" d="M 63.5,214.5 C 65.7488,215.08 67.4154,216.413 68.5,218.5C 65.9368,218.269 64.2702,216.935 63.5,214.5 Z"/></g>
<g><path style="opacity:0.369" fill="#b6e3f2" d="M 387.5,216.5 C 389.471,218.808 391.471,221.142 393.5,223.5C 390.092,222.422 388.092,220.089 387.5,216.5 Z"/></g>
<g><path style="opacity:0.078" fill="#d3d6df" d="M 68.5,218.5 C 70.0269,218.427 71.0269,219.094 71.5,220.5C 69.8212,220.715 68.8212,220.048 68.5,218.5 Z"/></g>
<g><path style="opacity:0.31" fill="#b9bfd2" d="M 73.5,221.5 C 75.0269,221.427 76.0269,222.094 76.5,223.5C 74.9731,223.573 73.9731,222.906 73.5,221.5 Z"/></g>
<g><path style="opacity:0.241" fill="#bfeaf8" d="M 346.5,221.5 C 345.833,227.5 345.167,233.5 344.5,239.5C 344.17,232.8 344.503,226.134 345.5,219.5C 346.298,219.957 346.631,220.624 346.5,221.5 Z"/></g>
<g><path style="opacity:0.106" fill="#b5bacd" d="M 247.5,223.5 C 246.486,224.674 245.153,225.34 243.5,225.5C 244.287,223.896 245.62,223.229 247.5,223.5 Z"/></g>
<g><path style="opacity:0.192" fill="#c6cbda" d="M 78.5,224.5 C 80.0269,224.427 81.0269,225.094 81.5,226.5C 79.9731,226.573 78.9731,225.906 78.5,224.5 Z"/></g>
<g><path style="opacity:0.814" fill="#a2daef" d="M 370.5,224.5 C 364.643,227.863 358.643,228.196 352.5,225.5C 358.545,225.697 364.545,225.363 370.5,224.5 Z"/></g>
<g><path style="opacity:0.204" fill="#d4d8e3" d="M 83.5,227.5 C 85.3797,227.229 86.713,227.896 87.5,229.5C 85.847,229.34 84.5137,228.674 83.5,227.5 Z"/></g>
<g><path style="opacity:1" fill="#16508e" d="M 139.5,227.5 C 151.484,228.277 163.484,228.61 175.5,228.5C 171.012,229.166 166.346,229.499 161.5,229.5C 153.943,229.643 146.61,228.976 139.5,227.5 Z"/></g>
<g><path style="opacity:0.871" fill="#9298b7" d="M 90.5,230.5 C 94.533,231.025 98.1996,232.358 101.5,234.5C 100.883,234.611 100.383,234.944 100,235.5C 96.7907,233.723 93.624,232.057 90.5,230.5 Z"/></g>
<g><path style="opacity:0.447" fill="#a4a9c2" d="M 233.5,230.5 C 231.11,232.02 228.443,233.02 225.5,233.5C 227.684,231.415 230.351,230.415 233.5,230.5 Z"/></g>
<g><path style="opacity:0.024" fill="#ccd0db" d="M 101.5,234.5 C 104.542,234.733 107.208,235.733 109.5,237.5C 106.351,237.585 103.684,236.585 101.5,234.5 Z"/></g>
<g><path style="opacity:0.004" fill="#d0e7ef" d="M 444.5,236.5 C 445.906,236.973 446.573,237.973 446.5,239.5C 445.094,239.027 444.427,238.027 444.5,236.5 Z"/></g>
<g><path style="opacity:0.239" fill="#bbbfd0" d="M 109.5,237.5 C 114.192,237.425 118.526,238.425 122.5,240.5C 117.908,240.118 113.575,239.118 109.5,237.5 Z"/></g>
<g><path style="opacity:0.075" fill="#c4c9d8" d="M 225.5,233.5 C 215.088,238.186 204.088,240.852 192.5,241.5C 203.425,239.02 214.425,236.353 225.5,233.5 Z"/></g>
<g><path style="opacity:0.553" fill="#9fa5bf" d="M 122.5,240.5 C 126.182,240.335 129.848,240.501 133.5,241C 134.737,241.232 135.737,241.732 136.5,242.5C 131.63,242.31 126.964,241.644 122.5,240.5 Z"/></g>
<g><path style="opacity:0.128" fill="#c1c6d5" d="M 192.5,241.5 C 187.361,242.817 182.028,243.817 176.5,244.5C 175.584,244.457 174.917,244.124 174.5,243.5C 180.312,242.423 186.312,241.757 192.5,241.5 Z"/></g>
</svg>
