<?xml version="1.0" encoding="UTF-8"?>
<!DOCTYPE svg PUBLIC "-//W3C//DTD SVG 1.1//EN" "http://www.w3.org/Graphics/SVG/1.1/DTD/svg11.dtd">
<svg xmlns="http://www.w3.org/2000/svg" version="1.1" width="301px" height="123px" style="shape-rendering:geometricPrecision; text-rendering:geometricPrecision; image-rendering:optimizeQuality; fill-rule:evenodd; clip-rule:evenodd" xmlns:xlink="http://www.w3.org/1999/xlink">
<g><path style="opacity:1" fill="#3889c2" d="M 69.5,13.5 C 71.674,13.7497 73.3406,14.7497 74.5,16.5C 74.5,17.5 74.5,18.5 74.5,19.5C 72.0779,17.9601 69.4112,16.9601 66.5,16.5C 66.1667,16.5 65.8333,16.5 65.5,16.5C 66.0347,14.5544 67.368,13.5544 69.5,13.5 Z"/></g>
<g><path style="opacity:1" fill="#4893be" d="M 69.5,13.5 C 67.368,13.5544 66.0347,14.5544 65.5,16.5C 64.7326,17.172 64.0659,18.0053 63.5,19C 60.2026,19.2037 57.2026,20.037 54.5,21.5C 53.8333,21.5 53.5,21.8333 53.5,22.5C 52.6618,22.8417 52.3284,23.5084 52.5,24.5C 51.609,23.8902 50.609,23.5569 49.5,23.5C 55.1873,19.1669 61.1873,15.1669 67.5,11.5C 68.5223,11.8555 69.189,12.5222 69.5,13.5 Z"/></g>
<g><path style="opacity:1" fill="#0983c9" d="M 65.5,16.5 C 65.8333,16.5 66.1667,16.5 66.5,16.5C 67.3387,18.3839 68.672,19.7172 70.5,20.5C 67.1694,20.0181 64.5027,21.0181 62.5,23.5C 62.5,22.5 62.5,21.5 62.5,20.5C 59.8728,21.0916 57.2062,21.4249 54.5,21.5C 57.2026,20.037 60.2026,19.2037 63.5,19C 64.0659,18.0053 64.7326,17.172 65.5,16.5 Z"/></g>
<g><path style="opacity:0.749" fill="#5d9ebe" d="M 74.5,16.5 C 82.8523,21.3401 90.8523,26.6734 98.5,32.5C 95.3588,32.5896 92.6922,31.5896 90.5,29.5C 87.8414,27.8365 85.1748,26.1698 82.5,24.5C 80.882,23.5489 79.5487,22.2156 78.5,20.5C 77.3112,19.5713 75.9778,19.238 74.5,19.5C 74.5,18.5 74.5,17.5 74.5,16.5 Z"/></g>
<g><path style="opacity:1" fill="#1e81b6" d="M 70.5,20.5 C 73.0092,21.6824 74.3426,23.6824 74.5,26.5C 73.8333,26.5 73.1667,26.5 72.5,26.5C 71.9406,21.9795 69.6073,21.3128 65.5,24.5C 64.5,24.5 63.5,24.5 62.5,24.5C 62.5,24.1667 62.5,23.8333 62.5,23.5C 64.5027,21.0181 67.1694,20.0181 70.5,20.5 Z"/></g>
<g><path style="opacity:1" fill="#0a82ca" d="M 66.5,16.5 C 69.4112,16.9601 72.0779,17.9601 74.5,19.5C 75.9778,19.238 77.3112,19.5713 78.5,20.5C 79.5487,22.2156 80.882,23.5489 82.5,24.5C 82.8432,26.4832 82.1765,27.8166 80.5,28.5C 79.5,28.5 78.5,28.5 77.5,28.5C 75.9731,28.573 74.9731,27.9063 74.5,26.5C 74.3426,23.6824 73.0092,21.6824 70.5,20.5C 68.672,19.7172 67.3387,18.3839 66.5,16.5 Z"/></g>
<g><path style="opacity:1" fill="#0883d1" d="M 62.5,23.5 C 62.5,23.8333 62.5,24.1667 62.5,24.5C 62.1667,24.5 61.8333,24.5 61.5,24.5C 58.9759,24.4287 56.9759,25.4287 55.5,27.5C 53.7826,26.3315 53.1159,24.6648 53.5,22.5C 53.5,21.8333 53.8333,21.5 54.5,21.5C 57.2062,21.4249 59.8728,21.0916 62.5,20.5C 62.5,21.5 62.5,22.5 62.5,23.5 Z"/></g>
<g><path style="opacity:0.765" fill="#5d9fbd" d="M 72.5,26.5 C 70.2543,25.5448 67.921,24.8782 65.5,24.5C 69.6073,21.3128 71.9406,21.9795 72.5,26.5 Z"/></g>
<g><path style="opacity:1" fill="#3186b3" d="M 49.5,23.5 C 50.609,23.5569 51.609,23.8902 52.5,24.5C 52.5858,25.4959 52.2524,26.3292 51.5,27C 48.6181,27.2724 45.9514,28.1057 43.5,29.5C 42.8333,29.5 42.1667,29.5 41.5,29.5C 41.1667,29.5 40.8333,29.5 40.5,29.5C 43.3197,27.2549 46.3197,25.2549 49.5,23.5 Z"/></g>
<g><path style="opacity:0.686" fill="#6fa7c7" d="M 61.5,24.5 C 61.8333,24.5 62.1667,24.5 62.5,24.5C 63.5,24.5 64.5,24.5 65.5,24.5C 61.795,27.5256 57.795,30.1923 53.5,32.5C 53.5,32.1667 53.5,31.8333 53.5,31.5C 53.5,30.5 53.5,29.5 53.5,28.5C 57.307,29.2259 59.9737,27.8926 61.5,24.5 Z"/></g>
<g><path style="opacity:0.231" fill="#a3d7ef" d="M 72.5,26.5 C 73.1667,26.5 73.8333,26.5 74.5,26.5C 74.9731,27.9063 75.9731,28.573 77.5,28.5C 77.8333,29.1667 78.1667,29.8333 78.5,30.5C 75.8021,30.1551 73.8021,28.8218 72.5,26.5 Z"/></g>
<g><path style="opacity:1" fill="#107ec4" d="M 53.5,22.5 C 53.1159,24.6648 53.7826,26.3315 55.5,27.5C 56.9759,25.4287 58.9759,24.4287 61.5,24.5C 59.9737,27.8926 57.307,29.2259 53.5,28.5C 53.5,29.5 53.5,30.5 53.5,31.5C 49.6707,32.069 46.3373,31.4023 43.5,29.5C 45.9514,28.1057 48.6181,27.2724 51.5,27C 52.2524,26.3292 52.5858,25.4959 52.5,24.5C 52.3284,23.5084 52.6618,22.8417 53.5,22.5 Z"/></g>
<g><path style="opacity:1" fill="#0a7fc3" d="M 82.5,24.5 C 85.1748,26.1698 87.8414,27.8365 90.5,29.5C 86.7335,33.3869 83.4002,33.0536 80.5,28.5C 82.1765,27.8166 82.8432,26.4832 82.5,24.5 Z"/></g>
<g><path style="opacity:0.973" fill="#3981ae" d="M 40.5,29.5 C 40.8333,29.5 41.1667,29.5 41.5,29.5C 41.5,30.8333 41.5,32.1667 41.5,33.5C 39.3024,33.8751 37.3024,34.5418 35.5,35.5C 33.264,36.3891 31.264,37.7224 29.5,39.5C 28.5832,38.8728 27.5832,38.5394 26.5,38.5C 30.8187,35.0043 35.4854,32.0043 40.5,29.5 Z"/></g>
<g><path style="opacity:1" fill="#2981b8" d="M 41.5,29.5 C 42.1667,29.5 42.8333,29.5 43.5,29.5C 46.3373,31.4023 49.6707,32.069 53.5,31.5C 53.5,31.8333 53.5,32.1667 53.5,32.5C 53.1583,33.3382 52.4916,33.6716 51.5,33.5C 49.9731,33.427 48.9731,34.0937 48.5,35.5C 47.1667,35.8333 45.8333,36.1667 44.5,36.5C 45.8333,33.1667 44.8333,32.1667 41.5,33.5C 41.5,32.1667 41.5,30.8333 41.5,29.5 Z"/></g>
<g><path style="opacity:0.004" fill="#bdecf8" d="M 80.5,31.5 C 81.5,31.8333 82.1667,32.5 82.5,33.5C 81.1667,33.5 80.5,32.8333 80.5,31.5 Z"/></g>
<g><path style="opacity:1" fill="#2580b5" d="M 77.5,28.5 C 78.5,28.5 79.5,28.5 80.5,28.5C 83.4002,33.0536 86.7335,33.3869 90.5,29.5C 92.6922,31.5896 95.3588,32.5896 98.5,32.5C 100.062,32.7329 101.395,33.3995 102.5,34.5C 103.502,36.0109 104.169,37.6776 104.5,39.5C 100.988,38.9455 97.9878,39.6122 95.5,41.5C 95.1667,41.5 94.8333,41.5 94.5,41.5C 92.7036,39.1 90.3702,37.4333 87.5,36.5C 87.0269,35.0937 86.0269,34.427 84.5,34.5C 83.5084,34.6716 82.8417,34.3382 82.5,33.5C 82.1667,32.5 81.5,31.8333 80.5,31.5C 79.5084,31.6716 78.8417,31.3382 78.5,30.5C 78.1667,29.8333 77.8333,29.1667 77.5,28.5 Z"/></g>
<g><path style="opacity:0.008" fill="#bef0fa" d="M 51.5,33.5 C 51.0269,34.9063 50.0269,35.573 48.5,35.5C 48.9731,34.0937 49.9731,33.427 51.5,33.5 Z"/></g>
<g><path style="opacity:1" fill="#187fbe" d="M 44.5,36.5 C 43.4613,38.5311 41.7946,39.8645 39.5,40.5C 39.5,39.5 39.5,38.5 39.5,37.5C 38.8166,35.8235 37.4832,35.1568 35.5,35.5C 37.3024,34.5418 39.3024,33.8751 41.5,33.5C 44.8333,32.1667 45.8333,33.1667 44.5,36.5 Z"/></g>
<g><path style="opacity:0.2" fill="#add9ee" d="M 84.5,34.5 C 86.0269,34.427 87.0269,35.0937 87.5,36.5C 85.9731,36.573 84.9731,35.9063 84.5,34.5 Z"/></g>
<g><path style="opacity:1" fill="#0b7cc8" d="M 90.5,32.5 C 94.3989,32.631 97.7323,33.9643 100.5,36.5C 96.1438,37.9729 92.1438,37.3062 88.5,34.5C 89.2427,33.8182 89.9094,33.1515 90.5,32.5 Z"/></g>
<g><path style="opacity:1" fill="#067dca" d="M 35.5,35.5 C 37.4832,35.1568 38.8166,35.8235 39.5,37.5C 37.246,38.1237 35.5794,39.457 34.5,41.5C 32.9731,41.427 31.9731,42.0937 31.5,43.5C 30.6236,43.6309 29.9569,43.2975 29.5,42.5C 31.5227,40.1472 33.5227,37.8138 35.5,35.5 Z"/></g>
<g><path style="opacity:0.839" fill="#72aec5" d="M 102.5,34.5 C 105.135,35.8109 107.469,37.4776 109.5,39.5C 108.5,39.5 107.5,39.5 106.5,39.5C 105.833,39.5 105.167,39.5 104.5,39.5C 104.169,37.6776 103.502,36.0109 102.5,34.5 Z"/></g>
<g><path style="opacity:1" fill="#0b7abd" d="M 104.5,39.5 C 105.167,39.5 105.833,39.5 106.5,39.5C 110.137,41.4796 113.137,44.1463 115.5,47.5C 111.833,47.5 108.167,47.5 104.5,47.5C 104.167,47.5 103.833,47.5 103.5,47.5C 105.834,46.8763 108.167,46.043 110.5,45C 107.047,42.8641 103.713,43.0308 100.5,45.5C 99.6399,43.0693 97.9732,41.736 95.5,41.5C 97.9878,39.6122 100.988,38.9455 104.5,39.5 Z"/></g>
<g><path style="opacity:0.239" fill="#a1d9f2" d="M 48.5,35.5 C 47.1999,36.8267 45.8665,38.16 44.5,39.5C 59.8225,40.6662 75.1558,40.8329 90.5,40C 89.2899,38.9609 88.2899,37.7942 87.5,36.5C 90.3702,37.4333 92.7036,39.1 94.5,41.5C 94.1667,41.5 93.8333,41.5 93.5,41.5C 90.8333,41.5 88.1667,41.5 85.5,41.5C 70.8333,41.5 56.1667,41.5 41.5,41.5C 40.8333,41.5 40.1667,41.5 39.5,41.5C 39.5,41.1667 39.5,40.8333 39.5,40.5C 41.7946,39.8645 43.4613,38.5311 44.5,36.5C 45.8333,36.1667 47.1667,35.8333 48.5,35.5 Z"/></g>
<g><path style="opacity:0.729" fill="#307198" d="M 106.5,39.5 C 107.5,39.5 108.5,39.5 109.5,39.5C 112.446,42.3131 115.779,44.6465 119.5,46.5C 119.833,46.5 120.167,46.5 120.5,46.5C 119.081,47.4511 117.415,47.7845 115.5,47.5C 113.137,44.1463 110.137,41.4796 106.5,39.5 Z"/></g>
<g><path style="opacity:0.133" fill="#acd8ea" d="M 109.5,39.5 C 113.609,40.8744 116.943,43.2078 119.5,46.5C 115.779,44.6465 112.446,42.3131 109.5,39.5 Z"/></g>
<g><path style="opacity:1" fill="#0c7abc" d="M 35.5,35.5 C 33.5227,37.8138 31.5227,40.1472 29.5,42.5C 29.9569,43.2975 30.6236,43.6309 31.5,43.5C 31.8333,44.8333 32.1667,46.1667 32.5,47.5C 32.1667,48.5 31.5,49.1667 30.5,49.5C 30.4142,48.5041 30.7476,47.6708 31.5,47C 28.3634,46.3989 25.3634,45.3989 22.5,44C 23.3757,42.4152 24.7091,41.4152 26.5,41C 25.4019,40.2303 25.4019,39.397 26.5,38.5C 27.5832,38.5394 28.5832,38.8728 29.5,39.5C 31.264,37.7224 33.264,36.3891 35.5,35.5 Z"/></g>
<g><path style="opacity:1" fill="#057bc0" d="M 34.5,41.5 C 38.9838,41.5512 39.6505,43.3846 36.5,47C 35.2068,47.49 33.8734,47.6567 32.5,47.5C 32.1667,46.1667 31.8333,44.8333 31.5,43.5C 31.9731,42.0937 32.9731,41.427 34.5,41.5 Z"/></g>
<g><path style="opacity:0.825" fill="#1f6e9f" d="M 41.5,41.5 C 56.1667,41.5 70.8333,41.5 85.5,41.5C 85.5,42.1667 85.1667,42.5 84.5,42.5C 77.5,42.5 70.5,42.5 63.5,42.5C 56.3251,42.4766 49.1584,42.8099 42,43.5C 41.5357,42.9056 41.369,42.2389 41.5,41.5 Z"/></g>
<g><path style="opacity:1" fill="#0b78bf" d="M 63.5,43.5 C 68.6186,42.8969 73.2853,43.5636 77.5,45.5C 76.5,45.5 75.5,45.5 74.5,45.5C 70.5,45.5 66.5,45.5 62.5,45.5C 62.8333,44.8333 63.1667,44.1667 63.5,43.5 Z"/></g>
<g><path style="opacity:1" fill="#0b77c6" d="M 93.5,41.5 C 93.8333,41.5 94.1667,41.5 94.5,41.5C 94.8333,41.5 95.1667,41.5 95.5,41.5C 97.9732,41.736 99.6399,43.0693 100.5,45.5C 103.713,43.0308 107.047,42.8641 110.5,45C 108.167,46.043 105.834,46.8763 103.5,47.5C 101.883,48.038 100.216,48.3713 98.5,48.5C 97.8333,48.5 97.1667,48.5 96.5,48.5C 96.5,47.8333 96.1667,47.5 95.5,47.5C 95.3893,46.8826 95.056,46.3826 94.5,46C 92.1902,45.5034 89.8568,45.3367 87.5,45.5C 87.5,44.5 87.5,43.5 87.5,42.5C 89.7354,42.7947 91.7354,42.4614 93.5,41.5 Z"/></g>
<g><path style="opacity:1" fill="#127ab1" d="M 39.5,41.5 C 40.1667,41.5 40.8333,41.5 41.5,41.5C 41.369,42.2389 41.5357,42.9056 42,43.5C 49.1584,42.8099 56.3251,42.4766 63.5,42.5C 63.5,42.8333 63.5,43.1667 63.5,43.5C 63.1667,44.1667 62.8333,44.8333 62.5,45.5C 61.7784,45.0825 61.2784,44.4158 61,43.5C 60.6012,43.7284 60.4346,44.0618 60.5,44.5C 55.518,43.9466 50.518,43.6133 45.5,43.5C 45.5,44.5 45.5,45.5 45.5,46.5C 47.4147,46.2155 49.0813,46.5489 50.5,47.5C 46.5,47.5 42.5,47.5 38.5,47.5C 38.9175,46.7784 39.5842,46.2784 40.5,46C 39.6198,44.6439 39.2865,43.1439 39.5,41.5 Z"/></g>
<g><path style="opacity:1" fill="#0a79c1" d="M 60.5,44.5 C 58.5537,48.4078 55.5537,49.4078 51.5,47.5C 51.1667,47.5 50.8333,47.5 50.5,47.5C 49.0813,46.5489 47.4147,46.2155 45.5,46.5C 45.5,45.5 45.5,44.5 45.5,43.5C 50.518,43.6133 55.518,43.9466 60.5,44.5 Z"/></g>
<g><path style="opacity:1" fill="#1773ae" d="M 85.5,41.5 C 88.1667,41.5 90.8333,41.5 93.5,41.5C 91.7354,42.4614 89.7354,42.7947 87.5,42.5C 87.5,43.5 87.5,44.5 87.5,45.5C 89.8568,45.3367 92.1902,45.5034 94.5,46C 95.056,46.3826 95.3893,46.8826 95.5,47.5C 91.5,47.5 87.5,47.5 83.5,47.5C 84.038,45.8828 84.3713,44.2161 84.5,42.5C 85.1667,42.5 85.5,42.1667 85.5,41.5 Z"/></g>
<g><path style="opacity:1" fill="#357dad" d="M 26.5,38.5 C 25.4019,39.397 25.4019,40.2303 26.5,41C 24.7091,41.4152 23.3757,42.4152 22.5,44C 25.3634,45.3989 28.3634,46.3989 31.5,47C 30.7476,47.6708 30.4142,48.5041 30.5,49.5C 30.5,51.5 30.5,53.5 30.5,55.5C 30.1667,55.5 29.8333,55.5 29.5,55.5C 29.5,52.8333 29.5,50.1667 29.5,47.5C 24.4889,47.6659 19.4889,47.4993 14.5,47C 15.056,46.6174 15.3893,46.1174 15.5,45.5C 18.9893,42.92 22.6559,40.5867 26.5,38.5 Z"/></g>
<g><path style="opacity:1" fill="#117cb8" d="M 76.5,49.5 C 75.8333,48.8333 75.1667,48.1667 74.5,47.5C 69.8333,47.5 65.1667,47.5 60.5,47.5C 65.1667,46.8333 69.8333,46.1667 74.5,45.5C 75.5,45.5 76.5,45.5 77.5,45.5C 78.8249,46.9526 79.6582,46.6192 80,44.5C 80.6924,45.0253 81.1924,45.6919 81.5,46.5C 79.4565,47.0652 77.7898,48.0652 76.5,49.5 Z"/></g>
<g><path style="opacity:0.259" fill="#9ccbe0" d="M 15.5,45.5 C 15.3893,46.1174 15.056,46.6174 14.5,47C 19.4889,47.4993 24.4889,47.6659 29.5,47.5C 29.5,50.1667 29.5,52.8333 29.5,55.5C 29.5,63.1667 29.5,70.8333 29.5,78.5C 29.1667,78.5 28.8333,78.5 28.5,78.5C 28.5,78.1667 28.5,77.8333 28.5,77.5C 27.5626,68.1799 27.3959,59.1799 28,50.5C 24.1085,48.1662 19.9418,47.8329 15.5,49.5C 11.5869,48.0197 11.5869,46.6863 15.5,45.5 Z"/></g>
<g><path style="opacity:1" fill="#0c73b9" d="M 39.5,37.5 C 39.5,38.5 39.5,39.5 39.5,40.5C 39.5,40.8333 39.5,41.1667 39.5,41.5C 39.2865,43.1439 39.6198,44.6439 40.5,46C 39.5842,46.2784 38.9175,46.7784 38.5,47.5C 37.6618,47.8417 37.3284,48.5084 37.5,49.5C 36.5046,61.989 36.1713,74.6557 36.5,87.5C 35.5064,78.3483 35.1731,69.015 35.5,59.5C 35.5,58.1667 35.5,56.8333 35.5,55.5C 33.8333,55.5 32.1667,55.5 30.5,55.5C 30.5,53.5 30.5,51.5 30.5,49.5C 31.5,49.1667 32.1667,48.5 32.5,47.5C 33.8734,47.6567 35.2068,47.49 36.5,47C 39.6505,43.3846 38.9838,41.5512 34.5,41.5C 35.5794,39.457 37.246,38.1237 39.5,37.5 Z"/></g>
<g><path style="opacity:1" fill="#0e74b8" d="M 63.5,43.5 C 63.5,43.1667 63.5,42.8333 63.5,42.5C 70.5,42.5 77.5,42.5 84.5,42.5C 84.3713,44.2161 84.038,45.8828 83.5,47.5C 82.5655,48.5676 82.2322,49.901 82.5,51.5C 81.5655,52.5676 81.2322,53.901 81.5,55.5C 79.7497,56.2328 78.083,56.5662 76.5,56.5C 76.5,54.1667 76.5,51.8333 76.5,49.5C 77.7898,48.0652 79.4565,47.0652 81.5,46.5C 81.1924,45.6919 80.6924,45.0253 80,44.5C 79.6582,46.6192 78.8249,46.9526 77.5,45.5C 73.2853,43.5636 68.6186,42.8969 63.5,43.5 Z"/></g>
<g><path style="opacity:1" fill="#2c7ab4" d="M 62.5,45.5 C 66.5,45.5 70.5,45.5 74.5,45.5C 69.8333,46.1667 65.1667,46.8333 60.5,47.5C 60.5,47.8333 60.5,48.1667 60.5,48.5C 56.7774,49.0634 56.1107,50.3967 58.5,52.5C 56.5,52.5 54.5,52.5 52.5,52.5C 52.5,53.8333 52.5,55.1667 52.5,56.5C 52.5,67.5 52.5,78.5 52.5,89.5C 52.5,93.5 52.5,97.5 52.5,101.5C 52.1667,101.5 51.8333,101.5 51.5,101.5C 51.5,83.8333 51.5,66.1667 51.5,48.5C 51.5,48.1667 51.5,47.8333 51.5,47.5C 55.5537,49.4078 58.5537,48.4078 60.5,44.5C 60.4346,44.0618 60.6012,43.7284 61,43.5C 61.2784,44.4158 61.7784,45.0825 62.5,45.5 Z"/></g>
<g><path style="opacity:0.569" fill="#6290b7" d="M 156.5,51.5 C 154.167,51.5 151.833,51.5 149.5,51.5C 149.5,52.5 149.5,53.5 149.5,54.5C 151.833,54.5 154.167,54.5 156.5,54.5C 154.052,55.4731 151.385,55.8064 148.5,55.5C 148.5,54.1667 148.5,52.8333 148.5,51.5C 151.167,50.1667 153.833,50.1667 156.5,51.5 Z"/></g>
<g><path style="opacity:0.329" fill="#a8c4dc" d="M 211.5,52.5 C 211.157,54.4832 211.824,55.8166 213.5,56.5C 213.5,56.8333 213.5,57.1667 213.5,57.5C 212.5,57.5 211.5,57.5 210.5,57.5C 210.5,55.5 210.5,53.5 210.5,51.5C 210.5,50.5 210.5,49.5 210.5,48.5C 209.167,48.5 207.833,48.5 206.5,48.5C 206.5,48.1667 206.5,47.8333 206.5,47.5C 210.833,45.8243 212.5,47.4909 211.5,52.5 Z"/></g>
<g><path style="opacity:0.467" fill="#a3c5de" d="M 162.5,51.5 C 162.167,51.5 161.833,51.5 161.5,51.5C 160.942,50.2101 159.942,49.3768 158.5,49C 153.845,48.5008 149.179,48.3342 144.5,48.5C 144.5,50.5 144.5,52.5 144.5,54.5C 144.5,57.8333 144.5,61.1667 144.5,64.5C 144.5,64.8333 144.5,65.1667 144.5,65.5C 144.167,65.5 143.833,65.5 143.5,65.5C 137.809,47.3594 143.809,41.8594 161.5,49C 162.252,49.6708 162.586,50.5041 162.5,51.5 Z"/></g>
<g><path style="opacity:0.929" fill="#1a5188" d="M 161.5,51.5 C 160.594,53.4167 159.261,55.0834 157.5,56.5C 154.358,57.1674 151.358,57.834 148.5,58.5C 148.5,59.8333 148.5,61.1667 148.5,62.5C 148.5,63.8333 147.833,64.5 146.5,64.5C 146.916,61.4173 147.583,58.4173 148.5,55.5C 151.385,55.8064 154.052,55.4731 156.5,54.5C 157.833,53.5 157.833,52.5 156.5,51.5C 153.833,50.1667 151.167,50.1667 148.5,51.5C 147.5,51.5 146.5,51.5 145.5,51.5C 145.737,52.791 145.404,53.791 144.5,54.5C 144.5,52.5 144.5,50.5 144.5,48.5C 149.179,48.3342 153.845,48.5008 158.5,49C 159.942,49.3768 160.942,50.2101 161.5,51.5 Z"/></g>
<g><path style="opacity:1" fill="#0a75be" d="M 103.5,47.5 C 102.185,49.1347 102.185,50.8014 103.5,52.5C 102.807,53.5178 102.141,54.5178 101.5,55.5C 100.5,55.5 99.5,55.5 98.5,55.5C 99.0671,53.0314 99.0671,50.698 98.5,48.5C 100.216,48.3713 101.883,48.038 103.5,47.5 Z"/></g>
<g><path style="opacity:1" fill="#16559d" d="M 148.5,51.5 C 148.5,52.8333 148.5,54.1667 148.5,55.5C 147.583,58.4173 146.916,61.4173 146.5,64.5C 145.833,64.5 145.167,64.5 144.5,64.5C 144.5,61.1667 144.5,57.8333 144.5,54.5C 145.404,53.791 145.737,52.791 145.5,51.5C 146.5,51.5 147.5,51.5 148.5,51.5 Z"/></g>
<g><path style="opacity:0.035" fill="#cbf5fd" d="M 156.5,51.5 C 157.833,52.5 157.833,53.5 156.5,54.5C 154.167,54.5 151.833,54.5 149.5,54.5C 149.5,53.5 149.5,52.5 149.5,51.5C 151.833,51.5 154.167,51.5 156.5,51.5 Z"/></g>
<g><path style="opacity:0.847" fill="#27516f" d="M 175.5,52.5 C 175.5,53.1667 175.5,53.8333 175.5,54.5C 173.453,54.5111 171.453,54.8444 169.5,55.5C 168.287,55.2528 167.62,54.5862 167.5,53.5C 170.096,52.7347 172.763,52.4013 175.5,52.5 Z"/></g>
<g><path style="opacity:1" fill="#306294" d="M 190.5,52.5 C 193.902,52.3424 197.236,52.6758 200.5,53.5C 201.404,54.209 201.737,55.209 201.5,56.5C 201.5,59.5 201.5,62.5 201.5,65.5C 199.833,65.5 198.167,65.5 196.5,65.5C 196.665,62.1501 196.498,58.8168 196,55.5C 194.51,54.2721 193.01,54.2721 191.5,55.5C 191.443,54.391 191.11,53.391 190.5,52.5 Z"/></g>
<g><path style="opacity:0.047" fill="#ceecf6" d="M 219.5,55.5 C 219.5,54.5 219.5,53.5 219.5,52.5C 216.144,51.8622 214.144,53.1956 213.5,56.5C 211.824,55.8166 211.157,54.4832 211.5,52.5C 212.648,53.895 213.648,53.7284 214.5,52C 216.473,51.5045 218.473,51.3379 220.5,51.5C 220.768,53.099 220.434,54.4324 219.5,55.5 Z"/></g>
<g><path style="opacity:0.075" fill="#c5f0fe" d="M 60.5,48.5 C 65.0323,48.1818 69.3656,48.5151 73.5,49.5C 69.5,49.5 65.5,49.5 61.5,49.5C 61.1816,66.577 61.5149,83.577 62.5,100.5C 61.8333,100.5 61.1667,100.5 60.5,100.5C 60.5,83.1667 60.5,65.8333 60.5,48.5 Z"/></g>
<g><path style="opacity:0.329" fill="#a3d1e4" d="M 167.5,53.5 C 167.62,54.5862 168.287,55.2528 169.5,55.5C 171.453,54.8444 173.453,54.5111 175.5,54.5C 176.833,55.5 176.833,56.5 175.5,57.5C 173.143,57.3367 170.81,57.5034 168.5,58C 167.934,58.9947 167.267,59.828 166.5,60.5C 167.203,58.0536 167.537,55.7203 167.5,53.5 Z"/></g>
<g><path style="opacity:0.863" fill="#295879" d="M 206.5,48.5 C 207.833,48.5 209.167,48.5 210.5,48.5C 210.5,49.5 210.5,50.5 210.5,51.5C 209.5,51.5 208.5,51.5 207.5,51.5C 207.5,54.8333 207.5,58.1667 207.5,61.5C 208.5,61.5 209.5,61.5 210.5,61.5C 210.5,62.8333 210.5,64.1667 210.5,65.5C 209.167,65.5 207.833,65.5 206.5,65.5C 206.5,59.8333 206.5,54.1667 206.5,48.5 Z"/></g>
<g><path style="opacity:0.882" fill="#315d80" d="M 219.5,55.5 C 216.274,56.8767 215.941,58.5434 218.5,60.5C 219.038,62.1172 219.371,63.7839 219.5,65.5C 218.167,65.5 216.833,65.5 215.5,65.5C 215.167,64.1667 214.833,62.8333 214.5,61.5C 216.175,59.544 215.842,58.2107 213.5,57.5C 213.5,57.1667 213.5,56.8333 213.5,56.5C 214.144,53.1956 216.144,51.8622 219.5,52.5C 219.5,53.5 219.5,54.5 219.5,55.5 Z"/></g>
<g><path style="opacity:0.022" fill="#d8fcff" d="M 41.5,48.5 C 40.1946,57.27 39.528,66.27 39.5,75.5C 39.5002,84.3399 39.8336,93.0066 40.5,101.5C 40.5,101.833 40.5,102.167 40.5,102.5C 39.8333,102.5 39.1667,102.5 38.5,102.5C 38.5,84.5 38.5,66.5 38.5,48.5C 39.5,48.5 40.5,48.5 41.5,48.5 Z"/></g>
<g><path style="opacity:1" fill="#086fb8" d="M 58.5,52.5 C 58.5,61.1667 58.5,69.8333 58.5,78.5C 57.596,77.791 57.2627,76.791 57.5,75.5C 57.8282,70.1254 57.4948,64.7921 56.5,59.5C 55.5059,64.456 55.1725,69.456 55.5,74.5C 55.8168,78.7016 55.4834,82.7016 54.5,86.5C 54.6665,76.8276 54.4998,67.1609 54,57.5C 53.6174,56.944 53.1174,56.6107 52.5,56.5C 52.5,55.1667 52.5,53.8333 52.5,52.5C 54.5,52.5 56.5,52.5 58.5,52.5 Z"/></g>
<g><path style="opacity:1" fill="#086eb8" d="M 81.5,55.5 C 80.6,65.8015 80.2667,76.1348 80.5,86.5C 79.6618,86.1583 79.3284,85.4916 79.5,84.5C 79.8204,81.1016 79.487,77.7683 78.5,74.5C 77.8182,75.2427 77.1515,75.9094 76.5,76.5C 76.5,69.8333 76.5,63.1667 76.5,56.5C 78.083,56.5662 79.7497,56.2328 81.5,55.5 Z"/></g>
<g><path style="opacity:0.098" fill="#c7e9f8" d="M 162.5,51.5 C 161.941,54.6429 162.608,57.8096 164.5,61C 164.361,62.301 163.695,63.1344 162.5,63.5C 162.5,62.5 162.5,61.5 162.5,60.5C 162.52,58.857 161.853,57.5237 160.5,56.5C 161.95,55.1502 162.617,53.4835 162.5,51.5 Z"/></g>
<g><path style="opacity:0.118" fill="#b9ddec" d="M 219.5,55.5 C 218.962,57.1172 218.629,58.7839 218.5,60.5C 215.941,58.5434 216.274,56.8767 219.5,55.5 Z"/></g>
<g><path style="opacity:1" fill="#1270aa" d="M 103.5,47.5 C 103.833,47.5 104.167,47.5 104.5,47.5C 104.5,50.1667 104.5,52.8333 104.5,55.5C 103.517,59.2984 103.183,63.2984 103.5,67.5C 103.167,67.5 102.833,67.5 102.5,67.5C 102.747,64.0613 102.414,60.728 101.5,57.5C 101.5,56.8333 101.5,56.1667 101.5,55.5C 102.141,54.5178 102.807,53.5178 103.5,52.5C 102.185,50.8014 102.185,49.1347 103.5,47.5 Z"/></g>
<g><path style="opacity:1" fill="#205a8e" d="M 190.5,52.5 C 191.11,53.391 191.443,54.391 191.5,55.5C 190.586,58.728 190.253,62.0613 190.5,65.5C 189.167,65.5 187.833,65.5 186.5,65.5C 186.5,61.1667 186.5,56.8333 186.5,52.5C 187.833,52.5 189.167,52.5 190.5,52.5 Z"/></g>
<g><path style="opacity:1" fill="#0771bf" d="M 30.5,55.5 C 32.1667,55.5 33.8333,55.5 35.5,55.5C 35.5,56.8333 35.5,58.1667 35.5,59.5C 34.3681,62.6284 33.5348,65.9618 33,69.5C 32.8195,66.3054 32.3195,63.3054 31.5,60.5C 30.6993,58.9582 30.366,57.2915 30.5,55.5 Z"/></g>
<g><path style="opacity:0.043" fill="#dbfcfe" d="M 91.5,48.5 C 89.3926,49.4682 87.0593,49.8016 84.5,49.5C 84.1813,66.9102 84.5146,84.2436 85.5,101.5C 84.8333,101.5 84.1667,101.5 83.5,101.5C 83.5,83.8333 83.5,66.1667 83.5,48.5C 86.1667,48.5 88.8333,48.5 91.5,48.5 Z"/></g>
<g><path style="opacity:0.338" fill="#77b3d7" d="M 83.5,47.5 C 87.5,47.5 91.5,47.5 95.5,47.5C 96.1667,47.5 96.5,47.8333 96.5,48.5C 96.5,48.8333 96.5,49.1667 96.5,49.5C 96.5,55.8333 96.5,62.1667 96.5,68.5C 96.1667,68.5 95.8333,68.5 95.5,68.5C 95.5,67.8333 95.5,67.1667 95.5,66.5C 96.12,60.0738 95.4533,54.0738 93.5,48.5C 92.8333,48.5 92.1667,48.5 91.5,48.5C 88.8333,48.5 86.1667,48.5 83.5,48.5C 83.5,66.1667 83.5,83.8333 83.5,101.5C 82.5206,98.3752 82.1872,95.0419 82.5,91.5C 82.5,78.1667 82.5,64.8333 82.5,51.5C 82.2322,49.901 82.5655,48.5676 83.5,47.5 Z"/></g>
<g><path style="opacity:0.094" fill="#cee9f8" d="M 201.5,56.5 C 202.205,59.2281 202.872,62.0614 203.5,65C 201.294,67.3463 198.794,67.8463 196,66.5C 195.782,63.5738 195.282,60.7405 194.5,58C 194.833,57.6667 195.167,57.3333 195.5,57C 194.552,56.5172 193.552,56.3505 192.5,56.5C 191.841,59.4552 191.508,62.4552 191.5,65.5C 191.167,65.5 190.833,65.5 190.5,65.5C 190.253,62.0613 190.586,58.728 191.5,55.5C 193.01,54.2721 194.51,54.2721 196,55.5C 196.498,58.8168 196.665,62.1501 196.5,65.5C 198.167,65.5 199.833,65.5 201.5,65.5C 201.5,62.5 201.5,59.5 201.5,56.5 Z"/></g>
<g><path style="opacity:1" fill="#165a97" d="M 210.5,51.5 C 210.5,53.5 210.5,55.5 210.5,57.5C 211.5,57.5 212.5,57.5 213.5,57.5C 215.842,58.2107 216.175,59.544 214.5,61.5C 213.039,60.3143 211.705,60.3143 210.5,61.5C 209.5,61.5 208.5,61.5 207.5,61.5C 207.5,58.1667 207.5,54.8333 207.5,51.5C 208.5,51.5 209.5,51.5 210.5,51.5 Z"/></g>
<g><path style="opacity:1" fill="#2a5c8e" d="M 180.5,55.5 C 181.479,58.6248 181.813,61.9581 181.5,65.5C 180.167,65.5 178.833,65.5 177.5,65.5C 174.482,65.6646 171.482,65.498 168.5,65C 167.418,63.6703 166.751,62.1703 166.5,60.5C 167.267,59.828 167.934,58.9947 168.5,58C 170.81,57.5034 173.143,57.3367 175.5,57.5C 175.557,58.609 175.89,59.609 176.5,60.5C 177.467,61.8062 178.801,62.4729 180.5,62.5C 180.5,60.1667 180.5,57.8333 180.5,55.5 Z"/></g>
<g><path style="opacity:0.2" fill="#b8e4fa" d="M 148.5,58.5 C 151.5,58.5 154.5,58.5 157.5,58.5C 157.5,59.8333 157.5,61.1667 157.5,62.5C 154.5,62.5 151.5,62.5 148.5,62.5C 148.5,61.1667 148.5,59.8333 148.5,58.5 Z M 150.5,59.5 C 152.527,59.3379 154.527,59.5045 156.5,60C 154.121,62.1422 152.121,61.9755 150.5,59.5 Z"/></g>
<g><path style="opacity:1" fill="#276195" d="M 161.5,51.5 C 161.833,51.5 162.167,51.5 162.5,51.5C 162.617,53.4835 161.95,55.1502 160.5,56.5C 161.853,57.5237 162.52,58.857 162.5,60.5C 161.221,61.968 159.554,62.6347 157.5,62.5C 157.5,61.1667 157.5,59.8333 157.5,58.5C 154.5,58.5 151.5,58.5 148.5,58.5C 151.358,57.834 154.358,57.1674 157.5,56.5C 159.261,55.0834 160.594,53.4167 161.5,51.5 Z"/></g>
<g><path style="opacity:0.984" fill="#145494" d="M 175.5,52.5 C 177.933,52.2729 179.599,53.2729 180.5,55.5C 180.5,57.8333 180.5,60.1667 180.5,62.5C 178.801,62.4729 177.467,61.8062 176.5,60.5C 175.89,59.609 175.557,58.609 175.5,57.5C 176.833,56.5 176.833,55.5 175.5,54.5C 175.5,53.8333 175.5,53.1667 175.5,52.5 Z"/></g>
<g><path style="opacity:0.318" fill="#92c1e2" d="M 120.5,46.5 C 121.043,46.56 121.376,46.8933 121.5,47.5C 120.675,48.3857 119.675,48.719 118.5,48.5C 114.167,48.5 109.833,48.5 105.5,48.5C 105.5,54.8333 105.5,61.1667 105.5,67.5C 105.167,67.5 104.833,67.5 104.5,67.5C 104.5,63.5 104.5,59.5 104.5,55.5C 104.5,52.8333 104.5,50.1667 104.5,47.5C 108.167,47.5 111.833,47.5 115.5,47.5C 117.415,47.7845 119.081,47.4511 120.5,46.5 Z"/></g>
<g><path style="opacity:1" fill="#255c85" d="M 162.5,60.5 C 162.5,61.5 162.5,62.5 162.5,63.5C 156.718,65.3559 150.718,66.0226 144.5,65.5C 144.5,65.1667 144.5,64.8333 144.5,64.5C 145.167,64.5 145.833,64.5 146.5,64.5C 147.833,64.5 148.5,63.8333 148.5,62.5C 151.5,62.5 154.5,62.5 157.5,62.5C 159.554,62.6347 161.221,61.968 162.5,60.5 Z"/></g>
<g><path style="opacity:0.239" fill="#b6e0f4" d="M 176.5,60.5 C 176.516,62.4841 175.516,63.4841 173.5,63.5C 172,63.5472 171,62.8805 170.5,61.5C 172.396,60.5344 174.396,60.2011 176.5,60.5 Z"/></g>
<g><path style="opacity:1" fill="#0276c2" d="M 57.5,75.5 C 56.8333,75.1667 56.1667,74.8333 55.5,74.5C 55.1725,69.456 55.5059,64.456 56.5,59.5C 57.4948,64.7921 57.8282,70.1254 57.5,75.5 Z"/></g>
<g><path style="opacity:0.008" fill="#dcfaff" d="M 93.5,48.5 C 95.4533,54.0738 96.12,60.0738 95.5,66.5C 94.7951,60.6008 94.1284,54.6008 93.5,48.5 Z"/></g>
<g><path style="opacity:1" fill="#0571bb" d="M 101.5,57.5 C 102.414,60.728 102.747,64.0613 102.5,67.5C 102.5,68.5 102.5,69.5 102.5,70.5C 101.761,70.631 101.094,70.4643 100.5,70C 99.9152,68.6976 99.2485,67.531 98.5,66.5C 98.3367,64.1432 98.5034,61.8098 99,59.5C 99.4169,58.244 100.25,57.5774 101.5,57.5 Z"/></g>
<g><path style="opacity:1" fill="#0f67a3" d="M 52.5,56.5 C 53.1174,56.6107 53.6174,56.944 54,57.5C 54.4998,67.1609 54.6665,76.8276 54.5,86.5C 54.5,87.1667 54.5,87.8333 54.5,88.5C 54.1583,89.3382 53.4916,89.6716 52.5,89.5C 52.5,78.5 52.5,67.5 52.5,56.5 Z"/></g>
<g><path style="opacity:0.969" fill="#236c9c" d="M 60.5,48.5 C 60.5,65.8333 60.5,83.1667 60.5,100.5C 60.5,100.833 60.5,101.167 60.5,101.5C 59.8333,93.8333 59.1667,86.1667 58.5,78.5C 58.5,69.8333 58.5,61.1667 58.5,52.5C 56.1107,50.3967 56.7774,49.0634 60.5,48.5 Z"/></g>
<g><path style="opacity:1" fill="#0c70b3" d="M 96.5,49.5 C 96.5,49.1667 96.5,48.8333 96.5,48.5C 97.1667,48.5 97.8333,48.5 98.5,48.5C 99.0671,50.698 99.0671,53.0314 98.5,55.5C 99.5,55.5 100.5,55.5 101.5,55.5C 101.5,56.1667 101.5,56.8333 101.5,57.5C 100.25,57.5774 99.4169,58.244 99,59.5C 98.5034,61.8098 98.3367,64.1432 98.5,66.5C 98.8195,71.3633 98.4861,76.03 97.5,80.5C 97.8276,69.9865 97.4942,59.6532 96.5,49.5 Z"/></g>
<g><path style="opacity:0.059" fill="#c4e0ee" d="M 181.5,66.5 C 179.901,66.7678 178.568,66.4345 177.5,65.5C 178.833,65.5 180.167,65.5 181.5,65.5C 181.813,61.9581 181.479,58.6248 180.5,55.5C 179.599,53.2729 177.933,52.2729 175.5,52.5C 172.763,52.4013 170.096,52.7347 167.5,53.5C 172.439,49.2493 177.273,49.5826 182,54.5C 182.812,58.6888 182.645,62.6888 181.5,66.5 Z"/></g>
<g><path style="opacity:0.227" fill="#c8e5f1" d="M 200.5,53.5 C 197.236,52.6758 193.902,52.3424 190.5,52.5C 189.167,52.5 187.833,52.5 186.5,52.5C 186.5,56.8333 186.5,61.1667 186.5,65.5C 187.833,65.5 189.167,65.5 190.5,65.5C 190.833,65.5 191.167,65.5 191.5,65.5C 190.287,67.676 188.62,68.0093 186.5,66.5C 185.506,61.544 185.173,56.544 185.5,51.5C 188.725,51.4267 192.058,51.0933 195.5,50.5C 197.692,50.7573 199.359,51.7573 200.5,53.5 Z"/></g>
<g><path style="opacity:0.182" fill="#c3e6f5" d="M 206.5,47.5 C 206.5,47.8333 206.5,48.1667 206.5,48.5C 206.5,54.1667 206.5,59.8333 206.5,65.5C 207.833,65.5 209.167,65.5 210.5,65.5C 210.5,64.1667 210.5,62.8333 210.5,61.5C 211.705,60.3143 213.039,60.3143 214.5,61.5C 214.833,62.8333 215.167,64.1667 215.5,65.5C 214.21,64.9423 213.377,63.9423 213,62.5C 212.143,67.177 209.643,68.5104 205.5,66.5C 205.691,61.6281 205.358,56.7948 204.5,52C 204.525,50.124 205.191,48.624 206.5,47.5 Z"/></g>
<g><path style="opacity:0.243" fill="#c2deed" d="M 218.5,60.5 C 220.708,61.9175 221.542,63.9175 221,66.5C 218.765,67.9802 216.932,67.6469 215.5,65.5C 216.833,65.5 218.167,65.5 219.5,65.5C 219.371,63.7839 219.038,62.1172 218.5,60.5 Z"/></g>
<g><path style="opacity:1" fill="#056bb5" d="M 98.5,66.5 C 99.2485,67.531 99.9152,68.6976 100.5,70C 101.094,70.4643 101.761,70.631 102.5,70.5C 102.666,75.1785 102.499,79.8452 102,84.5C 101.385,86.1161 100.385,87.4495 99,88.5C 97.6253,86.0632 97.1253,83.3965 97.5,80.5C 98.4861,76.03 98.8195,71.3633 98.5,66.5 Z"/></g>
<g><path style="opacity:0.008" fill="#d1eff9" d="M 162.5,63.5 C 162.063,65.0744 161.063,66.2411 159.5,67C 155.133,67.3638 150.966,67.5304 147,67.5C 145.698,66.9152 144.531,66.2485 143.5,65.5C 143.833,65.5 144.167,65.5 144.5,65.5C 150.718,66.0226 156.718,65.3559 162.5,63.5 Z"/></g>
<g><path style="opacity:0.008" fill="#d7f0f7" d="M 166.5,60.5 C 166.751,62.1703 167.418,63.6703 168.5,65C 171.482,65.498 174.482,65.6646 177.5,65.5C 178.568,66.4345 179.901,66.7678 181.5,66.5C 177.689,67.6453 173.689,67.8119 169.5,67C 166.353,65.5575 165.353,63.3908 166.5,60.5 Z"/></g>
<g><path style="opacity:0.909" fill="#126093" d="M 37.5,49.5 C 37.1699,67.3412 37.5033,85.0079 38.5,102.5C 39.1667,102.5 39.8333,102.5 40.5,102.5C 44.1667,102.5 47.8333,102.5 51.5,102.5C 47.4831,103.253 43.3164,103.92 39,104.5C 36.9803,103.968 36.147,102.635 36.5,100.5C 36.5,99.1667 36.5,97.8333 36.5,96.5C 36.5,94.8333 36.5,93.1667 36.5,91.5C 36.5,90.1667 36.5,88.8333 36.5,87.5C 36.1713,74.6557 36.5046,61.989 37.5,49.5 Z"/></g>
<g><path style="opacity:0.478" fill="#639dbc" d="M 38.5,47.5 C 42.5,47.5 46.5,47.5 50.5,47.5C 50.8333,47.5 51.1667,47.5 51.5,47.5C 51.5,47.8333 51.5,48.1667 51.5,48.5C 50.8333,48.5 50.1667,48.5 49.5,48.5C 46.8333,48.5 44.1667,48.5 41.5,48.5C 40.5,48.5 39.5,48.5 38.5,48.5C 38.5,66.5 38.5,84.5 38.5,102.5C 37.5033,85.0079 37.1699,67.3412 37.5,49.5C 37.3284,48.5084 37.6618,47.8417 38.5,47.5 Z"/></g>
<g><path style="opacity:0.98" fill="#146b9e" d="M 74.5,47.5 C 75.1667,48.1667 75.8333,48.8333 76.5,49.5C 76.5,51.8333 76.5,54.1667 76.5,56.5C 76.5,63.1667 76.5,69.8333 76.5,76.5C 75.6365,82.4549 75.3032,88.4549 75.5,94.5C 75.7947,96.7354 75.4614,98.7354 74.5,100.5C 74.5,82.8333 74.5,65.1667 74.5,47.5 Z"/></g>
<g><path style="opacity:0.027" fill="#dffaff" d="M 118.5,48.5 C 114.702,49.4834 110.702,49.8168 106.5,49.5C 106.181,67.5766 106.514,85.5766 107.5,103.5C 105.521,91.8799 104.854,79.8799 105.5,67.5C 105.5,61.1667 105.5,54.8333 105.5,48.5C 109.833,48.5 114.167,48.5 118.5,48.5 Z"/></g>
<g><path style="opacity:1" fill="#0b64ae" d="M 79.5,84.5 C 76.9162,85.0483 75.9162,86.715 76.5,89.5C 76.7845,91.4147 76.4511,93.0813 75.5,94.5C 75.3032,88.4549 75.6365,82.4549 76.5,76.5C 77.1515,75.9094 77.8182,75.2427 78.5,74.5C 79.487,77.7683 79.8204,81.1016 79.5,84.5 Z"/></g>
<g><path style="opacity:0.082" fill="#cdeffa" d="M 142.5,78.5 C 148.645,77.5098 154.978,77.1765 161.5,77.5C 161.784,79.4147 161.451,81.0813 160.5,82.5C 160.5,82.1667 160.5,81.8333 160.5,81.5C 160.5,80.8333 160.5,80.1667 160.5,79.5C 154.69,78.5104 148.69,78.1771 142.5,78.5 Z"/></g>
<g><path style="opacity:0.741" fill="#4f7692" d="M 142.5,78.5 C 148.69,78.1771 154.69,78.5104 160.5,79.5C 155.456,79.1725 150.456,79.5059 145.5,80.5C 146.602,81.1757 147.602,81.8423 148.5,82.5C 146.5,82.5 144.5,82.5 142.5,82.5C 141.167,81.1667 141.167,79.8333 142.5,78.5 Z"/></g>
<g><path style="opacity:0.09" fill="#ace1f7" d="M 60.5,48.5 C 60.5,48.1667 60.5,47.8333 60.5,47.5C 65.1667,47.5 69.8333,47.5 74.5,47.5C 74.5,65.1667 74.5,82.8333 74.5,100.5C 74.5,100.833 74.5,101.167 74.5,101.5C 74.1667,101.5 73.8333,101.5 73.5,101.5C 69.1667,101.5 64.8333,101.5 60.5,101.5C 60.5,101.167 60.5,100.833 60.5,100.5C 61.1667,100.5 61.8333,100.5 62.5,100.5C 66.1064,100.789 69.6064,100.456 73,99.5C 73.4999,82.8367 73.6666,66.17 73.5,49.5C 69.3656,48.5151 65.0323,48.1818 60.5,48.5 Z"/></g>
<g><path style="opacity:0.013" fill="#e0fdff" d="M 28.5,77.5 C 28.5,77.8333 28.5,78.1667 28.5,78.5C 29.135,87.2337 28.4684,95.5671 26.5,103.5C 27.1404,94.7342 27.8071,86.0676 28.5,77.5 Z"/></g>
<g><path style="opacity:1" fill="#245a90" d="M 160.5,79.5 C 160.5,80.1667 160.5,80.8333 160.5,81.5C 158.167,81.5 155.833,81.5 153.5,81.5C 153.5,86.5 153.5,91.5 153.5,96.5C 152.295,97.6857 150.961,97.6857 149.5,96.5C 149.819,91.6367 149.486,86.97 148.5,82.5C 147.602,81.8423 146.602,81.1757 145.5,80.5C 150.456,79.5059 155.456,79.1725 160.5,79.5 Z"/></g>
<g><path style="opacity:0.22" fill="#cfeaf4" d="M 175.5,82.5 C 173.139,82.6741 170.806,83.0074 168.5,83.5C 167.432,82.5655 166.099,82.2322 164.5,82.5C 166.223,81.193 168.057,81.193 170,82.5C 172.222,80.7219 174.388,80.5553 176.5,82C 176.272,82.3988 175.938,82.5654 175.5,82.5 Z"/></g>
<g><path style="opacity:0.071" fill="#d0eaf5" d="M 213.5,90.5 C 214.181,85.845 212.181,83.1783 207.5,82.5C 204.678,83.1392 202.011,83.4725 199.5,83.5C 198.539,85.2646 198.205,87.2646 198.5,89.5C 195.676,83.0086 197.843,80.3419 205,81.5C 212.401,80.7218 215.234,83.7218 213.5,90.5 Z"/></g>
<g><path style="opacity:0.176" fill="#cae4f3" d="M 231.5,87.5 C 231.5,87.1667 231.5,86.8333 231.5,86.5C 231.426,84.5891 230.426,83.4224 228.5,83C 225.084,82.1067 221.917,82.6067 219,84.5C 218.51,85.7932 218.343,87.1266 218.5,88.5C 218.167,88.5 217.833,88.5 217.5,88.5C 216.645,83.8179 218.812,81.1513 224,80.5C 226.524,81.1043 229.024,81.771 231.5,82.5C 232.788,84.2985 232.788,85.9652 231.5,87.5 Z"/></g>
<g><path style="opacity:0.041" fill="#d5f1fa" d="M 247.5,84.5 C 246.833,84.5 246.167,84.5 245.5,84.5C 243.833,84.5 242.167,84.5 240.5,84.5C 240.414,83.5041 240.748,82.6708 241.5,82C 243.473,81.5045 245.473,81.3379 247.5,81.5C 247.5,80.5 247.5,79.5 247.5,78.5C 244.5,78.5 241.5,78.5 238.5,78.5C 239.496,77.3349 240.829,76.6682 242.5,76.5C 244.592,76.5869 246.592,77.0869 248.5,78C 249.022,78.5613 249.355,79.228 249.5,80C 248.586,81.4064 247.92,82.9064 247.5,84.5 Z"/></g>
<g><path style="opacity:0.039" fill="#ddfbfe" d="M 269.5,82.5 C 271.389,81.2584 273.389,81.2584 275.5,82.5C 273.741,82.9539 271.741,82.9539 269.5,82.5 Z"/></g>
<g><path style="opacity:1" fill="#056bb5" d="M 35.5,59.5 C 35.1731,69.015 35.5064,78.3483 36.5,87.5C 36.5,88.8333 36.5,90.1667 36.5,91.5C 34.9582,92.3007 33.2915,92.634 31.5,92.5C 31.5,81.8333 31.5,71.1667 31.5,60.5C 32.3195,63.3054 32.8195,66.3054 33,69.5C 33.5348,65.9618 34.3681,62.6284 35.5,59.5 Z"/></g>
<g><path style="opacity:1" fill="#0969a6" d="M 82.5,51.5 C 82.5,64.8333 82.5,78.1667 82.5,91.5C 82.1667,91.5 81.8333,91.5 81.5,91.5C 81.3713,89.7839 81.038,88.1172 80.5,86.5C 80.2667,76.1348 80.6,65.8015 81.5,55.5C 81.2322,53.901 81.5655,52.5676 82.5,51.5 Z"/></g>
<g><path style="opacity:0.907" fill="#175b8e" d="M 104.5,55.5 C 104.5,59.5 104.5,63.5 104.5,67.5C 104.5,77.5 104.5,87.5 104.5,97.5C 104.167,97.5 103.833,97.5 103.5,97.5C 103.167,97.5 102.833,97.5 102.5,97.5C 103.396,87.5321 103.729,77.5321 103.5,67.5C 103.183,63.2984 103.517,59.2984 104.5,55.5 Z"/></g>
<g><path style="opacity:0.039" fill="#d7fbff" d="M 160.5,82.5 C 158.626,83.2852 156.626,83.9518 154.5,84.5C 155.918,82.6921 157.918,82.0254 160.5,82.5 Z"/></g>
<g><path style="opacity:0.039" fill="#bec4c7" d="M 179.5,83.5 C 178.833,82.1667 178.833,82.1667 179.5,83.5 Z"/></g>
<g><path style="opacity:1" fill="#3b688f" d="M 238.5,78.5 C 241.5,78.5 244.5,78.5 247.5,78.5C 247.5,79.5 247.5,80.5 247.5,81.5C 245.473,81.3379 243.473,81.5045 241.5,82C 240.748,82.6708 240.414,83.5041 240.5,84.5C 239.252,85.3339 238.585,86.6672 238.5,88.5C 238.667,89.8333 238.833,91.1667 239,92.5C 239.383,93.056 239.883,93.3893 240.5,93.5C 240.5,94.5 240.5,95.5 240.5,96.5C 239.167,97.8333 237.833,97.8333 236.5,96.5C 236.035,90.3108 236.702,84.3108 238.5,78.5 Z"/></g>
<g><path style="opacity:0.343" fill="#91c0e4" d="M 104.5,67.5 C 104.833,67.5 105.167,67.5 105.5,67.5C 104.854,79.8799 105.521,91.8799 107.5,103.5C 109.735,103.205 111.735,103.539 113.5,104.5C 113.5,104.833 113.5,105.167 113.5,105.5C 112.5,105.5 111.5,105.5 110.5,105.5C 108.565,104.85 106.565,104.517 104.5,104.5C 104.5,102.167 104.5,99.8333 104.5,97.5C 104.5,87.5 104.5,77.5 104.5,67.5 Z"/></g>
<g><path style="opacity:0.035" fill="#cdf1fb" d="M 49.5,48.5 C 50.1667,48.5 50.8333,48.5 51.5,48.5C 51.5,66.1667 51.5,83.8333 51.5,101.5C 51.5,101.833 51.5,102.167 51.5,102.5C 47.8333,102.5 44.1667,102.5 40.5,102.5C 40.5,102.167 40.5,101.833 40.5,101.5C 43.5788,101.74 46.5788,101.407 49.5,100.5C 50.8178,83.1025 50.8178,65.7692 49.5,48.5 Z"/></g>
<g><path style="opacity:1" fill="#0a63b5" d="M 79.5,84.5 C 79.3284,85.4916 79.6618,86.1583 80.5,86.5C 81.038,88.1172 81.3713,89.7839 81.5,91.5C 80.8826,91.3893 80.3826,91.056 80,90.5C 79.7978,92.2556 79.2978,93.9223 78.5,95.5C 77.2404,93.6471 77.2404,91.8138 78.5,90C 77.9056,89.5357 77.2389,89.369 76.5,89.5C 75.9162,86.715 76.9162,85.0483 79.5,84.5 Z"/></g>
<g><path style="opacity:1" fill="#275888" d="M 175.5,82.5 C 175.5,82.8333 175.5,83.1667 175.5,83.5C 173.63,84.9561 171.63,86.2895 169.5,87.5C 168.527,89.9479 168.194,92.6146 168.5,95.5C 167.5,95.5 166.5,95.5 165.5,95.5C 165.5,91.5 165.5,87.5 165.5,83.5C 166.5,83.5 167.5,83.5 168.5,83.5C 170.806,83.0074 173.139,82.6741 175.5,82.5 Z"/></g>
<g><path style="opacity:1" fill="#2f5a84" d="M 255.5,90.5 C 255.5,89.8333 255.5,89.1667 255.5,88.5C 257.288,88.7852 258.955,88.4519 260.5,87.5C 258.867,85.261 256.867,84.9277 254.5,86.5C 252.516,86.484 251.516,87.484 251.5,89.5C 251.868,91.1753 252.868,92.1753 254.5,92.5C 257.831,93.0936 261.164,93.427 264.5,93.5C 261.346,96.0933 257.679,97.0933 253.5,96.5C 252.833,96.5 252.5,96.1667 252.5,95.5C 250.874,92.7543 250.207,89.7543 250.5,86.5C 250.328,85.5084 250.662,84.8417 251.5,84.5C 255.931,81.5999 260.097,81.9332 264,85.5C 264.494,87.1341 264.66,88.8008 264.5,90.5C 261.5,90.5 258.5,90.5 255.5,90.5 Z"/></g>
<g><path style="opacity:0.851" fill="#4a7296" d="M 280.5,85.5 C 278.097,85.448 275.764,85.7814 273.5,86.5C 273.179,84.9519 272.179,84.2852 270.5,84.5C 270.335,87.5184 270.502,90.5184 271,93.5C 271.236,91.8807 272.069,90.8807 273.5,90.5C 273.5,92.5 273.5,94.5 273.5,96.5C 272.167,96.5 270.833,96.5 269.5,96.5C 269.5,91.8333 269.5,87.1667 269.5,82.5C 271.741,82.9539 273.741,82.9539 275.5,82.5C 276.946,81.3871 278.613,81.2204 280.5,82C 281.791,83.2917 281.791,84.4583 280.5,85.5 Z"/></g>
<g><path style="opacity:0.948" fill="#185e96" d="M 58.5,78.5 C 59.1667,86.1667 59.8333,93.8333 60.5,101.5C 64.8333,101.5 69.1667,101.5 73.5,101.5C 72.9522,103.532 71.6188,104.532 69.5,104.5C 65.8091,103.607 62.1424,102.607 58.5,101.5C 58.5,97.1667 58.5,92.8333 58.5,88.5C 58.5,85.1667 58.5,81.8333 58.5,78.5 Z"/></g>
<g><path style="opacity:1" fill="#2c5980" d="M 231.5,86.5 C 228.518,86.0371 225.518,85.7038 222.5,85.5C 221.5,86.5 220.5,87.5 219.5,88.5C 219.167,88.5 218.833,88.5 218.5,88.5C 218.343,87.1266 218.51,85.7932 219,84.5C 221.917,82.6067 225.084,82.1067 228.5,83C 230.426,83.4224 231.426,84.5891 231.5,86.5 Z"/></g>
<g><path style="opacity:0.056" fill="#ceeef9" d="M 238.5,78.5 C 236.702,84.3108 236.035,90.3108 236.5,96.5C 235.349,91.3497 235.183,86.0164 236,80.5C 236.417,79.244 237.25,78.5774 238.5,78.5 Z"/></g>
<g><path style="opacity:0.016" fill="#b8e3f6" d="M 255.5,88.5 C 254.662,88.1583 254.328,87.4916 254.5,86.5C 256.867,84.9277 258.867,85.261 260.5,87.5C 258.955,88.4519 257.288,88.7852 255.5,88.5 Z"/></g>
<g><path style="opacity:1" fill="#0564b3" d="M 55.5,74.5 C 56.1667,74.8333 56.8333,75.1667 57.5,75.5C 57.2627,76.791 57.596,77.791 58.5,78.5C 58.5,81.8333 58.5,85.1667 58.5,88.5C 57.8423,89.3984 57.1757,90.3984 56.5,91.5C 55.8243,90.3984 55.1577,89.3984 54.5,88.5C 54.5,87.8333 54.5,87.1667 54.5,86.5C 55.4834,82.7016 55.8168,78.7016 55.5,74.5 Z"/></g>
<g><path style="opacity:1" fill="#0f63a3" d="M 96.5,49.5 C 97.4942,59.6532 97.8276,69.9865 97.5,80.5C 97.1253,83.3965 97.6253,86.0632 99,88.5C 100.385,87.4495 101.385,86.1161 102,84.5C 102.499,79.8452 102.666,75.1785 102.5,70.5C 102.5,69.5 102.5,68.5 102.5,67.5C 102.833,67.5 103.167,67.5 103.5,67.5C 103.729,77.5321 103.396,87.5321 102.5,97.5C 100.871,96.3747 99.3712,95.0414 98,93.5C 97.8171,96.3647 97.3171,99.0314 96.5,101.5C 96.5,90.5 96.5,79.5 96.5,68.5C 96.5,62.1667 96.5,55.8333 96.5,49.5 Z"/></g>
<g><path style="opacity:0.482" fill="#acd4e6" d="M 193.5,96.5 C 193.815,92.6286 193.482,88.9619 192.5,85.5C 189.335,82.197 185.668,81.697 181.5,84C 180.007,85.1562 180.174,85.9896 182,86.5C 184.12,85.5411 186.287,85.3744 188.5,86C 189.252,86.6708 189.586,87.5041 189.5,88.5C 186.098,88.3424 182.764,88.6758 179.5,89.5C 178.359,87.4513 178.359,85.4513 179.5,83.5C 192.459,78.7905 197.125,83.1238 193.5,96.5 Z"/></g>
<g><path style="opacity:1" fill="#225484" d="M 192.5,85.5 C 192.5,86.8333 192.5,88.1667 192.5,89.5C 191.778,89.0825 191.278,88.4158 191,87.5C 190.617,88.056 190.117,88.3893 189.5,88.5C 189.586,87.5041 189.252,86.6708 188.5,86C 186.287,85.3744 184.12,85.5411 182,86.5C 180.174,85.9896 180.007,85.1562 181.5,84C 185.668,81.697 189.335,82.197 192.5,85.5 Z"/></g>
<g><path style="opacity:0.725" fill="#6f94af" d="M 199.5,83.5 C 199.5,87.5 199.5,91.5 199.5,95.5C 200.5,95.5 201.5,95.5 202.5,95.5C 202.194,92.6146 202.527,89.9479 203.5,87.5C 203.5,90.5 203.5,93.5 203.5,96.5C 201.965,97.7879 200.299,97.7879 198.5,96.5C 198.458,94.1457 198.458,91.8123 198.5,89.5C 198.205,87.2646 198.539,85.2646 199.5,83.5 Z"/></g>
<g><path style="opacity:0.035" fill="#cde1f3" d="M 245.5,84.5 C 246.167,84.5 246.833,84.5 247.5,84.5C 247.796,88.0927 248.796,88.7594 250.5,86.5C 250.207,89.7543 250.874,92.7543 252.5,95.5C 250.197,93.3755 247.697,91.3755 245,89.5C 243.893,89.5852 242.893,89.9186 242,90.5C 241.809,92.7078 241.309,94.7078 240.5,96.5C 240.5,95.5 240.5,94.5 240.5,93.5C 240.5,91.5 240.5,89.5 240.5,87.5C 242.604,87.7989 244.604,87.4656 246.5,86.5C 246.137,85.8165 245.804,85.1499 245.5,84.5 Z"/></g>
<g><path style="opacity:1" fill="#185091" d="M 273.5,86.5 C 273.5,87.8333 273.5,89.1667 273.5,90.5C 272.069,90.8807 271.236,91.8807 271,93.5C 270.502,90.5184 270.335,87.5184 270.5,84.5C 272.179,84.2852 273.179,84.9519 273.5,86.5 Z"/></g>
<g><path style="opacity:0.808" fill="#5f82a2" d="M 164.5,82.5 C 166.099,82.2322 167.432,82.5655 168.5,83.5C 167.5,83.5 166.5,83.5 165.5,83.5C 165.5,87.5 165.5,91.5 165.5,95.5C 166.5,95.5 167.5,95.5 168.5,95.5C 168.194,92.6146 168.527,89.9479 169.5,87.5C 169.5,90.5 169.5,93.5 169.5,96.5C 167.833,97.8333 166.167,97.8333 164.5,96.5C 164.5,92.1667 164.5,87.8333 164.5,83.5C 164.5,83.1667 164.5,82.8333 164.5,82.5 Z"/></g>
<g><path style="opacity:0.039" fill="#d7f2f9" d="M 175.5,83.5 C 176.239,83.369 176.906,83.5357 177.5,84C 176.789,85.2547 175.956,86.4214 175,87.5C 173.701,87.0338 172.201,87.0338 170.5,87.5C 170.81,90.7131 170.477,93.7131 169.5,96.5C 169.5,93.5 169.5,90.5 169.5,87.5C 171.63,86.2895 173.63,84.9561 175.5,83.5 Z"/></g>
<g><path style="opacity:1" fill="#376290" d="M 199.5,83.5 C 202.011,83.4725 204.678,83.1392 207.5,82.5C 212.181,83.1783 214.181,85.845 213.5,90.5C 215.179,93.0121 214.845,95.0121 212.5,96.5C 211.5,96.5 210.5,96.5 209.5,96.5C 209.813,92.9581 209.479,89.6248 208.5,86.5C 206.95,85.2801 205.284,85.2801 203.5,86.5C 202.789,84.7986 201.455,83.7986 199.5,83.5 Z"/></g>
<g><path style="opacity:0.463" fill="#aacde5" d="M 280.5,85.5 C 279.365,87.2132 277.698,87.8799 275.5,87.5C 274.793,90.7861 274.46,94.1194 274.5,97.5C 272.585,97.7845 270.919,97.4511 269.5,96.5C 270.833,96.5 272.167,96.5 273.5,96.5C 273.5,94.5 273.5,92.5 273.5,90.5C 273.5,89.1667 273.5,87.8333 273.5,86.5C 275.764,85.7814 278.097,85.448 280.5,85.5 Z"/></g>
<g><path style="opacity:0.969" fill="#265d8c" d="M 222.5,85.5 C 224.89,87.6088 227.723,89.2755 231,90.5C 231.765,92.0657 231.598,93.3991 230.5,94.5C 229.624,94.6309 228.957,94.2975 228.5,93.5C 228.846,92.3044 229.346,92.3044 230,93.5C 230.368,91.0227 229.535,90.3561 227.5,91.5C 224.284,91.6545 221.617,90.6545 219.5,88.5C 220.5,87.5 221.5,86.5 222.5,85.5 Z"/></g>
<g><path style="opacity:1" fill="#0c5fa7" d="M 254.5,86.5 C 254.328,87.4916 254.662,88.1583 255.5,88.5C 255.5,89.1667 255.5,89.8333 255.5,90.5C 254.662,90.8417 254.328,91.5084 254.5,92.5C 252.868,92.1753 251.868,91.1753 251.5,89.5C 251.516,87.484 252.516,86.484 254.5,86.5 Z"/></g>
<g><path style="opacity:0.129" fill="#c7e3f5" d="M 269.5,82.5 C 269.5,87.1667 269.5,91.8333 269.5,96.5C 268.751,95.469 268.085,94.3024 267.5,93C 268.135,89.3973 268.802,85.8973 269.5,82.5 Z"/></g>
<g><path style="opacity:1" fill="#0b5eae" d="M 76.5,89.5 C 77.2389,89.369 77.9056,89.5357 78.5,90C 77.2404,91.8138 77.2404,93.6471 78.5,95.5C 79.2978,93.9223 79.7978,92.2556 80,90.5C 80.3826,91.056 80.8826,91.3893 81.5,91.5C 81.6602,93.1992 81.4935,94.8659 81,96.5C 79.1978,97.7893 78.0312,99.4559 77.5,101.5C 77.7852,103.288 77.4519,104.955 76.5,106.5C 74.7826,105.332 74.1159,103.665 74.5,101.5C 74.5,101.167 74.5,100.833 74.5,100.5C 75.4614,98.7354 75.7947,96.7354 75.5,94.5C 76.4511,93.0813 76.7845,91.4147 76.5,89.5 Z"/></g>
<g><path style="opacity:0.29" fill="#95c1e7" d="M 95.5,68.5 C 95.8333,68.5 96.1667,68.5 96.5,68.5C 96.5,79.5 96.5,90.5 96.5,101.5C 96.5,102.167 96.1667,102.5 95.5,102.5C 93.1667,102.5 90.8333,102.5 88.5,102.5C 86.8333,102.5 85.1667,102.5 83.5,102.5C 83.5,102.167 83.5,101.833 83.5,101.5C 84.1667,101.5 84.8333,101.5 85.5,101.5C 88.5,100.167 91.5,100.167 94.5,101.5C 95.432,90.5383 95.7653,79.5383 95.5,68.5 Z"/></g>
<g><path style="opacity:0.318" fill="#accede" d="M 142.5,82.5 C 144.5,82.5 146.5,82.5 148.5,82.5C 149.486,86.97 149.819,91.6367 149.5,96.5C 147.619,92.3522 147.286,88.0188 148.5,83.5C 146.265,83.7947 144.265,83.4614 142.5,82.5 Z"/></g>
<g><path style="opacity:0.102" fill="#ceeefc" d="M 164.5,83.5 C 164.5,87.8333 164.5,92.1667 164.5,96.5C 162.242,92.3845 162.242,88.0511 164.5,83.5 Z"/></g>
<g><path style="opacity:1" fill="#0e589a" d="M 199.5,83.5 C 201.455,83.7986 202.789,84.7986 203.5,86.5C 203.5,86.8333 203.5,87.1667 203.5,87.5C 202.527,89.9479 202.194,92.6146 202.5,95.5C 201.5,95.5 200.5,95.5 199.5,95.5C 199.5,91.5 199.5,87.5 199.5,83.5 Z"/></g>
<g><path style="opacity:0.339" fill="#8cb5cf" d="M 28.5,78.5 C 28.8333,78.5 29.1667,78.5 29.5,78.5C 29.5,84.8333 29.5,91.1667 29.5,97.5C 29.5,98.1667 29.5,98.8333 29.5,99.5C 30.1679,104.161 28.1679,106.161 23.5,105.5C 22.5,105.5 21.5,105.5 20.5,105.5C 20.5,106.5 20.5,107.5 20.5,108.5C 19.8333,108.5 19.5,108.167 19.5,107.5C 18.2935,106.12 18.6269,104.953 20.5,104C 22.4727,103.505 24.4727,103.338 26.5,103.5C 28.4684,95.5671 29.135,87.2337 28.5,78.5 Z"/></g>
<g><path style="opacity:1" fill="#13619b" d="M 29.5,55.5 C 29.8333,55.5 30.1667,55.5 30.5,55.5C 30.366,57.2915 30.6993,58.9582 31.5,60.5C 31.5,71.1667 31.5,81.8333 31.5,92.5C 33.2915,92.634 34.9582,92.3007 36.5,91.5C 36.5,93.1667 36.5,94.8333 36.5,96.5C 33.9165,95.0623 31.5832,95.3956 29.5,97.5C 29.5,91.1667 29.5,84.8333 29.5,78.5C 29.5,70.8333 29.5,63.1667 29.5,55.5 Z"/></g>
<g><path style="opacity:1" fill="#265a94" d="M 192.5,89.5 C 192.5,90.8333 192.5,92.1667 192.5,93.5C 191.209,93.7373 190.209,93.404 189.5,92.5C 188.082,90.6921 186.082,90.0254 183.5,90.5C 183.5,91.5 183.5,92.5 183.5,93.5C 182.368,94.3543 181.035,94.3543 179.5,93.5C 178.596,92.791 178.263,91.791 178.5,90.5C 178.5,89.8333 178.833,89.5 179.5,89.5C 182.764,88.6758 186.098,88.3424 189.5,88.5C 190.117,88.3893 190.617,88.056 191,87.5C 191.278,88.4158 191.778,89.0825 192.5,89.5 Z"/></g>
<g><path style="opacity:1" fill="#27578d" d="M 240.5,84.5 C 242.167,84.5 243.833,84.5 245.5,84.5C 245.804,85.1499 246.137,85.8165 246.5,86.5C 244.604,87.4656 242.604,87.7989 240.5,87.5C 240.5,89.5 240.5,91.5 240.5,93.5C 239.883,93.3893 239.383,93.056 239,92.5C 238.833,91.1667 238.667,89.8333 238.5,88.5C 238.585,86.6672 239.252,85.3339 240.5,84.5 Z"/></g>
<g><path style="opacity:1" fill="#0861a6" d="M 54.5,88.5 C 55.1577,89.3984 55.8243,90.3984 56.5,91.5C 57.1757,90.3984 57.8423,89.3984 58.5,88.5C 58.5,92.8333 58.5,97.1667 58.5,101.5C 57.5,100.833 56.5,100.167 55.5,99.5C 55.6567,98.1266 55.49,96.7932 55,95.5C 53.6814,97.2495 53.1814,99.2495 53.5,101.5C 53.1667,101.5 52.8333,101.5 52.5,101.5C 52.5,97.5 52.5,93.5 52.5,89.5C 53.4916,89.6716 54.1583,89.3382 54.5,88.5 Z"/></g>
<g><path style="opacity:0.063" fill="#b3e5f8" d="M 189.5,92.5 C 187.621,93.3414 185.621,93.6747 183.5,93.5C 183.5,92.5 183.5,91.5 183.5,90.5C 186.082,90.0254 188.082,90.6921 189.5,92.5 Z"/></g>
<g><path style="opacity:0.02" fill="#c3eaf7" d="M 217.5,88.5 C 217.833,88.5 218.167,88.5 218.5,88.5C 218.833,88.5 219.167,88.5 219.5,88.5C 221.617,90.6545 224.284,91.6545 227.5,91.5C 227.209,92.6491 226.376,93.3158 225,93.5C 222.765,92.5505 220.598,92.5505 218.5,93.5C 219.127,94.4168 219.461,95.4168 219.5,96.5C 215.651,94.8051 215.651,92.9718 219.5,91C 218.619,90.2917 217.953,89.4584 217.5,88.5 Z"/></g>
<g><path style="opacity:0.2" fill="#bcdef0" d="M 253.5,96.5 C 257.679,97.0933 261.346,96.0933 264.5,93.5C 261.164,93.427 257.831,93.0936 254.5,92.5C 254.328,91.5084 254.662,90.8417 255.5,90.5C 258.5,90.5 261.5,90.5 264.5,90.5C 264.66,88.8008 264.494,87.1341 264,85.5C 260.097,81.9332 255.931,81.5999 251.5,84.5C 251.577,83.2502 252.244,82.4169 253.5,82C 260.571,79.5653 264.904,81.8986 266.5,89C 266.117,91.9638 265.117,94.6305 263.5,97C 259.973,97.8075 256.64,97.6408 253.5,96.5 Z"/></g>
<g><path style="opacity:0.333" fill="#a3c3dc" d="M 160.5,81.5 C 160.5,81.8333 160.5,82.1667 160.5,82.5C 157.918,82.0254 155.918,82.6921 154.5,84.5C 156.029,88.7593 155.696,92.7593 153.5,96.5C 153.5,91.5 153.5,86.5 153.5,81.5C 155.833,81.5 158.167,81.5 160.5,81.5 Z"/></g>
<g><path style="opacity:0.016" fill="#dff4fb" d="M 208.5,86.5 C 208.5,87.1667 208.5,87.8333 208.5,88.5C 207.778,88.0825 207.278,87.4158 207,86.5C 206.586,86.9574 206.086,87.2907 205.5,87.5C 204.833,90.6417 204.166,93.6417 203.5,96.5C 203.5,93.5 203.5,90.5 203.5,87.5C 203.5,87.1667 203.5,86.8333 203.5,86.5C 205.284,85.2801 206.95,85.2801 208.5,86.5 Z"/></g>
<g><path style="opacity:0.278" fill="#a8c9e3" d="M 208.5,86.5 C 209.479,89.6248 209.813,92.9581 209.5,96.5C 210.5,96.5 211.5,96.5 212.5,96.5C 211.432,97.4345 210.099,97.7678 208.5,97.5C 208.249,94.2896 208.249,91.2896 208.5,88.5C 208.5,87.8333 208.5,87.1667 208.5,86.5 Z"/></g>
<g><path style="opacity:0.031" fill="#cee5f2" d="M 178.5,90.5 C 178.263,91.791 178.596,92.791 179.5,93.5C 180.167,94.5 180.833,95.5 181.5,96.5C 177.809,95.6638 176.809,93.6638 178.5,90.5 Z"/></g>
<g><path style="opacity:0.855" fill="#325f85" d="M 192.5,85.5 C 193.482,88.9619 193.815,92.6286 193.5,96.5C 189.577,95.7569 185.577,95.7569 181.5,96.5C 180.833,95.5 180.167,94.5 179.5,93.5C 181.035,94.3543 182.368,94.3543 183.5,93.5C 185.621,93.6747 187.621,93.3414 189.5,92.5C 190.209,93.404 191.209,93.7373 192.5,93.5C 192.5,92.1667 192.5,90.8333 192.5,89.5C 192.5,88.1667 192.5,86.8333 192.5,85.5 Z"/></g>
<g><path style="opacity:0.965" fill="#2f618d" d="M 230.5,94.5 C 230.389,95.1174 230.056,95.6174 229.5,96C 226.183,96.4983 222.85,96.665 219.5,96.5C 219.461,95.4168 219.127,94.4168 218.5,93.5C 220.598,92.5505 222.765,92.5505 225,93.5C 226.376,93.3158 227.209,92.6491 227.5,91.5C 229.535,90.3561 230.368,91.0227 230,93.5C 229.346,92.3044 228.846,92.3044 228.5,93.5C 228.957,94.2975 229.624,94.6309 230.5,94.5 Z"/></g>
<g><path style="opacity:0.063" fill="#c8e9f6" d="M 193.5,96.5 C 189.5,97.8333 185.5,97.8333 181.5,96.5C 185.577,95.7569 189.577,95.7569 193.5,96.5 Z"/></g>
<g><path style="opacity:0.063" fill="#c2e8f5" d="M 222.5,85.5 C 225.518,85.7038 228.518,86.0371 231.5,86.5C 231.5,86.8333 231.5,87.1667 231.5,87.5C 234.054,90.8535 233.72,94.0202 230.5,97C 226.642,97.8099 222.976,97.6433 219.5,96.5C 222.85,96.665 226.183,96.4983 229.5,96C 230.056,95.6174 230.389,95.1174 230.5,94.5C 231.598,93.3991 231.765,92.0657 231,90.5C 227.723,89.2755 224.89,87.6088 222.5,85.5 Z"/></g>
<g><path style="opacity:1" fill="#085eae" d="M 36.5,96.5 C 36.5,97.8333 36.5,99.1667 36.5,100.5C 35.8826,100.611 35.3826,100.944 35,101.5C 34.5045,103.473 34.3379,105.473 34.5,107.5C 33.5,107.5 32.5,107.5 31.5,107.5C 30.5663,105.773 30.5663,103.939 31.5,102C 31.3158,100.624 30.6491,99.7911 29.5,99.5C 29.5,98.8333 29.5,98.1667 29.5,97.5C 31.5832,95.3956 33.9165,95.0623 36.5,96.5 Z"/></g>
<g><path style="opacity:1" fill="#075ea7" d="M 55.5,99.5 C 56.5,100.167 57.5,100.833 58.5,101.5C 62.1424,102.607 65.8091,103.607 69.5,104.5C 65.7365,104.091 62.0698,104.091 58.5,104.5C 58.2907,105.086 57.9574,105.586 57.5,106C 60.3647,106.183 63.0314,106.683 65.5,107.5C 62.5,107.5 59.5,107.5 56.5,107.5C 56.5,107.167 56.5,106.833 56.5,106.5C 56.0074,104.194 55.6741,101.861 55.5,99.5 Z"/></g>
<g><path style="opacity:1" fill="#0f5f9f" d="M 81.5,91.5 C 81.8333,91.5 82.1667,91.5 82.5,91.5C 82.1872,95.0419 82.5206,98.3752 83.5,101.5C 83.5,101.833 83.5,102.167 83.5,102.5C 81.9256,102.937 80.7589,103.937 80,105.5C 79.3918,103.934 78.5585,102.6 77.5,101.5C 78.0312,99.4559 79.1978,97.7893 81,96.5C 81.4935,94.8659 81.6602,93.1992 81.5,91.5 Z"/></g>
<g><path style="opacity:1" fill="#0b5aad" d="M 102.5,97.5 C 102.833,97.5 103.167,97.5 103.5,97.5C 103.657,98.8734 103.49,100.207 103,101.5C 101.482,101.057 100.315,101.724 99.5,103.5C 100.807,104.865 100.807,106.198 99.5,107.5C 98.1667,107.5 96.8333,107.5 95.5,107.5C 95.5,105.833 95.5,104.167 95.5,102.5C 96.1667,102.5 96.5,102.167 96.5,101.5C 97.3171,99.0314 97.8171,96.3647 98,93.5C 99.3712,95.0414 100.871,96.3747 102.5,97.5 Z"/></g>
<g><path style="opacity:1" fill="#065db0" d="M 55.5,99.5 C 55.6741,101.861 56.0074,104.194 56.5,106.5C 54.396,106.799 52.396,106.466 50.5,105.5C 52.2882,104.717 53.2882,103.384 53.5,101.5C 53.1814,99.2495 53.6814,97.2495 55,95.5C 55.49,96.7932 55.6567,98.1266 55.5,99.5 Z"/></g>
<g><path style="opacity:1" fill="#095ba5" d="M 36.5,100.5 C 36.147,102.635 36.9803,103.968 39,104.5C 43.3164,103.92 47.4831,103.253 51.5,102.5C 51.5,102.167 51.5,101.833 51.5,101.5C 51.8333,101.5 52.1667,101.5 52.5,101.5C 52.8333,101.5 53.1667,101.5 53.5,101.5C 53.2882,103.384 52.2882,104.717 50.5,105.5C 52.396,106.466 54.396,106.799 56.5,106.5C 56.5,106.833 56.5,107.167 56.5,107.5C 49.1667,107.5 41.8333,107.5 34.5,107.5C 34.3379,105.473 34.5045,103.473 35,101.5C 35.3826,100.944 35.8826,100.611 36.5,100.5 Z"/></g>
<g><path style="opacity:1" fill="#045eab" d="M 69.5,104.5 C 69.9175,105.222 70.5842,105.722 71.5,106C 70.5842,106.278 69.9175,106.778 69.5,107.5C 68.1667,107.5 66.8333,107.5 65.5,107.5C 63.0314,106.683 60.3647,106.183 57.5,106C 57.9574,105.586 58.2907,105.086 58.5,104.5C 62.0698,104.091 65.7365,104.091 69.5,104.5 Z"/></g>
<g><path style="opacity:1" fill="#14579f" d="M 103.5,97.5 C 103.833,97.5 104.167,97.5 104.5,97.5C 104.5,99.8333 104.5,102.167 104.5,104.5C 106.565,104.517 108.565,104.85 110.5,105.5C 107.316,107.414 103.649,108.08 99.5,107.5C 100.807,106.198 100.807,104.865 99.5,103.5C 100.315,101.724 101.482,101.057 103,101.5C 103.49,100.207 103.657,98.8734 103.5,97.5 Z"/></g>
<g><path style="opacity:1" fill="#105899" d="M 29.5,99.5 C 30.6491,99.7911 31.3158,100.624 31.5,102C 30.5663,103.939 30.5663,105.773 31.5,107.5C 28.4816,107.665 25.4816,107.498 22.5,107C 23.056,106.617 23.3893,106.117 23.5,105.5C 28.1679,106.161 30.1679,104.161 29.5,99.5 Z"/></g>
<g><path style="opacity:1" fill="#085da6" d="M 73.5,101.5 C 73.8333,101.5 74.1667,101.5 74.5,101.5C 74.1159,103.665 74.7826,105.332 76.5,106.5C 77.4519,104.955 77.7852,103.288 77.5,101.5C 78.5585,102.6 79.3918,103.934 80,105.5C 80.7589,103.937 81.9256,102.937 83.5,102.5C 83.5,104.167 83.5,105.833 83.5,107.5C 78.8333,107.5 74.1667,107.5 69.5,107.5C 69.9175,106.778 70.5842,106.278 71.5,106C 70.5842,105.722 69.9175,105.222 69.5,104.5C 71.6188,104.532 72.9522,103.532 73.5,101.5 Z"/></g>
<g><path style="opacity:1" fill="#0e5da0" d="M 88.5,102.5 C 90.8333,102.5 93.1667,102.5 95.5,102.5C 95.5,104.167 95.5,105.833 95.5,107.5C 92.4816,107.665 89.4816,107.498 86.5,107C 88.0368,105.89 88.7035,104.39 88.5,102.5 Z"/></g>
<g><path style="opacity:1" fill="#145590" d="M 23.5,105.5 C 23.3893,106.117 23.056,106.617 22.5,107C 25.4816,107.498 28.4816,107.665 31.5,107.5C 32.5,107.5 33.5,107.5 34.5,107.5C 41.8333,107.5 49.1667,107.5 56.5,107.5C 56.5,107.833 56.5,108.167 56.5,108.5C 44.5,108.5 32.5,108.5 20.5,108.5C 20.5,107.5 20.5,106.5 20.5,105.5C 21.5,105.5 22.5,105.5 23.5,105.5 Z"/></g>
<g><path style="opacity:0.94" fill="#175992" d="M 83.5,102.5 C 85.1667,102.5 86.8333,102.5 88.5,102.5C 88.7035,104.39 88.0368,105.89 86.5,107C 89.4816,107.498 92.4816,107.665 95.5,107.5C 96.8333,107.5 98.1667,107.5 99.5,107.5C 103.649,108.08 107.316,107.414 110.5,105.5C 111.5,105.5 112.5,105.5 113.5,105.5C 114.404,106.209 114.737,107.209 114.5,108.5C 106.167,108.5 97.8333,108.5 89.5,108.5C 78.5,108.5 67.5,108.5 56.5,108.5C 56.5,108.167 56.5,107.833 56.5,107.5C 59.5,107.5 62.5,107.5 65.5,107.5C 66.8333,107.5 68.1667,107.5 69.5,107.5C 74.1667,107.5 78.8333,107.5 83.5,107.5C 83.5,105.833 83.5,104.167 83.5,102.5 Z"/></g>
<g><path style="opacity:1" fill="#9ed8fc" d="M 19.5,107.5 C 19.5,108.167 19.8333,108.5 20.5,108.5C 32.5,108.5 44.5,108.5 56.5,108.5C 67.5,108.5 78.5,108.5 89.5,108.5C 96.8333,109.167 104.167,109.833 111.5,110.5C 80.8333,110.5 50.1667,110.5 19.5,110.5C 19.5,111.833 19.5,113.167 19.5,114.5C 19.5,114.833 19.5,115.167 19.5,115.5C 18.1667,112.833 18.1667,110.167 19.5,107.5 Z"/></g>
<g><path style="opacity:0.342" fill="#b1e5fc" d="M 113.5,105.5 C 113.5,105.167 113.5,104.833 113.5,104.5C 114.787,105.871 115.453,107.705 115.5,110C 115.494,112.033 115.161,113.866 114.5,115.5C 114.5,113.833 114.5,112.167 114.5,110.5C 113.5,110.5 112.5,110.5 111.5,110.5C 104.167,109.833 96.8333,109.167 89.5,108.5C 97.8333,108.5 106.167,108.5 114.5,108.5C 114.737,107.209 114.404,106.209 113.5,105.5 Z"/></g>
<g><path style="opacity:0.914" fill="#155185" d="M 111.5,110.5 C 111.5,110.833 111.5,111.167 111.5,111.5C 111.167,111.5 110.833,111.5 110.5,111.5C 101.833,111.5 93.1667,111.5 84.5,111.5C 79.5,111.5 74.5,111.5 69.5,111.5C 61.5,111.5 53.5,111.5 45.5,111.5C 37.3159,111.174 29.3159,111.508 21.5,112.5C 21.8333,113.167 22.1667,113.833 22.5,114.5C 21.5,114.5 20.5,114.5 19.5,114.5C 19.5,113.167 19.5,111.833 19.5,110.5C 50.1667,110.5 80.8333,110.5 111.5,110.5 Z"/></g>
<g><path style="opacity:1" fill="#0c5895" d="M 21.5,112.5 C 29.3159,111.508 37.3159,111.174 45.5,111.5C 42.8333,112.167 40.1667,112.833 37.5,113.5C 32.1053,113.733 26.772,113.4 21.5,112.5 Z"/></g>
<g><path style="opacity:1" fill="#0a5897" d="M 45.5,111.5 C 53.5,111.5 61.5,111.5 69.5,111.5C 69.8333,112.167 70.1667,112.833 70.5,113.5C 59.5,113.5 48.5,113.5 37.5,113.5C 40.1667,112.833 42.8333,112.167 45.5,111.5 Z"/></g>
<g><path style="opacity:1" fill="#0f579b" d="M 69.5,111.5 C 74.5,111.5 79.5,111.5 84.5,111.5C 84.5,112.167 84.5,112.833 84.5,113.5C 79.8333,113.5 75.1667,113.5 70.5,113.5C 70.1667,112.833 69.8333,112.167 69.5,111.5 Z"/></g>
<g><path style="opacity:1" fill="#0e5697" d="M 84.5,111.5 C 93.1667,111.5 101.833,111.5 110.5,111.5C 102.231,113.47 93.5645,114.136 84.5,113.5C 84.5,112.833 84.5,112.167 84.5,111.5 Z"/></g>
<g><path style="opacity:0.934" fill="#0a528a" d="M 21.5,112.5 C 26.772,113.4 32.1053,113.733 37.5,113.5C 48.5,113.5 59.5,113.5 70.5,113.5C 70.5,113.833 70.5,114.167 70.5,114.5C 54.5,114.5 38.5,114.5 22.5,114.5C 22.1667,113.833 21.8333,113.167 21.5,112.5 Z"/></g>
<g><path style="opacity:0.944" fill="#114f8b" d="M 110.5,111.5 C 110.833,111.5 111.167,111.5 111.5,111.5C 113.048,111.821 113.715,112.821 113.5,114.5C 99.1667,114.5 84.8333,114.5 70.5,114.5C 70.5,114.167 70.5,113.833 70.5,113.5C 75.1667,113.5 79.8333,113.5 84.5,113.5C 93.5645,114.136 102.231,113.47 110.5,111.5 Z"/></g>
<g><path style="opacity:0.576" fill="#83abc7" d="M 111.5,111.5 C 111.5,111.167 111.5,110.833 111.5,110.5C 112.5,110.5 113.5,110.5 114.5,110.5C 114.5,112.167 114.5,113.833 114.5,115.5C 82.6804,116.731 51.0137,116.731 19.5,115.5C 19.5,115.167 19.5,114.833 19.5,114.5C 20.5,114.5 21.5,114.5 22.5,114.5C 38.5,114.5 54.5,114.5 70.5,114.5C 84.8333,114.5 99.1667,114.5 113.5,114.5C 113.715,112.821 113.048,111.821 111.5,111.5 Z"/></g>
</svg>
