<?xml version="1.0" encoding="UTF-8"?>
<!DOCTYPE svg PUBLIC "-//W3C//DTD SVG 1.1//EN" "http://www.w3.org/Graphics/SVG/1.1/DTD/svg11.dtd">
<svg xmlns="http://www.w3.org/2000/svg" version="1.1" width="474px" height="192px" style="shape-rendering:geometricPrecision; text-rendering:geometricPrecision; image-rendering:optimizeQuality; fill-rule:evenodd; clip-rule:evenodd" xmlns:xlink="http://www.w3.org/1999/xlink">
<g><path style="opacity:0.465" fill="#828eb6" d="M 306.5,27.5 C 306.5,27.8333 306.5,28.1667 306.5,28.5C 299.5,28.5 292.5,28.5 285.5,28.5C 292.339,26.7829 299.339,26.4496 306.5,27.5 Z"/></g>
<g><path style="opacity:0.008" fill="#c6d3eb" d="M 306.5,28.5 C 306.5,28.1667 306.5,27.8333 306.5,27.5C 311.1,27.2796 315.433,27.9462 319.5,29.5C 315.176,29.0728 310.842,28.7395 306.5,28.5 Z"/></g>
<g><path style="opacity:0.238" fill="#9da0c4" d="M 88.5,30.5 C 85.5,30.5 82.5,30.5 79.5,30.5C 63.5,30.5 47.5,30.5 31.5,30.5C 29.3792,30.3253 27.3792,30.6586 25.5,31.5C 24.2617,31.19 24.2617,30.69 25.5,30C 38.4086,29.8234 51.242,29.3234 64,28.5C 72.2652,29.153 80.4319,29.8197 88.5,30.5 Z"/></g>
<g><path style="opacity:0.143" fill="#999fc7" d="M 184.5,30.5 C 172.829,30.3335 161.162,30.5001 149.5,31C 148.748,31.6708 148.414,32.5041 148.5,33.5C 148.167,33.5 147.833,33.5 147.5,33.5C 147.33,32.1779 147.663,31.0113 148.5,30C 160.674,29.1737 172.674,29.3403 184.5,30.5 Z"/></g>
<g><path style="opacity:0.186" fill="#9ba1cb" d="M 199.5,30.5 C 210.654,29.5052 221.988,29.1719 233.5,29.5C 233.784,31.4147 233.451,33.0813 232.5,34.5C 232.5,33.1667 232.5,31.8333 232.5,30.5C 221.5,30.5 210.5,30.5 199.5,30.5 Z"/></g>
<g><path style="opacity:0.035" fill="#c4cde4" d="M 319.5,30.5 C 319.5,30.1667 319.5,29.8333 319.5,29.5C 322.428,29.5651 325.095,30.2318 327.5,31.5C 324.794,31.4249 322.127,31.0916 319.5,30.5 Z"/></g>
<g><path style="opacity:0.227" fill="#9098d5" d="M 418.5,30.5 C 407.495,30.3335 396.495,30.5002 385.5,31C 383.592,32.9062 381.592,33.7395 379.5,33.5C 380.36,31.3862 382.027,30.2195 384.5,30C 396.008,29.1741 407.341,29.3407 418.5,30.5 Z"/></g>
<g><path style="opacity:1" fill="#01238b" d="M 319.5,30.5 C 321.159,34.1901 321.993,38.1901 322,42.5C 323.073,40.4534 324.239,38.4534 325.5,36.5C 326.325,35.6143 327.325,35.281 328.5,35.5C 328.638,40.4141 327.972,45.0808 326.5,49.5C 325.584,49.9817 324.584,50.315 323.5,50.5C 310.08,50.0838 296.747,49.0838 283.5,47.5C 283.5,48.5 283.5,49.5 283.5,50.5C 295.363,52.5132 295.363,53.6799 283.5,54C 281.836,50.8638 279.169,49.6971 275.5,50.5C 275.281,49.325 275.614,48.325 276.5,47.5C 278.535,46.9588 280.535,46.2922 282.5,45.5C 283.528,43.6385 285.028,42.3052 287,41.5C 287.49,40.2068 287.657,38.8734 287.5,37.5C 284.206,37.259 281.206,38.0924 278.5,40C 277.018,42.4803 275.185,44.6469 273,46.5C 270.736,46.1463 268.902,45.1463 267.5,43.5C 265.604,42.5344 263.604,42.2011 261.5,42.5C 261.5,41.1667 261.5,39.8333 261.5,38.5C 265.984,36.7124 270.65,35.5457 275.5,35C 278.024,32.8098 281.024,31.4764 284.5,31C 296.155,29.3238 307.822,29.1571 319.5,30.5 Z"/></g>
<g><path style="opacity:1" fill="#101a63" d="M 31.5,30.5 C 47.5,30.5 63.5,30.5 79.5,30.5C 81.9686,31.3171 84.6353,31.8171 87.5,32C 88.1905,33.0674 88.6905,34.2341 89,35.5C 92.4581,37.7166 95.4581,40.3832 98,43.5C 100.37,54.5328 102.203,65.6994 103.5,77C 103.684,78.3756 104.351,79.2089 105.5,79.5C 106.167,80.8333 106.833,82.1667 107.5,83.5C 108.341,85.3792 108.675,87.3792 108.5,89.5C 108.322,93.1224 108.989,96.4557 110.5,99.5C 110.322,103.122 110.989,106.456 112.5,109.5C 113.461,111.265 113.795,113.265 113.5,115.5C 113.5,116.5 113.5,117.5 113.5,118.5C 112.175,119.953 111.342,119.619 111,117.5C 110.667,114.167 110.333,110.833 110,107.5C 109.667,108.833 109.333,110.167 109,111.5C 108.333,108.833 107.667,108.833 107,111.5C 107.272,106.212 107.439,100.878 107.5,95.5C 105.876,95.6399 104.71,94.9733 104,93.5C 103.667,97.5 103.333,101.5 103,105.5C 101.062,104.14 99.3957,104.473 98,106.5C 97.5045,108.473 97.3379,110.473 97.5,112.5C 96.1667,112.5 94.8333,112.5 93.5,112.5C 92.2595,119.182 90.9262,125.849 89.5,132.5C 85.3713,124.823 83.038,116.49 82.5,107.5C 81.8076,108.025 81.3076,108.692 81,109.5C 80.7679,108.263 80.2679,107.263 79.5,106.5C 79.7373,105.209 79.404,104.209 78.5,103.5C 77.6993,101.958 77.366,100.292 77.5,98.5C 77.0615,92.1146 76.2281,85.7813 75,79.5C 73.6412,78.635 72.4745,77.635 71.5,76.5C 70.9933,72.1405 70.3266,67.8072 69.5,63.5C 69.6464,56.619 67.9797,50.2856 64.5,44.5C 63.448,44.6495 62.448,44.4828 61.5,44C 59.695,41.5971 57.3616,39.9305 54.5,39C 46.4315,38.2315 38.7648,36.3981 31.5,33.5C 31.5,32.5 31.5,31.5 31.5,30.5 Z"/></g>
<g><path style="opacity:0.573" fill="#8d93ae" d="M 91.5,31.5 C 94.1894,32.1894 95.8561,33.856 96.5,36.5C 94.4514,35.1182 92.7847,33.4516 91.5,31.5 Z"/></g>
<g><path style="opacity:0.525" fill="#7582ad" d="M 284.5,28.5 C 278.767,31.0778 272.767,33.0778 266.5,34.5C 271.948,31.1283 277.948,29.1283 284.5,28.5 Z"/></g>
<g><path style="opacity:0.11" fill="#a3b0d5" d="M 327.5,31.5 C 329.38,31.2291 330.713,31.8958 331.5,33.5C 329.847,33.3404 328.514,32.6737 327.5,31.5 Z"/></g>
<g><path style="opacity:1" fill="#0e2990" d="M 418.5,30.5 C 418.5,30.8333 418.5,31.1667 418.5,31.5C 418.294,34.4951 418.96,37.1617 420.5,39.5C 422.581,47.2919 424.248,55.2919 425.5,63.5C 424.504,63.5858 423.671,63.2524 423,62.5C 422.667,61.1667 422.333,59.8333 422,58.5C 421.667,64.8333 421.333,71.1667 421,77.5C 420.292,76.6195 419.458,75.9528 418.5,75.5C 417.393,70.9185 417.227,66.2519 418,61.5C 420.646,56.079 421.146,50.4123 419.5,44.5C 419.167,44.1667 418.833,43.8333 418.5,43.5C 417.833,44.8333 417.167,46.1667 416.5,47.5C 416.167,46.5 415.833,45.5 415.5,44.5C 416.274,40.5351 416.607,36.5351 416.5,32.5C 405.833,32.5 395.167,32.5 384.5,32.5C 384.5,36.8333 384.5,41.1667 384.5,45.5C 383.5,45.5 382.5,45.5 381.5,45.5C 381.225,50.3821 381.892,55.0487 383.5,59.5C 381.154,64.1433 382.488,66.8099 387.5,67.5C 387.5,69.5 387.5,71.5 387.5,73.5C 388.5,73.5 389.5,73.5 390.5,73.5C 389.85,75.4352 389.517,77.4352 389.5,79.5C 389.672,80.4916 389.338,81.1583 388.5,81.5C 387.778,81.9175 387.278,82.5842 387,83.5C 386.667,82.1667 386.333,80.8333 386,79.5C 385.125,84.8471 384.292,90.1804 383.5,95.5C 381.833,98.8333 380.167,102.167 378.5,105.5C 378.662,103.473 378.495,101.473 378,99.5C 374.987,102.857 372.32,106.524 370,110.5C 369.333,107.5 369.333,104.5 370,101.5C 373.044,100.197 374.211,97.8638 373.5,94.5C 371.833,94.5 370.167,94.5 368.5,94.5C 368.775,99.2203 367.941,99.5537 366,95.5C 365.506,93.8659 365.34,92.1992 365.5,90.5C 364.167,90.5 362.833,90.5 361.5,90.5C 361.5,92.5 361.5,94.5 361.5,96.5C 358.801,96.5339 356.301,95.8672 354,94.5C 353.617,95.056 353.117,95.3893 352.5,95.5C 354.378,92.1308 355.378,88.4641 355.5,84.5C 358.021,82.9696 359.021,80.6363 358.5,77.5C 363.643,73.1222 365.977,67.4555 365.5,60.5C 370.599,56.5632 372.932,51.2299 372.5,44.5C 373.397,43.4019 374.23,43.4019 375,44.5C 375.201,41.2472 376.034,38.2472 377.5,35.5C 377.5,34.1667 378.167,33.5 379.5,33.5C 381.592,33.7395 383.592,32.9062 385.5,31C 396.495,30.5002 407.495,30.3335 418.5,30.5 Z"/></g>
<g><path style="opacity:1" fill="#012798" d="M 418.5,75.5 C 418.414,76.4959 418.748,77.3292 419.5,78C 417.714,81.2132 416.548,84.7132 416,88.5C 413.551,89.7255 413.051,91.3921 414.5,93.5C 413.752,99.4704 413.252,105.47 413,111.5C 412.55,114.106 411.05,115.439 408.5,115.5C 408.5,114.167 408.5,112.833 408.5,111.5C 409.651,106.35 409.817,101.016 409,95.5C 408.176,91.9281 406.843,89.2615 405,87.5C 404.333,91.5 403.667,91.5 403,87.5C 402.692,88.3081 402.192,88.9747 401.5,89.5C 399.488,83.04 397.488,76.7066 395.5,70.5C 395.291,69.0783 394.791,67.745 394,66.5C 393.102,69.0691 391.935,71.4024 390.5,73.5C 389.5,73.5 388.5,73.5 387.5,73.5C 387.5,71.5 387.5,69.5 387.5,67.5C 382.488,66.8099 381.154,64.1433 383.5,59.5C 381.892,55.0487 381.225,50.3821 381.5,45.5C 382.5,45.5 383.5,45.5 384.5,45.5C 384.5,41.1667 384.5,36.8333 384.5,32.5C 395.167,32.5 405.833,32.5 416.5,32.5C 416.607,36.5351 416.274,40.5351 415.5,44.5C 415.833,45.5 416.167,46.5 416.5,47.5C 417.167,46.1667 417.833,44.8333 418.5,43.5C 418.833,43.8333 419.167,44.1667 419.5,44.5C 421.146,50.4123 420.646,56.079 418,61.5C 417.227,66.2519 417.393,70.9185 418.5,75.5 Z"/></g>
<g><path style="opacity:0.286" fill="#888c9d" d="M 25.5,32.5 C 26.1667,33.1667 26.8333,33.8333 27.5,34.5C 26.325,34.719 25.325,34.3857 24.5,33.5C 24.6236,32.8933 24.9569,32.56 25.5,32.5 Z"/></g>
<g><path style="opacity:1" fill="#0e226f" d="M 284.5,28.5 C 284.833,28.5 285.167,28.5 285.5,28.5C 292.5,28.5 299.5,28.5 306.5,28.5C 310.842,28.7395 315.176,29.0728 319.5,29.5C 319.5,29.8333 319.5,30.1667 319.5,30.5C 307.822,29.1571 296.155,29.3238 284.5,31C 281.024,31.4764 278.024,32.8098 275.5,35C 270.65,35.5457 265.984,36.7124 261.5,38.5C 261.5,38.1667 261.5,37.8333 261.5,37.5C 261.842,36.6618 262.508,36.3284 263.5,36.5C 265.027,36.573 266.027,35.9063 266.5,34.5C 272.767,33.0778 278.767,31.0778 284.5,28.5 Z"/></g>
<g><path style="opacity:0.475" fill="#989ab5" d="M 27.5,34.5 C 32.5401,34.9229 37.2068,36.2562 41.5,38.5C 36.5551,37.7673 31.8885,36.434 27.5,34.5 Z"/></g>
<g><path style="opacity:0.255" fill="#98a2c0" d="M 266.5,34.5 C 266.027,35.9063 265.027,36.573 263.5,36.5C 263.973,35.0937 264.973,34.427 266.5,34.5 Z"/></g>
<g><path style="opacity:0.141" fill="#9a9cbb" d="M 96.5,36.5 C 97.9063,36.9731 98.573,37.9731 98.5,39.5C 97.0937,39.0269 96.427,38.0269 96.5,36.5 Z"/></g>
<g><path style="opacity:0.184" fill="#a7b2d6" d="M 261.5,37.5 C 261.5,37.8333 261.5,38.1667 261.5,38.5C 260.609,39.1098 259.609,39.4431 258.5,39.5C 258.973,38.0937 259.973,37.427 261.5,37.5 Z"/></g>
<g><path style="opacity:0.192" fill="#a4b2d3" d="M 418.5,31.5 C 419.768,33.9052 420.435,36.5718 420.5,39.5C 418.96,37.1617 418.294,34.4951 418.5,31.5 Z"/></g>
<g><path style="opacity:0.667" fill="#787d93" d="M 44.5,39.5 C 48.4503,39.4876 51.7836,40.8209 54.5,43.5C 50.9098,42.5166 47.5765,41.1833 44.5,39.5 Z"/></g>
<g><path style="opacity:1" fill="#2f3567" d="M 147.5,33.5 C 147.833,33.5 148.167,33.5 148.5,33.5C 149.407,40.151 147.074,45.151 141.5,48.5C 143.226,43.3829 145.226,38.3829 147.5,33.5 Z"/></g>
<g><path style="opacity:0.659" fill="#494c7d" d="M 183.5,33.5 C 180.685,41.7866 177.352,49.7866 173.5,57.5C 173.465,52.6142 174.798,48.2808 177.5,44.5C 177.937,39.2227 179.937,35.5561 183.5,33.5 Z"/></g>
<g><path style="opacity:0.165" fill="#a0aecf" d="M 257.5,40.5 C 256.833,41.5 256.167,42.5 255.5,43.5C 254.833,43.8333 254.167,44.1667 253.5,44.5C 253.833,42.1667 255.167,40.8333 257.5,40.5 Z"/></g>
<g><path style="opacity:0.98" fill="#3b4688" d="M 377.5,35.5 C 376.034,38.2472 375.201,41.2472 375,44.5C 374.23,43.4019 373.397,43.4019 372.5,44.5C 372.889,40.7158 374.556,37.7158 377.5,35.5 Z"/></g>
<g><path style="opacity:0.137" fill="#adb4cd" d="M 57.5,44.5 C 59.0269,44.427 60.0269,45.0937 60.5,46.5C 58.9731,46.573 57.9731,45.9063 57.5,44.5 Z"/></g>
<g><path style="opacity:0.149" fill="#aabdd5" d="M 253.5,44.5 C 252.833,45.8333 251.833,46.8333 250.5,47.5C 250.5,45.5 251.5,44.5 253.5,44.5 Z"/></g>
<g><path style="opacity:0.243" fill="#9a9fb7" d="M 60.5,46.5 C 62.8333,46.8333 64.1667,48.1667 64.5,50.5C 62.8333,49.5 61.5,48.1667 60.5,46.5 Z"/></g>
<g><path style="opacity:0.875" fill="#27336e" d="M 255.5,43.5 C 255.33,44.8221 255.663,45.9887 256.5,47C 253.267,49.2631 249.934,51.4298 246.5,53.5C 246.845,50.8021 248.178,48.8021 250.5,47.5C 251.833,46.8333 252.833,45.8333 253.5,44.5C 254.167,44.1667 254.833,43.8333 255.5,43.5 Z"/></g>
<g><path style="opacity:0.659" fill="#2e357e" d="M 319.5,30.5 C 322.127,31.0916 324.794,31.4249 327.5,31.5C 328.514,32.6737 329.847,33.3404 331.5,33.5C 332.043,33.56 332.376,33.8933 332.5,34.5C 331.035,39.8326 329.702,45.1659 328.5,50.5C 326.757,53.4952 325.757,56.8285 325.5,60.5C 324.5,60.5 323.5,60.5 322.5,60.5C 321.22,59.0687 319.553,58.4021 317.5,58.5C 316.209,58.7373 315.209,58.404 314.5,57.5C 317.833,57.5 321.167,57.5 324.5,57.5C 324.365,54.5825 325.032,51.9158 326.5,49.5C 327.972,45.0808 328.638,40.4141 328.5,35.5C 327.325,35.281 326.325,35.6143 325.5,36.5C 324.239,38.4534 323.073,40.4534 322,42.5C 321.993,38.1901 321.159,34.1901 319.5,30.5 Z"/></g>
<g><path style="opacity:0.18" fill="#a4add2" d="M 196.5,42.5 C 196.706,45.4951 196.04,48.1617 194.5,50.5C 194.565,47.5718 195.232,44.9052 196.5,42.5 Z"/></g>
<g><path style="opacity:1" fill="#072381" d="M 326.5,49.5 C 325.032,51.9158 324.365,54.5825 324.5,57.5C 321.167,57.5 317.833,57.5 314.5,57.5C 308.813,57.0312 303.146,56.3646 297.5,55.5C 292.123,55.9195 287.123,57.2529 282.5,59.5C 279.728,59.22 277.228,59.8866 275,61.5C 274.491,67.0632 273.325,72.0632 271.5,76.5C 271.833,77.5 272.167,78.5 272.5,79.5C 273.086,79.2907 273.586,78.9574 274,78.5C 274.495,76.5273 274.662,74.5273 274.5,72.5C 276.144,72.2865 277.644,72.6198 279,73.5C 279.495,75.4727 279.662,77.4727 279.5,79.5C 282.108,79.5997 284.442,78.9331 286.5,77.5C 289.088,79.6246 292.088,80.9579 295.5,81.5C 297.674,81.7497 299.341,82.7497 300.5,84.5C 303.551,86.4699 306.218,88.9699 308.5,92C 309.577,92.4696 310.577,92.3029 311.5,91.5C 312.262,93.2624 313.596,94.2624 315.5,94.5C 315.624,99.8079 317.791,104.141 322,107.5C 323.617,115.45 323.784,123.45 322.5,131.5C 322.672,132.492 322.338,133.158 321.5,133.5C 319.784,135.447 317.617,136.781 315,137.5C 312.728,141.594 311.228,145.928 310.5,150.5C 310.158,151.338 309.492,151.672 308.5,151.5C 305.715,150.916 304.048,151.916 303.5,154.5C 302.85,154.196 302.183,153.863 301.5,153.5C 300.304,153.846 300.304,154.346 301.5,155C 298.98,155.421 296.98,156.588 295.5,158.5C 293.447,158.402 291.78,159.069 290.5,160.5C 289.432,161.434 288.099,161.768 286.5,161.5C 281.238,161.805 276.072,161.471 271,160.5C 271.395,155.253 271.562,149.92 271.5,144.5C 266.821,144.666 262.155,144.499 257.5,144C 256.833,143.333 256.167,142.667 255.5,142C 260.823,141.501 266.156,141.334 271.5,141.5C 271.5,140.167 271.5,138.833 271.5,137.5C 275.514,137.666 279.514,137.499 283.5,137C 285.584,135.252 287.584,133.418 289.5,131.5C 290.251,132.376 290.751,133.376 291,134.5C 291.72,132.888 291.554,131.388 290.5,130C 290.877,126.087 291.877,122.42 293.5,119C 290.109,115.426 286.109,112.926 281.5,111.5C 281.5,110.5 281.5,109.5 281.5,108.5C 276.737,106.246 271.737,104.579 266.5,103.5C 264.45,100.942 262.117,98.4423 259.5,96C 259.833,95.6667 260.167,95.3333 260.5,95C 258.833,94.6667 257.167,94.3333 255.5,94C 256.943,90.7222 256.776,87.5556 255,84.5C 254.153,88.0689 252.153,89.4022 249,88.5C 248.667,85.8333 248.333,83.1667 248,80.5C 246.989,81.3366 245.822,81.67 244.5,81.5C 243.833,81.5 243.5,81.1667 243.5,80.5C 244.438,72.8655 245.438,65.1988 246.5,57.5C 246.5,56.1667 246.5,54.8333 246.5,53.5C 249.934,51.4298 253.267,49.2631 256.5,47C 255.663,45.9887 255.33,44.8221 255.5,43.5C 256.167,42.5 256.833,41.5 257.5,40.5C 257.5,39.8333 257.833,39.5 258.5,39.5C 259.609,39.4431 260.609,39.1098 261.5,38.5C 261.5,39.8333 261.5,41.1667 261.5,42.5C 263.604,42.2011 265.604,42.5344 267.5,43.5C 268.902,45.1463 270.736,46.1463 273,46.5C 275.185,44.6469 277.018,42.4803 278.5,40C 281.206,38.0924 284.206,37.259 287.5,37.5C 287.657,38.8734 287.49,40.2068 287,41.5C 285.028,42.3052 283.528,43.6385 282.5,45.5C 280.535,46.2922 278.535,46.9588 276.5,47.5C 275.614,48.325 275.281,49.325 275.5,50.5C 279.169,49.6971 281.836,50.8638 283.5,54C 295.363,53.6799 295.363,52.5132 283.5,50.5C 283.5,49.5 283.5,48.5 283.5,47.5C 296.747,49.0838 310.08,50.0838 323.5,50.5C 324.584,50.315 325.584,49.9817 326.5,49.5 Z"/></g>
<g><path style="opacity:1" fill="#2c2f60" d="M 79.5,30.5 C 82.5,30.5 85.5,30.5 88.5,30.5C 89.791,30.2627 90.791,30.596 91.5,31.5C 92.7847,33.4516 94.4514,35.1182 96.5,36.5C 96.427,38.0269 97.0937,39.0269 98.5,39.5C 100.594,45.5601 101.928,51.8935 102.5,58.5C 102.42,61.7814 103.087,64.7814 104.5,67.5C 105.451,68.9187 105.784,70.5853 105.5,72.5C 105.5,74.8333 105.5,77.1667 105.5,79.5C 104.351,79.2089 103.684,78.3756 103.5,77C 102.203,65.6994 100.37,54.5328 98,43.5C 95.4581,40.3832 92.4581,37.7166 89,35.5C 88.6905,34.2341 88.1905,33.0674 87.5,32C 84.6353,31.8171 81.9686,31.3171 79.5,30.5 Z"/></g>
<g><path style="opacity:0.286" fill="#8596bd" d="M 328.5,50.5 C 327.833,54.1667 327.167,57.8333 326.5,61.5C 324.901,61.7678 323.568,61.4345 322.5,60.5C 323.5,60.5 324.5,60.5 325.5,60.5C 325.757,56.8285 326.757,53.4952 328.5,50.5 Z"/></g>
<g><path style="opacity:1" fill="#434b91" d="M 372.5,44.5 C 372.932,51.2299 370.599,56.5632 365.5,60.5C 367.322,54.8641 369.655,49.5307 372.5,44.5 Z"/></g>
<g><path style="opacity:0.6" fill="#454a77" d="M 141.5,48.5 C 142.25,52.7754 140.917,56.1087 137.5,58.5C 138.321,54.8733 139.654,51.54 141.5,48.5 Z"/></g>
<g><path style="opacity:1" fill="#0c1d6d" d="M 184.5,30.5 C 184.737,31.791 184.404,32.791 183.5,33.5C 179.937,35.5561 177.937,39.2227 177.5,44.5C 174.798,48.2808 173.465,52.6142 173.5,57.5C 173.672,58.4916 173.338,59.1583 172.5,59.5C 171.504,59.4142 170.671,59.7476 170,60.5C 169.503,62.8098 169.337,65.1432 169.5,67.5C 168.925,70.9116 167.592,73.9116 165.5,76.5C 164.599,77.2905 163.932,78.2905 163.5,79.5C 161.933,78.3192 161.099,76.6526 161,74.5C 160.362,75.6086 159.862,76.7753 159.5,78C 160.885,79.5971 161.551,81.4305 161.5,83.5C 160.5,83.5 159.5,83.5 158.5,83.5C 158.5,85.8333 158.5,88.1667 158.5,90.5C 155.679,90.3159 154.012,91.6493 153.5,94.5C 154.485,96.0983 154.651,97.765 154,99.5C 151.387,103.111 149.72,107.111 149,111.5C 147.708,112.791 146.542,112.791 145.5,111.5C 145.649,110.448 145.483,109.448 145,108.5C 144.632,109.91 143.799,110.91 142.5,111.5C 138.263,111.306 134.097,111.306 130,111.5C 127.251,103.989 125.251,103.989 124,111.5C 122.989,112.337 121.822,112.67 120.5,112.5C 122.649,106.373 123.983,100.04 124.5,93.5C 125.784,90.5982 126.784,87.5982 127.5,84.5C 130.272,86.4338 132.105,85.7671 133,82.5C 132.693,75.236 134.526,68.4027 138.5,62C 137.748,61.3292 137.414,60.4959 137.5,59.5C 137.5,59.1667 137.5,58.8333 137.5,58.5C 140.917,56.1087 142.25,52.7754 141.5,48.5C 147.074,45.151 149.407,40.151 148.5,33.5C 148.414,32.5041 148.748,31.6708 149.5,31C 161.162,30.5001 172.829,30.3335 184.5,30.5 Z"/></g>
<g><path style="opacity:1" fill="#2a3077" d="M 199.5,30.5 C 210.5,30.5 221.5,30.5 232.5,30.5C 232.5,31.8333 232.5,33.1667 232.5,34.5C 231.913,41.1088 230.579,47.4421 228.5,53.5C 228.792,50.2346 228.125,47.2346 226.5,44.5C 227.348,40.7641 227.681,37.0974 227.5,33.5C 218.19,32.5017 208.857,32.1684 199.5,32.5C 199.708,36.8794 199.375,41.2127 198.5,45.5C 200.356,51.2709 201.022,57.2709 200.5,63.5C 199.5,63.5 198.5,63.5 197.5,63.5C 197.157,55.7112 195.99,55.7112 194,63.5C 193.617,62.944 193.117,62.6107 192.5,62.5C 192.5,61.8333 192.5,61.1667 192.5,60.5C 192.851,57.0968 193.518,53.7635 194.5,50.5C 196.04,48.1617 196.706,45.4951 196.5,42.5C 196.502,38.1259 197.502,34.1259 199.5,30.5 Z"/></g>
<g><path style="opacity:0.075" fill="#b0b9d3" d="M 228.5,53.5 C 228.58,56.7814 227.913,59.7814 226.5,62.5C 226.42,59.2186 227.087,56.2186 228.5,53.5 Z"/></g>
<g><path style="opacity:0.733" fill="#7a83ad" d="M 246.5,53.5 C 246.5,54.8333 246.5,56.1667 246.5,57.5C 244.975,60.0791 243.641,62.7458 242.5,65.5C 242.459,60.9555 243.792,56.9555 246.5,53.5 Z"/></g>
<g><path style="opacity:0.953" fill="#222356" d="M 31.5,30.5 C 31.5,31.5 31.5,32.5 31.5,33.5C 38.7648,36.3981 46.4315,38.2315 54.5,39C 57.3616,39.9305 59.695,41.5971 61.5,44C 62.448,44.4828 63.448,44.6495 64.5,44.5C 67.9797,50.2856 69.6464,56.619 69.5,63.5C 68.5,61.5 67.5,59.5 66.5,57.5C 65.3882,55.4006 64.7215,53.0673 64.5,50.5C 64.1667,48.1667 62.8333,46.8333 60.5,46.5C 60.0269,45.0937 59.0269,44.427 57.5,44.5C 56.209,44.7373 55.209,44.404 54.5,43.5C 51.7836,40.8209 48.4503,39.4876 44.5,39.5C 43.209,39.7373 42.209,39.404 41.5,38.5C 37.2068,36.2562 32.5401,34.9229 27.5,34.5C 26.8333,33.8333 26.1667,33.1667 25.5,32.5C 25.5,32.1667 25.5,31.8333 25.5,31.5C 27.3792,30.6586 29.3792,30.3253 31.5,30.5 Z"/></g>
<g><path style="opacity:0.02" fill="#d7defa" d="M 317.5,58.5 C 319.553,58.4021 321.22,59.0687 322.5,60.5C 320.447,60.5979 318.78,59.9313 317.5,58.5 Z"/></g>
<g><path style="opacity:1" fill="#041e78" d="M 228.5,53.5 C 227.087,56.2186 226.42,59.2186 226.5,62.5C 226.5,62.8333 226.5,63.1667 226.5,63.5C 225.5,63.5 224.5,63.5 223.5,63.5C 223.167,68.8333 222.833,74.1667 222.5,79.5C 220.822,80.7471 219.489,82.4138 218.5,84.5C 217.548,82.9547 217.215,81.288 217.5,79.5C 216.178,79.33 215.011,79.6634 214,80.5C 213.501,85.4889 213.334,90.4889 213.5,95.5C 212.167,95.5 210.833,95.5 209.5,95.5C 209.5,90.1667 209.5,84.8333 209.5,79.5C 203.726,79.7143 198.226,79.7143 193,79.5C 192.667,83.8333 192.333,88.1667 192,92.5C 191.692,93.3081 191.192,93.9747 190.5,94.5C 189.507,89.8804 189.173,85.2137 189.5,80.5C 192.133,75.8915 193.133,70.8915 192.5,65.5C 192.5,64.5 192.5,63.5 192.5,62.5C 193.117,62.6107 193.617,62.944 194,63.5C 195.99,55.7112 197.157,55.7112 197.5,63.5C 198.5,63.5 199.5,63.5 200.5,63.5C 201.022,57.2709 200.356,51.2709 198.5,45.5C 199.375,41.2127 199.708,36.8794 199.5,32.5C 208.857,32.1684 218.19,32.5017 227.5,33.5C 227.681,37.0974 227.348,40.7641 226.5,44.5C 228.125,47.2346 228.792,50.2346 228.5,53.5 Z"/></g>
<g><path style="opacity:0.824" fill="#606590" d="M 172.5,59.5 C 172.02,62.4432 171.02,65.1098 169.5,67.5C 169.337,65.1432 169.503,62.8098 170,60.5C 170.671,59.7476 171.504,59.4142 172.5,59.5 Z"/></g>
<g><path style="opacity:0.078" fill="#c0c4d9" d="M 66.5,57.5 C 67.5,59.5 68.5,61.5 69.5,63.5C 70.3266,67.8072 70.9933,72.1405 71.5,76.5C 69.0756,70.4745 67.4089,64.1412 66.5,57.5 Z"/></g>
<g><path style="opacity:0.22" fill="#bec0dc" d="M 102.5,58.5 C 103.913,61.2186 104.58,64.2186 104.5,67.5C 103.087,64.7814 102.42,61.7814 102.5,58.5 Z"/></g>
<g><path style="opacity:0.824" fill="#5f6695" d="M 226.5,63.5 C 225.769,69.7475 224.435,75.7475 222.5,81.5C 222.5,80.8333 222.5,80.1667 222.5,79.5C 222.833,74.1667 223.167,68.8333 223.5,63.5C 224.5,63.5 225.5,63.5 226.5,63.5 Z"/></g>
<g><path style="opacity:0.239" fill="#adb2d4" d="M 192.5,60.5 C 192.5,61.1667 192.5,61.8333 192.5,62.5C 192.5,63.5 192.5,64.5 192.5,65.5C 191.833,66.8333 191.167,68.1667 190.5,69.5C 190.42,66.2186 191.087,63.2186 192.5,60.5 Z"/></g>
<g><path style="opacity:0.894" fill="#4d558f" d="M 365.5,60.5 C 365.977,67.4555 363.643,73.1222 358.5,77.5C 360.591,71.6622 362.924,65.9955 365.5,60.5 Z"/></g>
<g><path style="opacity:0.082" fill="#cadbf1" d="M 395.5,70.5 C 396.159,73.4552 396.492,76.4552 396.5,79.5C 395.379,77.0458 394.546,74.3791 394,71.5C 392.205,74.0993 390.705,76.7659 389.5,79.5C 389.517,77.4352 389.85,75.4352 390.5,73.5C 391.935,71.4024 393.102,69.0691 394,66.5C 394.791,67.745 395.291,69.0783 395.5,70.5 Z"/></g>
<g><path style="opacity:0.271" fill="#a7b2d7" d="M 425.5,64.5 C 426.913,67.2186 427.58,70.2186 427.5,73.5C 426.087,70.7814 425.42,67.7814 425.5,64.5 Z"/></g>
<g><path style="opacity:0.93" fill="#41457b" d="M 246.5,57.5 C 245.438,65.1988 244.438,72.8655 243.5,80.5C 241.486,75.6797 241.152,70.6797 242.5,65.5C 243.641,62.7458 244.975,60.0791 246.5,57.5 Z"/></g>
<g><path style="opacity:0.051" fill="#c6cee6" d="M 133.5,68.5 C 133.598,70.5529 132.931,72.2196 131.5,73.5C 131.402,71.4471 132.069,69.7804 133.5,68.5 Z"/></g>
<g><path style="opacity:1" fill="#29327f" d="M 282.5,59.5 C 279.282,61.9807 278.115,65.314 279,69.5C 281.069,72.406 283.569,74.7393 286.5,76.5C 286.5,76.8333 286.5,77.1667 286.5,77.5C 284.442,78.9331 282.108,79.5997 279.5,79.5C 279.662,77.4727 279.495,75.4727 279,73.5C 277.644,72.6198 276.144,72.2865 274.5,72.5C 274.662,74.5273 274.495,76.5273 274,78.5C 273.586,78.9574 273.086,79.2907 272.5,79.5C 272.167,78.5 271.833,77.5 271.5,76.5C 273.325,72.0632 274.491,67.0632 275,61.5C 277.228,59.8866 279.728,59.22 282.5,59.5 Z"/></g>
<g><path style="opacity:1" fill="#0a2998" d="M 425.5,63.5 C 425.5,63.8333 425.5,64.1667 425.5,64.5C 425.42,67.7814 426.087,70.7814 427.5,73.5C 430.135,83.3441 432.135,93.3441 433.5,103.5C 433.5,106.167 433.5,108.833 433.5,111.5C 432.5,111.5 431.5,111.5 430.5,111.5C 430.155,122.903 430.822,134.237 432.5,145.5C 432.249,149.913 431.582,154.246 430.5,158.5C 425.833,158.5 421.167,158.5 416.5,158.5C 416.85,155.144 416.017,152.144 414,149.5C 413.501,145.848 413.335,142.182 413.5,138.5C 414.5,138.5 415.5,138.5 416.5,138.5C 416.66,136.801 416.494,135.134 416,133.5C 414.333,134.167 412.667,134.833 411,135.5C 411.333,136.833 411.667,138.167 412,139.5C 397.621,139.601 383.121,139.434 368.5,139C 378.5,138.667 388.5,138.333 398.5,138C 404.578,134.573 404.578,133.407 398.5,134.5C 388.155,134.291 377.822,133.791 367.5,133C 378.154,132.167 388.82,131.667 399.5,131.5C 399.67,130.178 399.337,129.011 398.5,128C 392.833,127.667 387.167,127.333 381.5,127C 382.167,126.667 382.833,126.333 383.5,126C 392.167,125.333 400.833,125.333 409.5,126C 407.369,126.543 405.369,127.376 403.5,128.5C 403.709,129.086 404.043,129.586 404.5,130C 408.524,130.497 412.524,130.331 416.5,129.5C 417.041,125.705 415.375,123.705 411.5,123.5C 410.846,121.885 410.346,120.218 410,118.5C 409.439,117.978 408.772,117.645 408,117.5C 406.001,119.278 403.667,120.278 401,120.5C 393,119.167 385,119.167 377,120.5C 372.62,119.085 372.954,117.751 378,116.5C 385.463,117.617 392.963,117.784 400.5,117C 401.737,116.768 402.737,116.268 403.5,115.5C 404.167,115.5 404.5,115.167 404.5,114.5C 405.833,113.5 407.167,112.5 408.5,111.5C 408.5,112.833 408.5,114.167 408.5,115.5C 411.05,115.439 412.55,114.106 413,111.5C 413.252,105.47 413.752,99.4704 414.5,93.5C 413.051,91.3921 413.551,89.7255 416,88.5C 416.548,84.7132 417.714,81.2132 419.5,78C 418.748,77.3292 418.414,76.4959 418.5,75.5C 419.458,75.9528 420.292,76.6195 421,77.5C 421.333,71.1667 421.667,64.8333 422,58.5C 422.333,59.8333 422.667,61.1667 423,62.5C 423.671,63.2524 424.504,63.5858 425.5,63.5 Z"/></g>
<g><path style="opacity:0.196" fill="#c6cde3" d="M 105.5,72.5 C 106.687,75.9458 107.354,79.6125 107.5,83.5C 106.833,82.1667 106.167,80.8333 105.5,79.5C 105.5,77.1667 105.5,74.8333 105.5,72.5 Z"/></g>
<g><path style="opacity:0.643" fill="#8389ac" d="M 131.5,73.5 C 131.23,77.3576 129.897,80.691 127.5,83.5C 128.263,79.8632 129.597,76.5299 131.5,73.5 Z"/></g>
<g><path style="opacity:0.627" fill="#8388b8" d="M 286.5,76.5 C 289.696,77.9287 292.696,79.5954 295.5,81.5C 292.088,80.9579 289.088,79.6246 286.5,77.5C 286.5,77.1667 286.5,76.8333 286.5,76.5 Z"/></g>
<g><path style="opacity:0.149" fill="#acb2df" d="M 165.5,76.5 C 165.598,78.5529 164.931,80.2196 163.5,81.5C 163.5,80.8333 163.5,80.1667 163.5,79.5C 163.932,78.2905 164.599,77.2905 165.5,76.5 Z"/></g>
<g><path style="opacity:1" fill="#0d2173" d="M 222.5,79.5 C 222.5,80.1667 222.5,80.8333 222.5,81.5C 220.712,91.5667 218.712,101.567 216.5,111.5C 215.883,111.611 215.383,111.944 215,112.5C 214.503,114.81 214.337,117.143 214.5,119.5C 213.504,119.414 212.671,119.748 212,120.5C 210.949,128.37 209.116,136.037 206.5,143.5C 204.591,142.652 202.591,142.318 200.5,142.5C 200.264,145.226 201.097,147.559 203,149.5C 203.498,152.817 203.665,156.15 203.5,159.5C 202.167,159.5 200.833,159.5 199.5,159.5C 199.789,156.351 199.289,153.351 198,150.5C 195.357,149.024 193.19,147.024 191.5,144.5C 192.433,140.571 192.766,136.571 192.5,132.5C 191.5,132.5 190.5,132.5 189.5,132.5C 189.5,136.5 189.5,140.5 189.5,144.5C 188.167,144.5 186.833,144.5 185.5,144.5C 185.5,138.833 185.5,133.167 185.5,127.5C 184.5,127.5 183.5,127.5 182.5,127.5C 182.637,132.937 181.97,138.27 180.5,143.5C 179.646,142.478 178.646,141.645 177.5,141C 178.467,136.599 178.8,132.099 178.5,127.5C 180.169,124.951 181.835,122.284 183.5,119.5C 183.763,113.926 184.93,108.593 187,103.5C 187.744,95.6721 188.577,88.0055 189.5,80.5C 189.173,85.2137 189.507,89.8804 190.5,94.5C 191.192,93.9747 191.692,93.3081 192,92.5C 192.333,88.1667 192.667,83.8333 193,79.5C 198.226,79.7143 203.726,79.7143 209.5,79.5C 209.5,84.8333 209.5,90.1667 209.5,95.5C 210.833,95.5 212.167,95.5 213.5,95.5C 213.334,90.4889 213.501,85.4889 214,80.5C 215.011,79.6634 216.178,79.33 217.5,79.5C 217.215,81.288 217.548,82.9547 218.5,84.5C 219.489,82.4138 220.822,80.7471 222.5,79.5 Z"/></g>
<g><path style="opacity:1" fill="#1d245d" d="M 137.5,59.5 C 137.414,60.4959 137.748,61.3292 138.5,62C 134.526,68.4027 132.693,75.236 133,82.5C 132.105,85.7671 130.272,86.4338 127.5,84.5C 127.5,84.1667 127.5,83.8333 127.5,83.5C 129.897,80.691 131.23,77.3576 131.5,73.5C 132.931,72.2196 133.598,70.5529 133.5,68.5C 134.463,65.2558 135.796,62.2558 137.5,59.5 Z"/></g>
<g><path style="opacity:0.882" fill="#555f9a" d="M 358.5,77.5 C 359.021,80.6363 358.021,82.9696 355.5,84.5C 355.935,81.8427 356.935,79.5093 358.5,77.5 Z"/></g>
<g><path style="opacity:0.91" fill="#656aaa" d="M 388.5,81.5 C 387.602,86.534 385.935,91.2006 383.5,95.5C 384.292,90.1804 385.125,84.8471 386,79.5C 386.333,80.8333 386.667,82.1667 387,83.5C 387.278,82.5842 387.778,81.9175 388.5,81.5 Z"/></g>
<g><path style="opacity:1" fill="#282f79" d="M 266.5,103.5 C 255.972,99.2594 248.639,91.9261 244.5,81.5C 245.822,81.67 246.989,81.3366 248,80.5C 248.333,83.1667 248.667,85.8333 249,88.5C 252.153,89.4022 254.153,88.0689 255,84.5C 256.776,87.5556 256.943,90.7222 255.5,94C 257.167,94.3333 258.833,94.6667 260.5,95C 260.167,95.3333 259.833,95.6667 259.5,96C 262.117,98.4423 264.45,100.942 266.5,103.5 Z"/></g>
<g><path style="opacity:0.859" fill="#44466f" d="M 71.5,76.5 C 72.4745,77.635 73.6412,78.635 75,79.5C 76.2281,85.7813 77.0615,92.1146 77.5,98.5C 75.2109,91.3525 73.2109,84.0192 71.5,76.5 Z"/></g>
<g><path style="opacity:0.584" fill="#8d92b2" d="M 127.5,83.5 C 127.5,83.8333 127.5,84.1667 127.5,84.5C 126.784,87.5982 125.784,90.5982 124.5,93.5C 124.167,93.5 123.833,93.5 123.5,93.5C 124.263,89.8632 125.597,86.5299 127.5,83.5 Z"/></g>
<g><path style="opacity:0.859" fill="#565b93" d="M 300.5,84.5 C 304.976,85.6571 308.642,87.9905 311.5,91.5C 310.577,92.3029 309.577,92.4696 308.5,92C 306.218,88.9699 303.551,86.4699 300.5,84.5 Z"/></g>
<g><path style="opacity:0.122" fill="#c3cfee" d="M 396.5,79.5 C 398.835,85.5022 400.168,91.8356 400.5,98.5C 398.379,92.435 397.046,86.1017 396.5,79.5 Z"/></g>
<g><path style="opacity:0.027" fill="#b4c3df" d="M 311.5,91.5 C 313.404,91.7376 314.738,92.7376 315.5,94.5C 313.596,94.2624 312.262,93.2624 311.5,91.5 Z"/></g>
<g><path style="opacity:0.02" fill="#cad2e1" d="M 108.5,89.5 C 110.011,92.5443 110.678,95.8776 110.5,99.5C 108.989,96.4557 108.322,93.1224 108.5,89.5 Z"/></g>
<g><path style="opacity:1" fill="#2d316c" d="M 163.5,79.5 C 163.5,80.1667 163.5,80.8333 163.5,81.5C 162.031,86.4336 160.031,91.1003 157.5,95.5C 156.069,96.7804 155.402,98.4471 155.5,100.5C 152.736,107.684 149.736,114.684 146.5,121.5C 146.937,118.193 146.27,115.193 144.5,112.5C 144.624,111.893 144.957,111.56 145.5,111.5C 146.542,112.791 147.708,112.791 149,111.5C 149.72,107.111 151.387,103.111 154,99.5C 154.651,97.765 154.485,96.0983 153.5,94.5C 154.012,91.6493 155.679,90.3159 158.5,90.5C 158.5,88.1667 158.5,85.8333 158.5,83.5C 159.5,83.5 160.5,83.5 161.5,83.5C 161.551,81.4305 160.885,79.5971 159.5,78C 159.862,76.7753 160.362,75.6086 161,74.5C 161.099,76.6526 161.933,78.3192 163.5,79.5 Z"/></g>
<g><path style="opacity:1" fill="#0e298c" d="M 395.5,70.5 C 397.488,76.7066 399.488,83.04 401.5,89.5C 402.192,88.9747 402.692,88.3081 403,87.5C 403.667,91.5 404.333,91.5 405,87.5C 406.843,89.2615 408.176,91.9281 409,95.5C 409.817,101.016 409.651,106.35 408.5,111.5C 407.167,112.5 405.833,113.5 404.5,114.5C 404.737,113.209 404.404,112.209 403.5,111.5C 402.863,106.965 401.863,102.632 400.5,98.5C 400.168,91.8356 398.835,85.5022 396.5,79.5C 396.492,76.4552 396.159,73.4552 395.5,70.5 Z"/></g>
<g><path style="opacity:1" fill="#02248e" d="M 378.5,105.5 C 378.5,106.5 378.5,107.5 378.5,108.5C 377.262,110.214 376.595,112.214 376.5,114.5C 385.318,115.493 394.318,115.827 403.5,115.5C 402.737,116.268 401.737,116.768 400.5,117C 392.963,117.784 385.463,117.617 378,116.5C 372.954,117.751 372.62,119.085 377,120.5C 385,119.167 393,119.167 401,120.5C 403.667,120.278 406.001,119.278 408,117.5C 408.772,117.645 409.439,117.978 410,118.5C 410.346,120.218 410.846,121.885 411.5,123.5C 415.375,123.705 417.041,125.705 416.5,129.5C 412.524,130.331 408.524,130.497 404.5,130C 404.043,129.586 403.709,129.086 403.5,128.5C 405.369,127.376 407.369,126.543 409.5,126C 400.833,125.333 392.167,125.333 383.5,126C 382.833,126.333 382.167,126.667 381.5,127C 387.167,127.333 392.833,127.667 398.5,128C 399.337,129.011 399.67,130.178 399.5,131.5C 388.82,131.667 378.154,132.167 367.5,133C 377.822,133.791 388.155,134.291 398.5,134.5C 387.341,135.331 376.007,135.831 364.5,136C 363.272,138.14 361.605,139.807 359.5,141C 361.795,141.984 361.461,142.817 358.5,143.5C 358.167,144.5 357.833,145.5 357.5,146.5C 358.167,148.5 358.833,150.5 359.5,152.5C 359.523,154.067 359.023,155.4 358,156.5C 356.266,154.766 354.932,152.766 354,150.5C 353.667,145.833 353.333,141.167 353,136.5C 352.047,138.455 350.713,140.122 349,141.5C 348.517,142.448 348.351,143.448 348.5,144.5C 346.023,144.949 344.023,144.283 342.5,142.5C 344.005,140.496 345.672,138.663 347.5,137C 349.949,130.711 348.283,126.211 342.5,123.5C 342.912,119.346 343.912,115.346 345.5,111.5C 346.15,109.565 346.483,107.565 346.5,105.5C 348.818,103.815 349.818,101.481 349.5,98.5C 350.397,97.4019 351.23,97.4019 352,98.5C 352.483,97.552 352.649,96.552 352.5,95.5C 353.117,95.3893 353.617,95.056 354,94.5C 356.301,95.8672 358.801,96.5339 361.5,96.5C 361.5,94.5 361.5,92.5 361.5,90.5C 362.833,90.5 364.167,90.5 365.5,90.5C 365.34,92.1992 365.506,93.8659 366,95.5C 367.941,99.5537 368.775,99.2203 368.5,94.5C 370.167,94.5 371.833,94.5 373.5,94.5C 374.211,97.8638 373.044,100.197 370,101.5C 369.333,104.5 369.333,107.5 370,110.5C 372.32,106.524 374.987,102.857 378,99.5C 378.495,101.473 378.662,103.473 378.5,105.5 Z"/></g>
<g><path style="opacity:0.918" fill="#51589a" d="M 355.5,84.5 C 355.378,88.4641 354.378,92.1308 352.5,95.5C 352.649,96.552 352.483,97.552 352,98.5C 351.23,97.4019 350.397,97.4019 349.5,98.5C 350.988,93.5329 352.988,88.8662 355.5,84.5 Z"/></g>
<g><path style="opacity:0.247" fill="#b2bdd0" d="M 317.5,96.5 C 319.262,97.2623 320.262,98.5956 320.5,100.5C 318.738,99.7377 317.738,98.4044 317.5,96.5 Z"/></g>
<g><path style="opacity:0.157" fill="#adb4d5" d="M 157.5,95.5 C 157.598,97.5529 156.931,99.2196 155.5,100.5C 155.402,98.4471 156.069,96.7804 157.5,95.5 Z"/></g>
<g><path style="opacity:0.553" fill="#6f79a4" d="M 185.5,95.5 C 185.435,98.4282 184.768,101.095 183.5,103.5C 183.294,100.505 183.96,97.8383 185.5,95.5 Z"/></g>
<g><path style="opacity:0.09" fill="#c4cdec" d="M 320.5,100.5 C 321.906,100.973 322.573,101.973 322.5,103.5C 321.094,103.027 320.427,102.027 320.5,100.5 Z"/></g>
<g><path style="opacity:0.22" fill="#c2c8e1" d="M 78.5,103.5 C 79.404,104.209 79.7373,105.209 79.5,106.5C 78.7326,105.828 78.0659,104.995 77.5,104C 77.7284,103.601 78.0618,103.435 78.5,103.5 Z"/></g>
<g><path style="opacity:0.086" fill="#afbeda" d="M 349.5,98.5 C 349.818,101.481 348.818,103.815 346.5,105.5C 346.707,102.759 347.707,100.426 349.5,98.5 Z"/></g>
<g><path style="opacity:1" fill="#29306e" d="M 192.5,65.5 C 193.133,70.8915 192.133,75.8915 189.5,80.5C 188.577,88.0055 187.744,95.6721 187,103.5C 184.93,108.593 183.763,113.926 183.5,119.5C 181.835,122.284 180.169,124.951 178.5,127.5C 178.205,125.265 178.539,123.265 179.5,121.5C 180.315,120.571 181.148,119.571 182,118.5C 182.498,115.183 182.665,111.85 182.5,108.5C 182.216,106.585 182.549,104.919 183.5,103.5C 184.768,101.095 185.435,98.4282 185.5,95.5C 186.42,86.5704 188.087,77.9038 190.5,69.5C 191.167,68.1667 191.833,66.8333 192.5,65.5 Z"/></g>
<g><path style="opacity:0.137" fill="#adbcdd" d="M 383.5,95.5 C 382.796,100.29 381.129,104.623 378.5,108.5C 378.5,107.5 378.5,106.5 378.5,105.5C 380.167,102.167 381.833,98.8333 383.5,95.5 Z"/></g>
<g><path style="opacity:0.878" fill="#363b7e" d="M 266.5,103.5 C 271.737,104.579 276.737,106.246 281.5,108.5C 281.5,109.5 281.5,110.5 281.5,111.5C 280.391,111.443 279.391,111.11 278.5,110.5C 278.027,109.094 277.027,108.427 275.5,108.5C 272.008,107.59 269.008,105.924 266.5,103.5 Z"/></g>
<g><path style="opacity:0.059" fill="#d7ddf5" d="M 322.5,103.5 C 324.868,105.956 325.868,108.956 325.5,112.5C 324.265,109.67 323.265,106.67 322.5,103.5 Z"/></g>
<g><path style="opacity:0.643" fill="#9aa3d1" d="M 346.5,105.5 C 346.483,107.565 346.15,109.565 345.5,111.5C 344.5,112.833 343.5,114.167 342.5,115.5C 343.263,111.863 344.597,108.53 346.5,105.5 Z"/></g>
<g><path style="opacity:1" fill="#0e1964" d="M 113.5,118.5 C 115.964,114.556 117.63,110.223 118.5,105.5C 120.293,103.574 121.293,101.241 121.5,98.5C 123.213,97.3646 123.88,95.698 123.5,93.5C 123.833,93.5 124.167,93.5 124.5,93.5C 123.983,100.04 122.649,106.373 120.5,112.5C 121.822,112.67 122.989,112.337 124,111.5C 125.251,103.989 127.251,103.989 130,111.5C 134.097,111.306 138.263,111.306 142.5,111.5C 143.799,110.91 144.632,109.91 145,108.5C 145.483,109.448 145.649,110.448 145.5,111.5C 144.957,111.56 144.624,111.893 144.5,112.5C 146.27,115.193 146.937,118.193 146.5,121.5C 146.204,123.403 145.537,125.07 144.5,126.5C 143.883,126.389 143.383,126.056 143,125.5C 140.693,128.449 139.193,131.782 138.5,135.5C 132.846,141.47 130.513,140.137 131.5,131.5C 128.266,131.237 126.932,132.737 127.5,136C 129.488,139.64 131.488,143.307 133.5,147C 133.251,149.664 132.085,151.831 130,153.5C 129.505,155.473 129.338,157.473 129.5,159.5C 117.678,160.495 105.678,160.828 93.5,160.5C 93.5,159.167 93.5,157.833 93.5,156.5C 91.9568,148.536 90.6235,140.536 89.5,132.5C 90.9262,125.849 92.2595,119.182 93.5,112.5C 94.8333,112.5 96.1667,112.5 97.5,112.5C 97.3379,110.473 97.5045,108.473 98,106.5C 99.3957,104.473 101.062,104.14 103,105.5C 103.333,101.5 103.667,97.5 104,93.5C 104.71,94.9733 105.876,95.6399 107.5,95.5C 107.439,100.878 107.272,106.212 107,111.5C 107.667,108.833 108.333,108.833 109,111.5C 109.333,110.167 109.667,108.833 110,107.5C 110.333,110.833 110.667,114.167 111,117.5C 111.342,119.619 112.175,119.953 113.5,118.5 Z"/></g>
<g><path style="opacity:0.137" fill="#d8dbf0" d="M 110.5,99.5 C 111.785,102.589 112.451,105.922 112.5,109.5C 110.989,106.456 110.322,103.122 110.5,99.5 Z"/></g>
<g><path style="opacity:0.094" fill="#e0e0f7" d="M 121.5,98.5 C 121.293,101.241 120.293,103.574 118.5,105.5C 118.707,102.759 119.707,100.426 121.5,98.5 Z"/></g>
<g><path style="opacity:0.588" fill="#999ec5" d="M 123.5,93.5 C 123.88,95.698 123.213,97.3646 121.5,98.5C 121.402,96.4471 122.069,94.7804 123.5,93.5 Z"/></g>
<g><path style="opacity:0.071" fill="#bbc8e6" d="M 275.5,108.5 C 277.027,108.427 278.027,109.094 278.5,110.5C 276.973,110.573 275.973,109.906 275.5,108.5 Z"/></g>
<g><path style="opacity:0.047" fill="#d9ddf2" d="M 118.5,105.5 C 117.63,110.223 115.964,114.556 113.5,118.5C 113.5,117.5 113.5,116.5 113.5,115.5C 115.167,112.167 116.833,108.833 118.5,105.5 Z"/></g>
<g><path style="opacity:0.38" fill="#8f9fb4" d="M 216.5,111.5 C 216.198,114.373 215.531,117.039 214.5,119.5C 214.337,117.143 214.503,114.81 215,112.5C 215.383,111.944 215.883,111.611 216.5,111.5 Z"/></g>
<g><path style="opacity:0.302" fill="#97a3cc" d="M 283.5,113.5 C 285.027,113.427 286.027,114.094 286.5,115.5C 284.973,115.573 283.973,114.906 283.5,113.5 Z"/></g>
<g><path style="opacity:0.055" fill="#e3effb" d="M 400.5,98.5 C 401.863,102.632 402.863,106.965 403.5,111.5C 403.5,112.5 403.5,113.5 403.5,114.5C 394.5,114.5 385.5,114.5 376.5,114.5C 376.595,112.214 377.262,110.214 378.5,108.5C 378.714,110.144 378.38,111.644 377.5,113C 385.827,113.5 394.16,113.666 402.5,113.5C 401.574,108.537 400.908,103.537 400.5,98.5 Z"/></g>
<g><path style="opacity:0.859" fill="#454f76" d="M 182.5,108.5 C 182.665,111.85 182.498,115.183 182,118.5C 181.148,119.571 180.315,120.571 179.5,121.5C 180.057,116.948 181.057,112.615 182.5,108.5 Z"/></g>
<g><path style="opacity:0.892" fill="#424483" d="M 315.5,94.5 C 316.5,94.8333 317.167,95.5 317.5,96.5C 317.738,98.4044 318.738,99.7377 320.5,100.5C 320.427,102.027 321.094,103.027 322.5,103.5C 323.265,106.67 324.265,109.67 325.5,112.5C 326.883,118.244 326.55,123.91 324.5,129.5C 323.833,130.167 323.167,130.833 322.5,131.5C 323.784,123.45 323.617,115.45 322,107.5C 317.791,104.141 315.624,99.8079 315.5,94.5 Z"/></g>
<g><path style="opacity:0.616" fill="#8f9cc5" d="M 341.5,117.5 C 341.88,119.698 341.213,121.365 339.5,122.5C 339.402,120.447 340.069,118.78 341.5,117.5 Z"/></g>
<g><path style="opacity:0.059" fill="#c5cfe9" d="M 239.5,129.5 C 237.075,127.881 235.075,128.214 233.5,130.5C 233.5,129.5 233.5,128.5 233.5,127.5C 236.01,127.054 238.01,127.72 239.5,129.5 Z"/></g>
<g><path style="opacity:0.298" fill="#98aad0" d="M 288.5,127.5 C 288.443,128.609 288.11,129.609 287.5,130.5C 286.609,131.11 285.609,131.443 284.5,131.5C 285.5,129.833 286.833,128.5 288.5,127.5 Z"/></g>
<g><path style="opacity:0.992" fill="#4c548d" d="M 339.5,122.5 C 339.11,125.839 338.61,129.173 338,132.5C 337.329,131.748 336.496,131.414 335.5,131.5C 336.463,128.256 337.796,125.256 339.5,122.5 Z"/></g>
<g><path style="opacity:0.161" fill="#a2b3d0" d="M 324.5,129.5 C 324.293,132.241 323.293,134.574 321.5,136.5C 321.5,135.5 321.5,134.5 321.5,133.5C 322.338,133.158 322.672,132.492 322.5,131.5C 323.167,130.833 323.833,130.167 324.5,129.5 Z"/></g>
<g><path style="opacity:1" fill="#242d6c" d="M 239.5,129.5 C 241.403,129.796 243.07,130.463 244.5,131.5C 247.804,133.417 251.471,134.584 255.5,135C 262.679,135.821 269.679,135.655 276.5,134.5C 278.898,134.741 280.898,134.074 282.5,132.5C 282.842,131.662 283.508,131.328 284.5,131.5C 285.609,131.443 286.609,131.11 287.5,130.5C 286.137,132.373 284.47,134.039 282.5,135.5C 271.181,136.666 259.848,136.832 248.5,136C 244.858,134.117 241.025,132.617 237,131.5C 235.42,132.8 233.92,134.134 232.5,135.5C 232.216,133.585 232.549,131.919 233.5,130.5C 235.075,128.214 237.075,127.881 239.5,129.5 Z"/></g>
<g><path style="opacity:0.58" fill="#9aa5c9" d="M 335.5,131.5 C 335.88,133.698 335.213,135.365 333.5,136.5C 333.402,134.447 334.069,132.78 335.5,131.5 Z"/></g>
<g><path style="opacity:1" fill="#182a89" d="M 433.5,103.5 C 437.785,120.247 441.451,137.247 444.5,154.5C 444.5,156.5 444.5,158.5 444.5,160.5C 434.5,160.5 424.5,160.5 414.5,160.5C 414.025,157.238 413.025,154.238 411.5,151.5C 410.549,150.081 410.216,148.415 410.5,146.5C 410.5,144.833 410.5,143.167 410.5,141.5C 395.5,141.5 380.5,141.5 365.5,141.5C 365.5,142.833 365.5,144.167 365.5,145.5C 362.536,150.381 360.536,155.714 359.5,161.5C 359.167,161.5 358.833,161.5 358.5,161.5C 346.784,162.144 335.451,161.478 324.5,159.5C 326.074,157.898 326.741,155.898 326.5,153.5C 327.931,152.22 328.598,150.553 328.5,148.5C 328.328,147.508 328.662,146.842 329.5,146.5C 331.897,143.691 333.23,140.358 333.5,136.5C 335.213,135.365 335.88,133.698 335.5,131.5C 336.496,131.414 337.329,131.748 338,132.5C 338.61,129.173 339.11,125.839 339.5,122.5C 341.213,121.365 341.88,119.698 341.5,117.5C 341.328,116.508 341.662,115.842 342.5,115.5C 343.5,114.167 344.5,112.833 345.5,111.5C 343.912,115.346 342.912,119.346 342.5,123.5C 348.283,126.211 349.949,130.711 347.5,137C 345.672,138.663 344.005,140.496 342.5,142.5C 344.023,144.283 346.023,144.949 348.5,144.5C 348.351,143.448 348.517,142.448 349,141.5C 350.713,140.122 352.047,138.455 353,136.5C 353.333,141.167 353.667,145.833 354,150.5C 354.932,152.766 356.266,154.766 358,156.5C 359.023,155.4 359.523,154.067 359.5,152.5C 358.833,150.5 358.167,148.5 357.5,146.5C 357.833,145.5 358.167,144.5 358.5,143.5C 361.461,142.817 361.795,141.984 359.5,141C 361.605,139.807 363.272,138.14 364.5,136C 376.007,135.831 387.341,135.331 398.5,134.5C 404.578,133.407 404.578,134.573 398.5,138C 388.5,138.333 378.5,138.667 368.5,139C 383.121,139.434 397.621,139.601 412,139.5C 411.667,138.167 411.333,136.833 411,135.5C 412.667,134.833 414.333,134.167 416,133.5C 416.494,135.134 416.66,136.801 416.5,138.5C 415.5,138.5 414.5,138.5 413.5,138.5C 413.335,142.182 413.501,145.848 414,149.5C 416.017,152.144 416.85,155.144 416.5,158.5C 421.167,158.5 425.833,158.5 430.5,158.5C 431.582,154.246 432.249,149.913 432.5,145.5C 430.822,134.237 430.155,122.903 430.5,111.5C 431.5,111.5 432.5,111.5 433.5,111.5C 433.5,108.833 433.5,106.167 433.5,103.5 Z"/></g>
<g><path style="opacity:0.583" fill="#495892" d="M 403.5,111.5 C 404.404,112.209 404.737,113.209 404.5,114.5C 404.5,115.167 404.167,115.5 403.5,115.5C 394.318,115.827 385.318,115.493 376.5,114.5C 385.5,114.5 394.5,114.5 403.5,114.5C 403.5,113.5 403.5,112.5 403.5,111.5 Z"/></g>
<g><path style="opacity:1" fill="#242964" d="M 144.5,126.5 C 143.012,131.467 141.012,136.134 138.5,140.5C 137.504,140.414 136.671,140.748 136,141.5C 135.503,143.81 135.337,146.143 135.5,148.5C 135.672,149.492 135.338,150.158 134.5,150.5C 133.069,151.78 132.402,153.447 132.5,155.5C 132.672,156.492 132.338,157.158 131.5,157.5C 130.833,158.167 130.167,158.833 129.5,159.5C 129.338,157.473 129.505,155.473 130,153.5C 132.085,151.831 133.251,149.664 133.5,147C 131.488,143.307 129.488,139.64 127.5,136C 126.932,132.737 128.266,131.237 131.5,131.5C 130.513,140.137 132.846,141.47 138.5,135.5C 139.193,131.782 140.693,128.449 143,125.5C 143.383,126.056 143.883,126.389 144.5,126.5 Z"/></g>
<g><path style="opacity:1" fill="#2b327c" d="M 321.5,133.5 C 321.5,134.5 321.5,135.5 321.5,136.5C 321.34,138.153 320.674,139.486 319.5,140.5C 318.094,140.973 317.427,141.973 317.5,143.5C 315.5,146.167 313.167,148.5 310.5,150.5C 311.228,145.928 312.728,141.594 315,137.5C 317.617,136.781 319.784,135.447 321.5,133.5 Z"/></g>
<g><path style="opacity:0.012" fill="#b0b3cd" d="M 87.5,137.5 C 89.6548,143.786 91.6548,150.12 93.5,156.5C 93.5,157.833 93.5,159.167 93.5,160.5C 90.7422,153.14 88.7422,145.473 87.5,137.5 Z"/></g>
<g><path style="opacity:0.931" fill="#2d2f5c" d="M 79.5,106.5 C 80.2679,107.263 80.7679,108.263 81,109.5C 81.3076,108.692 81.8076,108.025 82.5,107.5C 83.038,116.49 85.3713,124.823 89.5,132.5C 90.6235,140.536 91.9568,148.536 93.5,156.5C 91.6548,150.12 89.6548,143.786 87.5,137.5C 84.3875,127.386 81.7208,117.053 79.5,106.5 Z"/></g>
<g><path style="opacity:0.031" fill="#c1c6df" d="M 176.5,136.5 C 176.59,139.152 175.924,141.485 174.5,143.5C 174.41,140.848 175.076,138.515 176.5,136.5 Z"/></g>
<g><path style="opacity:0.4" fill="#a1abc9" d="M 232.5,136.5 C 232.58,139.781 231.913,142.781 230.5,145.5C 230.42,142.219 231.087,139.219 232.5,136.5 Z"/></g>
<g><path style="opacity:0.729" fill="#5d5d88" d="M 138.5,140.5 C 138.02,143.443 137.02,146.11 135.5,148.5C 135.337,146.143 135.503,143.81 136,141.5C 136.671,140.748 137.504,140.414 138.5,140.5 Z"/></g>
<g><path style="opacity:1" fill="#0d227a" d="M 281.5,111.5 C 286.109,112.926 290.109,115.426 293.5,119C 291.877,122.42 290.877,126.087 290.5,130C 291.554,131.388 291.72,132.888 291,134.5C 290.751,133.376 290.251,132.376 289.5,131.5C 287.584,133.418 285.584,135.252 283.5,137C 279.514,137.499 275.514,137.666 271.5,137.5C 271.5,138.833 271.5,140.167 271.5,141.5C 266.156,141.334 260.823,141.501 255.5,142C 256.167,142.667 256.833,143.333 257.5,144C 262.155,144.499 266.821,144.666 271.5,144.5C 271.562,149.92 271.395,155.253 271,160.5C 276.072,161.471 281.238,161.805 286.5,161.5C 284.052,162.473 281.385,162.806 278.5,162.5C 268.148,162.601 257.815,162.267 247.5,161.5C 245.265,161.795 243.265,161.461 241.5,160.5C 239.162,158.96 236.495,158.294 233.5,158.5C 232.738,156.738 231.404,155.738 229.5,155.5C 230.051,152.193 230.384,148.86 230.5,145.5C 231.913,142.781 232.58,139.781 232.5,136.5C 232.5,136.167 232.5,135.833 232.5,135.5C 233.92,134.134 235.42,132.8 237,131.5C 241.025,132.617 244.858,134.117 248.5,136C 259.848,136.832 271.181,136.666 282.5,135.5C 284.47,134.039 286.137,132.373 287.5,130.5C 288.11,129.609 288.443,128.609 288.5,127.5C 288.921,123.258 288.254,119.258 286.5,115.5C 286.027,114.094 285.027,113.427 283.5,113.5C 282.5,113.167 281.833,112.5 281.5,111.5 Z"/></g>
<g><path style="opacity:0.169" fill="#bbc6de" d="M 244.5,131.5 C 254.992,134.092 265.658,135.092 276.5,134.5C 269.679,135.655 262.679,135.821 255.5,135C 251.471,134.584 247.804,133.417 244.5,131.5 Z"/></g>
<g><path style="opacity:0.063" fill="#dddff8" d="M 282.5,132.5 C 280.898,134.074 278.898,134.741 276.5,134.5C 278.214,133.262 280.214,132.595 282.5,132.5 Z"/></g>
<g><path style="opacity:0.024" fill="#cfd4f1" d="M 319.5,140.5 C 319.573,142.027 318.906,143.027 317.5,143.5C 317.427,141.973 318.094,140.973 319.5,140.5 Z"/></g>
<g><path style="opacity:0.525" fill="#828fb7" d="M 333.5,136.5 C 333.23,140.358 331.897,143.691 329.5,146.5C 329.872,142.703 331.206,139.37 333.5,136.5 Z"/></g>
<g><path style="opacity:0.085" fill="#d2e2fb" d="M 410.5,146.5 C 409.566,145.432 409.232,144.099 409.5,142.5C 395.496,142.333 381.496,142.5 367.5,143C 366.934,143.995 366.267,144.828 365.5,145.5C 365.5,144.167 365.5,142.833 365.5,141.5C 380.5,141.5 395.5,141.5 410.5,141.5C 410.5,143.167 410.5,144.833 410.5,146.5 Z"/></g>
<g><path style="opacity:1" fill="#1b236d" d="M 214.5,119.5 C 213.144,127.588 211.477,135.588 209.5,143.5C 207.777,145.78 207.111,148.447 207.5,151.5C 206.087,154.219 205.42,157.219 205.5,160.5C 194.162,160.667 182.828,160.5 171.5,160C 172.406,158.301 172.739,156.467 172.5,154.5C 172.659,150.709 173.325,147.042 174.5,143.5C 175.924,141.485 176.59,139.152 176.5,136.5C 176.42,133.219 177.087,130.219 178.5,127.5C 178.8,132.099 178.467,136.599 177.5,141C 178.646,141.645 179.646,142.478 180.5,143.5C 181.97,138.27 182.637,132.937 182.5,127.5C 183.5,127.5 184.5,127.5 185.5,127.5C 185.5,133.167 185.5,138.833 185.5,144.5C 186.833,144.5 188.167,144.5 189.5,144.5C 189.5,140.5 189.5,136.5 189.5,132.5C 190.5,132.5 191.5,132.5 192.5,132.5C 192.766,136.571 192.433,140.571 191.5,144.5C 193.19,147.024 195.357,149.024 198,150.5C 199.289,153.351 199.789,156.351 199.5,159.5C 200.833,159.5 202.167,159.5 203.5,159.5C 203.665,156.15 203.498,152.817 203,149.5C 201.097,147.559 200.264,145.226 200.5,142.5C 202.591,142.318 204.591,142.652 206.5,143.5C 209.116,136.037 210.949,128.37 212,120.5C 212.671,119.748 213.504,119.414 214.5,119.5 Z"/></g>
<g><path style="opacity:1" fill="#03269c" d="M 433.5,118.5 C 434.117,118.611 434.617,118.944 435,119.5C 436.026,124.785 436.693,130.118 437,135.5C 437.667,136.167 438.333,136.833 439,137.5C 439.167,139.833 439.333,142.167 439.5,144.5C 438.094,149.392 437.094,154.392 436.5,159.5C 435.5,159.5 434.5,159.5 433.5,159.5C 433.5,156.833 433.5,154.167 433.5,151.5C 434.5,151.5 435.5,151.5 436.5,151.5C 436.665,148.482 436.498,145.482 436,142.5C 434.572,139.582 433.405,136.582 432.5,133.5C 433.331,128.534 433.664,123.534 433.5,118.5 Z"/></g>
<g><path style="opacity:0.282" fill="#9394b3" d="M 209.5,143.5 C 209.198,146.373 208.531,149.039 207.5,151.5C 207.111,148.447 207.777,145.78 209.5,143.5 Z"/></g>
<g><path style="opacity:0.145" fill="#bdc9ea" d="M 365.5,145.5 C 364.398,151.3 362.398,156.633 359.5,161.5C 360.536,155.714 362.536,150.381 365.5,145.5 Z"/></g>
<g><path style="opacity:0.047" fill="#b0bbda" d="M 230.5,145.5 C 230.384,148.86 230.051,152.193 229.5,155.5C 229.167,155.5 228.833,155.5 228.5,155.5C 228.062,155.565 227.728,155.399 227.5,155C 228.32,151.687 229.32,148.521 230.5,145.5 Z"/></g>
<g><path style="opacity:0.078" fill="#c9d2ed" d="M 328.5,148.5 C 328.598,150.553 327.931,152.22 326.5,153.5C 326.402,151.447 327.069,149.78 328.5,148.5 Z"/></g>
<g><path style="opacity:0.133" fill="#bec5da" d="M 134.5,150.5 C 134.598,152.553 133.931,154.22 132.5,155.5C 132.402,153.447 133.069,151.78 134.5,150.5 Z"/></g>
<g><path style="opacity:0.42" fill="#374575" d="M 308.5,151.5 C 307.341,153.25 305.674,154.25 303.5,154.5C 304.048,151.916 305.715,150.916 308.5,151.5 Z"/></g>
<g><path style="opacity:0.055" fill="#b5bbd5" d="M 207.5,151.5 C 207.58,154.781 206.913,157.781 205.5,160.5C 205.42,157.219 206.087,154.219 207.5,151.5 Z"/></g>
<g><path style="opacity:0.745" fill="#596281" d="M 228.5,155.5 C 228.833,155.5 229.167,155.5 229.5,155.5C 231.404,155.738 232.738,156.738 233.5,158.5C 230.966,158.741 229.3,157.741 228.5,155.5 Z"/></g>
<g><path style="opacity:0.757" fill="#5b6296" d="M 303.5,154.5 C 301.421,156.873 298.754,158.206 295.5,158.5C 296.98,156.588 298.98,155.421 301.5,155C 300.304,154.346 300.304,153.846 301.5,153.5C 302.183,153.863 302.85,154.196 303.5,154.5 Z"/></g>
<g><path style="opacity:0.8" fill="#7274ac" d="M 326.5,153.5 C 326.741,155.898 326.074,157.898 324.5,159.5C 324.5,158.833 324.5,158.167 324.5,157.5C 324.66,155.847 325.326,154.514 326.5,153.5 Z"/></g>
<g><path style="opacity:0.235" fill="#a7b3d7" d="M 411.5,151.5 C 413.025,154.238 414.025,157.238 414.5,160.5C 414.5,160.833 414.5,161.167 414.5,161.5C 412.025,158.749 411.025,155.416 411.5,151.5 Z"/></g>
<g><path style="opacity:0.286" fill="#838ab8" d="M 233.5,158.5 C 236.495,158.294 239.162,158.96 241.5,160.5C 238.505,160.706 235.838,160.04 233.5,158.5 Z"/></g>
<g><path style="opacity:0.078" fill="#b8bce5" d="M 295.5,158.5 C 294.22,159.931 292.553,160.598 290.5,160.5C 291.78,159.069 293.447,158.402 295.5,158.5 Z"/></g>
<g><path style="opacity:0.392" fill="#71739c" d="M 131.5,157.5 C 131.67,158.822 131.337,159.989 130.5,161C 117.993,161.827 105.66,161.66 93.5,160.5C 105.678,160.828 117.678,160.495 129.5,159.5C 130.167,158.833 130.833,158.167 131.5,157.5 Z"/></g>
<g><path style="opacity:0.305" fill="#7277a1" d="M 172.5,154.5 C 172.739,156.467 172.406,158.301 171.5,160C 182.828,160.5 194.162,160.667 205.5,160.5C 194.765,161.177 183.931,161.844 173,162.5C 170.37,160.115 170.204,157.448 172.5,154.5 Z"/></g>
<g><path style="opacity:0.443" fill="#949cca" d="M 444.5,154.5 C 445.468,156.607 445.802,158.941 445.5,161.5C 435.015,162.717 424.682,162.717 414.5,161.5C 414.5,161.167 414.5,160.833 414.5,160.5C 424.5,160.5 434.5,160.5 444.5,160.5C 444.5,158.5 444.5,156.5 444.5,154.5 Z"/></g>
<g><path style="opacity:0.022" fill="#edf7fc" d="M 324.5,157.5 C 324.5,158.167 324.5,158.833 324.5,159.5C 335.451,161.478 346.784,162.144 358.5,161.5C 347.012,162.495 335.345,162.828 323.5,162.5C 323.216,160.585 323.549,158.919 324.5,157.5 Z"/></g>
<g><path style="opacity:0.208" fill="#7783ae" d="M 247.5,161.5 C 257.815,162.267 268.148,162.601 278.5,162.5C 274.347,163.166 270.013,163.499 265.5,163.5C 259.251,163.706 253.251,163.04 247.5,161.5 Z"/></g>
</svg>
